#N canvas 648 425 739 512 12;
#X msg 116 252 stop;
#X obj 343 295 *~;
#X obj 343 321 +~;
#X obj 343 414 *~;
#X obj 343 440 outlet~;
#X obj 188 292 table \$0-mimi;
#X obj 55 288 tabwrite~ \$0-mimi;
#X obj 313 350 tabread4~ \$0-mimi;
#X obj 335 239 inlet~;
#X obj 475 386 inlet~;
#X obj 186 259 inlet;
#X obj 15 178 inlet~;
#X obj -16 240 inlet;
#X obj 556 271 inlet;
#X connect 0 0 6 0;
#X connect 1 0 2 0;
#X connect 2 0 7 0;
#X connect 3 0 4 0;
#X connect 7 0 3 0;
#X connect 8 0 1 0;
#X connect 9 0 3 1;
#X connect 10 0 0 0;
#X connect 11 0 6 0;
#X connect 12 0 6 0;
#X connect 13 0 1 1;
