#N canvas 334 77 1171 533 16;
#X floatatom -388 322 7 0 0 0 - - -;
#X floatatom -472 286 9 0 0 0 - - -;
#X text 422 368 WIN;
#X floatatom -371 286 9 0 0 0 - - -;
#X obj 248 365 hsl 120 15 0 1 0 0 empty empty empty -2 -8 0 10 -57266
-1 -1 8913 1;
#X text 266 343 VOLFOLD;
#X obj 157 235 bng 25 250 50 0 empty empty empty 17 7 0 10 -167353
-1 -1;
#X text 122 287 SQ 0N;
#X floatatom -469 321 7 0 0 0 - - -;
#X text 364 267 Peaches;
#X obj 143 365 bng 25 250 50 0 empty empty empty 17 7 0 10 -167353
-1 -1;
#X text 123 342 TIKTOKERZ;
#X obj 175 366 hsl 50 25 0.001 0.9 0 0 empty empty empty -2 -8 0 10
-57266 -1 -1 0 1;
#X obj 116 365 bng 25 250 50 0 empty empty empty 17 7 0 10 -259941
-1 -1;
#X obj -647 205 FRRRRRRRRAM;
#X obj 252 402 hsl 120 15 0 250 0 0 empty empty empty -2 -8 0 10 -57266
-1 -1 0 1;
#X text 276 386 A M;
#X obj 118 412 hsl 110 12 0.001 900 0 0 empty empty empty -2 -8 0 10
-259758 -1 -1 0 1;
#X text 143 391 AMOUNT;
#X obj -429 411 s~ frama;
#X obj 255 496 hsl 180 20 0 59450 0 0 empty empty empty -2 -8 0 10
-134720 -1 -1 0 1;
#X obj 363 538 hsl 110 20 0.001 0.989 0 0 empty empty empty -2 -8 0
10 -259758 -1 -1 0 1;
#X text 387 513 FDBCK;
#X obj -228 559 laylong;
#X obj -227 588 s~ flolo;
#X obj -81 589 loadbang;
#X text 840 441 1 fra 2 flo 3 co;
#X obj 1013 716 +~;
#X obj 916 493 r~ frama;
#X obj 987 532 *~;
#X obj 1020 494 r~ flolo;
#X obj 1032 533 *~;
#X obj 558 532 hsl 80 15 0 0.6 0 0 empty empty empty -2 -8 0 10 -101696
-1 -1 3489 1;
#X obj 938 596 *~;
#X obj 910 565 r~ coco;
#X obj 518 579 hsl 80 15 0 1 0 0 empty empty empty -2 -8 0 10 -232576
-1 -1 1145 1;
#X obj 988 594 *~;
#X obj 741 576 hsl 80 15 0 1 0 0 empty empty empty -2 -8 0 10 -257985
-1 -1 0 1;
#X obj 994 565 r~ lococ;
#X text 539 558 coco;
#X text 577 506 flolo;
#X text 745 551 lococ;
#X obj 987 630 +~;
#X obj 860 628 s~ locoroco;
#X obj 230 538 hsl 120 15 0 1 0 0 empty empty empty -2 -8 0 10 -57266
-1 -1 119 1;
#X text 236 514 cocoamount;
#X text -112 497 o i o s;
#X obj 248 329 hsl 120 15 0 0.5 0 0 empty empty empty -2 -8 0 10 -57266
-1 -1 0 1;
#X obj 683 528 hsl 80 15 0 1 0 0 empty empty empty -2 -8 0 10 -204800
-1 -1 5529 1;
#X msg 255 798 \; coco normalize \;;
#X msg 254 850 \; loco normalize \;;
#X obj 210 235 bng 45 250 50 0 empty empty empty 17 7 0 10 -216932
-1 -1;
#X obj 271 259 bng 40 250 50 0 empty empty empty 17 7 0 10 -98090 -1
-1;
#X obj 322 252 bng 20 250 50 0 empty empty empty 17 7 0 10 -253955
-1 -1;
#X obj 323 279 bng 20 250 50 0 empty empty empty 17 7 0 10 -249566
-1 -1;
#X obj 349 253 bng 20 250 50 0 empty empty empty 17 7 0 10 -7736 -1
-1;
#X obj 349 278 bng 20 250 50 0 empty empty empty 17 7 0 10 -248524
-1 -1;
#X text 278 237 &H;
#X text 204 280 << ~~;
#X obj 110 541 hsl 50 25 0.001 1.8 0 0 empty empty empty -2 -8 0 10
-57266 -1 -1 0 1;
#X text 689 502 NORMCORE;
#X text 230 305 PIEDROZA ONLINE;
#X obj 393 322 hsl 120 15 -70 52 0 0 empty empty empty -2 -8 0 10 -180173
-1 -1 7120 1;
#X obj 388 295 hsl 120 15 -92 85 0 0 empty empty empty -2 -8 0 10 -180173
-1 -1 6656 1;
#X msg 112 315 0;
#X obj 387 421 hsl 120 15 -2 1805 0 0 empty empty empty -2 -8 0 10
-243531 -1 -1 26 1;
#X obj 393 444 hsl 120 15 -2 1805 0 0 empty empty empty -2 -8 0 10
-243531 -1 -1 26 1;
#X msg 153 315 120;
#X obj -678 41 loadbang;
#X text 177 199 p i e d r o l o g y;
#X text -230 474 A M I K O S 2;
#N canvas 1456 295 450 339 tablasdemultiplicar 0;
#N canvas 0 0 450 300 (subpatch) 0;
#X array coco 1.485e+006 float 2;
#X coords 0 1 1.485e+006 -1 200 140 1 0 0;
#X restore 81 -2 graph;
#N canvas 0 0 450 300 (subpatch) 0;
#X array loco 1.485e+006 float 2;
#X coords 0 1 1.485e+006 -1 200 140 1 0 0;
#X restore 111 167 graph;
#X restore 254 901 pd tablasdemultiplicar;
#X text 101 227 [ ];
#X obj 253 441 hsl 120 15 0 0.89 0 0 empty empty empty -2 -8 0 10 -204800
-1 -1 1203 1;
#X text -188 20 A M I K O S;
#X msg -81 616 105;
#X obj -231 157 r time;
#X obj -161 153 r witm;
#X obj -299 89 r witt;
#X obj 384 395 hsl 120 15 -2 4805 0 0 empty empty empty -2 -8 0 10
-243531 -1 -1 10 1;
#X obj 275 -9 r lol;
#X obj 280 23 r lmao;
#X obj -25 11 r lola;
#X obj 122 -1 r carro;
#X obj -23 -19 r sama;
#X obj -314 220 r vo;
#X obj -314 248 r vol;
#X obj 706 -5 loadbang;
#X msg 710 29 \; eepo 104 \;;
#X obj 397 122 tgl 30 0 empty empty empty 17 7 0 10 -249797 -1 -1 0
1;
#X obj 461 -47 metro;
#X floatatom 501 -81 5 0 0 0 - - -;
#X obj 478 -15 metro;
#X floatatom 525 -47 5 0 0 0 - - -;
#X obj 515 19 metro;
#X obj 532 51 metro;
#X floatatom 579 19 5 0 0 0 - - -;
#X floatatom 552 -16 5 0 0 0 - - -;
#X obj 461 -235 t b b b b b b;
#X obj 398 163 bng 32 250 50 0 empty empty empty 17 7 0 10 -191407
-1 -1;
#X obj 521 -190 shuffle 12 4620 2200;
#X text 430 134 SelfPress;
#X text 440 173 SPZZ;
#X obj 875 201 shuffle -95 75 65;
#X obj 887 228 bucket 2;
#X obj 901 165 metro;
#X floatatom 969 86 5 0 0 0 - - -;
#X obj 390 226 tgl 42 0 empty empty empty 17 7 0 10 -110556 -1 -1 0
1;
#X obj 940 135 * 0.4;
#X obj 840 165 * 0.2;
#X text 440 268 Get Stitches;
#X obj 900 279 metro;
#X obj 437 225 tgl 25 0 empty empty empty 17 7 0 10 -110556 -1 -1 0
1;
#X obj -339 29 line;
#X obj -562 13 line;
#X obj -351 -10 line;
#X obj -470 30 metro;
#X obj -449 74 f;
#X obj -395 75 + 1;
#X obj -452 109 % 2;
#X obj 468 365 tgl 25 0 empty empty empty 17 7 0 10 -221056 -1 -1 0
1;
#X obj -405 106 sel 1 0;
#X msg -396 -37 2 549;
#X msg -497 -27 1802 599;
#X msg -408 -76 2 499;
#X msg -286 -50 1802 499;
#X obj -413 14 * 17;
#X obj -80 -175 f;
#X obj -26 -174 + 1;
#X obj -83 -140 % 2;
#X obj -36 -143 sel 1 0;
#X obj 79 -129 metro;
#X obj -87 -38 line;
#X obj 384 345 tgl 25 0 empty empty empty 17 7 0 10 -262144 -1 -1 0
1;
#X obj -204 -121 line;
#X msg -210 -150 88 9500;
#X msg -164 386 0;
#X obj 442 254 bng 15 250 50 0 empty empty empty 17 7 0 10 -262144
-1 -1;
#X obj 914 321 f;
#X obj 964 322 + 1;
#X obj 915 356 % 2;
#X obj 956 354 sel 0 1;
#X msg 955 386 12;
#X msg 1002 383 0;
#X obj 1038 288 metro;
#X obj 1052 330 f;
#X obj 1102 331 + 1;
#X msg 1093 395 12;
#X msg 1140 392 0;
#X obj 1053 365 % 4;
#X obj 1100 362 sel 0 1 2 3;
#X msg 1189 397 -12;
#X msg 1236 394 7;
#X obj 471 226 tgl 15 0 empty empty empty 17 7 0 10 -262144 -1 -1 0
1;
#X obj 1157 446 f;
#X obj 1207 447 + 1;
#X msg 1245 508 0;
#X obj 1158 481 % 4;
#X obj 1205 478 sel 0 1 2 3;
#X msg 1198 511 -12;
#X msg 1294 513 12;
#X msg 1341 510 -7;
#X obj 1061 253 * 0.5;
#X obj 1199 244 metro;
#X obj 1213 286 f;
#X obj 1263 287 + 1;
#X msg 1301 348 0;
#X obj 1222 209 * 0.5;
#X msg 1254 351 -12;
#X msg 1350 353 -24;
#X obj 1214 321 % 8;
#X obj 1316 303 sel 0 1 2 3 4 5 6 7;
#X msg 1491 349 0;
#X msg 1540 354 -24;
#X msg 1587 351 7;
#X obj 472 254 tgl 15 0 empty empty empty 17 7 0 10 -262144 -1 -1 0
1;
#X msg 1444 352 -12;
#X msg 1395 339 0;
#X floatatom 214 562 12 0 0 0 - - -;
#X msg -227 -178 -20 2500;
#X msg -110 -95 -38 2500;
#X msg -93 -67 98 9500;
#N canvas 212 18 1367 916 press 0;
#X obj 55 30 key;
#X floatatom 51 73 5 0 0 0 - - -;
#X obj 98 35 sel 113;
#X obj 108 73 s uni;
#X obj 195 33 key;
#X floatatom 191 76 5 0 0 0 - - -;
#X obj 238 38 sel 119;
#X obj 248 76 s unito;
#X obj 48 112 key;
#X floatatom 44 155 5 0 0 0 - - -;
#X obj 91 117 sel 101;
#X obj 101 155 s madox;
#X obj 200 114 key;
#X floatatom 196 147 5 0 0 0 - - -;
#X obj 243 119 sel 50;
#X obj 253 147 s madoxx;
#X obj 67 195 key;
#X floatatom 63 228 5 0 0 0 - - -;
#X obj 110 200 sel 49;
#X obj 120 228 s madxx;
#X obj 201 198 key;
#X floatatom 197 231 5 0 0 0 - - -;
#X obj 244 203 sel 51;
#X obj 254 231 s mad;
#X obj 324 198 key;
#X floatatom 320 231 5 0 0 0 - - -;
#X obj 377 231 s dmpoe;
#X obj 352 -3 key;
#X floatatom 348 30 5 0 0 0 - - -;
#X obj 388 -3 sel 124;
#X obj 406 26 f;
#X obj 350 55 t f;
#X obj 447 27 - 1;
#X floatatom 391 56 5 0 0 0 - - -;
#X obj 447 56 moses -93;
#X floatatom 494 102 5 0 0 0 - - -;
#X obj 353 91 key;
#X floatatom 349 124 5 0 0 0 - - -;
#X obj 407 120 f;
#X obj 351 149 t f;
#X obj 448 121 + 1;
#X obj 389 91 sel 52;
#X obj 399 150 moses 84;
#X obj 506 133 s quep;
#X obj 464 198 key;
#X floatatom 460 231 5 0 0 0 - - -;
#X obj 507 203 sel 53;
#X obj 517 231 s dmh;
#X obj 367 203 sel 27;
#X obj 584 -4 key;
#X floatatom 580 29 5 0 0 0 - - -;
#X obj 638 25 f;
#X obj 582 54 t f;
#X obj 679 26 - 1;
#X floatatom 623 55 5 0 0 0 - - -;
#X obj 679 55 moses -93;
#X floatatom 726 101 5 0 0 0 - - -;
#X obj 585 90 key;
#X floatatom 581 123 5 0 0 0 - - -;
#X obj 639 119 f;
#X obj 583 148 t f;
#X obj 680 120 + 1;
#X obj 631 149 moses 84;
#X obj 620 -4 sel 9;
#X obj 621 90 sel 114;
#X obj 728 139 s quepop;
#X obj 580 200 key;
#X floatatom 576 233 5 0 0 0 - - -;
#X obj 623 205 sel 116;
#X obj 633 233 s dmm;
#X obj 60 264 key;
#X floatatom 56 297 5 0 0 0 - - -;
#X obj 103 269 sel 54;
#X obj 113 297 s dmoe;
#X obj 197 262 key;
#X floatatom 193 295 5 0 0 0 - - -;
#X obj 240 267 sel 121;
#X obj 250 295 s cientovein;
#X obj 393 262 key;
#X floatatom 389 295 5 0 0 0 - - -;
#X obj 436 267 sel 55;
#X obj 446 295 s cv;
#X obj 513 267 key;
#X floatatom 509 300 5 0 0 0 - - -;
#X obj 556 272 sel 56;
#X obj 566 300 s cvv;
#X obj 730 192 key;
#X floatatom 726 225 5 0 0 0 - - -;
#X obj 784 221 f;
#X obj 728 250 t f;
#X floatatom 769 251 5 0 0 0 - - -;
#X floatatom 872 297 5 0 0 0 - - -;
#X obj 731 286 key;
#X floatatom 727 319 5 0 0 0 - - -;
#X obj 785 315 f;
#X obj 729 344 t f;
#X obj 825 251 moses -2;
#X obj 777 345 moses 1806;
#X obj 897 336 s epop;
#X obj 766 192 sel 111;
#X obj 767 286 sel 112;
#X obj 749 391 key;
#X floatatom 745 424 5 0 0 0 - - -;
#X obj 803 420 f;
#X obj 747 449 t f;
#X floatatom 788 450 5 0 0 0 - - -;
#X floatatom 891 496 5 0 0 0 - - -;
#X obj 750 485 key;
#X floatatom 746 518 5 0 0 0 - - -;
#X obj 804 514 f;
#X obj 748 543 t f;
#X obj 844 450 moses -2;
#X obj 796 544 moses 1806;
#X obj 785 391 sel 39;
#X obj 786 485 sel 191;
#X obj 916 535 s eipop;
#X obj 845 515 + 4;
#X obj 844 421 - 4;
#X obj 826 316 + 8;
#X obj 852 229 - 8;
#X obj 490 379 key;
#X floatatom 486 412 5 0 0 0 - - -;
#X obj 544 408 f;
#X obj 488 437 t f;
#X floatatom 529 438 5 0 0 0 - - -;
#X floatatom 632 484 5 0 0 0 - - -;
#X obj 491 473 key;
#X floatatom 487 506 5 0 0 0 - - -;
#X obj 545 502 f;
#X obj 489 531 t f;
#X obj 585 438 moses -2;
#X obj 526 379 sel 108;
#X obj 527 473 sel 241;
#X obj 657 523 s keipop;
#X obj 537 532 moses 4806;
#X obj 586 503 + 12;
#X obj 585 409 - 16;
#X obj 347 329 key;
#X floatatom 343 362 5 0 0 0 - - -;
#X obj 390 334 sel 43;
#X obj 400 362 s ccb;
#X obj 862 11 key;
#X floatatom 858 44 5 0 0 0 - - -;
#X obj 916 40 f;
#X obj 860 69 t f;
#X floatatom 901 70 5 0 0 0 - - -;
#X floatatom 986 105 5 0 0 0 - - -;
#X obj 863 105 key;
#X floatatom 859 138 5 0 0 0 - - -;
#X obj 917 134 f;
#X obj 861 163 t f;
#X obj 957 70 moses -2;
#X obj 909 164 moses 1806;
#X obj 898 11 sel 122;
#X obj 1024 136 s elop;
#X obj 899 105 sel 118;
#X obj 957 41 - 128;
#X obj 958 135 + 254;
#X obj 981 11 key;
#X floatatom 1015 40 5 0 0 0 - - -;
#X obj 1072 41 f;
#X obj 1050 70 t f;
#X obj 1091 72 key;
#X floatatom 1059 104 5 0 0 0 - - -;
#X obj 1117 100 f;
#X obj 1096 131 t f;
#X obj 1158 101 + 2;
#X obj 1113 42 - 1;
#X obj 1017 11 sel 120;
#X obj 1127 72 sel 99;
#X obj 1033 315 key;
#X floatatom 1029 348 5 0 0 0 - - -;
#X obj 1087 344 f;
#X obj 1031 373 t f;
#X floatatom 1072 374 5 0 0 0 - - -;
#X floatatom 1197 414 5 0 0 0 - - -;
#X obj 1034 409 key;
#X floatatom 1030 442 5 0 0 0 - - -;
#X obj 1088 438 f;
#X obj 1032 467 t f;
#X obj 1128 374 moses -2;
#X obj 1080 468 moses 1806;
#X obj 1069 315 sel 44;
#X obj 1070 409 sel 46;
#X obj 1128 345 - 0.01;
#X obj 1200 459 s murr;
#X obj 1129 439 + 0.01;
#X text 918 199 K O M AA N D O;
#X text 920 209 K O M AA N D O;
#X text 928 209 K O M AA N D O;
#X text 930 219 K O M AA N D O;
#X text 938 219 K O M AA N D O;
#X text 940 229 K O M AA N D O;
#X text 948 229 K O M AA N D O;
#X text 950 239 K O M AA N D O;
#X text 963 247 K O M AA N D O;
#X text 965 257 K O M AA N D O;
#X text 525 340 K O M AA N D O;
#X text 975 267 K O M AA N D O;
#X text 275 454 K O M AA N D O;
#X text 985 277 K O M AA N D O;
#X text 993 277 K O M AA N D O;
#X text 1032 288 K O M AA N D O;
#X obj 1005 565 key;
#X obj 1005 593 sel 45;
#X obj 1001 621 f;
#X obj 1046 623 + 1;
#X floatatom 1048 652 5 0 0 0 - - -;
#X msg 1011 710 0;
#X msg 1176 708 0.999;
#X obj 1010 789 s ayuda;
#X msg 1062 710 0.09;
#X msg 1113 708 0.145;
#X msg 1111 736 0.265;
#X msg 1032 737 0.465;
#X msg 1234 709 0.6999;
#X obj 999 655 % 8;
#X obj 1048 679 sel 0 1 2 3 4 5 6 7;
#X msg 1176 737 0.749;
#X text 135 368 K O M AA N D O;
#X text 102 502 K O M AA N D O;
#X text 155 388 K O M AA N D O;
#X text 613 388 K O M AA N D O;
#X text 77 449 K O M AA N D O;
#X text 185 418 K O M AA N D O;
#X text 195 428 K O M AA N D O;
#X text 278 439 K O M AA N D O;
#X text 187 519 K O M AA N D O;
#X text 112 512 K O M AA N D O;
#X text 173 469 K O M AA N D O;
#X text 209 523 K O M AA N D O;
#X text 195 428 K O M AA N D O;
#X text 597 367 K O M AA N D O;
#X text 288 449 K O M AA N D O;
#X text 197 529 K O M AA N D O;
#X text 122 522 K O M AA N D O;
#X text 183 479 K O M AA N D O;
#X text 97 469 K O M AA N D O;
#X text 205 438 K O M AA N D O;
#X text 98 431 K O M AA N D O;
#X text 191 395 K O M AA N D O;
#X text 100 475 K O M AA N D O;
#X text 25 468 K O M AA N D O;
#X text 86 425 K O M AA N D O;
#X text 0 415 K O M AA N D O;
#X text 108 384 K O M AA N D O;
#X text 118 394 K O M AA N D O;
#X obj 671 557 key;
#X obj 667 613 f;
#X obj 712 615 + 1;
#X floatatom 714 644 5 0 0 0 - - -;
#X msg 677 702 0;
#X msg 842 700 0.999;
#X msg 728 702 0.09;
#X msg 779 700 0.145;
#X msg 777 728 0.265;
#X msg 698 729 0.465;
#X msg 900 701 0.6999;
#X obj 665 647 % 8;
#X obj 714 671 sel 0 1 2 3 4 5 6 7;
#X msg 842 729 0.749;
#X obj 671 585 sel 102;
#X obj 676 781 s ayua;
#X obj 362 587 key;
#X obj 358 643 f;
#X obj 403 645 + 1;
#X floatatom 405 674 5 0 0 0 - - -;
#X msg 368 732 0;
#X msg 533 730 0.999;
#X msg 419 732 0.09;
#X msg 470 730 0.145;
#X msg 459 784 0.265;
#X msg 389 759 0.465;
#X msg 591 731 0.6999;
#X obj 405 701 sel 0 1 2 3 4 5 6 7;
#X msg 533 759 0.749;
#X obj 362 615 sel 103;
#X obj 367 811 s ay;
#X obj 356 677 % 6;
#X obj 58 574 key;
#X obj 54 630 f;
#X obj 99 632 + 1;
#X floatatom 190 628 5 0 0 0 - - -;
#X msg 78 544 0;
#X msg 243 542 0.999;
#X msg 129 544 0.09;
#X msg 180 542 0.145;
#X msg 168 575 0.265;
#X msg 99 571 0.465;
#X msg 301 543 0.6999;
#X obj 140 604 sel 0 1 2 3 4 5 6 7;
#X msg 243 571 0.749;
#X obj 58 602 sel 104;
#X obj 44 669 s aalo;
#X obj 141 631 % 8;
#X obj 48 743 key;
#X obj 44 799 f;
#X obj 89 801 + 1;
#X floatatom 180 797 5 0 0 0 - - -;
#X msg 68 713 0;
#X msg 233 711 0.999;
#X msg 119 713 0.09;
#X msg 170 711 0.145;
#X msg 158 744 0.265;
#X msg 89 740 0.465;
#X msg 291 712 0.6999;
#X obj 130 773 sel 0 1 2 3 4 5 6 7;
#X msg 233 740 0.749;
#X obj 131 800 % 8;
#X obj 48 771 sel 106;
#X obj 34 838 s jaalo;
#X text 816 799 K O M AA N D O;
#X text 804 805 K O M AA N D O;
#X obj 665 850 key;
#X obj 661 906 f;
#X obj 706 908 + 1;
#X floatatom 797 904 5 0 0 0 - - -;
#X msg 685 820 0;
#X msg 850 818 0.999;
#X msg 736 820 0.09;
#X msg 787 818 0.145;
#X msg 775 851 0.265;
#X msg 706 847 0.465;
#X msg 908 819 0.6999;
#X obj 747 880 sel 0 1 2 3 4 5 6 7;
#X msg 850 847 0.749;
#X obj 748 907 % 8;
#X obj 665 878 sel 97;
#X obj 651 945 s khaalo;
#X text 328 895 K O M AA N D O;
#X obj 189 940 key;
#X obj 185 996 f;
#X obj 230 998 + 1;
#X floatatom 321 994 5 0 0 0 - - -;
#X msg 209 910 0;
#X msg 432 909 0.6999;
#X obj 255 835 sel 0 1 2 3 4 5 6 7;
#X obj 189 968 sel 115;
#X obj 175 1035 s khaa;
#X msg 311 908 0.045;
#X msg 260 910 0.02;
#X msg 326 868 0.05265;
#X msg 230 937 0.08465;
#X msg 374 937 0.1749;
#X msg 452 939 0.299;
#X obj 272 997 % 8;
#X obj 1109 1049 s kkloid;
#X obj 502 1018 key;
#X obj 498 1074 f;
#X obj 543 1076 + 1;
#X floatatom 634 1072 5 0 0 0 - - -;
#X msg 522 988 0;
#X obj 584 1048 sel 0 1 2 3 4 5 6 7;
#X obj 585 1075 % 8;
#X obj 502 1046 sel 107;
#X obj 488 1113 s kklo;
#X obj 1049 932 key;
#X obj 1045 988 f;
#X obj 1090 990 + 1;
#X floatatom 1181 986 5 0 0 0 - - -;
#X msg 1069 902 0;
#X msg 1234 900 0.999;
#X msg 1120 902 0.09;
#X msg 1171 900 0.145;
#X msg 1159 933 0.265;
#X msg 1090 929 0.465;
#X msg 1292 901 0.6999;
#X obj 1131 962 sel 0 1 2 3 4 5 6 7;
#X msg 1234 929 0.749;
#X obj 1132 989 % 8;
#X msg 573 988 25;
#X msg 624 986 45;
#X msg 612 1019 60;
#X msg 543 1015 80.5;
#X msg 687 1015 142;
#X msg 745 987 187;
#X msg 687 986 250;
#X obj 1049 960 sel 100;
#X connect 0 0 1 0;
#X connect 1 0 2 0;
#X connect 2 0 3 0;
#X connect 4 0 5 0;
#X connect 5 0 6 0;
#X connect 6 0 7 0;
#X connect 8 0 9 0;
#X connect 9 0 10 0;
#X connect 10 0 11 0;
#X connect 12 0 13 0;
#X connect 13 0 14 0;
#X connect 14 0 15 0;
#X connect 16 0 17 0;
#X connect 17 0 18 0;
#X connect 18 0 19 0;
#X connect 20 0 21 0;
#X connect 21 0 22 0;
#X connect 22 0 23 0;
#X connect 24 0 25 0;
#X connect 25 0 48 0;
#X connect 27 0 28 0;
#X connect 28 0 29 0;
#X connect 29 0 30 0;
#X connect 30 0 32 0;
#X connect 31 0 30 1;
#X connect 32 0 33 0;
#X connect 33 0 31 0;
#X connect 33 0 34 0;
#X connect 33 0 39 0;
#X connect 33 0 42 0;
#X connect 34 1 35 0;
#X connect 35 0 43 0;
#X connect 36 0 37 0;
#X connect 37 0 41 0;
#X connect 38 0 40 0;
#X connect 39 0 38 1;
#X connect 40 0 33 0;
#X connect 41 0 38 0;
#X connect 42 0 35 0;
#X connect 44 0 45 0;
#X connect 45 0 46 0;
#X connect 46 0 47 0;
#X connect 48 0 26 0;
#X connect 49 0 50 0;
#X connect 50 0 63 0;
#X connect 51 0 53 0;
#X connect 52 0 51 1;
#X connect 53 0 54 0;
#X connect 54 0 52 0;
#X connect 54 0 55 0;
#X connect 54 0 60 0;
#X connect 54 0 62 0;
#X connect 55 1 56 0;
#X connect 56 0 65 0;
#X connect 57 0 58 0;
#X connect 58 0 64 0;
#X connect 59 0 61 0;
#X connect 60 0 59 1;
#X connect 61 0 54 0;
#X connect 62 0 56 0;
#X connect 63 0 51 0;
#X connect 64 0 59 0;
#X connect 66 0 67 0;
#X connect 67 0 68 0;
#X connect 68 0 69 0;
#X connect 70 0 71 0;
#X connect 71 0 72 0;
#X connect 72 0 73 0;
#X connect 74 0 75 0;
#X connect 75 0 76 0;
#X connect 76 0 77 0;
#X connect 78 0 79 0;
#X connect 79 0 80 0;
#X connect 80 0 81 0;
#X connect 82 0 83 0;
#X connect 83 0 84 0;
#X connect 84 0 85 0;
#X connect 86 0 87 0;
#X connect 87 0 99 0;
#X connect 88 0 119 0;
#X connect 89 0 88 1;
#X connect 90 0 89 0;
#X connect 90 0 95 0;
#X connect 90 0 96 0;
#X connect 90 0 97 0;
#X connect 91 0 98 0;
#X connect 92 0 93 0;
#X connect 93 0 100 0;
#X connect 94 0 118 0;
#X connect 95 0 94 1;
#X connect 96 1 91 0;
#X connect 97 0 91 0;
#X connect 99 0 88 0;
#X connect 100 0 94 0;
#X connect 101 0 102 0;
#X connect 102 0 113 0;
#X connect 103 0 117 0;
#X connect 104 0 103 1;
#X connect 105 0 104 0;
#X connect 105 0 110 0;
#X connect 105 0 111 0;
#X connect 105 0 112 0;
#X connect 106 0 115 0;
#X connect 107 0 108 0;
#X connect 108 0 114 0;
#X connect 109 0 116 0;
#X connect 110 0 109 1;
#X connect 111 1 106 0;
#X connect 112 0 106 0;
#X connect 113 0 103 0;
#X connect 114 0 109 0;
#X connect 116 0 105 0;
#X connect 117 0 105 0;
#X connect 118 0 90 0;
#X connect 119 0 90 0;
#X connect 120 0 121 0;
#X connect 121 0 131 0;
#X connect 122 0 136 0;
#X connect 123 0 122 1;
#X connect 124 0 123 0;
#X connect 124 0 129 0;
#X connect 124 0 130 0;
#X connect 124 0 134 0;
#X connect 125 0 133 0;
#X connect 126 0 127 0;
#X connect 127 0 132 0;
#X connect 128 0 135 0;
#X connect 129 0 128 1;
#X connect 130 1 125 0;
#X connect 131 0 122 0;
#X connect 132 0 128 0;
#X connect 134 0 125 0;
#X connect 135 0 124 0;
#X connect 136 0 124 0;
#X connect 137 0 138 0;
#X connect 138 0 139 0;
#X connect 139 0 140 0;
#X connect 141 0 142 0;
#X connect 142 0 153 0;
#X connect 143 0 156 0;
#X connect 144 0 143 1;
#X connect 145 0 144 0;
#X connect 145 0 150 0;
#X connect 145 0 151 0;
#X connect 145 0 152 0;
#X connect 145 0 165 0;
#X connect 145 0 161 0;
#X connect 146 0 154 0;
#X connect 147 0 148 0;
#X connect 148 0 155 0;
#X connect 149 0 157 0;
#X connect 150 0 149 1;
#X connect 151 1 146 0;
#X connect 152 0 146 0;
#X connect 153 0 143 0;
#X connect 155 0 149 0;
#X connect 156 0 145 0;
#X connect 157 0 145 0;
#X connect 158 0 159 0;
#X connect 159 0 168 0;
#X connect 160 0 167 0;
#X connect 161 0 160 1;
#X connect 162 0 163 0;
#X connect 163 0 169 0;
#X connect 164 0 166 0;
#X connect 165 0 164 1;
#X connect 166 0 145 0;
#X connect 167 0 145 0;
#X connect 168 0 160 0;
#X connect 169 0 164 0;
#X connect 170 0 171 0;
#X connect 171 0 182 0;
#X connect 172 0 184 0;
#X connect 173 0 172 1;
#X connect 174 0 173 0;
#X connect 174 0 179 0;
#X connect 174 0 180 0;
#X connect 174 0 181 0;
#X connect 175 0 185 0;
#X connect 176 0 177 0;
#X connect 177 0 183 0;
#X connect 178 0 186 0;
#X connect 179 0 178 1;
#X connect 180 1 175 0;
#X connect 181 0 175 0;
#X connect 182 0 172 0;
#X connect 183 0 178 0;
#X connect 184 0 174 0;
#X connect 186 0 174 0;
#X connect 203 0 204 0;
#X connect 204 0 205 0;
#X connect 205 0 206 0;
#X connect 205 0 216 0;
#X connect 206 0 205 1;
#X connect 207 0 217 0;
#X connect 208 0 210 0;
#X connect 209 0 210 0;
#X connect 211 0 210 0;
#X connect 212 0 210 0;
#X connect 213 0 210 0;
#X connect 214 0 210 0;
#X connect 215 0 210 0;
#X connect 216 0 207 0;
#X connect 217 0 208 0;
#X connect 217 1 211 0;
#X connect 217 2 212 0;
#X connect 217 3 213 0;
#X connect 217 4 214 0;
#X connect 217 5 215 0;
#X connect 217 6 218 0;
#X connect 217 7 209 0;
#X connect 218 0 210 0;
#X connect 247 0 261 0;
#X connect 248 0 249 0;
#X connect 248 0 258 0;
#X connect 249 0 248 1;
#X connect 250 0 259 0;
#X connect 251 0 262 0;
#X connect 252 0 262 0;
#X connect 253 0 262 0;
#X connect 254 0 262 0;
#X connect 255 0 262 0;
#X connect 256 0 262 0;
#X connect 257 0 262 0;
#X connect 258 0 250 0;
#X connect 259 0 251 0;
#X connect 259 1 253 0;
#X connect 259 2 254 0;
#X connect 259 3 255 0;
#X connect 259 4 256 0;
#X connect 259 5 257 0;
#X connect 259 6 260 0;
#X connect 259 7 252 0;
#X connect 260 0 262 0;
#X connect 261 0 248 0;
#X connect 263 0 276 0;
#X connect 264 0 265 0;
#X connect 264 0 278 0;
#X connect 265 0 264 1;
#X connect 266 0 274 0;
#X connect 267 0 277 0;
#X connect 268 0 277 0;
#X connect 269 0 277 0;
#X connect 270 0 277 0;
#X connect 271 0 277 0;
#X connect 272 0 277 0;
#X connect 273 0 277 0;
#X connect 274 0 267 0;
#X connect 274 1 269 0;
#X connect 274 2 270 0;
#X connect 274 3 271 0;
#X connect 274 4 272 0;
#X connect 274 5 273 0;
#X connect 274 6 275 0;
#X connect 274 7 268 0;
#X connect 274 8 272 0;
#X connect 275 0 277 0;
#X connect 276 0 264 0;
#X connect 278 0 266 0;
#X connect 279 0 292 0;
#X connect 280 0 281 0;
#X connect 280 0 294 0;
#X connect 281 0 280 1;
#X connect 282 0 290 0;
#X connect 283 0 293 0;
#X connect 284 0 293 0;
#X connect 285 0 293 0;
#X connect 286 0 293 0;
#X connect 287 0 293 0;
#X connect 288 0 293 0;
#X connect 289 0 293 0;
#X connect 290 0 283 0;
#X connect 290 1 285 0;
#X connect 290 2 286 0;
#X connect 290 3 287 0;
#X connect 290 4 288 0;
#X connect 290 5 289 0;
#X connect 290 6 291 0;
#X connect 290 7 284 0;
#X connect 290 8 288 0;
#X connect 291 0 293 0;
#X connect 292 0 280 0;
#X connect 294 0 282 0;
#X connect 295 0 309 0;
#X connect 296 0 297 0;
#X connect 296 0 308 0;
#X connect 297 0 296 1;
#X connect 298 0 306 0;
#X connect 299 0 310 0;
#X connect 300 0 310 0;
#X connect 301 0 310 0;
#X connect 302 0 310 0;
#X connect 303 0 310 0;
#X connect 304 0 310 0;
#X connect 305 0 310 0;
#X connect 306 0 299 0;
#X connect 306 1 301 0;
#X connect 306 2 302 0;
#X connect 306 3 303 0;
#X connect 306 4 304 0;
#X connect 306 5 305 0;
#X connect 306 6 307 0;
#X connect 306 7 300 0;
#X connect 306 8 304 0;
#X connect 307 0 310 0;
#X connect 308 0 298 0;
#X connect 309 0 296 0;
#X connect 313 0 327 0;
#X connect 314 0 315 0;
#X connect 314 0 326 0;
#X connect 315 0 314 1;
#X connect 316 0 324 0;
#X connect 317 0 328 0;
#X connect 318 0 328 0;
#X connect 319 0 328 0;
#X connect 320 0 328 0;
#X connect 321 0 328 0;
#X connect 322 0 328 0;
#X connect 323 0 328 0;
#X connect 324 0 317 0;
#X connect 324 1 319 0;
#X connect 324 2 320 0;
#X connect 324 3 321 0;
#X connect 324 4 322 0;
#X connect 324 5 323 0;
#X connect 324 6 325 0;
#X connect 324 7 318 0;
#X connect 324 8 322 0;
#X connect 325 0 328 0;
#X connect 326 0 316 0;
#X connect 327 0 314 0;
#X connect 330 0 337 0;
#X connect 331 0 332 0;
#X connect 331 0 345 0;
#X connect 332 0 331 1;
#X connect 333 0 336 0;
#X connect 334 0 338 0;
#X connect 335 0 338 0;
#X connect 336 0 334 0;
#X connect 336 1 340 0;
#X connect 336 2 339 0;
#X connect 336 3 341 0;
#X connect 336 4 342 0;
#X connect 336 5 335 0;
#X connect 336 6 343 0;
#X connect 336 7 344 0;
#X connect 336 8 342 0;
#X connect 337 0 331 0;
#X connect 339 0 338 0;
#X connect 340 0 338 0;
#X connect 341 0 338 0;
#X connect 342 0 338 0;
#X connect 343 0 338 0;
#X connect 344 0 338 0;
#X connect 345 0 333 0;
#X connect 347 0 354 0;
#X connect 348 0 349 0;
#X connect 348 0 353 0;
#X connect 349 0 348 1;
#X connect 350 0 352 0;
#X connect 351 0 355 0;
#X connect 352 0 351 0;
#X connect 352 1 370 0;
#X connect 352 2 371 0;
#X connect 352 3 372 0;
#X connect 352 4 373 0;
#X connect 352 5 375 0;
#X connect 352 6 374 0;
#X connect 352 7 376 0;
#X connect 352 8 373 0;
#X connect 353 0 350 0;
#X connect 354 0 348 0;
#X connect 356 0 377 0;
#X connect 357 0 358 0;
#X connect 357 0 369 0;
#X connect 358 0 357 1;
#X connect 359 0 367 0;
#X connect 360 0 346 0;
#X connect 361 0 346 0;
#X connect 362 0 346 0;
#X connect 363 0 346 0;
#X connect 364 0 346 0;
#X connect 365 0 346 0;
#X connect 366 0 346 0;
#X connect 367 0 360 0;
#X connect 367 1 362 0;
#X connect 367 2 363 0;
#X connect 367 3 364 0;
#X connect 367 4 365 0;
#X connect 367 5 366 0;
#X connect 367 6 368 0;
#X connect 367 7 361 0;
#X connect 367 8 365 0;
#X connect 368 0 346 0;
#X connect 369 0 359 0;
#X connect 370 0 355 0;
#X connect 371 0 355 0;
#X connect 372 0 355 0;
#X connect 373 0 355 0;
#X connect 374 0 355 0;
#X connect 375 0 355 0;
#X connect 376 0 355 0;
#X connect 377 0 357 0;
#X restore 1153 89 pd press;
#X obj 367 53 r uni;
#X obj 443 58 r unito;
#X obj 358 4 r madox;
#X obj 269 48 r madoxx;
#X obj 163 68 r madxx;
#X obj 601 72 r mad;
#X obj 601 44 r dmpoe;
#X obj 668 72 r quep;
#X obj 861 66 r dmh;
#X obj 759 72 r quepop;
#X obj 57 55 r dmm;
#X obj 918 42 r dmoe;
#X obj 822 -5 r cientovein;
#X obj 963 9 r cv;
#X obj 838 224 r cvv;
#X obj 1071 745 r epop;
#X obj 1028 790 r eipop;
#X obj 1150 782 r keipop;
#X obj 868 419 r ccb;
#X obj 1208 616 loadbang;
#X msg 1210 669 1;
#X obj 1084 205 r elop;
#X obj 850 511 r murr;
#X obj 828 823 r ayuda;
#X obj 843 784 r ayua;
#X obj 923 820 r ay;
#X obj 708 829 r aalo;
#X obj 605 827 r jaalo;
#X obj 520 822 r khaalo;
#X obj -118 817 r khaa;
#X obj -309 437 r kkloid;
#X obj -230 710 r kklo;
#X obj 1163 721 s~ satoriarepo;
#X obj 1474 555 s daysago;
#X obj 1160 564 s dianaalicia;
#X obj 1341 600 s olivera;
#X obj 1451 496 s wero;
#X obj 1346 666 s elcartel;
#X obj -70 274 s bolos;
#X obj -15 400 s bololo;
#X obj -164 316 s coma;
#X obj -122 320 s palosvergazos;
#X obj -28 450 s malondra;
#X obj 162 686 s jons;
#X obj 1061 857 s leche;
#X msg -619 -53 2 1499;
#X msg -274 -11 1802 1499;
#X obj -364 586 s papax;
#X obj 860 689 s cocacola2;
#X obj 418 872 s vuela;
#X obj -69 263 s superduper;
#X obj -238 651 s ama;
#X obj 359 -101 metro;
#X floatatom 399 -135 5 0 0 0 - - -;
#X obj 482 -123 t t t t t t;
#X obj 839 111 bucket 11;
#X obj 1108 633 s auau;
#X obj 1039 431 s mallgr;
#X obj 1117 541 s reflujo;
#X obj 1250 157 s manicure;
#X obj 921 654 s~ gokun;
#X obj 1161 881 s lecheii;
#X obj 1057 682 s~ nappann;
#X obj 1030 121 Cocoaudicione;
#X obj 629 245 tgl 50 0 empty empty empty 17 7 0 10 -261182 -1 -1 0
1;
#X obj 743 244 tgl 50 0 empty empty empty 17 7 0 10 -257985 -1 -1 0
1;
#X obj 548 343 hsl 128 15 -5 5 0 0 empty empty empty -2 -8 0 10 -232576
-1 -1 6350 1;
#X obj 571 423 tgl 50 0 empty empty empty 17 7 0 10 -261682 -1 -1 0
1;
#X obj 640 412 tgl 50 0 empty empty empty 17 7 0 10 -260507 -1 -1 0
1;
#X text 619 211 G R A B;
#X text 728 210 G R A B;
#X text 642 323 P E A C H;
#X text 565 403 FLIP;
#X text 648 465 SKIP;
#X obj 543 388 hsl 128 15 0 500000 0 0 empty empty empty -2 -8 0 10
-203904 -1 -1 0 1;
#X obj 779 429 tgl 50 0 empty empty empty 17 7 0 10 -261682 -1 -1 0
1;
#X obj 711 415 tgl 50 0 empty empty empty 17 7 0 10 -260507 -1 -1 0
1;
#X text 784 405 FLIP;
#X text 712 469 SKIP;
#X text 641 362 R A T E E;
#X text 687 191 * W *;
#X text 686 255 * o *;
#X text 684 309 * U *;
#X obj 697 342 hsl 128 15 -5 5 0 0 empty empty empty -2 -8 0 10 -232576
-1 -1 6350 1;
#X obj 697 389 hsl 128 15 0 500000 0 0 empty empty empty -2 -8 0 10
-203904 -1 -1 0 1;
#X obj 1226 830 s~ elmanala;
#X obj 633 567 cyclone/out~;
#X obj 108 437 bng 50 250 50 0 empty empty empty 17 7 0 10 -261819
-1 -1;
#X text 267 416 AGAIN;
#X text 294 471 T I M E;
#X obj 92 647 s swoop;
#X text 105 491 PHAZZ;
#X text 188 157 7 u7;
#X text 293 180 7u 7;
#X text 173 433 OwO;
#X text 176 464 UwU;
#X text 106 607 UnU;
#X text 317 138 7 m7;
#X text 213 122 7W 7;
#X text 375 563 7 u7;
#X text 192 605 7u 7;
#X text 119 576 7 m7;
#X text 174 537 7W 7;
#X text 458 509 7 u7;
#X text 473 563 7u 7;
#X text 450 474 7W 7;
#X text 620 483 xd;
#X text 560 138 * W *;
#X text 553 203 * o *;
#X text 557 256 * U *;
#X text 772 105 * W *;
#X text 771 169 * o *;
#X text 769 223 * U *;
#X text 789 482 * W *;
#X text 788 546 * o *;
#X text 786 600 * U *;
#X text 281 600 A M I K O S V.3;
#X text 320 108 UnU;
#X text 241 161 * o *;
#X obj 38 562 s feba;
#X obj 109 510 hsl 50 25 0.001 1.2 0 0 empty empty empty -2 -8 0 10
-261562 -1 -1 0 1;
#X text 167 495 * W *;
#X obj 18 612 s nanotec;
#N canvas 615 369 1023 459 PIWPIW 0;
#X obj 57 58 key;
#X floatatom 57 86 5 0 0 0 - - -;
#X obj 54 146 bng 15 250 50 0 empty empty empty 17 7 0 10 -262144 -1
-1;
#X obj 79 146 bng 15 250 50 0 empty empty empty 17 7 0 10 -262144 -1
-1;
#X obj 126 151 bng 15 250 50 0 empty empty empty 17 7 0 10 -262144
-1 -1;
#X obj 151 151 bng 15 250 50 0 empty empty empty 17 7 0 10 -262144
-1 -1;
#X obj 196 150 bng 15 250 50 0 empty empty empty 17 7 0 10 -262144
-1 -1;
#X obj 221 150 bng 15 250 50 0 empty empty empty 17 7 0 10 -262144
-1 -1;
#X obj 268 155 bng 15 250 50 0 empty empty empty 17 7 0 10 -262144
-1 -1;
#X obj 293 155 bng 15 250 50 0 empty empty empty 17 7 0 10 -262144
-1 -1;
#X obj 331 157 bng 15 250 50 0 empty empty empty 17 7 0 10 -262144
-1 -1;
#X obj 381 157 bng 15 250 50 0 empty empty empty 17 7 0 10 -262144
-1 -1;
#X obj 405 155 bng 15 250 50 0 empty empty empty 17 7 0 10 -262144
-1 -1;
#X obj 430 155 bng 15 250 50 0 empty empty empty 17 7 0 10 -262144
-1 -1;
#X obj 485 150 bng 15 250 50 0 empty empty empty 17 7 0 10 -262144
-1 -1;
#X obj 510 150 bng 15 250 50 0 empty empty empty 17 7 0 10 -262144
-1 -1;
#X obj 548 152 bng 15 250 50 0 empty empty empty 17 7 0 10 -262144
-1 -1;
#X obj 573 152 bng 15 250 50 0 empty empty empty 17 7 0 10 -262144
-1 -1;
#X obj 57 113 sel 65 81 83 87 68 69 70 82 71 84 72 89 74 85 75 73 76
79 209 80, f 67;
#X obj 653 153 bng 15 250 50 0 empty empty empty 17 7 0 10 -262144
-1 -1;
#X obj 678 153 bng 15 250 50 0 empty empty empty 17 7 0 10 -262144
-1 -1;
#X obj 716 155 bng 15 250 50 0 empty empty empty 17 7 0 10 -262144
-1 -1;
#X obj 741 155 bng 15 250 50 0 empty empty empty 17 7 0 10 -262144
-1 -1;
#X obj 31 181 f;
#X obj 70 181 f;
#X obj 110 180 f;
#X obj 149 180 f;
#X obj 187 181 f;
#X obj 226 181 f;
#X obj 265 181 f;
#X obj 304 181 f;
#X obj 341 181 f;
#X obj 380 181 f;
#X obj 420 180 f;
#X obj 459 180 f;
#X obj 497 181 f;
#X obj 536 181 f;
#X obj 575 181 f;
#X obj 614 181 f;
#X obj 655 182 f;
#X obj 694 182 f;
#X obj 733 182 f;
#X obj 772 182 f;
#X obj 34 252 key;
#X floatatom 34 280 5 0 0 0 - - -;
#X obj 158 250 key;
#X floatatom 158 278 5 0 0 0 - - -;
#X obj 34 307 sel 90;
#X obj 161 307 sel 88;
#X obj 71 251 loadbang;
#X obj 97 279 bng 15 250 50 0 empty empty empty 17 7 0 10 -262144 -1
-1;
#X msg 116 279 5;
#X floatatom 103 307 5 0 0 0 - - -;
#X obj 34 338 f;
#X obj 26 394 % 17;
#X obj 163 336 f;
#X obj 163 364 + 1;
#X obj 172 393 % 17;
#X obj 34 366 - 1;
#X obj 83 339 t f f f;
#X obj 97 371 * 12;
#X obj 78 400 s zzhoop;
#X obj 30 216 r zzhoop;
#X obj 26 422 max 0;
#X obj 269 301 + 4;
#X obj 876 185 r zzhoop;
#X floatatom 527 363 5 0 0 0 - - -;
#X obj 527 390 mtof;
#X obj 246 253 + 2;
#X obj 208 255 + 7;
#X obj 282 253 + 9;
#X obj 362 253 + 11;
#X obj 377 292 + 14;
#X obj 404 355 + 16;
#X obj 837 317 + 21;
#X obj 464 267 + 19;
#X obj 553 253 + 21;
#X obj 600 253 + 22;
#X obj 651 254 + 24;
#X obj 698 253 + 26;
#X obj 320 294 + 10;
#X obj 745 253 + 29;
#X obj 794 254 + 36, f 5;
#X obj 899 254 + 40;
#X obj 949 267 + 47;
#X obj 912 327 + 50, f 5;
#X obj 582 389 / 281.626;
#X obj 582 417 s silipilili;
#X connect 0 0 1 0;
#X connect 1 0 18 0;
#X connect 2 0 23 0;
#X connect 3 0 24 0;
#X connect 4 0 25 0;
#X connect 5 0 26 0;
#X connect 6 0 27 0;
#X connect 7 0 28 0;
#X connect 8 0 29 0;
#X connect 9 0 30 0;
#X connect 10 0 31 0;
#X connect 11 0 32 0;
#X connect 12 0 33 0;
#X connect 13 0 34 0;
#X connect 14 0 35 0;
#X connect 15 0 36 0;
#X connect 16 0 37 0;
#X connect 17 0 38 0;
#X connect 18 0 2 0;
#X connect 18 1 3 0;
#X connect 18 2 4 0;
#X connect 18 3 5 0;
#X connect 18 4 6 0;
#X connect 18 5 7 0;
#X connect 18 6 8 0;
#X connect 18 7 9 0;
#X connect 18 8 10 0;
#X connect 18 9 11 0;
#X connect 18 10 12 0;
#X connect 18 11 13 0;
#X connect 18 12 14 0;
#X connect 18 13 15 0;
#X connect 18 14 16 0;
#X connect 18 15 17 0;
#X connect 18 16 19 0;
#X connect 18 17 20 0;
#X connect 18 18 21 0;
#X connect 18 19 22 0;
#X connect 19 0 39 0;
#X connect 20 0 40 0;
#X connect 21 0 41 0;
#X connect 22 0 42 0;
#X connect 23 0 66 0;
#X connect 24 0 66 0;
#X connect 25 0 66 0;
#X connect 26 0 66 0;
#X connect 27 0 66 0;
#X connect 28 0 66 0;
#X connect 29 0 66 0;
#X connect 30 0 66 0;
#X connect 31 0 66 0;
#X connect 32 0 66 0;
#X connect 33 0 66 0;
#X connect 34 0 66 0;
#X connect 35 0 66 0;
#X connect 36 0 66 0;
#X connect 37 0 66 0;
#X connect 38 0 66 0;
#X connect 39 0 66 0;
#X connect 40 0 66 0;
#X connect 41 0 66 0;
#X connect 42 0 66 0;
#X connect 43 0 44 0;
#X connect 44 0 47 0;
#X connect 45 0 46 0;
#X connect 46 0 48 0;
#X connect 47 0 53 0;
#X connect 48 0 55 0;
#X connect 49 0 50 0;
#X connect 50 0 51 0;
#X connect 51 0 52 0;
#X connect 52 0 59 0;
#X connect 53 0 58 0;
#X connect 54 0 63 0;
#X connect 55 0 56 0;
#X connect 56 0 57 0;
#X connect 57 0 52 0;
#X connect 58 0 54 0;
#X connect 59 0 53 1;
#X connect 59 1 60 0;
#X connect 59 2 55 1;
#X connect 60 0 61 0;
#X connect 62 0 23 1;
#X connect 62 0 64 0;
#X connect 62 0 68 0;
#X connect 62 0 69 0;
#X connect 62 0 70 0;
#X connect 62 0 71 0;
#X connect 62 0 72 0;
#X connect 62 0 73 0;
#X connect 62 0 75 0;
#X connect 62 0 80 0;
#X connect 63 0 52 0;
#X connect 64 0 27 1;
#X connect 65 0 74 0;
#X connect 65 0 76 0;
#X connect 65 0 77 0;
#X connect 65 0 78 0;
#X connect 65 0 79 0;
#X connect 65 0 81 0;
#X connect 65 0 82 0;
#X connect 65 0 83 0;
#X connect 65 0 84 0;
#X connect 65 0 85 0;
#X connect 66 0 67 0;
#X connect 67 0 86 0;
#X connect 68 0 25 1;
#X connect 69 0 24 1;
#X connect 70 0 26 1;
#X connect 71 0 28 1;
#X connect 72 0 30 1;
#X connect 73 0 31 1;
#X connect 74 0 39 1;
#X connect 75 0 32 1;
#X connect 76 0 33 1;
#X connect 77 0 34 1;
#X connect 78 0 35 1;
#X connect 79 0 36 1;
#X connect 80 0 29 1;
#X connect 81 0 37 1;
#X connect 82 0 38 1;
#X connect 83 0 40 1;
#X connect 84 0 41 1;
#X connect 85 0 42 1;
#X connect 86 0 87 0;
#X restore 1114 9 pd PIWPIW;
#X obj 542 683 r silipilili;
#X connect 0 0 14 5;
#X connect 1 0 14 7;
#X connect 3 0 14 9;
#X connect 4 0 14 4;
#X connect 6 0 14 0;
#X connect 8 0 14 1;
#X connect 10 0 14 19;
#X connect 12 0 14 18;
#X connect 13 0 14 13;
#X connect 14 0 19 0;
#X connect 15 0 14 6;
#X connect 15 0 234 0;
#X connect 17 0 14 14;
#X connect 20 0 23 1;
#X connect 20 0 178 0;
#X connect 20 0 230 0;
#X connect 20 0 232 0;
#X connect 21 0 23 2;
#X connect 21 0 227 0;
#X connect 23 0 24 0;
#X connect 25 0 75 0;
#X connect 27 0 268 0;
#X connect 27 0 269 0;
#X connect 27 0 269 1;
#X connect 28 0 29 0;
#X connect 29 0 27 0;
#X connect 29 0 215 0;
#X connect 30 0 31 0;
#X connect 31 0 27 1;
#X connect 32 0 31 1;
#X connect 33 0 42 0;
#X connect 33 0 243 0;
#X connect 34 0 33 0;
#X connect 35 0 33 1;
#X connect 35 0 239 0;
#X connect 36 0 42 1;
#X connect 36 0 245 0;
#X connect 37 0 36 1;
#X connect 37 0 244 0;
#X connect 38 0 36 0;
#X connect 42 0 27 0;
#X connect 42 0 43 0;
#X connect 44 0 23 0;
#X connect 44 0 231 0;
#X connect 47 0 14 2;
#X connect 47 0 225 0;
#X connect 48 0 29 1;
#X connect 51 0 14 16;
#X connect 52 0 14 17;
#X connect 52 0 233 0;
#X connect 53 0 14 11;
#X connect 53 0 222 0;
#X connect 54 0 14 12;
#X connect 54 0 223 0;
#X connect 55 0 14 10;
#X connect 55 0 221 0;
#X connect 56 0 14 8;
#X connect 56 0 224 0;
#X connect 59 0 305 0;
#X connect 62 0 8 0;
#X connect 62 0 219 0;
#X connect 63 0 0 0;
#X connect 63 0 216 0;
#X connect 64 0 63 0;
#X connect 64 0 62 0;
#X connect 65 0 1 0;
#X connect 65 0 217 0;
#X connect 66 0 3 0;
#X connect 66 0 218 0;
#X connect 67 0 65 0;
#X connect 67 0 66 0;
#X connect 68 0 67 0;
#X connect 68 0 64 0;
#X connect 73 0 14 15;
#X connect 73 0 226 0;
#X connect 76 0 20 0;
#X connect 77 0 66 0;
#X connect 78 0 65 0;
#X connect 78 0 79 0;
#X connect 79 0 14 20;
#X connect 79 0 220 0;
#X connect 85 0 47 0;
#X connect 86 0 4 0;
#X connect 87 0 88 0;
#X connect 89 0 237 0;
#X connect 90 0 53 0;
#X connect 91 0 90 1;
#X connect 92 0 56 0;
#X connect 93 0 92 1;
#X connect 94 0 55 0;
#X connect 95 0 54 0;
#X connect 96 0 95 1;
#X connect 97 0 94 1;
#X connect 98 0 100 0;
#X connect 98 1 100 0;
#X connect 98 2 100 0;
#X connect 98 3 100 0;
#X connect 98 4 100 0;
#X connect 98 5 100 0;
#X connect 99 0 98 0;
#X connect 100 0 238 0;
#X connect 103 0 104 0;
#X connect 104 0 63 0;
#X connect 104 1 62 0;
#X connect 105 0 103 0;
#X connect 106 0 108 0;
#X connect 107 0 105 0;
#X connect 108 0 105 1;
#X connect 109 0 59 0;
#X connect 111 0 138 0;
#X connect 112 0 111 0;
#X connect 113 0 66 0;
#X connect 114 0 65 0;
#X connect 115 0 79 0;
#X connect 116 0 117 0;
#X connect 117 0 118 0;
#X connect 117 0 119 0;
#X connect 118 0 117 1;
#X connect 119 0 121 0;
#X connect 120 0 116 0;
#X connect 121 0 122 0;
#X connect 121 0 228 0;
#X connect 121 0 124 0;
#X connect 121 1 229 0;
#X connect 121 1 123 0;
#X connect 121 1 125 0;
#X connect 122 0 113 0;
#X connect 123 0 114 0;
#X connect 124 0 115 0;
#X connect 125 0 115 0;
#X connect 126 0 116 1;
#X connect 127 0 128 0;
#X connect 127 0 129 0;
#X connect 128 0 127 1;
#X connect 129 0 130 0;
#X connect 130 0 180 0;
#X connect 130 0 135 0;
#X connect 130 1 181 0;
#X connect 130 1 179 0;
#X connect 131 0 127 0;
#X connect 132 0 62 0;
#X connect 133 0 131 0;
#X connect 134 0 63 0;
#X connect 135 0 134 0;
#X connect 136 0 63 0;
#X connect 136 0 62 0;
#X connect 137 0 136 0;
#X connect 138 0 139 0;
#X connect 138 0 140 0;
#X connect 139 0 138 1;
#X connect 140 0 141 0;
#X connect 141 0 142 0;
#X connect 141 1 143 0;
#X connect 142 0 63 0;
#X connect 143 0 63 0;
#X connect 144 0 145 0;
#X connect 144 0 154 0;
#X connect 145 0 146 0;
#X connect 145 0 149 0;
#X connect 146 0 145 1;
#X connect 147 0 63 0;
#X connect 148 0 63 0;
#X connect 149 0 150 0;
#X connect 150 0 147 0;
#X connect 150 1 148 0;
#X connect 150 2 151 0;
#X connect 150 3 152 0;
#X connect 151 0 63 0;
#X connect 152 0 63 0;
#X connect 153 0 144 0;
#X connect 154 0 155 0;
#X connect 154 0 157 0;
#X connect 155 0 154 1;
#X connect 156 0 62 0;
#X connect 157 0 158 0;
#X connect 158 0 159 0;
#X connect 158 1 156 0;
#X connect 158 2 160 0;
#X connect 158 3 161 0;
#X connect 159 0 62 0;
#X connect 160 0 62 0;
#X connect 162 0 144 1;
#X connect 163 0 164 0;
#X connect 164 0 165 0;
#X connect 164 0 170 0;
#X connect 165 0 164 1;
#X connect 166 0 63 0;
#X connect 167 0 163 1;
#X connect 168 0 63 0;
#X connect 169 0 63 0;
#X connect 170 0 171 0;
#X connect 171 0 168 0;
#X connect 171 1 166 0;
#X connect 171 2 169 0;
#X connect 171 3 177 0;
#X connect 171 5 176 0;
#X connect 171 6 172 0;
#X connect 171 7 173 0;
#X connect 172 0 63 0;
#X connect 173 0 63 0;
#X connect 175 0 163 0;
#X connect 176 0 62 0;
#X connect 177 0 63 0;
#X connect 179 0 134 0;
#X connect 180 0 132 0;
#X connect 181 0 132 0;
#X connect 183 0 55 0;
#X connect 184 0 56 0;
#X connect 185 0 54 0;
#X connect 186 0 53 0;
#X connect 187 0 52 0;
#X connect 188 0 89 0;
#X connect 189 0 99 0;
#X connect 190 0 63 0;
#X connect 191 0 137 0;
#X connect 192 0 62 0;
#X connect 193 0 175 0;
#X connect 194 0 153 0;
#X connect 195 0 107 0;
#X connect 196 0 133 0;
#X connect 197 0 120 0;
#X connect 198 0 65 0;
#X connect 199 0 66 0;
#X connect 200 0 79 0;
#X connect 201 0 13 0;
#X connect 202 0 203 0;
#X connect 203 0 10 0;
#X connect 204 0 20 0;
#X connect 205 0 44 0;
#X connect 206 0 21 0;
#X connect 207 0 48 0;
#X connect 208 0 32 0;
#X connect 209 0 35 0;
#X connect 210 0 37 0;
#X connect 211 0 4 0;
#X connect 212 0 47 0;
#X connect 213 0 73 0;
#X connect 214 0 15 0;
#X connect 228 0 114 0;
#X connect 229 0 113 0;
#X connect 235 0 52 0;
#X connect 236 0 235 1;
#X connect 237 0 92 0;
#X connect 237 1 90 0;
#X connect 237 2 94 0;
#X connect 237 3 95 0;
#X connect 237 4 235 0;
#X connect 238 0 91 0;
#X connect 238 1 93 0;
#X connect 238 2 97 0;
#X connect 238 3 96 0;
#X connect 238 4 106 0;
#X connect 238 5 109 0;
#X connect 238 6 111 1;
#X connect 238 7 131 1;
#X connect 238 8 162 0;
#X connect 238 9 167 0;
#X connect 238 10 236 0;
#X connect 246 0 249 0;
#X connect 246 1 257 0;
#X connect 246 2 266 0;
#X connect 246 3 267 0;
#X connect 247 0 246 5;
#X connect 248 0 246 7;
#X connect 249 0 246 1;
#X connect 250 0 246 3;
#X connect 251 0 246 2;
#X connect 257 0 246 0;
#X connect 258 0 246 6;
#X connect 259 0 246 8;
#X connect 266 0 246 9;
#X connect 267 0 246 4;
#X connect 270 0 273 0;
#X connect 303 0 302 0;
#X connect 307 0 249 0;
#X coords 0 -1 1 1 750 540 1 100 100;
