#N canvas 791 230 1014 670 16;
#X obj 39 520 vd~ FRRAM;
#X obj 312 12 adc~;
#X obj 313 48 *~;
#X obj 411 109 +~;
#X obj 423 451 line~;
#X obj 170 553 *~;
#X obj 45 483 +~;
#X obj 61 447 *~;
#X obj 210 410 phasor~;
#X obj 108 448 *~ 0.5;
#X obj 162 519 cos~;
#X obj 181 446 +~ 0.5;
#X obj 192 483 wrap~;
#X obj 241 519 vd~ FRRAM;
#X obj 235 552 *~;
#X obj 262 481 +~;
#X obj 263 446 *~;
#X obj 310 447 *~ 0.5;
#X obj 364 518 cos~;
#X obj 196 585 +~;
#X obj 425 415 pack 0 212;
#X obj 425 382 max 1.5;
#X floatatom 427 339 5 0 0 0 - - -;
#X obj 163 374 /;
#X floatatom 141 407 5 0 0 0 - - -;
#X obj 220 375 t b f;
#X obj 293 378 pack 0 198;
#X obj 297 411 line~;
#X obj 204 341 * 0.001;
#X obj 296 311 max 1;
#X floatatom 304 258 5 0 0 0 - - -;
#X obj 108 374 * -1;
#X obj 100 344 - 1;
#X floatatom 147 341 5 0 0 0 - - -;
#X obj 211 300 exp;
#X obj 97 297 * 0.05776;
#X floatatom 115 257 5 0 0 0 - - -;
#X obj 304 480 -~ 0.2557;
#X obj 85 482 -~ 0.2557;
#X text 293 218 window;
#X text 421 304 deladju;
#X text 107 227 Peach;
#X obj 376 775 outlet~;
#X obj 126 166 inlet;
#X obj 226 233 inlet;
#X obj 416 273 inlet;
#X floatatom 364 43 3 0 1.7 0 - - -;
#X obj -71 104 t b b b b;
#X floatatom -108 148 3 0 0 0 - - -;
#X floatatom -66 146 3 -24 24 0 - - -;
#X floatatom -24 147 3 -24 24 0 - - -;
#X floatatom 20 147 3 -24 24 0 - - -;
#X obj 67 123 shufzzz;
#X obj 66 74 tgl 15 0 empty empty empty 17 7 0 10 -262144 -1 -1 0 1
;
#X floatatom 104 91 5 0 0 0 - - -;
#X obj -118 64 metro;
#X obj -164 74 tgl 15 0 empty empty empty 17 7 0 10 -262144 -1 -1 0
1;
#X floatatom -41 70 5 0 0 0 - - -;
#X obj 90 24 inlet;
#X text 479 123 A M MODULATZ;
#X obj -102 25 inlet;
#X obj -61 -10 t b b;
#X text -18 36 S E Q U E N C I A;
#X text -91 408 F R E Q O S H I F T;
#X obj 443 44 *~ 0.4;
#X obj 302 83 s~ moi;
#X obj 446 10 r~ moi;
#X obj 861 456 line~;
#X obj 608 558 *~;
#X obj 483 488 +~;
#X obj 499 452 *~;
#X obj 648 415 phasor~;
#X obj 546 453 *~ 0.5;
#X obj 600 524 cos~;
#X obj 619 451 +~ 0.5;
#X obj 630 488 wrap~;
#X obj 673 557 *~;
#X obj 700 486 +~;
#X obj 701 451 *~;
#X obj 748 452 *~ 0.5;
#X obj 802 523 cos~;
#X obj 634 590 +~;
#X obj 863 420 pack 0 212;
#X obj 863 387 max 1.5;
#X floatatom 865 344 5 0 0 0 - - -;
#X obj 601 379 /;
#X floatatom 579 412 5 0 0 0 - - -;
#X obj 658 380 t b f;
#X obj 731 383 pack 0 198;
#X obj 735 416 line~;
#X obj 642 346 * 0.001;
#X obj 734 316 max 1;
#X floatatom 742 263 5 0 0 0 - - -;
#X obj 546 379 * -1;
#X obj 538 349 - 1;
#X floatatom 585 346 5 0 0 0 - - -;
#X obj 649 305 exp;
#X obj 535 302 * 0.05776;
#X floatatom 553 262 5 0 0 0 - - -;
#X obj 742 485 -~ 0.2557;
#X obj 523 487 -~ 0.2557;
#X text 728 235 window;
#X text 859 309 deladju;
#X text 545 232 Peach;
#X text 863 494 T I K T O K E R Z Z;
#X obj 114 619 s~ freak;
#X obj 477 525 vd~ SRAM;
#X obj 679 524 vd~ SRAM;
#X obj 357 147 delwrite~ FRRAM 4500;
#X obj 709 202 delwrite~ SRAM 5000;
#X obj 614 151 r~ freak;
#X obj 808 252 r wiu;
#X obj 865 282 r diu;
#X obj 955 238 loadbang;
#X msg 948 274 \; wiu 120 \; diu 62.8 \;;
#X obj 391 600 count;
#X obj 359 658 *~;
#X obj 382 633 tgl 15 0 empty empty empty 17 7 0 10 -262144 -1 -1 1
1;
#X obj 409 635 tgl 15 0 empty empty empty 17 7 0 10 -262144 -1 -1 0
1;
#X obj 430 660 *~;
#X obj 315 689 *~ 0.84;
#X obj 431 695 *~ 0.84;
#X obj 419 563 bng 15 250 50 0 empty empty empty 17 7 0 10 -262144
-1 -1;
#X obj 919 65 count;
#X obj 852 59 metro;
#X obj 844 5 tgl 15 0 empty empty empty 17 7 0 10 -262144 -1 -1 1 1
;
#X floatatom 870 21 5 0 0 0 - - -;
#X obj 955 141 line;
#X floatatom 950 177 5 0 0 0 - - -;
#X obj 897 167 *;
#X msg 890 101 200 500;
#X msg 883 139 0 500;
#X obj -2 261 inlet;
#X obj 789 57 inlet;
#X obj 1027 177 inlet;
#X obj 1063 451 inlet;
#X obj 223 76 inlet;
#X floatatom 637 114 5 0 2000 0 - - -;
#X obj 798 120 inlet;
#X obj 638 75 throw~ fuego;
#X obj 135 -30 catch~ fuego;
#X obj 146 7 *~;
#X floatatom 219 7 5 0 2 0 - - -;
#X obj 8 6 inlet;
#X obj 533 -71 bng 15 250 50 0 empty empty empty 17 7 0 10 -262144
-1 -1;
#X obj 662 -74 bng 15 250 50 0 empty empty empty 17 7 0 10 -262144
-1 -1;
#X text 655 -98 <<;
#X obj 686 -65 bng 15 250 50 0 empty empty empty 17 7 0 10 -262144
-1 -1;
#X text 679 -89 >>;
#X obj 634 -71 bng 15 250 50 0 empty empty empty 17 7 0 10 -262144
-1 -1;
#X text 627 -95 ff;
#X obj 538 -49 piedr00000000;
#X floatatom 567 -83 5 0 0 0 - - -;
#X text 515 -93 &h;
#X text 642 -149 sqrtt;
#X floatatom 639 -125 5 0 0 0 - - -;
#X text 554 -114 dovve1;
#X floatatom 565 -171 5 0 0 0 - - -;
#X text 570 -160 dovve2;
#X obj 398 -1 *~;
#X obj 441 76 *~ 0.08;
#X obj 552 78 *~ 250;
#X obj 770 -89 count;
#X obj 718 -22 *~;
#X obj 776 -53 tgl 15 0 empty empty empty 17 7 0 10 -262144 -1 -1 0
1;
#X obj 803 -51 tgl 15 0 empty empty empty 17 7 0 10 -262144 -1 -1 0
1;
#X obj 809 -29 *~;
#X obj 798 -126 bng 15 250 50 0 empty empty empty 17 7 0 10 -262144
-1 -1;
#X obj 571 38 +~;
#X obj 721 29 +~;
#X obj 860 -112 inlet;
#X obj 905 -49 inlet;
#X obj 433 -85 inlet;
#X obj 383 -120 inlet;
#X obj 722 -138 inlet;
#X obj 115 -107 motex/shuffle 0 850 785;
#X obj 461 -157 inlet;
#X obj 130 -74 cyclone/bucket 2;
#X obj 1034 43 bng 15 250 50 0 empty empty empty 17 7 0 10 -262144
-1 -1;
#X obj 31 -90 inlet;
#X obj 243 119 r~ flolo;
#X obj 233 161 *~;
#X floatatom 305 175 5 0 3 0 - - -;
#X obj 802 323 inlet;
#X obj 1139 305 inlet;
#X obj -112 195 zexy/multiplex 1 2 3 4;
#X obj 569 -129 / 64;
#X obj 471 -18 s mnmn;
#X obj 971 709 sel 1 0;
#X obj 956 634 r swoop;
#X obj 912 663 tgl 15 0 empty empty empty 17 7 0 10 -262144 -1 -1 0
1;
#X obj 878 726 line;
#X obj 948 696 tgl 15 0 empty empty empty 17 7 0 10 -262144 -1 -1 0
1;
#X obj 808 731 * 2.2;
#X obj 893 589 * 4;
#X obj 985 665 metro 500;
#X msg 1024 817 17.5 12000;
#X obj 41 722 /~ 2;
#X obj 166 692 vd~ amanitas;
#X obj 167 727 *~;
#X obj 438 633 tgl 15 0 empty empty empty 17 7 0 10 -262144 -1 -1 0
1;
#X msg 971 744 3.5 16000;
#X floatatom 47 631 5 0 0 0 - - -;
#X obj 46 668 cyclone/cycle~;
#X obj 28 696 +~ 0.4;
#X obj 227 772 *~;
#X floatatom 282 776 5 0 0 0 - - -;
#X obj 323 723 delwrite~ amanitas 3080;
#X obj 323 818 r feba;
#X obj 22 588 r nanotec;
#X obj 99 695 *~ 1.5;
#X obj 210 728 *~ 0.4;
#X obj 99 723 +~ 15;
#X obj 197 196 r~ SEGA;
#X obj 197 224 *~;
#X connect 0 0 5 0;
#X connect 1 0 2 0;
#X connect 2 0 3 0;
#X connect 2 0 65 0;
#X connect 3 0 108 0;
#X connect 4 0 6 1;
#X connect 4 0 15 1;
#X connect 5 0 19 0;
#X connect 6 0 0 0;
#X connect 7 0 6 0;
#X connect 8 0 7 0;
#X connect 8 0 9 0;
#X connect 8 0 11 0;
#X connect 9 0 38 0;
#X connect 10 0 5 1;
#X connect 11 0 12 0;
#X connect 12 0 17 0;
#X connect 12 0 16 0;
#X connect 13 0 14 0;
#X connect 14 0 19 1;
#X connect 15 0 13 0;
#X connect 16 0 15 0;
#X connect 17 0 37 0;
#X connect 18 0 14 1;
#X connect 19 0 105 0;
#X connect 19 0 116 0;
#X connect 20 0 4 0;
#X connect 21 0 20 0;
#X connect 22 0 21 0;
#X connect 23 0 24 0;
#X connect 24 0 8 0;
#X connect 25 0 23 0;
#X connect 25 1 23 1;
#X connect 26 0 27 0;
#X connect 27 0 16 1;
#X connect 27 0 7 1;
#X connect 28 0 25 0;
#X connect 29 0 26 0;
#X connect 29 0 28 0;
#X connect 30 0 29 0;
#X connect 31 0 23 0;
#X connect 32 0 31 0;
#X connect 33 0 32 0;
#X connect 34 0 33 0;
#X connect 35 0 34 0;
#X connect 36 0 35 0;
#X connect 37 0 18 0;
#X connect 38 0 10 0;
#X connect 43 0 36 0;
#X connect 44 0 30 0;
#X connect 45 0 22 0;
#X connect 46 0 2 1;
#X connect 47 0 48 0;
#X connect 47 1 49 0;
#X connect 47 2 50 0;
#X connect 47 3 51 0;
#X connect 48 0 185 0;
#X connect 49 0 185 1;
#X connect 50 0 185 2;
#X connect 51 0 185 3;
#X connect 53 0 52 0;
#X connect 54 0 52 1;
#X connect 55 0 47 0;
#X connect 56 0 55 0;
#X connect 57 0 55 1;
#X connect 58 0 46 0;
#X connect 60 0 61 0;
#X connect 61 0 53 0;
#X connect 61 1 56 0;
#X connect 64 0 159 0;
#X connect 66 0 64 0;
#X connect 67 0 69 1;
#X connect 67 0 77 1;
#X connect 68 0 81 0;
#X connect 69 0 106 0;
#X connect 70 0 69 0;
#X connect 71 0 70 0;
#X connect 71 0 72 0;
#X connect 71 0 74 0;
#X connect 72 0 100 0;
#X connect 73 0 68 1;
#X connect 74 0 75 0;
#X connect 75 0 79 0;
#X connect 75 0 78 0;
#X connect 76 0 81 1;
#X connect 77 0 107 0;
#X connect 78 0 77 0;
#X connect 79 0 99 0;
#X connect 80 0 76 1;
#X connect 81 0 119 0;
#X connect 82 0 67 0;
#X connect 83 0 82 0;
#X connect 84 0 83 0;
#X connect 85 0 86 0;
#X connect 86 0 71 0;
#X connect 87 0 85 0;
#X connect 87 1 85 1;
#X connect 88 0 89 0;
#X connect 89 0 78 1;
#X connect 89 0 70 1;
#X connect 90 0 87 0;
#X connect 91 0 88 0;
#X connect 91 0 90 0;
#X connect 92 0 91 0;
#X connect 93 0 85 0;
#X connect 94 0 93 0;
#X connect 95 0 94 0;
#X connect 96 0 95 0;
#X connect 97 0 96 0;
#X connect 98 0 97 0;
#X connect 99 0 80 0;
#X connect 100 0 73 0;
#X connect 106 0 68 0;
#X connect 107 0 76 0;
#X connect 110 0 109 0;
#X connect 111 0 92 0;
#X connect 112 0 84 0;
#X connect 113 0 114 0;
#X connect 115 0 117 0;
#X connect 115 1 118 0;
#X connect 116 0 120 0;
#X connect 116 0 207 0;
#X connect 117 0 116 1;
#X connect 118 0 119 1;
#X connect 119 0 121 0;
#X connect 119 0 207 0;
#X connect 120 0 42 0;
#X connect 121 0 42 0;
#X connect 122 0 115 0;
#X connect 123 0 130 0;
#X connect 123 1 131 0;
#X connect 124 0 123 0;
#X connect 125 0 124 0;
#X connect 126 0 124 1;
#X connect 127 0 129 0;
#X connect 128 0 129 1;
#X connect 129 0 98 0;
#X connect 130 0 127 0;
#X connect 131 0 127 0;
#X connect 132 0 98 0;
#X connect 133 0 125 0;
#X connect 134 0 128 0;
#X connect 135 0 122 0;
#X connect 136 0 137 0;
#X connect 137 0 161 1;
#X connect 138 0 126 0;
#X connect 140 0 141 0;
#X connect 141 0 3 1;
#X connect 142 0 141 1;
#X connect 143 0 142 0;
#X connect 144 0 151 0;
#X connect 145 0 151 6;
#X connect 147 0 151 4;
#X connect 149 0 151 5;
#X connect 151 0 163 0;
#X connect 151 1 166 0;
#X connect 152 0 151 3;
#X connect 152 0 187 0;
#X connect 155 0 151 2;
#X connect 157 0 186 0;
#X connect 157 0 152 0;
#X connect 159 0 160 0;
#X connect 160 0 3 1;
#X connect 161 0 159 1;
#X connect 162 0 164 0;
#X connect 162 1 165 0;
#X connect 163 0 168 0;
#X connect 163 0 169 0;
#X connect 164 0 163 1;
#X connect 165 0 166 1;
#X connect 166 0 168 1;
#X connect 166 0 169 1;
#X connect 167 0 162 0;
#X connect 168 0 161 0;
#X connect 169 0 139 0;
#X connect 170 0 167 0;
#X connect 171 0 144 0;
#X connect 172 0 149 0;
#X connect 173 0 147 0;
#X connect 174 0 145 0;
#X connect 175 0 177 0;
#X connect 176 0 175 0;
#X connect 176 0 178 0;
#X connect 177 0 157 0;
#X connect 177 1 152 0;
#X connect 179 0 155 0;
#X connect 180 0 181 0;
#X connect 181 0 3 0;
#X connect 182 0 181 1;
#X connect 183 0 182 0;
#X connect 184 0 92 0;
#X connect 185 0 36 0;
#X connect 186 0 151 1;
#X connect 188 0 201 0;
#X connect 188 1 196 0;
#X connect 189 0 190 0;
#X connect 190 0 195 0;
#X connect 190 0 200 0;
#X connect 191 0 92 0;
#X connect 191 0 193 0;
#X connect 191 0 194 0;
#X connect 192 0 188 0;
#X connect 193 0 22 0;
#X connect 194 0 84 0;
#X connect 195 0 192 0;
#X connect 196 0 191 0;
#X connect 197 0 210 0;
#X connect 198 0 199 0;
#X connect 199 0 211 0;
#X connect 200 0 199 1;
#X connect 201 0 191 0;
#X connect 202 0 203 0;
#X connect 203 0 204 0;
#X connect 204 0 197 0;
#X connect 205 0 207 0;
#X connect 206 0 205 1;
#X connect 208 0 206 0;
#X connect 209 0 202 0;
#X connect 210 0 212 0;
#X connect 211 0 42 0;
#X connect 211 0 205 0;
#X connect 212 0 198 0;
#X connect 213 0 214 0;
#X connect 214 0 3 1;
