#N canvas -9 -9 1920 976 12;
#X obj 104 107 cnv 15 450 390 empty empty empty 20 12 0 14 -213057
-66577 0;
#X obj 169 158 hsl 128 15 -70 70 0 0 empty empty empty -2 -8 0 10 -159659
-1 -1 7569 1;
#X obj 169 178 hsl 128 15 -70 70 0 0 empty empty empty -2 -8 0 10 -159659
-1 -1 7550 1;
#X obj 330 162 bng 17 250 50 0 empty empty empty 17 7 0 10 -258113
-1 -1;
#X obj 350 162 bng 17 250 50 0 empty empty empty 17 7 0 10 -260097
-1 -1;
#X obj 331 182 bng 17 250 50 0 empty empty empty 17 7 0 10 -257985
-1 -1;
#X obj 350 181 bng 17 250 50 0 empty empty empty 17 7 0 10 -4032 -1
-1;
#X obj 328 138 bng 20 250 50 0 empty empty empty 17 7 0 10 -28116 -1
-1;
#X obj 352 138 tgl 20 0 empty empty empty 17 7 0 10 -204786 -1 -1 0
1;
#X obj 166 245 bng 21 250 50 0 empty empty empty 17 7 0 10 -262144
-1 -1;
#X obj 140 245 bng 21 250 50 0 empty empty empty 17 7 0 10 -99865 -1
-1;
#X obj 168 315 bng 21 250 50 0 empty empty empty 17 7 0 10 -143349
-1 -1;
#X obj 137 314 bng 21 250 50 0 empty empty empty 17 7 0 10 -28116 -1
-1;
#X text 145 227 W I N;
#X text 347 106 SELF;
#X text 135 335 SEL;
#X obj 269 245 bng 21 250 50 0 empty empty empty 17 7 0 10 -262144
-1 -1;
#X obj 244 245 bng 21 250 50 0 empty empty empty 17 7 0 10 -99865 -1
-1;
#X obj 317 345 bng 23 250 50 0 empty empty empty 17 7 0 10 -236795
-1 -1;
#X obj 344 345 bng 21 250 50 0 empty empty empty 17 7 0 10 -28116 -1
-1;
#X text 342 363 SEL;
#X floatatom 167 271 5 0 0 0 - - -;
#X floatatom 235 271 4 0 0 0 - - -;
#X text 347 121 PREZ;
#X text 141 215 Mic;
#X obj 311 154 vsl 15 40 0 0.8 0 0 empty empty empty 0 -9 0 10 -262144
-1 -1 0 1;
#X obj 148 176 vsl 15 40 0 1.8 0 0 empty empty empty 0 -9 0 10 -262144
-1 -1 0 1;
#X text 234 226 AM/REFILL;
#X text 159 335 R/RND;
#X text 204 139 PEACHES;
#X obj 178 196 bng 17 250 50 0 empty empty empty 17 7 0 10 -261234
-1 -1;
#X obj 217 198 bng 17 250 50 0 empty empty empty 17 7 0 10 -254964
-1 -1;
#X text 316 194 Piedroza;
#X text 165 210 FMODS;
#X obj 236 198 bng 17 250 50 0 empty empty empty 17 7 0 10 -254964
-1 -1;
#X obj 275 197 bng 17 250 50 0 empty empty empty 17 7 0 10 -261234
-1 -1;
#X text 213 113 ^.^.^.^;
#X text 320 206 ONLINE;
#X text 240 318 ^.^.^.^;
#X text 263 209 R/RND;
#X text 98 228 *.*.*;
#X text 437 114 *.*.*;
#X text 122 153 *.*.*;
#X text 108 164 *.*.*;
#X text 107 178 *.*.*;
#X text 106 192 *.*.*;
#X obj 239 472 hsl 150 20 0 59920 0 0 empty empty empty -2 -8 0 10
-52029 -1 -1 2800 1;
#X obj 253 447 hsl 72 20 0 1 0 0 empty empty empty -2 -8 0 10 -216896
-1 -1 3500 1;
#X text 137 129 *.*.*.* F R A A M ^.^.^.^;
#X obj 207 444 bng 21 250 50 0 empty empty empty 17 7 0 10 -262144
-1 -1;
#X obj 179 444 bng 21 250 50 0 empty empty empty 17 7 0 10 -99865 -1
-1;
#X floatatom 327 449 4 0 0 0 - - -;
#X text 201 416 ~ u ~ u ~u~ F L O L O ~u~ u ~ u ~;
#X text 385 447 SEL;
#X obj 360 447 bng 21 250 50 0 empty empty empty 17 7 0 10 -28116 -1
-1;
#X text 269 427 Finetune/FEEDBCK;
#X obj 403 313 vsl 15 50 0 1 0 0 empty empty empty 0 -9 0 10 -135086
-1 -1 0 1;
#X obj 431 312 vsl 15 50 0 1.8 0 0 empty empty empty 0 -9 0 10 -52029
-1 -1 0 1;
#X obj 466 313 vsl 15 50 0 1.8 0 0 empty empty empty 0 -9 0 10 -232576
-1 -1 0 1;
#X obj 496 313 vsl 15 50 0 1.8 0 0 empty empty empty 0 -9 0 10 -262144
-1 -1 0 1;
#X text 428 367 FLO;
#X text 398 367 FRA;
#X text 457 366 COCO;
#X text 490 365 QuS;
#X text 324 121 S&H;
#X obj 374 244 hsl 80 15 4 1.5e+006 0 0 empty empty empty -2 -8 0 10
-232576 -1 -1 1766 1;
#X obj 464 244 hsl 80 15 4 999999 0 0 empty empty empty -2 -8 0 10
-261819 -1 -1 2817 1;
#X obj 373 271 tgl 28 0 empty empty empty 17 7 0 10 -262144 -1 -1 0
1;
#X obj 404 266 tgl 28 0 empty empty empty 17 7 0 10 -262144 -1 -1 0
1;
#X obj 488 266 tgl 28 0 empty empty empty 17 7 0 10 -262144 -1 -1 0
1;
#X obj 518 269 tgl 28 0 empty empty empty 17 7 0 10 -262144 -1 -1 1
1;
#X text 402 269 SKIP;
#X text 485 269 FLIP;
#X text 517 271 SKIP;
#X obj 400 148 tgl 28 0 empty empty empty 17 7 0 10 -232576 -1 -1 0
1;
#X obj 486 149 tgl 28 0 empty empty empty 17 7 0 10 -261819 -1 -1 0
1;
#X text 428 171 PEACHES;
#X obj 415 188 bng 21 250 50 0 empty empty empty 17 7 0 10 -262144
-1 -1;
#X obj 389 188 bng 21 250 50 0 empty empty empty 17 7 0 10 -99865 -1
-1;
#X obj 503 187 bng 21 250 50 0 empty empty empty 17 7 0 10 -262144
-1 -1;
#X obj 477 187 bng 21 250 50 0 empty empty empty 17 7 0 10 -99865 -1
-1;
#X floatatom 385 212 8 0 0 0 - - -;
#X floatatom 473 212 8 0 0 0 - - -;
#X text 455 260 U wU;
#X text 434 276 Uw U;
#X text 429 161 ~ *.* ~;
#X text 383 130 ~Uw U~ C O C O ~U wU~;
#X text 430 145 GRABBRZ;
#X text 433 290 ~* U *~;
#X text 421 227 Samplerates;
#X text 401 430 U wU;
#X text 395 461 Uw U;
#X text 396 474 ~* U *~;
#X text 282 332 U wU;
#X text 193 469 Uw U;
#X text 106 437 ~* U *~;
#X obj 139 53 FRRRRRRRRAM;
#X obj -7 736 laylong;
#X obj 770 405 Cocoaudicione;
#X obj 240 73 bancapollosypericomuchoperico;
#X obj -85 174 s menoswins;
#X obj -55 196 s maswins;
#X obj -56 217 s cualeswins;
#X obj -1 173 s menosrefri;
#X obj 16 195 s masrefri;
#X obj 36 217 s famsa;
#X obj -115 313 s menofee;
#X obj -46 313 s masfee;
#X obj -73 334 s inicialfee;
#X obj -65 82 key;
#X obj -75 108 sel 113;
#X obj -6 82 key;
#X obj -16 106 sel 119;
#X obj -107 83 key;
#X obj -118 108 sel 9;
#X floatatom 166 292 5 0 0 0 - - -;
#X floatatom 234 293 4 0 0 0 - - -;
#X floatatom 128 270 5 0 0 0 - - -;
#X floatatom 128 292 5 0 0 0 - - -;
#X text 435 95 A M I K O S;
#X floatatom 267 271 4 0 0 0 - - -;
#X obj -47 238 r wini;
#X obj -102 238 r dejup;
#X obj 4 239 r wiu;
#X obj 49 239 r diu;
#X obj 69 128 key;
#X floatatom 43 128 3 0 0 0 - - -;
#X obj 16 129 key;
#X floatatom -8 129 3 0 0 0 - - -;
#X obj -37 134 key;
#X floatatom -36 154 3 0 0 0 - - -;
#X obj -26 261 r AMADE;
#X obj -100 262 r reflujo;
#X obj 33 261 r recol;
#X floatatom 268 293 4 0 0 0 - - -;
#X obj -104 290 r tokers;
#X text 204 213 TIKTOKRZ;
#X obj 151 76 s~ frama;
#X obj 19 290 key;
#X obj 18 313 sel 97;
#X obj 47 290 key;
#X obj 47 313 sel 115;
#X obj 75 290 key;
#X obj 75 292 sel 100;
#X obj -70 409 s jumpstreet;
#X obj -154 335 r feedfeed;
#X obj -65 137 sel 124;
#X obj -8 151 sel 49;
#X obj 43 150 sel 50;
#X obj -13 760 s~ flolo;
#X obj 302 795 r~ frama;
#X obj 302 868 *~;
#X obj 328 846 *~;
#X obj 310 897 +~;
#X obj 812 980 *~;
#X obj 405 890 *~;
#X obj 809 924 r~ coco;
#X obj 404 856 r~ lococ;
#X obj 355 949 s~ locoroco;
#X obj 375 919 +~;
#X obj 268 958 +~;
#X obj 302 959 *~ 0.5;
#X obj 268 984 s~ elmanala;
#X obj 977 -186 key;
#X obj 961 -186 key;
#X obj 1073 -186 key;
#X obj 1060 -186 key;
#X obj 989 -178 key;
#X obj 949 -139 sel 108;
#X obj 991 -137 sel 241;
#X obj 1060 -137 sel 111;
#X obj 1073 -138 sel 112;
#X obj 963 -138 sel 48;
#X obj 325 817 r~ flolo;
#X obj -57 607 r ana;
#X obj 1019 -186 key;
#X obj 1005 -185 key;
#X obj 1101 -186 key;
#X obj 1087 -186 key;
#X obj 1006 -137 sel 102;
#X obj 1020 -137 sel 103;
#X obj 1086 -138 sel 104;
#X obj 1101 -137 sel 106;
#X obj 634 348 s menospeacha;
#X obj 664 347 s maspeacha;
#X obj 620 349 s menospeachb;
#X obj 649 347 s maspeachb;
#X obj 589 352 r elnim;
#X obj 574 354 r vipo;
#X obj 1032 -186 key;
#X obj 1033 -137 sel 114;
#X obj 1046 -185 key;
#X obj 1047 -137 sel 117;
#N canvas 527 95 1120 606 presso 0;
#X floatatom -63 29 5 0 0 0 - - -;
#X obj -63 6 key;
#X obj 10 149 sel 65 81 83 87 68 69 70 82 71 84 72 89 74 85 75 73 76
79 209 80;
#X obj 64 18 key;
#X obj 62 41 sel 90;
#X obj 167 17 key;
#X obj 167 40 sel 88;
#X obj 68 64 f;
#X obj 95 64 - 1;
#X obj 163 62 f;
#X obj 192 60 + 1;
#X floatatom 110 19 5 0 0 0 - - -;
#X obj 110 41 t f f f;
#X obj 122 64 % 15;
#X obj 192 82 % 15;
#X obj 124 86 s oct;
#X obj 201 16 loadbang;
#X msg 225 42 5;
#X text 124 -2 OCTAVA;
#X obj 227 65 * 12;
#X floatatom 227 88 5 0 0 0 - - -;
#X obj -59 207 f;
#X obj -59 230 mtof;
#X floatatom 282 388 7 0 0 0 - - -;
#X obj -25 230 r oct;
#X obj -57 255 / 261.626;
#X obj 16 212 f;
#X obj 16 235 mtof;
#X obj 54 213 r oct;
#X obj 18 260 / 261.626;
#X obj 54 236 + 1;
#X obj 98 213 f;
#X obj 98 236 mtof;
#X obj 136 214 r oct;
#X obj 100 261 / 261.626;
#X obj 136 237 + 2;
#X obj 184 206 f;
#X obj 184 229 mtof;
#X obj 222 207 r oct;
#X obj 186 254 / 261.626;
#X obj 266 207 f;
#X obj 266 230 mtof;
#X obj 304 208 r oct;
#X obj 268 255 / 261.626;
#X obj 222 230 + 3;
#X obj 304 231 + 4;
#X obj 352 208 f;
#X obj 352 231 mtof;
#X obj 390 209 r oct;
#X obj 354 256 / 261.626;
#X obj 434 209 f;
#X obj 434 232 mtof;
#X obj 472 210 r oct;
#X obj 436 257 / 261.626;
#X obj 520 202 f;
#X obj 520 225 mtof;
#X obj 558 203 r oct;
#X obj 522 250 / 261.626;
#X obj 128 289 f;
#X obj 128 312 mtof;
#X obj 166 290 r oct;
#X obj 130 337 / 261.626;
#X obj 390 232 + 5;
#X obj 472 233 + 6;
#X obj 558 226 + 7;
#X obj 166 313 + 8;
#X obj 215 287 f;
#X obj 215 310 mtof;
#X obj 253 288 r oct;
#X obj 217 335 / 261.626;
#X obj 297 288 f;
#X obj 297 311 mtof;
#X obj 335 289 r oct;
#X obj 299 336 / 261.626;
#X obj 383 289 f;
#X obj 383 312 mtof;
#X obj 421 290 r oct;
#X obj 385 337 / 261.626;
#X obj 464 291 f;
#X obj 464 314 mtof;
#X obj 496 292 r oct;
#X obj 466 339 / 261.626;
#X obj 540 290 f;
#X obj 541 316 mtof;
#X obj 578 291 r oct;
#X obj 537 341 / 261.626;
#X obj 621 292 f;
#X obj 621 315 mtof;
#X obj 659 293 r oct;
#X obj 623 340 / 261.626;
#X obj 253 311 + 9;
#X obj 335 312 + 10;
#X obj 421 313 + 11;
#X obj 502 315 + 12;
#X obj 579 317 + 13;
#X obj 659 316 + 14;
#X obj 705 290 f;
#X obj 705 313 mtof;
#X obj 743 291 r oct;
#X obj 707 338 / 261.626;
#X obj 786 288 f;
#X obj 786 311 mtof;
#X obj 823 283 r oct;
#X obj 788 336 / 261.626;
#X obj 601 199 f;
#X obj 601 222 mtof;
#X obj 639 200 r oct;
#X obj 603 247 / 261.626;
#X obj 690 199 f;
#X obj 690 222 mtof;
#X obj 728 200 r oct;
#X obj 692 247 / 261.626;
#X obj 774 197 f;
#X obj 774 220 mtof;
#X obj 812 198 r oct;
#X obj 776 245 / 261.626;
#X obj 743 314 + 15;
#X obj 823 306 + 16;
#X obj 639 223 + 17;
#X obj 728 223 + 18;
#X obj 812 221 + 19;
#X obj 287 419 s DOREMI;
#X obj 338 45 zexy/demultiplex 1 2;
#X obj 827 31 sel 65 81 83 87 68 69 70 82 71 84 72 89 74 85 75 73 76
79 209 80;
#X obj 758 89 f;
#X obj 758 112 mtof;
#X floatatom 1099 270 7 0 0 0 - - -;
#X obj 792 112 r oct;
#X obj 760 137 / 261.626;
#X obj 833 94 f;
#X obj 833 117 mtof;
#X obj 871 95 r oct;
#X obj 835 142 / 261.626;
#X obj 871 118 + 1;
#X obj 915 95 f;
#X obj 915 118 mtof;
#X obj 953 96 r oct;
#X obj 917 143 / 261.626;
#X obj 953 119 + 2;
#X obj 1001 88 f;
#X obj 1001 111 mtof;
#X obj 1039 89 r oct;
#X obj 1003 136 / 261.626;
#X obj 1083 89 f;
#X obj 1083 112 mtof;
#X obj 1121 90 r oct;
#X obj 1085 137 / 261.626;
#X obj 1039 112 + 3;
#X obj 1121 113 + 4;
#X obj 1169 90 f;
#X obj 1169 113 mtof;
#X obj 1207 91 r oct;
#X obj 1171 138 / 261.626;
#X obj 1251 91 f;
#X obj 1251 114 mtof;
#X obj 1289 92 r oct;
#X obj 1253 139 / 261.626;
#X obj 1337 84 f;
#X obj 1337 107 mtof;
#X obj 1375 85 r oct;
#X obj 1339 132 / 261.626;
#X obj 945 171 f;
#X obj 945 194 mtof;
#X obj 983 172 r oct;
#X obj 947 219 / 261.626;
#X obj 1207 114 + 5;
#X obj 1289 115 + 6;
#X obj 1375 108 + 7;
#X obj 983 195 + 8;
#X obj 1032 169 f;
#X obj 1032 192 mtof;
#X obj 1070 170 r oct;
#X obj 1034 217 / 261.626;
#X obj 1114 170 f;
#X obj 1114 193 mtof;
#X obj 1152 171 r oct;
#X obj 1116 218 / 261.626;
#X obj 1200 171 f;
#X obj 1200 194 mtof;
#X obj 1238 172 r oct;
#X obj 1202 219 / 261.626;
#X obj 1281 173 f;
#X obj 1281 196 mtof;
#X obj 1313 174 r oct;
#X obj 1283 221 / 261.626;
#X obj 1357 172 f;
#X obj 1358 198 mtof;
#X obj 1395 173 r oct;
#X obj 1354 223 / 261.626;
#X obj 1438 174 f;
#X obj 1438 197 mtof;
#X obj 1476 175 r oct;
#X obj 1440 222 / 261.626;
#X obj 1070 193 + 9;
#X obj 1152 194 + 10;
#X obj 1238 195 + 11;
#X obj 1319 197 + 12;
#X obj 1396 199 + 13;
#X obj 1476 198 + 14;
#X obj 1522 172 f;
#X obj 1522 195 mtof;
#X obj 1560 173 r oct;
#X obj 1524 220 / 261.626;
#X obj 1603 170 f;
#X obj 1603 193 mtof;
#X obj 1640 165 r oct;
#X obj 1605 218 / 261.626;
#X obj 1418 81 f;
#X obj 1418 104 mtof;
#X obj 1456 82 r oct;
#X obj 1420 129 / 261.626;
#X obj 1507 81 f;
#X obj 1507 104 mtof;
#X obj 1545 82 r oct;
#X obj 1509 129 / 261.626;
#X obj 1591 79 f;
#X obj 1591 102 mtof;
#X obj 1629 80 r oct;
#X obj 1593 127 / 261.626;
#X obj 1560 196 + 15;
#X obj 1640 188 + 16;
#X obj 1456 105 + 17;
#X obj 1545 105 + 18;
#X obj 1629 103 + 19;
#X obj 517 14 key;
#X obj 517 40 sel 77;
#X obj 523 73 bng 15 250 50 0 empty empty empty 17 7 0 10 -262144 -1
-1;
#X obj 523 93 f;
#X obj 550 93 + 1;
#X obj 523 119 % 2;
#X floatatom 523 147 5 0 0 0 - - -;
#X obj 1104 301 s REMIDO;
#X connect 0 0 122 0;
#X connect 1 0 0 0;
#X connect 2 0 21 0;
#X connect 2 1 26 0;
#X connect 2 2 31 0;
#X connect 2 3 36 0;
#X connect 2 4 40 0;
#X connect 2 5 46 0;
#X connect 2 6 50 0;
#X connect 2 7 54 0;
#X connect 2 8 58 0;
#X connect 2 9 66 0;
#X connect 2 10 70 0;
#X connect 2 11 74 0;
#X connect 2 12 78 0;
#X connect 2 13 82 0;
#X connect 2 14 86 0;
#X connect 2 15 96 0;
#X connect 2 16 100 0;
#X connect 2 17 104 0;
#X connect 2 18 108 0;
#X connect 2 19 112 0;
#X connect 3 0 4 0;
#X connect 4 0 7 0;
#X connect 5 0 6 0;
#X connect 6 0 9 0;
#X connect 7 0 8 0;
#X connect 8 0 13 0;
#X connect 9 0 10 0;
#X connect 10 0 14 0;
#X connect 11 0 12 0;
#X connect 12 0 7 1;
#X connect 12 1 19 0;
#X connect 12 2 9 1;
#X connect 13 0 11 0;
#X connect 14 0 11 0;
#X connect 16 0 17 0;
#X connect 17 0 11 0;
#X connect 19 0 20 0;
#X connect 20 0 15 0;
#X connect 21 0 22 0;
#X connect 22 0 25 0;
#X connect 23 0 121 0;
#X connect 24 0 21 1;
#X connect 25 0 23 0;
#X connect 26 0 27 0;
#X connect 27 0 29 0;
#X connect 28 0 30 0;
#X connect 29 0 23 0;
#X connect 30 0 26 1;
#X connect 31 0 32 0;
#X connect 32 0 34 0;
#X connect 33 0 35 0;
#X connect 34 0 23 0;
#X connect 35 0 31 1;
#X connect 36 0 37 0;
#X connect 37 0 39 0;
#X connect 38 0 44 0;
#X connect 39 0 23 0;
#X connect 40 0 41 0;
#X connect 41 0 43 0;
#X connect 42 0 45 0;
#X connect 43 0 23 0;
#X connect 44 0 36 1;
#X connect 45 0 40 1;
#X connect 46 0 47 0;
#X connect 47 0 49 0;
#X connect 48 0 62 0;
#X connect 49 0 23 0;
#X connect 50 0 51 0;
#X connect 51 0 53 0;
#X connect 52 0 63 0;
#X connect 53 0 23 0;
#X connect 54 0 55 0;
#X connect 55 0 57 0;
#X connect 56 0 64 0;
#X connect 57 0 23 0;
#X connect 58 0 59 0;
#X connect 59 0 61 0;
#X connect 60 0 65 0;
#X connect 61 0 23 0;
#X connect 62 0 46 1;
#X connect 63 0 50 1;
#X connect 64 0 54 1;
#X connect 65 0 58 1;
#X connect 66 0 67 0;
#X connect 67 0 69 0;
#X connect 68 0 90 0;
#X connect 69 0 23 0;
#X connect 70 0 71 0;
#X connect 71 0 73 0;
#X connect 72 0 91 0;
#X connect 73 0 23 0;
#X connect 74 0 75 0;
#X connect 75 0 77 0;
#X connect 76 0 92 0;
#X connect 77 0 23 0;
#X connect 78 0 79 0;
#X connect 79 0 81 0;
#X connect 80 0 93 0;
#X connect 81 0 23 0;
#X connect 82 0 83 0;
#X connect 83 0 85 0;
#X connect 84 0 94 0;
#X connect 85 0 23 0;
#X connect 86 0 87 0;
#X connect 87 0 89 0;
#X connect 88 0 95 0;
#X connect 89 0 23 0;
#X connect 90 0 66 1;
#X connect 91 0 70 1;
#X connect 92 0 74 1;
#X connect 93 0 78 1;
#X connect 94 0 82 1;
#X connect 95 0 86 1;
#X connect 96 0 97 0;
#X connect 97 0 99 0;
#X connect 98 0 116 0;
#X connect 99 0 23 0;
#X connect 100 0 101 0;
#X connect 101 0 103 0;
#X connect 102 0 117 0;
#X connect 103 0 23 0;
#X connect 104 0 105 0;
#X connect 105 0 107 0;
#X connect 106 0 118 0;
#X connect 107 0 23 0;
#X connect 108 0 109 0;
#X connect 109 0 111 0;
#X connect 110 0 119 0;
#X connect 111 0 23 0;
#X connect 112 0 113 0;
#X connect 113 0 115 0;
#X connect 114 0 120 0;
#X connect 115 0 23 0;
#X connect 116 0 96 1;
#X connect 117 0 100 1;
#X connect 118 0 104 1;
#X connect 119 0 108 1;
#X connect 120 0 112 1;
#X connect 122 0 2 0;
#X connect 122 1 123 0;
#X connect 123 0 124 0;
#X connect 123 1 129 0;
#X connect 123 2 134 0;
#X connect 123 3 139 0;
#X connect 123 4 143 0;
#X connect 123 5 149 0;
#X connect 123 6 153 0;
#X connect 123 7 157 0;
#X connect 123 8 161 0;
#X connect 123 9 169 0;
#X connect 123 10 173 0;
#X connect 123 11 177 0;
#X connect 123 12 181 0;
#X connect 123 13 185 0;
#X connect 123 14 189 0;
#X connect 123 15 199 0;
#X connect 123 16 203 0;
#X connect 123 17 207 0;
#X connect 123 18 211 0;
#X connect 123 19 215 0;
#X connect 124 0 125 0;
#X connect 125 0 128 0;
#X connect 126 0 231 0;
#X connect 127 0 124 1;
#X connect 128 0 126 0;
#X connect 129 0 130 0;
#X connect 130 0 132 0;
#X connect 131 0 133 0;
#X connect 132 0 126 0;
#X connect 133 0 129 1;
#X connect 134 0 135 0;
#X connect 135 0 137 0;
#X connect 136 0 138 0;
#X connect 137 0 126 0;
#X connect 138 0 134 1;
#X connect 139 0 140 0;
#X connect 140 0 142 0;
#X connect 141 0 147 0;
#X connect 142 0 126 0;
#X connect 143 0 144 0;
#X connect 144 0 146 0;
#X connect 145 0 148 0;
#X connect 146 0 126 0;
#X connect 147 0 139 1;
#X connect 148 0 143 1;
#X connect 149 0 150 0;
#X connect 150 0 152 0;
#X connect 151 0 165 0;
#X connect 152 0 126 0;
#X connect 153 0 154 0;
#X connect 154 0 156 0;
#X connect 155 0 166 0;
#X connect 156 0 126 0;
#X connect 157 0 158 0;
#X connect 158 0 160 0;
#X connect 159 0 167 0;
#X connect 160 0 126 0;
#X connect 161 0 162 0;
#X connect 162 0 164 0;
#X connect 163 0 168 0;
#X connect 164 0 126 0;
#X connect 165 0 149 1;
#X connect 166 0 153 1;
#X connect 167 0 157 1;
#X connect 168 0 161 1;
#X connect 169 0 170 0;
#X connect 170 0 172 0;
#X connect 171 0 193 0;
#X connect 172 0 126 0;
#X connect 173 0 174 0;
#X connect 174 0 176 0;
#X connect 175 0 194 0;
#X connect 176 0 126 0;
#X connect 177 0 178 0;
#X connect 178 0 180 0;
#X connect 179 0 195 0;
#X connect 180 0 126 0;
#X connect 181 0 182 0;
#X connect 182 0 184 0;
#X connect 183 0 196 0;
#X connect 184 0 126 0;
#X connect 185 0 186 0;
#X connect 186 0 188 0;
#X connect 187 0 197 0;
#X connect 188 0 126 0;
#X connect 189 0 190 0;
#X connect 190 0 192 0;
#X connect 191 0 198 0;
#X connect 192 0 126 0;
#X connect 193 0 169 1;
#X connect 194 0 173 1;
#X connect 195 0 177 1;
#X connect 196 0 181 1;
#X connect 197 0 185 1;
#X connect 198 0 189 1;
#X connect 199 0 200 0;
#X connect 200 0 202 0;
#X connect 201 0 219 0;
#X connect 202 0 126 0;
#X connect 203 0 204 0;
#X connect 204 0 206 0;
#X connect 205 0 220 0;
#X connect 206 0 126 0;
#X connect 207 0 208 0;
#X connect 208 0 210 0;
#X connect 209 0 221 0;
#X connect 210 0 126 0;
#X connect 211 0 212 0;
#X connect 212 0 214 0;
#X connect 213 0 222 0;
#X connect 214 0 126 0;
#X connect 215 0 216 0;
#X connect 216 0 218 0;
#X connect 217 0 223 0;
#X connect 218 0 126 0;
#X connect 219 0 199 1;
#X connect 220 0 203 1;
#X connect 221 0 207 1;
#X connect 222 0 211 1;
#X connect 223 0 215 1;
#X connect 224 0 225 0;
#X connect 225 0 226 0;
#X connect 226 0 227 0;
#X connect 227 0 228 0;
#X connect 227 0 229 0;
#X connect 228 0 227 1;
#X connect 229 0 230 0;
#X connect 230 0 122 1;
#X restore 790 897 pd presso;
#X obj 102 -67 metro;
#X obj 102 -40 random 140;
#X obj 144 -93 metro;
#X obj 144 -66 random 140;
#X obj 104 -84 tgl 15 0 empty empty empty 17 7 0 10 -262144 -1 -1 0
1;
#X floatatom 424 -119 5 0 0 0 - - -;
#X floatatom 381 -121 5 0 0 0 - - -;
#X obj 147 -113 tgl 15 0 empty empty empty 17 7 0 10 -262144 -1 -1
0 1;
#X obj 236 -109 metro;
#X floatatom 336 -121 5 0 0 0 - - -;
#X obj 218 -108 tgl 15 0 empty empty empty 17 7 0 10 -262144 -1 -1
0 1;
#X obj 207 -86 tgl 15 0 empty empty empty 17 7 0 10 -262144 -1 -1 0
1;
#X obj 226 -90 sel 1 0;
#X obj 222 45 line;
#X obj 335 -98 * 8;
#X msg 239 -60 -48 1500;
#X msg 224 -69 48 1500;
#X obj -62 -220 f;
#X obj -90 -220 + 1;
#X obj -62 -197 % 6;
#X obj -61 -169 sel 0 1 2 3 4 5;
#X obj 41 82 key;
#X obj 41 107 sel 122;
#X obj -128 -161 t b b b;
#X msg -109 -137 0;
#X msg -87 -137 0;
#X obj -129 -105 t b b b;
#X msg -119 -82 0;
#X msg -95 -81 0;
#X obj -66 -138 t b b b;
#X msg -47 -116 0;
#X msg -27 -116 0;
#X floatatom -30 -195 5 0 0 0 - - -;
#X msg -128 -136 1;
#X msg 14 -114 0;
#X msg 39 -114 0;
#X obj 13 -140 t b b b b;
#X msg 159 -131 0;
#X obj 194 -133 t f f;
#X obj 164 -157 del 1500;
#X text 455 -196 SPZZZZ;
#X obj -91 130 key;
#X floatatom -91 151 3 0 0 0 - - -;
#X obj -111 133 sel 27;
#X obj -40 290 s resei;
#X obj -87 195 key;
#X floatatom -113 195 3 0 0 0 - - -;
#X obj -113 215 sel 120;
#X obj -30 -246 loadbang;
#X msg -30 -219 5;
#X obj -56 585 s fokt;
#X obj 643 -138 metro;
#X floatatom 555 -156 5 0 0 0 - - -;
#X obj 549 -97 metro;
#X floatatom 594 -76 5 0 0 0 - - -;
#X obj 564 -138 metro;
#X floatatom 647 -118 5 0 0 0 - - -;
#X obj 566 -119 metro;
#X floatatom 604 -137 5 0 0 0 - - -;
#X obj 591 -99 metro;
#X floatatom 607 -118 5 0 0 0 - - -;
#X obj 510 -71 t b b b b b;
#X text 375 -204 SPZZZZ;
#X text 594 -180 SPZZZZ;
#X obj 492 -44 tgl 15 0 empty empty empty 17 7 0 10 -262144 -1 -1 0
1;
#X obj 510 -44 tgl 15 0 empty empty empty 17 7 0 10 -262144 -1 -1 0
1;
#X obj 530 -43 tgl 15 0 empty empty empty 17 7 0 10 -262144 -1 -1 0
1;
#X obj 548 -44 tgl 15 0 empty empty empty 17 7 0 10 -262144 -1 -1 0
1;
#X obj 565 -46 tgl 15 0 empty empty empty 17 7 0 10 -262144 -1 -1 0
1;
#X obj 233 449 tgl 15 0 empty empty empty 17 7 0 10 -167924 -1 -1 0
1;
#X obj -22 432 metro;
#X obj -30 455 random 59500;
#X floatatom 294 -120 5 0 0 0 - - -;
#X obj 439 265 bng 15 250 50 0 empty empty empty 17 7 0 10 -262144
-1 -1;
#X obj 470 277 bng 15 250 50 0 empty empty empty 17 7 0 10 -262144
-1 -1;
#X obj 316 241 bng 50 250 50 0 empty empty empty 17 7 0 10 -262111
-1 -1;
#X obj 1072 716 metro;
#X obj 1062 691 tgl 15 0 empty empty empty 17 7 0 10 -262144 -1 -1
0 1;
#X floatatom 1112 555 5 0 0 0 - - -;
#X obj 989 644 metro;
#X obj 1116 829 tgl 15 0 empty empty empty 17 7 0 10 -262144 -1 -1
0 1;
#X floatatom 1039 637 5 0 0 0 - - -;
#X obj 1125 711 metro;
#X obj 1127 689 tgl 15 0 empty empty empty 17 7 0 10 -262144 -1 -1
0 1;
#X floatatom 1147 689 5 0 0 0 - - -;
#X obj 1004 716 metro;
#X obj 1133 828 tgl 15 0 empty empty empty 17 7 0 10 -262144 -1 -1
0 1;
#X floatatom 1065 557 5 0 0 0 - - -;
#X obj 999 41 loadbang;
#X obj 291 -196 r chatitos;
#X obj 337 -179 r maki;
#X obj 366 -179 r remen;
#X obj 394 -180 r pararapa;
#X obj 430 -180 r elmonais;
#X obj 638 -73 r seis;
#X obj 643 -184 r siete;
#X obj 637 -158 r ocho;
#X obj 633 -98 r mueve;
#X obj 999 603 r mies;
#X obj 994 670 r monze;
#X obj 1063 667 r mensa;
#X obj 1170 710 r trestres;
#X obj 887 666 f;
#X obj 918 666 + 1;
#X obj 887 690 % 4;
#X obj 884 715 sel 0 1 2 3;
#X obj 828 741 t f f;
#X msg 810 762 0;
#X msg 828 762 0;
#X obj 871 740 t f f;
#X msg 873 761 0, f 2;
#X msg 860 761 1, f 1;
#X obj 914 740 t f f;
#X msg 900 763 0;
#X msg 931 763 1;
#X obj 956 740 t f f;
#X obj 1115 -186 key;
#X obj 1128 -186 key;
#X msg 975 68 \; chatitos 436 \; maki 108 \; remen 2345 \; pararapa
890 \; elmonais 140 \; seis 300 \; siete 3400 \; ocho 68 \; mueve 780
\; mies 500 \; monze 2500 \; mensa 1600 \; trestres 2100 \;;
#X obj 1114 -138 sel 116;
#X obj 1128 -137 sel 121;
#X obj 1166 642 f;
#X obj 1195 642 + 1;
#X obj 1161 666 % 4;
#X obj 1188 665 sel 0 1 2 3;
#X obj 1002 741 t f f;
#X msg 1032 763 0;
#X obj 1045 741 t f f;
#X msg 1070 763 0;
#X msg 1051 763 1;
#X obj 1086 741 t f f;
#X msg 1089 763 0;
#X msg 1108 763 1;
#X obj 1128 740 t f f;
#X msg 1127 763 1;
#X msg 1148 763 1;
#X msg 1012 762 0;
#X obj 316 293 bng 50 250 50 0 empty empty empty 17 7 0 10 -175916
-1 -1;
#X obj 868 -180 key;
#X obj 886 -174 key;
#X obj 867 -128 sel 45;
#X obj 885 -125 sel 46;
#X text 275 246 +;
#X text 249 246 -;
#X text 171 246 +;
#X text 145 247 -;
#X text 421 189 +;
#X text 393 189 -;
#X text 483 188 -;
#X text 509 188 +;
#X text 213 445 +;
#X text 185 443 -;
#X obj 938 525 random 5000;
#X obj 1034 498 random 5000;
#X obj 1088 436 random 5000;
#X obj 1119 437 random 5000;
#X obj 1028 380 del 10;
#X obj 1031 353 t b b b;
#X obj 1078 380 del 20;
#X obj 1071 436 random 6000;
#X obj 1104 436 random 7000;
#X obj 1134 436 random 5000;
#X obj 1150 436 random 5000;
#X obj 1165 437 random 5000;
#X obj 1182 436 random 5000;
#X obj 1198 435 random 5000;
#X obj 1172 -184 del 10;
#X obj 1209 -183 del 20;
#X obj 1173 -207 t b b b b;
#X obj 1230 -183 del 70;
#X obj 1093 -43 random 600;
#X obj 1165 -17 random 400;
#X obj 1246 -68 random 400;
#X obj 1262 -68 random 500;
#X obj 1278 -68 random 600;
#X obj 1296 -68 random 400;
#X obj 1313 -69 random 500;
#X obj 1329 -69 random 600;
#X obj 1345 -68 random 400;
#X obj 1361 -67 random 600;
#X obj 1376 -68 random 400;
#X obj 1372 360 key;
#X obj 1350 386 sel 53;
#X obj 1454 358 key;
#X obj 1454 384 sel 54;
#X obj 1372 412 f;
#X obj 1372 438 - 1;
#X obj 1470 410 f;
#X obj 1470 436 + 1;
#X obj 1470 462 % 70;
#X floatatom 1407 384 5 0 0 0 - - -;
#X obj 1404 321 loadbang;
#X msg 1404 347 0;
#X obj 1407 409 t f f f;
#X obj 1355 465 % -70;
#X obj 1536 355 key;
#X obj 1618 353 key;
#X obj 1536 407 f;
#X obj 1536 433 - 1;
#X obj 1634 405 f;
#X obj 1634 431 + 1;
#X obj 1634 457 % 70;
#X floatatom 1571 379 5 0 0 0 - - -;
#X obj 1568 323 loadbang;
#X msg 1571 354 0;
#X obj 1571 404 t f f f;
#X obj 1519 460 % -70;
#X obj 1514 381 sel 55;
#X obj 1618 379 sel 56;
#X obj 978 -103 t b b;
#X obj 964 -102 del 10;
#X obj 1403 -69 random 300;
#X obj 1433 -69 random 100;
#X obj 1383 94 s mariavision;
#X obj 1399 89 s gehova;
#X obj 1415 88 s testigos;
#X obj 1235 619 s mariavision;
#X obj 1251 621 s gehova;
#X obj 1267 620 s testigos;
#X obj 1267 432 random 1320;
#X text 215 293 AM;
#X text 295 290 TKZ;
#X text 297 271 CQ;
#X text 208 270 FLO;
#X obj 596 -158 * 0.8;
#X obj 322 224 bng 15 250 50 0 empty empty empty 17 7 0 10 -261375
-1 -1;
#X obj 347 224 bng 15 250 50 0 empty empty empty 17 7 0 10 -261375
-1 -1;
#X text 336 224 o;
#X text 325 222 >;
#X obj 903 -179 key;
#X obj 903 -130 sel 39;
#X obj 918 -185 key;
#X obj 917 -138 sel 191;
#X obj 599 565 f;
#X obj 626 565 + 1;
#X obj 628 711 metro;
#X obj 636 762 tgl 15 0 empty empty empty 17 7 0 10 -262144 -1 -1 0
1;
#X obj 670 710 metro;
#X obj 646 663 tgl 15 0 empty empty empty 17 7 0 10 -262144 -1 -1 0
1;
#X floatatom 633 687 5 0 0 0 - - -;
#X floatatom 673 688 5 0 0 0 - - -;
#X text 681 614 SELFTUTO;
#X obj 642 613 t b b;
#X obj 1389 -69 random 200;
#X obj 1283 617 s maravi;
#X obj 1234 432 random 4020;
#X obj 1250 432 random 2520;
#X obj 1284 431 random 2800;
#X obj 1418 -69 random 120;
#X obj 1431 90 s maravi;
#X obj 1026 404 t b b b b b b b b b b b b b b b b b b b b;
#X obj 1299 623 s marasal;
#X obj 1302 433 random 3800;
#X obj 1178 -95 t b b b b b b b b b b b b b b b b b b b b, f 75;
#X obj 1448 90 s marasal;
#X obj 1447 -69 random 300;
#X obj 933 -179 key;
#X obj 933 -130 sel 43;
#X obj 452 209 bng 15 250 50 0 empty empty empty 17 7 0 10 -262144
-1 -1;
#X obj 1243 287 random 1.9e+006;
#X obj 1179 351 tgl 15 0 empty empty empty 17 7 0 10 -262144 -1 -1
0 1;
#X obj 1198 257 metro 200;
#X obj 1112 92 random 1.9e+006;
#X obj 1103 38 tgl 15 0 empty empty empty 17 7 0 10 -262144 -1 -1 0
1;
#X obj 1101 57 metro 200;
#X obj 1177 306 f;
#X obj 1211 300 + 1;
#X obj 1214 321 sel 0 1;
#X obj 1178 327 % 2;
#X obj 21 409 s NEWTOY;
#X obj 1102 656 metro 80;
#X obj 806 646 tgl 15 0 empty empty empty 17 7 0 10 -262144 -1 -1 0
1;
#X obj 1191 611 t f;
#X floatatom 199 243 5 0 0 0 - - -;
#X obj 116 9 loadbang;
#X obj 168 29 t b b b;
#X floatatom 105 32 5 0 0 0 - - -;
#X obj 291 12 SWITCHAT;
#X obj 310 46 t f f;
#X obj 257 46 t f f;
#X obj 197 926 PANTEREUM;
#X obj 603 350 loadbang;
#X msg 586 377 140;
#X obj 138 -16 - 70;
#X obj 103 -16 - 70;
#X text 264 769 PAN MIXER;
#X text 368 844 PAN MIXER;
#X text 231 897 PAN MIXER;
#X text 389 934 PAN MIXER;
#X text 607 543 SELFTUTO;
#X text -37 714 50 SECOND DELAY;
#X text -38 781 50 SECOND DELAY;
#X text -98 745 50 SECOND DELAY;
#X text 1262 -138 WAND WAND;
#X text 1093 350 WAND WAND;
#X text 952 402 WAND WAND;
#X text 1316 523 WAND WAND;
#X text 1495 -19 WAND WAND;
#X text -91 44 E AS T K E Y S;
#X text -82 57 E AS T K E Y S;
#X text -92 376 E AS T K E Y S;
#X text 930 -213 W E S T EKEYS;
#X text 940 -203 W E S T EKEYS;
#X text 773 -140 W E S T EKEYS;
#X obj 870 921 POLYPOLYS;
#X obj 867 897 t f;
#X obj 810 950 zexy/multiplex~ 1 2;
#X text 848 982 MIDI CONDITIONNE;
#X text 740 848 MIDI & QWERTY CONDITIONNE;
#X text 706 939 MIDI & QWERTY;
#X text 999 874 MIDI & QWERTY;
#X text 942 510 WAND WAND;
#X obj 952 930 f;
#X obj 983 929 + 1;
#X obj 952 956 % 2;
#X floatatom 983 956 5 0 0 0 - - -;
#X obj 953 852 key;
#X floatatom 953 878 5 0 0 0 - - -;
#X obj 953 903 sel 78;
#X obj 716 235 loadbang;
#X obj 716 268 t b b;
#X obj 455 423 cyclone/out~;
#X floatatom 1412 812 5 0 0 0 - - -;
#X obj 1404 732 loadbang;
#X msg 1404 787 1200;
#X floatatom 1434 877 5 0 0 0 - - -;
#X obj 1412 837 t f f f;
#X obj 1303 743 f;
#X obj 1303 795 max 0;
#X obj 1532 748 f;
#X obj 1303 769 - 12;
#X obj 1532 774 + 12;
#X obj 1538 830 spigot;
#X obj 1600 810 tgl 15 0 empty empty empty 17 7 0 10 -262144 -1 -1
1 1;
#X obj 1404 758 t b b;
#X msg 1448 778 1;
#X msg 1434 928 0;
#X obj 1532 800 % 5002;
#X obj 1434 902 sel 4092 4080;
#X text 1572 759 DECAY;
#X obj 1333 905 s baeblade;
#X obj 1663 -55 random 200;
#X floatatom 1689 -24 5 0 0 0 - - -;
#X obj 932 440 random 4300;
#X obj 967 469 random 1200;
#X obj 1153 607 / 3;
#X text 329 254 ._.;
#X text 330 306 .-.;
#X text 348 222 <;
#X text 289 473 T I M E;
#X text 269 443 AWAKE;
#X text 149 105 oios;
#X obj 1241 25 random 240;
#X obj 1165 16 random 200;
#X msg 687 305 0.95;
#X msg 735 307 0.95;
#X text 370 276 FLIP;
#X floatatom 844 704 5 0 0 0 - - -;
#X obj 811 728 bng 15 250 50 0 empty empty empty 17 7 0 10 -262144
-1 -1;
#X floatatom 718 1090 5 0 0 0 - - -;
#X msg 604 641 0;
#X msg 984 763 1;
#X text 1119 804 FLIP A;
#X msg 958 764 1;
#X msg 590 663 0;
#X msg 557 689 0;
#X msg 555 666 1;
#X msg 585 761 1;
#X obj 659 485 metro;
#X obj 638 460 tgl 15 0 empty empty empty 17 7 0 10 -262144 -1 -1 0
1;
#X msg 574 642 0;
#X floatatom 710 457 5 0 0 0 - - -;
#X obj 718 628 random 2000;
#X obj 636 637 random 2000;
#X msg 524 691 0;
#X msg 517 721 0;
#X msg 553 716 1;
#X msg 545 740 1;
#X msg 552 763 0;
#X msg 554 783 0;
#X msg 618 790 1;
#X msg 585 792 0;
#X msg 589 816 1;
#X msg 634 839 1;
#X msg 622 813 0;
#X msg 603 837 1;
#X msg 736 738 1;
#X msg 707 764 1;
#X msg 703 740 1;
#X obj 624 586 sel 0 1 2 3 4 5 6;
#X obj 597 587 % 7;
#X text 144 470 *~*;
#X text 316 343 *.*;
#X obj 61 473 key;
#X floatatom 61 496 5 0 0 0 - - -;
#X obj 780 1070 f;
#X obj 807 1070 + 1;
#X obj 61 518 sel 86;
#N canvas 0 50 450 307 \$0-zero 0;
#X obj 59 21 inlet;
#X msg 36 66 0, f 1;
#X msg 53 66 0, f 1;
#X msg 69 66 0, f 1;
#X msg 103 66 0, f 1;
#X msg 131 65 0, f 1;
#X msg 157 64 0, f 1;
#X msg 182 63 0, f 1;
#X msg 205 61 0, f 1;
#X msg 228 57 0, f 1;
#X msg 275 52 0, f 1;
#X obj -55 117 s pri;
#X obj -12 117 s pan;
#X obj 34 117 s prd;
#X obj 9 140 s nuevaalianza;
#X obj 116 140 s pverde;
#X obj 184 138 s pmorena;
#X obj 255 137 s ptrabajo;
#X obj 338 135 s moci;
#X obj 388 133 s nacional;
#X obj 389 88 s texas;
#X obj 462 73 s taxes;
#X obj 469 26 s sexoeneloxxo;
#X msg 17 66 0, f 1;
#X msg 86 66 0, f 1;
#X connect 0 0 23 0;
#X connect 0 0 1 0;
#X connect 0 0 2 0;
#X connect 0 0 3 0;
#X connect 0 0 24 0;
#X connect 0 0 4 0;
#X connect 0 0 5 0;
#X connect 0 0 6 0;
#X connect 0 0 7 0;
#X connect 0 0 8 0;
#X connect 0 0 9 0;
#X connect 0 0 10 0;
#X connect 1 0 12 0;
#X connect 2 0 13 0;
#X connect 3 0 14 0;
#X connect 4 0 16 0;
#X connect 5 0 17 0;
#X connect 6 0 18 0;
#X connect 7 0 19 0;
#X connect 8 0 20 0;
#X connect 9 0 21 0;
#X connect 10 0 22 0;
#X connect 23 0 11 0;
#X connect 24 0 15 0;
#X restore 1154 1221 pd \$0-zero;
#X obj 498 1138 zexy/demultiplex 1 2 3 4 5 6 7 8 9 10 11 12;
#X obj 780 1093 % 12;
#X msg 502 1029 1, f 2;
#X msg 530 1028 0, f 2;
#X obj 509 880 f;
#X obj 536 880 + 1;
#X obj 453 480 bng 15 250 50 0 empty empty empty 17 7 0 10 -262130
-1 -1;
#X obj 468 479 bng 15 250 50 0 empty empty empty 17 7 0 10 -261234
-1 -1;
#X obj 484 480 bng 15 250 50 0 empty empty empty 17 7 0 10 -232576
-1 -1;
#X text 417 1100 graba;
#X text 528 1104 para;
#X text 496 477 continue;
#X obj 364 1209 s pri;
#X obj 407 1209 s pan;
#X obj 453 1209 s prd;
#X obj 502 1210 s nuevaalianza;
#X obj 609 1210 s pverde;
#X obj 677 1208 s pmorena;
#X obj 748 1207 s ptrabajo;
#X obj 866 1211 s moci;
#X obj 916 1209 s nacional;
#X obj 888 1185 s texas;
#X obj 950 1185 s taxes;
#X obj 997 1102 s sexoeneloxxo;
#N canvas 0 50 450 250 (subpatch) 0;
#X array UwU 300 float 2;
#X coords 0 1 300 -1 440 82 1 0 0;
#X restore 107 345 graph;
#X obj 1189 842 tgl 15 0 empty empty empty 17 7 0 10 -262144 -1 -1
1 1;
#X obj 1092 905 r~ elmanala;
#X obj 1246 933 bng 15 250 50 0 empty empty empty 17 7 0 10 -262144
-1 -1;
#X obj 1185 897 metro 120;
#X obj 1140 982 tabwrite~ UwU;
#X obj 1216 806 loadbang;
#X msg 1216 832 1;
#X obj 509 903 % 2;
#X obj 514 994 sel 0 1;
#X obj 584 499 s manzana;
#X connect 1 0 96 0;
#X connect 2 0 96 6;
#X connect 3 0 96 3;
#X connect 4 0 96 8;
#X connect 5 0 96 9;
#X connect 6 0 96 7;
#X connect 7 0 96 5;
#X connect 8 0 255 0;
#X connect 9 0 101 0;
#X connect 10 0 100 0;
#X connect 11 0 244 0;
#X connect 12 0 102 0;
#X connect 16 0 104 0;
#X connect 17 0 103 0;
#X connect 18 0 238 0;
#X connect 18 0 597 0;
#X connect 19 0 105 0;
#X connect 19 0 589 0;
#X connect 25 0 96 1;
#X connect 26 0 96 2;
#X connect 30 0 96 4;
#X connect 31 0 96 10;
#X connect 34 0 96 11;
#X connect 35 0 211 0;
#X connect 46 0 97 1;
#X connect 46 0 144 0;
#X connect 47 0 97 0;
#X connect 49 0 107 0;
#X connect 50 0 106 0;
#X connect 54 0 108 0;
#X connect 56 0 151 1;
#X connect 57 0 152 1;
#X connect 58 0 154 1;
#X connect 58 0 627 0;
#X connect 59 0 155 1;
#X connect 65 0 98 0;
#X connect 66 0 98 3;
#X connect 67 0 98 1;
#X connect 67 0 498 1;
#X connect 68 0 98 2;
#X connect 69 0 98 5;
#X connect 70 0 98 6;
#X connect 74 0 98 4;
#X connect 74 0 499 0;
#X connect 75 0 98 7;
#X connect 77 0 184 0;
#X connect 77 0 523 0;
#X connect 78 0 183 0;
#X connect 78 0 521 0;
#X connect 79 0 186 0;
#X connect 80 0 185 0;
#X connect 96 0 137 0;
#X connect 97 0 149 0;
#X connect 98 0 65 0;
#X connect 98 1 66 0;
#X connect 109 0 110 0;
#X connect 110 0 10 0;
#X connect 111 0 112 0;
#X connect 112 0 9 0;
#X connect 113 0 114 0;
#X connect 114 0 12 0;
#X connect 121 0 117 0;
#X connect 122 0 118 0;
#X connect 123 0 21 0;
#X connect 124 0 115 0;
#X connect 125 0 126 0;
#X connect 126 0 148 0;
#X connect 127 0 128 0;
#X connect 128 0 147 0;
#X connect 129 0 130 0;
#X connect 130 0 146 0;
#X connect 131 0 116 0;
#X connect 132 0 22 0;
#X connect 133 0 120 0;
#X connect 135 0 134 0;
#X connect 138 0 139 0;
#X connect 139 0 50 0;
#X connect 140 0 141 0;
#X connect 141 0 49 0;
#X connect 142 0 143 0;
#X connect 143 0 54 0;
#X connect 145 0 51 0;
#X connect 146 0 19 0;
#X connect 147 0 17 0;
#X connect 148 0 16 0;
#X connect 150 0 151 0;
#X connect 151 0 153 0;
#X connect 152 0 153 1;
#X connect 153 0 160 0;
#X connect 153 0 474 1;
#X connect 153 0 474 2;
#X connect 154 0 159 0;
#X connect 154 0 515 0;
#X connect 155 0 159 1;
#X connect 155 0 515 1;
#X connect 156 0 500 0;
#X connect 157 0 155 0;
#X connect 157 0 158 0;
#X connect 159 0 158 0;
#X connect 159 0 161 0;
#X connect 160 0 162 0;
#X connect 161 0 160 1;
#X connect 163 0 172 0;
#X connect 164 0 168 0;
#X connect 165 0 171 0;
#X connect 166 0 170 0;
#X connect 167 0 169 0;
#X connect 168 0 5 0;
#X connect 169 0 6 0;
#X connect 170 0 3 0;
#X connect 171 0 4 0;
#X connect 172 0 403 0;
#X connect 173 0 152 0;
#X connect 174 0 46 0;
#X connect 175 0 180 0;
#X connect 176 0 179 0;
#X connect 177 0 182 0;
#X connect 178 0 181 0;
#X connect 179 0 78 0;
#X connect 180 0 77 0;
#X connect 181 0 80 0;
#X connect 182 0 79 0;
#X connect 187 0 81 0;
#X connect 188 0 82 0;
#X connect 189 0 190 0;
#X connect 190 0 74 0;
#X connect 191 0 192 0;
#X connect 192 0 75 0;
#X connect 194 0 195 0;
#X connect 195 0 478 0;
#X connect 196 0 197 0;
#X connect 196 0 2 0;
#X connect 197 0 477 0;
#X connect 198 0 194 0;
#X connect 199 0 194 1;
#X connect 200 0 196 1;
#X connect 201 0 196 0;
#X connect 202 0 205 0;
#X connect 203 0 208 0;
#X connect 204 0 202 0;
#X connect 205 0 206 0;
#X connect 206 0 210 0;
#X connect 206 1 209 0;
#X connect 207 0 1 0;
#X connect 208 0 202 1;
#X connect 209 0 207 0;
#X connect 210 0 207 0;
#X connect 211 0 212 0;
#X connect 211 0 213 0;
#X connect 212 0 211 1;
#X connect 213 0 214 0;
#X connect 213 0 226 0;
#X connect 214 0 217 0;
#X connect 214 1 220 0;
#X connect 214 2 223 0;
#X connect 214 3 198 0;
#X connect 214 4 201 0;
#X connect 214 5 230 0;
#X connect 215 0 216 0;
#X connect 216 0 35 0;
#X connect 217 0 227 0;
#X connect 217 1 218 0;
#X connect 217 2 219 0;
#X connect 218 0 201 0;
#X connect 219 0 204 0;
#X connect 220 0 201 0;
#X connect 220 1 221 0;
#X connect 220 2 222 0;
#X connect 221 0 198 0;
#X connect 222 0 204 0;
#X connect 223 0 204 0;
#X connect 223 1 224 0;
#X connect 223 2 225 0;
#X connect 224 0 201 0;
#X connect 225 0 198 0;
#X connect 227 0 198 0;
#X connect 228 0 201 0;
#X connect 229 0 198 0;
#X connect 230 0 229 0;
#X connect 230 1 228 0;
#X connect 230 2 204 0;
#X connect 230 3 233 0;
#X connect 231 0 232 0;
#X connect 232 0 1 0;
#X connect 232 1 2 0;
#X connect 233 0 231 0;
#X connect 235 0 236 0;
#X connect 236 0 237 0;
#X connect 237 0 18 0;
#X connect 239 0 240 0;
#X connect 240 0 241 0;
#X connect 241 0 11 0;
#X connect 242 0 243 0;
#X connect 243 0 226 0;
#X connect 245 0 5 0;
#X connect 246 0 245 1;
#X connect 247 0 6 0;
#X connect 248 0 247 1;
#X connect 249 0 3 0;
#X connect 250 0 418 0;
#X connect 251 0 4 0;
#X connect 252 0 251 1;
#X connect 253 0 7 0;
#X connect 254 0 253 1;
#X connect 255 0 258 0;
#X connect 255 1 259 0;
#X connect 255 2 260 0;
#X connect 255 3 261 0;
#X connect 255 4 262 0;
#X connect 258 0 245 0;
#X connect 259 0 247 0;
#X connect 260 0 249 0;
#X connect 261 0 251 0;
#X connect 262 0 253 0;
#X connect 263 0 264 0;
#X connect 264 0 265 0;
#X connect 265 0 46 0;
#X connect 266 0 264 1;
#X connect 267 0 296 0;
#X connect 268 0 315 0;
#X connect 269 0 351 0;
#X connect 269 0 463 0;
#X connect 270 0 68 0;
#X connect 271 0 270 0;
#X connect 272 0 270 1;
#X connect 272 0 565 0;
#X connect 273 0 67 0;
#X connect 274 0 273 0;
#X connect 275 0 273 1;
#X connect 276 0 70 0;
#X connect 277 0 276 0;
#X connect 278 0 276 1;
#X connect 279 0 69 0;
#X connect 280 0 279 0;
#X connect 281 0 279 1;
#X connect 282 0 312 0;
#X connect 283 0 266 0;
#X connect 284 0 203 0;
#X connect 285 0 200 0;
#X connect 286 0 199 0;
#X connect 287 0 246 0;
#X connect 288 0 248 0;
#X connect 289 0 250 0;
#X connect 290 0 252 0;
#X connect 291 0 254 0;
#X connect 292 0 275 0;
#X connect 293 0 281 0;
#X connect 294 0 272 0;
#X connect 295 0 278 0;
#X connect 296 0 297 0;
#X connect 296 0 298 0;
#X connect 297 0 296 1;
#X connect 298 0 299 0;
#X connect 298 0 551 0;
#X connect 299 0 300 0;
#X connect 299 1 303 0;
#X connect 299 1 552 0;
#X connect 299 2 306 0;
#X connect 299 3 309 0;
#X connect 300 0 301 0;
#X connect 300 1 302 0;
#X connect 301 0 280 0;
#X connect 302 0 274 0;
#X connect 303 0 305 0;
#X connect 303 1 304 0;
#X connect 304 0 280 0;
#X connect 305 0 274 0;
#X connect 306 0 307 0;
#X connect 306 1 308 0;
#X connect 307 0 274 0;
#X connect 308 0 280 0;
#X connect 309 0 555 0;
#X connect 309 1 557 0;
#X connect 310 0 313 0;
#X connect 311 0 314 0;
#X connect 313 0 267 0;
#X connect 314 0 268 0;
#X connect 315 0 316 0;
#X connect 315 0 317 0;
#X connect 316 0 315 1;
#X connect 317 0 318 0;
#X connect 318 0 319 0;
#X connect 318 1 321 0;
#X connect 318 2 324 0;
#X connect 318 3 327 0;
#X connect 319 0 330 0;
#X connect 319 1 320 0;
#X connect 320 0 277 0;
#X connect 321 0 323 0;
#X connect 321 1 322 0;
#X connect 322 0 277 0;
#X connect 323 0 271 0;
#X connect 324 0 325 0;
#X connect 324 1 326 0;
#X connect 325 0 271 0;
#X connect 326 0 277 0;
#X connect 327 0 329 0;
#X connect 327 1 328 0;
#X connect 328 0 277 0;
#X connect 329 0 271 0;
#X connect 330 0 271 0;
#X connect 331 0 362 0;
#X connect 331 0 474 0;
#X connect 332 0 334 0;
#X connect 333 0 335 0;
#X connect 334 0 269 0;
#X connect 335 0 331 0;
#X connect 346 0 278 0;
#X connect 346 0 455 1;
#X connect 347 0 281 0;
#X connect 348 0 250 0;
#X connect 349 0 254 0;
#X connect 349 0 466 0;
#X connect 350 0 444 0;
#X connect 351 0 350 0;
#X connect 351 1 444 0;
#X connect 351 2 352 0;
#X connect 352 0 444 0;
#X connect 353 0 248 0;
#X connect 354 0 252 0;
#X connect 355 0 246 0;
#X connect 356 0 199 0;
#X connect 357 0 200 0;
#X connect 358 0 203 0;
#X connect 359 0 266 0;
#X connect 360 0 447 0;
#X connect 361 0 447 0;
#X connect 362 0 360 0;
#X connect 362 1 447 0;
#X connect 362 2 361 0;
#X connect 362 3 363 0;
#X connect 363 0 447 0;
#X connect 364 0 275 0;
#X connect 364 0 458 1;
#X connect 365 0 272 0;
#X connect 366 0 266 0;
#X connect 367 0 203 0;
#X connect 368 0 200 0;
#X connect 369 0 199 0;
#X connect 370 0 246 0;
#X connect 371 0 254 0;
#X connect 372 0 248 0;
#X connect 373 0 252 0;
#X connect 374 0 250 0;
#X connect 375 0 376 0;
#X connect 376 0 379 0;
#X connect 377 0 378 0;
#X connect 378 0 381 0;
#X connect 379 0 380 0;
#X connect 380 0 388 0;
#X connect 381 0 382 0;
#X connect 382 0 383 0;
#X connect 383 0 384 0;
#X connect 384 0 387 0;
#X connect 385 0 386 0;
#X connect 386 0 384 0;
#X connect 387 0 379 1;
#X connect 387 1 1 0;
#X connect 387 2 381 1;
#X connect 388 0 384 0;
#X connect 389 0 401 0;
#X connect 390 0 402 0;
#X connect 391 0 392 0;
#X connect 392 0 400 0;
#X connect 393 0 394 0;
#X connect 394 0 395 0;
#X connect 395 0 396 0;
#X connect 396 0 399 0;
#X connect 397 0 398 0;
#X connect 398 0 396 0;
#X connect 399 0 391 1;
#X connect 399 1 2 0;
#X connect 399 2 393 1;
#X connect 400 0 396 0;
#X connect 401 0 391 0;
#X connect 402 0 393 0;
#X connect 403 0 404 0;
#X connect 403 1 7 0;
#X connect 404 0 7 0;
#X connect 405 0 408 0;
#X connect 406 0 443 0;
#X connect 413 0 412 0;
#X connect 418 0 249 1;
#X connect 419 0 427 0;
#X connect 420 0 436 0;
#X connect 423 0 424 0;
#X connect 424 0 419 0;
#X connect 425 0 426 0;
#X connect 426 0 420 0;
#X connect 427 0 428 0;
#X connect 427 0 584 0;
#X connect 428 0 427 1;
#X connect 429 0 269 0;
#X connect 430 0 429 0;
#X connect 431 0 331 0;
#X connect 432 0 431 0;
#X connect 433 0 429 1;
#X connect 434 0 431 1;
#X connect 436 0 567 0;
#X connect 436 1 566 0;
#X connect 437 0 407 0;
#X connect 437 0 455 1;
#X connect 439 0 410 0;
#X connect 440 0 411 0;
#X connect 441 0 438 0;
#X connect 442 0 409 0;
#X connect 444 0 537 0;
#X connect 444 1 538 0;
#X connect 444 2 346 0;
#X connect 444 3 347 0;
#X connect 444 4 353 0;
#X connect 444 5 348 0;
#X connect 444 6 354 0;
#X connect 444 7 349 0;
#X connect 444 8 355 0;
#X connect 444 9 356 0;
#X connect 444 10 357 0;
#X connect 444 11 358 0;
#X connect 444 12 359 0;
#X connect 444 14 439 0;
#X connect 444 15 440 0;
#X connect 444 16 413 0;
#X connect 444 17 441 0;
#X connect 444 18 446 0;
#X connect 446 0 445 0;
#X connect 447 0 364 0;
#X connect 447 1 365 0;
#X connect 447 2 546 0;
#X connect 447 3 547 0;
#X connect 447 5 366 0;
#X connect 447 6 367 0;
#X connect 447 7 368 0;
#X connect 447 8 369 0;
#X connect 447 9 370 0;
#X connect 447 10 371 0;
#X connect 447 11 372 0;
#X connect 447 12 373 0;
#X connect 447 13 374 0;
#X connect 447 14 437 0;
#X connect 447 15 405 0;
#X connect 447 16 442 0;
#X connect 447 17 406 0;
#X connect 447 18 449 0;
#X connect 447 18 535 0;
#X connect 449 0 448 0;
#X connect 450 0 451 0;
#X connect 451 0 452 0;
#X connect 452 0 459 0;
#X connect 453 0 65 0;
#X connect 454 0 455 0;
#X connect 455 0 453 0;
#X connect 456 0 66 0;
#X connect 457 0 458 0;
#X connect 458 0 456 0;
#X connect 459 0 460 0;
#X connect 459 0 462 0;
#X connect 460 0 459 1;
#X connect 461 0 454 0;
#X connect 461 1 457 0;
#X connect 462 0 461 0;
#X connect 464 0 420 0;
#X connect 465 0 464 0;
#X connect 466 0 539 0;
#X connect 467 0 471 0;
#X connect 468 0 469 0;
#X connect 471 0 473 0;
#X connect 471 1 472 0;
#X connect 472 0 197 1;
#X connect 472 1 195 1;
#X connect 473 0 477 1;
#X connect 473 1 478 1;
#X connect 474 0 515 0;
#X connect 474 1 515 1;
#X connect 475 0 476 0;
#X connect 476 0 467 0;
#X connect 477 0 2 0;
#X connect 478 0 1 0;
#X connect 478 0 470 0;
#X connect 498 0 500 1;
#X connect 499 0 498 0;
#X connect 500 0 154 0;
#X connect 506 0 507 0;
#X connect 506 0 508 0;
#X connect 507 0 506 1;
#X connect 508 0 509 0;
#X connect 509 0 500 0;
#X connect 510 0 511 0;
#X connect 511 0 512 0;
#X connect 512 0 506 0;
#X connect 513 0 514 0;
#X connect 514 0 548 0;
#X connect 514 1 549 0;
#X connect 516 0 520 0;
#X connect 517 0 528 0;
#X connect 518 0 516 0;
#X connect 519 0 532 0;
#X connect 519 0 534 0;
#X connect 520 0 521 1;
#X connect 520 1 519 0;
#X connect 520 2 523 1;
#X connect 521 0 524 0;
#X connect 522 0 516 0;
#X connect 523 0 525 0;
#X connect 524 0 522 0;
#X connect 525 0 531 0;
#X connect 526 0 516 0;
#X connect 527 0 526 1;
#X connect 528 0 518 0;
#X connect 528 1 529 0;
#X connect 529 0 527 0;
#X connect 530 0 527 0;
#X connect 531 0 526 0;
#X connect 532 0 530 0;
#X connect 532 1 529 0;
#X connect 535 0 536 0;
#X connect 537 0 275 0;
#X connect 538 0 272 0;
#X connect 539 0 464 1;
#X connect 546 0 281 0;
#X connect 547 0 278 0;
#X connect 548 0 58 0;
#X connect 549 0 59 0;
#X connect 554 0 432 0;
#X connect 555 0 280 0;
#X connect 557 0 274 0;
#X connect 558 0 430 0;
#X connect 559 0 432 0;
#X connect 560 0 430 0;
#X connect 561 0 432 0;
#X connect 562 0 420 0;
#X connect 563 0 562 0;
#X connect 564 0 563 0;
#X connect 565 0 562 1;
#X connect 566 0 434 0;
#X connect 567 0 433 0;
#X connect 568 0 563 0;
#X connect 569 0 432 0;
#X connect 570 0 430 0;
#X connect 571 0 563 0;
#X connect 572 0 430 0;
#X connect 573 0 563 0;
#X connect 574 0 432 0;
#X connect 575 0 430 0;
#X connect 576 0 563 0;
#X connect 577 0 432 0;
#X connect 578 0 563 0;
#X connect 579 0 430 0;
#X connect 580 0 432 0;
#X connect 581 0 563 0;
#X connect 582 0 430 0;
#X connect 583 0 430 0;
#X connect 583 0 554 0;
#X connect 583 0 558 0;
#X connect 583 0 564 0;
#X connect 583 1 560 0;
#X connect 583 1 559 0;
#X connect 583 1 568 0;
#X connect 583 2 569 0;
#X connect 583 2 570 0;
#X connect 583 2 571 0;
#X connect 583 3 572 0;
#X connect 583 3 561 0;
#X connect 583 3 573 0;
#X connect 583 4 575 0;
#X connect 583 4 574 0;
#X connect 583 4 576 0;
#X connect 583 5 578 0;
#X connect 583 5 577 0;
#X connect 583 5 579 0;
#X connect 583 6 582 0;
#X connect 583 6 580 0;
#X connect 583 6 581 0;
#X connect 584 0 583 0;
#X connect 587 0 588 0;
#X connect 588 0 591 0;
#X connect 589 0 590 0;
#X connect 589 0 594 0;
#X connect 590 0 589 1;
#X connect 591 0 18 0;
#X connect 593 0 605 0;
#X connect 593 1 606 0;
#X connect 593 2 607 0;
#X connect 593 3 608 0;
#X connect 593 4 609 0;
#X connect 593 5 610 0;
#X connect 593 6 611 0;
#X connect 593 7 612 0;
#X connect 593 8 613 0;
#X connect 593 9 614 0;
#X connect 593 10 615 0;
#X connect 593 11 616 0;
#X connect 594 0 553 0;
#X connect 594 0 593 1;
#X connect 594 0 601 0;
#X connect 595 0 593 0;
#X connect 595 0 599 0;
#X connect 596 0 593 0;
#X connect 596 0 600 0;
#X connect 597 0 598 0;
#X connect 597 0 625 0;
#X connect 598 0 597 1;
#X connect 618 0 621 0;
#X connect 619 0 622 0;
#X connect 620 0 622 0;
#X connect 621 0 620 0;
#X connect 623 0 624 0;
#X connect 624 0 618 0;
#X connect 625 0 626 0;
#X connect 626 0 595 0;
#X connect 626 1 596 0;
#X coords 0 -1 1 1 458 400 1 100 100;
