#N canvas 1046 287 774 523 16;
#X obj 253 465 cyclone/out~;
#N canvas -9 -9 1920 976 ckicked 0;
#X obj 250 212 phasor~;
#X obj 223 241 expr~ $v1 > 0.5;
#X obj 335 161 vline~;
#X obj 334 197 *~;
#X obj 300 373 *~;
#X obj 355 84 f 250;
#X floatatom 427 85 5 0 0 0 - - -;
#X obj 544 187 bng 15 250 50 0 empty empty empty 17 7 0 10 -262144
-1 -1;
#X obj 78 43 vline~;
#X obj 77 79 *~;
#X obj 75 115 *~ 89;
#X obj 73 147 +~ 29;
#X obj 95 184 mtof~;
#X obj 139 228 *~ 1;
#X floatatom 189 174 5 0 0 0 - - -;
#X msg 80 7 1.6 \, 0.5 5 \, 0 \$1 5;
#X obj 63 305 *~ 1.7;
#X floatatom 131 268 5 0 0 0 - - -;
#X obj 145 355 vcf~ 0.9;
#X floatatom 213 313 5 0 2 0 - - -;
#X floatatom 136 99 5 0 0 0 - - -;
#X obj 46 377 noise~;
#X obj 391 306 osc~;
#X obj 432 271 *~ 0.734;
#X floatatom 500 237 5 0 0 0 - - -;
#X obj 311 461 outlet~;
#X obj 695 85 inlet;
#X obj 429 29 inlet;
#X obj 466 203 inlet;
#X obj 567 210 inlet;
#X obj 593 38 inlet;
#X msg 337 125 0.07 \, 1 25 \, 0.5 60 5 \, 0 \$1 65;
#X obj 313 412 *~ 2;
#X connect 0 0 1 0;
#X connect 1 0 18 0;
#X connect 2 0 3 0;
#X connect 2 0 3 1;
#X connect 3 0 4 1;
#X connect 4 0 32 0;
#X connect 5 0 31 0;
#X connect 5 0 15 0;
#X connect 6 0 5 1;
#X connect 7 0 5 0;
#X connect 8 0 9 0;
#X connect 8 0 9 1;
#X connect 9 0 10 0;
#X connect 10 0 11 0;
#X connect 11 0 12 0;
#X connect 12 0 13 0;
#X connect 12 0 16 0;
#X connect 13 0 0 0;
#X connect 13 0 23 0;
#X connect 14 0 13 1;
#X connect 15 0 8 0;
#X connect 16 0 18 1;
#X connect 17 0 16 1;
#X connect 18 1 4 0;
#X connect 19 0 18 2;
#X connect 20 0 10 1;
#X connect 21 0 18 0;
#X connect 22 0 4 0;
#X connect 23 0 22 0;
#X connect 24 0 23 1;
#X connect 26 0 7 0;
#X connect 27 0 6 0;
#X connect 28 0 24 0;
#X connect 29 0 17 0;
#X connect 30 0 20 0;
#X connect 31 0 2 0;
#X connect 32 0 25 0;
#X restore 36 373 pd ckicked;
#X obj 31 271 vsl 15 78 0 3500 0 0 empty empty empty 0 -9 0 10 -262130
-1 -1 200 1;
#X obj 60 272 vsl 15 78 0 3 0 0 empty empty empty 0 -9 0 10 -262144
-1 -1 3500 1;
#X obj 93 273 vsl 15 78 0 23 0 0 empty empty empty 0 -9 0 10 -262144
-1 -1 0 1;
#X obj 35 406 hsl 128 15 0 650 0 0 empty empty empty -2 -8 0 10 -262144
-1 -1 1100 1;
#N canvas -19 48 962 976 HHihhha 0;
#X obj 93 120 noise~;
#X obj 139 185 *~;
#X obj 175 163 vline~;
#X obj 186 198 *~;
#X obj 186 96 f 120;
#X floatatom 228 65 5 0 0 0 - - -;
#X obj 150 258 outlet~;
#X obj 91 69 bng 15 250 50 0 empty empty empty 17 7 0 10 -262144 -1
-1;
#X obj 314 71 inlet;
#X obj 56 232 bp~ 100 10;
#X floatatom 228 197 5 0 0 0 - - -;
#X obj 228 231 mtof;
#X obj 296 616 delwrite~ vacas 357;
#X obj 309 552 *~;
#X obj 401 492 *~;
#X obj 224 764 outlet~;
#X obj 310 504 *~;
#X obj 269 583 +~;
#X obj 308 465 line~;
#X msg 302 419 0 8;
#X obj 387 403 delread~ vacas 752;
#X floatatom 390 369 5 0 0 0 - - -;
#X obj 335 363 f;
#X msg 250 414 1 8;
#X obj 401 310 t b f;
#X obj 337 320 del 8;
#X floatatom 369 523 5 0 0 0 - - -;
#X floatatom 403 270 5 0 0 0 - - -;
#X obj 247 678 vcf~ 0.8;
#X floatatom 352 699 5 0 0 0 - - -;
#X floatatom 355 656 5 0 0 0 - - -;
#X obj 236 731 *~ 2;
#X obj 53 308 hip~ 5;
#X floatatom 171 305 5 0 0 0 - - -;
#X msg 177 125 0.5 \, 1 5 \, 0.5 25 5 \, 0 \$1 20;
#X obj 170 349 * 12;
#X obj 519 368 inlet;
#X obj 465 233 r muf;
#X obj 455 517 r duff;
#X obj 222 349 r lo;
#X obj 445 652 r re;
#X obj 351 743 * 2;
#X obj 452 708 r f;
#X obj 452 36 inlet;
#X msg 832 298 \; duff 0.89 \; muf 72 \; lo 1 \; re 0.87 \; f 54 \;
mmole 130 \; chichi 889 \;;
#X obj 290 192 r mmole;
#X obj 310 263 r chichi;
#X obj 874 252 loadbang;
#X connect 0 0 1 0;
#X connect 1 0 9 0;
#X connect 2 0 3 0;
#X connect 2 0 3 1;
#X connect 3 0 1 1;
#X connect 4 0 34 0;
#X connect 5 0 4 0;
#X connect 7 0 4 0;
#X connect 8 0 5 0;
#X connect 9 0 17 0;
#X connect 9 0 32 0;
#X connect 10 0 11 0;
#X connect 11 0 9 1;
#X connect 13 0 17 1;
#X connect 16 0 13 0;
#X connect 17 0 12 0;
#X connect 17 0 28 0;
#X connect 18 0 16 1;
#X connect 19 0 18 0;
#X connect 20 0 16 0;
#X connect 21 0 20 0;
#X connect 22 0 21 0;
#X connect 23 0 18 0;
#X connect 24 0 19 0;
#X connect 24 1 22 1;
#X connect 25 0 22 0;
#X connect 25 0 23 0;
#X connect 26 0 13 1;
#X connect 27 0 24 0;
#X connect 28 0 31 0;
#X connect 29 0 41 0;
#X connect 30 0 28 2;
#X connect 31 0 15 0;
#X connect 32 0 6 0;
#X connect 33 0 35 0;
#X connect 34 0 2 0;
#X connect 35 0 32 1;
#X connect 36 0 21 0;
#X connect 37 0 27 0;
#X connect 38 0 26 0;
#X connect 39 0 23 0;
#X connect 40 0 30 0;
#X connect 41 0 28 1;
#X connect 42 0 29 0;
#X connect 43 0 7 0;
#X connect 45 0 10 0;
#X connect 46 0 33 0;
#X connect 47 0 44 0;
#X restore 192 388 pd HHihhha;
#X obj 194 298 vsl 15 78 0.2 3000 0 0 empty empty empty 0 -9 0 10 -261234
-1 -1 200 1;
#X obj 279 297 vsl 15 78 0 350 0 0 empty empty empty 0 -9 0 10 -262144
-1 -1 300 1;
#N canvas 106 115 1118 527 Guzman 0;
#X obj 133 68 noise~;
#X obj 127 112 hip~;
#X obj 124 146 lop~;
#X floatatom 229 83 5 0 0 0 - - -;
#X obj 203 123 + 500;
#X obj 316 107 t b f;
#X floatatom 317 61 5 0 0 0 - - -;
#X obj 130 194 *~;
#X obj 204 250 vline~;
#X msg 194 214 1 0.2 \, 0 \$1 0.2;
#X obj 197 177 f 235;
#X obj 279 146 bng 15 250 50 0 empty empty empty 17 7 0 10 -262144
-1 -1;
#X floatatom 301 179 5 0 0 0 - - -;
#X obj 377 268 vline~;
#X msg 367 232 1 0.2 \, 0 \$1 0.2;
#X obj 370 195 f 235;
#X floatatom 474 197 5 0 0 0 - - -;
#X obj 371 159 del 20;
#X obj 559 283 vline~;
#X msg 549 247 1 0.2 \, 0 \$1 0.2;
#X obj 552 210 f 235;
#X floatatom 656 212 5 0 0 0 - - -;
#X obj 728 283 vline~;
#X msg 718 247 1 0.2 \, 0 \$1 0.2;
#X obj 721 210 f 235;
#X floatatom 825 212 5 0 0 0 - - -;
#X obj 722 174 del 20;
#X obj 504 103 inlet;
#X obj 815 173 * 5;
#X obj 62 282 outlet~;
#X obj 60 195 *~ 3;
#X obj 672 40 inlet;
#X msg 1046 73 \; paf 1000 \;;
#X obj 525 25 r paf;
#X obj 1078 11 loadbang;
#X obj 532 61 inlet;
#X obj 553 174 del 20;
#X connect 0 0 1 0;
#X connect 1 0 2 0;
#X connect 2 0 7 0;
#X connect 3 0 1 1;
#X connect 3 0 4 0;
#X connect 4 0 2 1;
#X connect 5 0 4 0;
#X connect 5 1 4 1;
#X connect 6 0 5 0;
#X connect 7 0 30 0;
#X connect 8 0 7 1;
#X connect 9 0 8 0;
#X connect 10 0 9 0;
#X connect 11 0 10 0;
#X connect 11 0 17 0;
#X connect 12 0 10 1;
#X connect 13 0 7 1;
#X connect 14 0 13 0;
#X connect 15 0 14 0;
#X connect 16 0 15 1;
#X connect 17 0 15 0;
#X connect 17 0 36 0;
#X connect 18 0 7 1;
#X connect 19 0 18 0;
#X connect 20 0 19 0;
#X connect 21 0 20 1;
#X connect 22 0 7 1;
#X connect 23 0 22 0;
#X connect 24 0 23 0;
#X connect 25 0 24 1;
#X connect 26 0 24 0;
#X connect 27 0 12 0;
#X connect 27 0 16 0;
#X connect 27 0 28 0;
#X connect 27 0 21 0;
#X connect 28 0 25 0;
#X connect 30 0 29 0;
#X connect 31 0 3 0;
#X connect 33 0 6 0;
#X connect 34 0 32 0;
#X connect 35 0 11 0;
#X connect 36 0 20 0;
#X connect 36 0 26 0;
#X restore 318 182 pd Guzman;
#N canvas 792 226 801 300 Cymbaliko 0;
#X obj 165 66 noise~;
#X obj 200 130 *~;
#X obj 254 111 vline~;
#X obj 251 41 f 250;
#X floatatom 319 -3 5 0 0 0 - - -;
#X obj 263 13 bng 15 250 50 0 empty empty empty 17 7 0 10 -262144 -1
-1;
#N canvas 721 556 450 300 Filthz 0;
#X obj 167 42 inlet~;
#X obj 144 239 outlet~;
#X obj 157 78 biquad~ 0.638282 -0.176456 0.134544 0.269087 0.134544
;
#X obj 157 108 biquad~ 0.88843 -0.568944 0.614344 -1.22869 0.614344
;
#X obj 163 138 biquad~ 0.88843 -0.568944 0.614344 -1.22869 0.614344
;
#X obj 167 169 biquad~ 1.86507 -0.892661 0.939432 -1.87886 0.939432
;
#X text 267 220 esto se logra con lp res 7000Hz \, q= 0.6 res hp 6800Hz
\, q:1.5 reship 1200Hz 1:1.6;
#X connect 0 0 2 0;
#X connect 2 0 3 0;
#X connect 3 0 4 0;
#X connect 4 0 5 0;
#X connect 5 0 1 0;
#X restore 83 99 pd Filthz;
#N canvas 0 50 509 300 ciento 0;
#X obj 25 114 phasor~;
#X obj 25 142 expr~ $v1 < 0.5;
#X obj 110 77 phasor~;
#X obj 109 111 expr~ $v1 < 0.799;
#X obj 187 139 phasor~;
#X obj 187 167 expr~ $v1 < 0.49;
#X obj 193 45 phasor~;
#X obj 193 73 expr~ $v1 < 0.54;
#X obj 290 106 phasor~;
#X obj 290 134 expr~ $v1 < 0.54;
#X obj 78 258 outlet~;
#X obj 16 21 phasor~;
#X obj 16 49 expr~ $v1 < 0.62;
#X obj 15 81 * 1.3945;
#X obj 372 103 * 3.9265;
#X obj 272 41 * 2.65;
#X obj 101 170 * 1.165;
#X obj 99 20 * 0.165;
#X obj 194 13 inlet;
#X obj 80 217 *~ 1.04;
#X connect 0 0 1 0;
#X connect 1 0 19 0;
#X connect 2 0 3 0;
#X connect 3 0 19 0;
#X connect 4 0 5 0;
#X connect 5 0 19 0;
#X connect 6 0 7 0;
#X connect 7 0 19 0;
#X connect 8 0 9 0;
#X connect 9 0 19 0;
#X connect 11 0 12 0;
#X connect 12 0 19 0;
#X connect 13 0 0 0;
#X connect 14 0 8 0;
#X connect 15 0 6 0;
#X connect 16 0 4 0;
#X connect 17 0 2 0;
#X connect 18 0 11 0;
#X connect 18 0 17 0;
#X connect 18 0 15 0;
#X connect 18 0 13 0;
#X connect 18 0 14 0;
#X connect 18 0 16 0;
#X connect 19 0 10 0;
#X restore 52 68 pd ciento;
#X floatatom 60 41 5 0 0 0 - - -;
#X obj 80 129 freeverb~;
#X obj 242 237 outlet~;
#X obj 329 204 delread~ \$0-del 5;
#X obj 251 151 delwrite~ \$0-del 10;
#X obj 339 37 inlet;
#X obj 394 8 inlet;
#X msg 240 73 1 2 \, 0.4 \$1 2 \, 0 \$1 \$1;
#X obj 651 67 inlet;
#X connect 0 0 6 0;
#X connect 1 0 12 0;
#X connect 1 0 10 0;
#X connect 2 0 1 1;
#X connect 3 0 15 0;
#X connect 4 0 3 1;
#X connect 5 0 3 0;
#X connect 6 0 9 0;
#X connect 7 0 6 0;
#X connect 8 0 7 0;
#X connect 9 0 1 0;
#X connect 11 0 10 0;
#X connect 13 0 4 0;
#X connect 14 0 8 0;
#X connect 15 0 2 0;
#X connect 16 0 5 0;
#X restore 318 367 pd Cymbaliko;
#X obj 326 300 vsl 15 60 0.4 3000 0 0 empty empty empty 0 -9 0 10 -228856
-1 -1 700 1;
#X obj 423 296 vsl 15 60 0 3500 0 0 empty empty empty 0 -9 0 10 -262144
-1 -1 1000 1;
#X obj 331 112 vsl 15 60 0 350 0 0 empty empty empty 0 -9 0 10 -260097
-1 -1 100 1;
#X obj 388 115 vsl 15 60 0 9500 0 0 empty empty empty 0 -9 0 10 -262144
-1 -1 3600 1;
#X obj 376 340 bng 15 250 50 0 empty empty empty 17 7 0 10 -262144
-1 -1;
#X obj 236 351 bng 15 250 50 0 empty empty empty 17 7 0 10 -262144
-1 -1;
#X obj 127 328 bng 15 250 50 0 empty empty empty 17 7 0 10 -262144
-1 -1;
#N canvas -9 -9 1920 976 ckicked 0;
#X obj 250 212 phasor~;
#X obj 223 241 expr~ $v1 > 0.5;
#X obj 335 161 vline~;
#X obj 334 197 *~;
#X obj 300 373 *~;
#X obj 355 84 f 250;
#X floatatom 427 85 5 0 0 0 - - -;
#X obj 544 187 bng 15 250 50 0 empty empty empty 17 7 0 10 -262144
-1 -1;
#X obj 78 43 vline~;
#X obj 77 79 *~;
#X obj 75 115 *~ 89;
#X obj 73 147 +~ 29;
#X obj 95 184 mtof~;
#X obj 139 228 *~ 1;
#X floatatom 189 174 5 0 0 0 - - -;
#X msg 80 7 1.6 \, 0.5 5 \, 0 \$1 5;
#X obj 63 305 *~ 1.7;
#X floatatom 131 268 5 0 0 0 - - -;
#X obj 145 355 vcf~ 0.9;
#X floatatom 213 313 5 0 2 0 - - -;
#X floatatom 136 99 5 0 0 0 - - -;
#X obj 46 377 noise~;
#X obj 391 306 osc~;
#X obj 432 271 *~ 0.734;
#X floatatom 500 237 5 0 0 0 - - -;
#X obj 311 461 outlet~;
#X obj 695 85 inlet;
#X obj 429 29 inlet;
#X obj 466 203 inlet;
#X obj 567 210 inlet;
#X obj 593 38 inlet;
#X msg 337 125 0.07 \, 1 25 \, 0.5 60 5 \, 0 \$1 65;
#X obj 313 412 *~ 2;
#X connect 0 0 1 0;
#X connect 1 0 18 0;
#X connect 2 0 3 0;
#X connect 2 0 3 1;
#X connect 3 0 4 1;
#X connect 4 0 32 0;
#X connect 5 0 31 0;
#X connect 5 0 15 0;
#X connect 6 0 5 1;
#X connect 7 0 5 0;
#X connect 8 0 9 0;
#X connect 8 0 9 1;
#X connect 9 0 10 0;
#X connect 10 0 11 0;
#X connect 11 0 12 0;
#X connect 12 0 13 0;
#X connect 12 0 16 0;
#X connect 13 0 0 0;
#X connect 13 0 23 0;
#X connect 14 0 13 1;
#X connect 15 0 8 0;
#X connect 16 0 18 1;
#X connect 17 0 16 1;
#X connect 18 1 4 0;
#X connect 19 0 18 2;
#X connect 20 0 10 1;
#X connect 21 0 18 0;
#X connect 22 0 4 0;
#X connect 23 0 22 0;
#X connect 24 0 23 1;
#X connect 26 0 7 0;
#X connect 27 0 6 0;
#X connect 28 0 24 0;
#X connect 29 0 17 0;
#X connect 30 0 20 0;
#X connect 31 0 2 0;
#X connect 32 0 25 0;
#X restore 41 194 pd ckicked;
#X obj 28 99 vsl 15 78 0 3500 0 0 empty empty empty 0 -9 0 10 -4032
-1 -1 800 1;
#X obj 57 100 vsl 15 78 0 3 0 0 empty empty empty 0 -9 0 10 -262144
-1 -1 2400 1;
#X obj 90 101 vsl 15 78 0 23 0 0 empty empty empty 0 -9 0 10 -262144
-1 -1 0 1;
#X obj 32 234 hsl 128 15 0 650 0 0 empty empty empty -2 -8 0 10 -262144
-1 -1 400 1;
#X obj 124 156 bng 15 250 50 0 empty empty empty 17 7 0 10 -262144
-1 -1;
#X obj 360 138 bng 15 250 50 0 empty empty empty 17 7 0 10 -262144
-1 -1;
#N canvas -9 -9 1920 976 angular 0;
#X obj 28 117 metro;
#X obj 61 143 metro;
#X obj 91 172 metro;
#X obj 120 200 metro;
#X obj 151 225 metro;
#X obj 177 253 metro;
#X obj 197 279 metro;
#X obj 216 304 metro;
#X obj 109 110 * 0.5;
#X obj 143 141 * 2;
#X obj 153 167 * 0.3;
#X obj 260 274 * 6;
#X obj 216 218 * 3;
#X obj 187 193 * 8;
#X obj 236 243 * 5;
#X obj 429 24 tgl 30 0 empty empty empty 17 7 0 10 -204786 -1 -1 0
1;
#X floatatom 543 369 5 0 0 0 - - -;
#X obj -5 353 zexy/multiplex 1 2 3 4 5 6 7 8;
#X obj 27 381 s gaspaccio;
#X obj 537 27 metro;
#X obj 570 53 metro;
#X obj 600 82 metro;
#X obj 629 110 metro;
#X obj 660 135 metro;
#X obj 686 163 metro;
#X obj 706 189 metro;
#X obj 725 214 metro;
#X obj 618 20 * 0.5;
#X obj 652 51 * 2;
#X obj 662 77 * 0.3;
#X obj 782 188 * 6;
#X obj 725 128 * 3;
#X obj 696 103 * 8;
#X obj 745 153 * 5;
#X obj 491 290 zexy/multiplex 1 2 3 4 5 6 7 8;
#X obj 815 230 metro;
#X obj 875 243 metro;
#X obj 930 149 metro;
#X obj 959 177 metro;
#X obj 990 202 metro;
#X obj 1016 230 metro;
#X obj 1036 256 metro;
#X obj 1055 281 metro;
#X obj 877 97 * 0.5;
#X obj 954 108 * 2;
#X obj 990 136 * 0.3;
#X obj 1099 251 * 6;
#X obj 1055 195 * 3;
#X obj 1026 170 * 8;
#X obj 1075 220 * 5;
#X obj 809 319 zexy/multiplex 1 2 3 4 5 6 7 8;
#X obj 341 365 metro;
#X obj 374 391 metro;
#X obj 404 420 metro;
#X obj 433 448 metro;
#X obj 464 473 metro;
#X obj 490 501 metro;
#X obj 510 527 metro;
#X obj 529 552 metro;
#X obj 422 358 * 0.5;
#X obj 449 387 * 2;
#X obj 464 417 * 0.3;
#X obj 1285 542 * 6;
#X obj 529 466 * 3;
#X obj 494 441 * 8;
#X obj 549 491 * 5;
#X obj 283 590 zexy/multiplex 1 2 3 4 5 6 7 8;
#X obj 661 363 metro;
#X obj 694 389 metro;
#X obj 724 418 metro;
#X obj 753 446 metro;
#X obj 784 471 metro;
#X obj 810 499 metro;
#X obj 830 525 metro;
#X obj 849 550 metro;
#X obj 722 355 * 0.5;
#X obj 776 387 * 2;
#X obj 786 413 * 0.3;
#X obj 893 520 * 6;
#X obj 849 464 * 3;
#X obj 820 439 * 8;
#X obj 869 489 * 5;
#X obj 603 588 zexy/multiplex 1 2 3 4 5 6 7 8;
#X obj 1004 359 metro;
#X obj 1037 385 metro;
#X obj 1067 414 metro;
#X obj 1096 442 metro;
#X obj 1127 467 metro;
#X obj 1153 495 metro;
#X obj 1173 521 metro;
#X obj 1192 546 metro;
#X obj 1085 352 * 0.5;
#X obj 1119 383 * 2;
#X obj 1129 409 * 0.3;
#X obj 1236 516 * 6;
#X obj 1192 460 * 3;
#X obj 1163 435 * 8;
#X obj 1212 485 * 5;
#X obj 946 584 zexy/multiplex 1 2 3 4 5 6 7 8;
#X obj 517 319 s mum;
#X obj 838 354 s dad;
#X obj 967 533 s hat;
#X obj 627 542 s hato;
#X obj 227 552 s coke;
#X obj 340 26 inlet;
#X obj 1598 321 inlet;
#X obj 1256 97 f;
#X obj 1301 97 + 1;
#X obj 1256 125 % 8;
#X obj 1254 66 bng 15 250 50 0 empty empty empty 17 7 0 10 -262144
-1 -1;
#X obj 1339 96 f;
#X obj 1384 96 + 1;
#X obj 1339 124 % 8;
#X obj 1337 65 bng 15 250 50 0 empty empty empty 17 7 0 10 -262144
-1 -1;
#X obj 1422 95 f;
#X obj 1467 95 + 1;
#X obj 1422 123 % 8;
#X obj 1420 64 bng 15 250 50 0 empty empty empty 17 7 0 10 -262144
-1 -1;
#X obj 1510 93 f;
#X obj 1555 93 + 1;
#X obj 1510 121 % 8;
#X obj 1508 62 bng 15 250 50 0 empty empty empty 17 7 0 10 -262144
-1 -1;
#X obj 1166 96 f;
#X obj 1211 96 + 1;
#X obj 1166 124 % 8;
#X obj 1164 65 bng 15 250 50 0 empty empty empty 17 7 0 10 -262144
-1 -1;
#X obj 1078 96 f;
#X obj 1123 96 + 1;
#X obj 1078 124 % 8;
#X obj 1076 65 bng 15 250 50 0 empty empty empty 17 7 0 10 -262144
-1 -1;
#X text 97 45 P U L S E I Z;
#X text 1263 13 C H O O S E E;
#X obj 996 3 inlet;
#X obj 1096 6 inlet;
#X obj 1169 3 inlet;
#X obj 923 2 inlet;
#X obj 1484 15 inlet;
#X obj 1277 45 inlet;
#X obj 1330 248 motex/shuffle 0.1 16.4 17.2;
#X obj 1119 157 t b b b b b b b b b b b b b b b b b b b b b b b b b
b b b b b b b b;
#X obj 1195 284 cyclone/bucket 44, f 60;
#X obj 1747 358 inlet;
#X obj 1719 447 t b b b b b b;
#X connect 0 0 17 0;
#X connect 1 0 17 1;
#X connect 2 0 17 2;
#X connect 3 0 17 3;
#X connect 4 0 17 4;
#X connect 5 0 17 5;
#X connect 6 0 17 6;
#X connect 7 0 17 7;
#X connect 8 0 1 1;
#X connect 9 0 2 1;
#X connect 10 0 3 1;
#X connect 11 0 7 1;
#X connect 12 0 5 1;
#X connect 13 0 4 1;
#X connect 14 0 6 1;
#X connect 15 0 0 0;
#X connect 15 0 1 0;
#X connect 15 0 2 0;
#X connect 15 0 3 0;
#X connect 15 0 4 0;
#X connect 15 0 5 0;
#X connect 15 0 6 0;
#X connect 15 0 7 0;
#X connect 15 0 19 0;
#X connect 15 0 20 0;
#X connect 15 0 21 0;
#X connect 15 0 22 0;
#X connect 15 0 23 0;
#X connect 15 0 24 0;
#X connect 15 0 25 0;
#X connect 15 0 26 0;
#X connect 15 0 35 0;
#X connect 15 0 36 0;
#X connect 15 0 37 0;
#X connect 15 0 38 0;
#X connect 15 0 39 0;
#X connect 15 0 40 0;
#X connect 15 0 41 0;
#X connect 15 0 42 0;
#X connect 15 0 51 0;
#X connect 15 0 52 0;
#X connect 15 0 53 0;
#X connect 15 0 54 0;
#X connect 15 0 55 0;
#X connect 15 0 56 0;
#X connect 15 0 57 0;
#X connect 15 0 58 0;
#X connect 15 0 67 0;
#X connect 15 0 68 0;
#X connect 15 0 69 0;
#X connect 15 0 70 0;
#X connect 15 0 71 0;
#X connect 15 0 72 0;
#X connect 15 0 73 0;
#X connect 15 0 74 0;
#X connect 15 0 83 0;
#X connect 15 0 84 0;
#X connect 15 0 85 0;
#X connect 15 0 86 0;
#X connect 15 0 87 0;
#X connect 15 0 88 0;
#X connect 15 0 89 0;
#X connect 15 0 90 0;
#X connect 16 0 8 0;
#X connect 16 0 0 1;
#X connect 16 0 9 0;
#X connect 16 0 10 0;
#X connect 16 0 13 0;
#X connect 16 0 12 0;
#X connect 16 0 14 0;
#X connect 16 0 11 0;
#X connect 16 0 27 0;
#X connect 16 0 19 1;
#X connect 16 0 28 0;
#X connect 16 0 29 0;
#X connect 16 0 32 0;
#X connect 16 0 31 0;
#X connect 16 0 33 0;
#X connect 16 0 30 0;
#X connect 16 0 51 1;
#X connect 16 0 59 0;
#X connect 16 0 60 0;
#X connect 16 0 64 0;
#X connect 16 0 61 0;
#X connect 16 0 63 0;
#X connect 16 0 65 0;
#X connect 16 0 62 0;
#X connect 16 0 67 1;
#X connect 16 0 75 0;
#X connect 16 0 76 0;
#X connect 16 0 77 0;
#X connect 16 0 80 0;
#X connect 16 0 79 0;
#X connect 16 0 81 0;
#X connect 16 0 78 0;
#X connect 16 0 91 0;
#X connect 16 0 92 0;
#X connect 16 0 93 0;
#X connect 16 0 96 0;
#X connect 16 0 95 0;
#X connect 16 0 97 0;
#X connect 16 0 94 0;
#X connect 16 0 35 1;
#X connect 16 0 83 1;
#X connect 16 0 43 0;
#X connect 16 0 44 0;
#X connect 16 0 45 0;
#X connect 16 0 48 0;
#X connect 16 0 47 0;
#X connect 16 0 49 0;
#X connect 16 0 46 0;
#X connect 17 0 18 0;
#X connect 19 0 34 0;
#X connect 20 0 34 1;
#X connect 21 0 34 2;
#X connect 22 0 34 3;
#X connect 23 0 34 4;
#X connect 24 0 34 5;
#X connect 25 0 34 6;
#X connect 26 0 34 7;
#X connect 27 0 20 1;
#X connect 28 0 21 1;
#X connect 29 0 22 1;
#X connect 30 0 26 1;
#X connect 31 0 24 1;
#X connect 32 0 23 1;
#X connect 33 0 25 1;
#X connect 34 0 99 0;
#X connect 35 0 50 0;
#X connect 36 0 50 1;
#X connect 37 0 50 2;
#X connect 38 0 50 3;
#X connect 39 0 50 4;
#X connect 40 0 50 5;
#X connect 41 0 50 6;
#X connect 42 0 50 7;
#X connect 43 0 36 1;
#X connect 44 0 37 1;
#X connect 45 0 38 1;
#X connect 46 0 42 1;
#X connect 47 0 40 1;
#X connect 48 0 39 1;
#X connect 49 0 41 1;
#X connect 50 0 100 0;
#X connect 51 0 66 0;
#X connect 52 0 66 1;
#X connect 53 0 66 2;
#X connect 54 0 66 3;
#X connect 55 0 66 4;
#X connect 56 0 66 5;
#X connect 57 0 66 6;
#X connect 58 0 66 7;
#X connect 59 0 52 1;
#X connect 60 0 53 1;
#X connect 61 0 54 1;
#X connect 62 0 58 1;
#X connect 63 0 56 1;
#X connect 64 0 55 1;
#X connect 65 0 57 1;
#X connect 66 0 103 0;
#X connect 67 0 82 0;
#X connect 68 0 82 1;
#X connect 69 0 82 2;
#X connect 70 0 82 3;
#X connect 71 0 82 4;
#X connect 72 0 82 5;
#X connect 73 0 82 6;
#X connect 74 0 82 7;
#X connect 75 0 68 1;
#X connect 76 0 69 1;
#X connect 77 0 70 1;
#X connect 78 0 74 1;
#X connect 79 0 72 1;
#X connect 80 0 71 1;
#X connect 81 0 73 1;
#X connect 82 0 102 0;
#X connect 83 0 98 0;
#X connect 84 0 98 1;
#X connect 85 0 98 2;
#X connect 86 0 98 3;
#X connect 87 0 98 4;
#X connect 88 0 98 5;
#X connect 89 0 98 6;
#X connect 90 0 98 7;
#X connect 91 0 84 1;
#X connect 92 0 85 1;
#X connect 93 0 86 1;
#X connect 94 0 90 1;
#X connect 95 0 88 1;
#X connect 96 0 87 1;
#X connect 97 0 89 1;
#X connect 98 0 101 0;
#X connect 104 0 15 0;
#X connect 105 0 16 0;
#X connect 106 0 107 0;
#X connect 106 0 108 0;
#X connect 107 0 106 1;
#X connect 108 0 82 8;
#X connect 109 0 106 0;
#X connect 110 0 111 0;
#X connect 110 0 112 0;
#X connect 111 0 110 1;
#X connect 112 0 34 8;
#X connect 113 0 110 0;
#X connect 114 0 115 0;
#X connect 114 0 116 0;
#X connect 115 0 114 1;
#X connect 116 0 50 8;
#X connect 117 0 114 0;
#X connect 118 0 119 0;
#X connect 118 0 120 0;
#X connect 119 0 118 1;
#X connect 120 0 98 8;
#X connect 121 0 118 0;
#X connect 122 0 123 0;
#X connect 122 0 124 0;
#X connect 123 0 122 1;
#X connect 124 0 66 8;
#X connect 125 0 122 0;
#X connect 126 0 127 0;
#X connect 126 0 128 0;
#X connect 127 0 126 1;
#X connect 128 0 17 8;
#X connect 129 0 126 0;
#X connect 132 0 121 0;
#X connect 133 0 109 0;
#X connect 134 0 125 0;
#X connect 135 0 129 0;
#X connect 136 0 117 0;
#X connect 137 0 113 0;
#X connect 138 0 140 0;
#X connect 139 0 138 0;
#X connect 139 1 138 0;
#X connect 139 2 138 0;
#X connect 139 3 138 0;
#X connect 139 4 138 0;
#X connect 139 5 138 0;
#X connect 139 6 138 0;
#X connect 139 7 138 0;
#X connect 139 8 138 0;
#X connect 139 9 138 0;
#X connect 139 10 138 0;
#X connect 139 11 138 0;
#X connect 139 12 138 0;
#X connect 139 13 138 0;
#X connect 139 14 138 0;
#X connect 139 15 138 0;
#X connect 139 16 138 0;
#X connect 139 17 138 0;
#X connect 139 18 138 0;
#X connect 139 19 138 0;
#X connect 139 20 138 0;
#X connect 139 21 138 0;
#X connect 139 22 138 0;
#X connect 139 23 138 0;
#X connect 139 24 138 0;
#X connect 139 25 138 0;
#X connect 139 26 138 0;
#X connect 139 27 138 0;
#X connect 139 28 138 0;
#X connect 139 29 138 0;
#X connect 139 30 138 0;
#X connect 139 31 138 0;
#X connect 139 32 138 0;
#X connect 140 0 43 1;
#X connect 140 1 44 1;
#X connect 140 2 45 1;
#X connect 140 3 48 1;
#X connect 140 4 47 1;
#X connect 140 5 49 1;
#X connect 140 6 46 1;
#X connect 140 7 91 1;
#X connect 140 8 92 1;
#X connect 140 9 93 1;
#X connect 140 10 96 1;
#X connect 140 11 95 1;
#X connect 140 12 97 1;
#X connect 140 13 94 1;
#X connect 140 14 75 1;
#X connect 140 15 76 1;
#X connect 140 16 77 1;
#X connect 140 17 80 1;
#X connect 140 18 79 1;
#X connect 140 19 81 1;
#X connect 140 20 78 1;
#X connect 140 21 27 1;
#X connect 140 22 28 1;
#X connect 140 23 29 1;
#X connect 140 24 32 1;
#X connect 140 25 31 1;
#X connect 140 26 33 1;
#X connect 140 27 30 1;
#X connect 140 28 8 1;
#X connect 140 29 9 1;
#X connect 140 30 10 1;
#X connect 140 31 13 1;
#X connect 140 32 12 1;
#X connect 140 33 14 1;
#X connect 140 34 11 1;
#X connect 140 35 59 1;
#X connect 140 36 60 1;
#X connect 140 37 61 1;
#X connect 140 38 64 1;
#X connect 140 39 63 1;
#X connect 140 40 65 1;
#X connect 140 41 62 1;
#X connect 141 0 139 0;
#X connect 141 0 142 0;
#X connect 142 0 129 0;
#X connect 142 1 125 0;
#X connect 142 2 109 0;
#X connect 142 3 113 0;
#X connect 142 4 117 0;
#X connect 142 5 121 0;
#X restore 477 81 pd angular momentium;
#X obj 33 424 r gaspaccio;
#X obj 349 79 r mum;
#X obj 118 115 r dad;
#X obj 354 305 r coke;
#X obj 213 302 r hat;
#X obj 443 46 tgl 30 0 empty empty empty 17 7 0 10 -262144 -1 -1 0
1;
#X floatatom 660 53 5 0 0 0 - - -;
#X obj 515 59 bng 15 250 50 0 empty empty empty 17 7 0 10 -261234 -1
-1;
#X obj 546 58 bng 15 250 50 0 empty empty empty 17 7 0 10 -261682 -1
-1;
#X obj 579 59 bng 15 250 50 0 empty empty empty 17 7 0 10 -228856 -1
-1;
#X obj 482 58 bng 15 250 50 0 empty empty empty 17 7 0 10 -262130 -1
-1;
#X obj 637 59 bng 15 250 50 0 empty empty empty 17 7 0 10 -4032 -1
-1;
#X obj 609 58 bng 15 250 50 0 empty empty empty 17 7 0 10 -260097 -1
-1;
#N canvas 0 50 450 300 ALMIXIARIO 0;
#X restore 555 353 pd ALMIXIARIO;
#X obj 690 115 bng 45 250 50 0 empty empty empty 17 7 0 10 -262144
-1 -1;
#N canvas -9 -9 1920 976 ckicked 0;
#X obj 250 212 phasor~;
#X obj 223 241 expr~ $v1 > 0.5;
#X obj 335 161 vline~;
#X obj 334 197 *~;
#X obj 300 373 *~;
#X obj 355 84 f 250;
#X floatatom 427 85 5 0 0 0 - - -;
#X obj 544 187 bng 15 250 50 0 empty empty empty 17 7 0 10 -262144
-1 -1;
#X obj 78 43 vline~;
#X obj 77 79 *~;
#X obj 75 115 *~ 89;
#X obj 73 147 +~ 29;
#X obj 95 184 mtof~;
#X obj 139 228 *~ 1;
#X floatatom 189 174 5 0 0 0 - - -;
#X msg 80 7 1.6 \, 0.5 5 \, 0 \$1 5;
#X obj 63 305 *~ 1.7;
#X floatatom 131 268 5 0 0 0 - - -;
#X obj 145 355 vcf~ 0.9;
#X floatatom 213 313 5 0 2 0 - - -;
#X floatatom 136 99 5 0 0 0 - - -;
#X obj 46 377 noise~;
#X obj 391 306 osc~;
#X obj 432 271 *~ 0.734;
#X floatatom 500 237 5 0 0 0 - - -;
#X obj 311 461 outlet~;
#X obj 695 85 inlet;
#X obj 429 29 inlet;
#X obj 466 203 inlet;
#X obj 567 210 inlet;
#X obj 593 38 inlet;
#X msg 337 125 0.07 \, 1 25 \, 0.5 60 5 \, 0 \$1 65;
#X obj 313 412 *~ 2;
#X connect 0 0 1 0;
#X connect 1 0 18 0;
#X connect 2 0 3 0;
#X connect 2 0 3 1;
#X connect 3 0 4 1;
#X connect 4 0 32 0;
#X connect 5 0 31 0;
#X connect 5 0 15 0;
#X connect 6 0 5 1;
#X connect 7 0 5 0;
#X connect 8 0 9 0;
#X connect 8 0 9 1;
#X connect 9 0 10 0;
#X connect 10 0 11 0;
#X connect 11 0 12 0;
#X connect 12 0 13 0;
#X connect 12 0 16 0;
#X connect 13 0 0 0;
#X connect 13 0 23 0;
#X connect 14 0 13 1;
#X connect 15 0 8 0;
#X connect 16 0 18 1;
#X connect 17 0 16 1;
#X connect 18 1 4 0;
#X connect 19 0 18 2;
#X connect 20 0 10 1;
#X connect 21 0 18 0;
#X connect 22 0 4 0;
#X connect 23 0 22 0;
#X connect 24 0 23 1;
#X connect 26 0 7 0;
#X connect 27 0 6 0;
#X connect 28 0 24 0;
#X connect 29 0 17 0;
#X connect 30 0 20 0;
#X connect 31 0 2 0;
#X connect 32 0 25 0;
#X restore 191 181 pd ckicked;
#X obj 178 86 vsl 15 78 0 3500 0 0 empty empty empty 0 -9 0 10 -4032
-1 -1 0 1;
#X obj 207 87 vsl 15 78 0 3 0 0 empty empty empty 0 -9 0 10 -262144
-1 -1 0 1;
#X obj 240 88 vsl 15 78 0 23 0 0 empty empty empty 0 -9 0 10 -262144
-1 -1 0 1;
#X obj 182 221 hsl 128 15 0 650 0 0 empty empty empty -2 -8 0 10 -262144
-1 -1 0 1;
#X obj 274 143 bng 15 250 50 0 empty empty empty 17 7 0 10 -262144
-1 -1;
#X obj 268 102 r dad;
#X connect 1 0 0 0;
#X connect 1 0 0 1;
#X connect 2 0 1 0;
#X connect 3 0 1 1;
#X connect 4 0 1 2;
#X connect 5 0 1 3;
#X connect 6 0 0 1;
#X connect 7 0 6 0;
#X connect 8 0 6 2;
#X connect 9 0 0 1;
#X connect 10 0 0 1;
#X connect 10 0 0 0;
#X connect 11 0 10 0;
#X connect 12 0 10 1;
#X connect 13 0 9 0;
#X connect 14 0 9 2;
#X connect 15 0 10 2;
#X connect 16 0 6 1;
#X connect 17 0 1 4;
#X connect 18 0 0 0;
#X connect 19 0 18 0;
#X connect 20 0 18 1;
#X connect 21 0 18 2;
#X connect 22 0 18 3;
#X connect 23 0 18 4;
#X connect 24 0 9 1;
#X connect 26 0 17 0;
#X connect 27 0 24 0;
#X connect 28 0 23 0;
#X connect 29 0 15 0;
#X connect 30 0 16 0;
#X connect 31 0 25 0;
#X connect 32 0 25 7;
#X connect 33 0 25 2;
#X connect 34 0 25 3;
#X connect 35 0 25 4;
#X connect 36 0 25 1;
#X connect 37 0 25 6;
#X connect 38 0 25 5;
#X connect 40 0 25 8;
#X connect 42 0 41 0;
#X connect 43 0 41 1;
#X connect 44 0 41 2;
#X connect 45 0 41 3;
#X connect 46 0 41 4;
#X connect 47 0 46 0;
