#N canvas 990 195 941 684 12;
#X floatatom 732 92 7 0 0 0 - - -;
#X floatatom 655 199 5 0 0 0 - - -;
#X floatatom 729 195 5 0 0 0 - - -;
#X floatatom 798 193 5 0 0 0 - - -;
#X floatatom 832 106 5 0 0 0 - - -;
#X obj 769 198 bng 15 250 50 0 empty empty empty 17 7 0 10 -262144
-1 -1;
#X obj 701 202 bng 15 250 50 0 empty empty empty 17 7 0 10 -262144
-1 -1;
#X obj 841 198 bng 15 250 50 0 empty empty empty 17 7 0 10 -262144
-1 -1;
#X obj 684 148 bng 15 250 50 0 empty empty empty 17 7 0 10 -262144
-1 -1;
#X obj 731 226 f;
#X obj 793 224 f;
#X obj 632 226 f;
#X obj 832 141 t b f;
#X obj 697 166 zexy/demultiplex 1 2 3 4;
#X text 834 37 SEL;
#X obj 653 117 f;
#X obj 746 135 t f f f;
#X obj 877 120 f;
#X obj 877 172 % 4300;
#X floatatom 866 199 5 0 0 0 - - -;
#X obj 909 204 bng 15 250 50 0 empty empty empty 17 7 0 10 -262144
-1 -1;
#X obj 871 224 f;
#X obj 653 143 - 4;
#X obj 877 146 + 4;
#X text 734 107 W I N S;
#X obj 650 88 r menoswins;
#X obj 882 94 r maswins;
#X obj 785 57 r cualeswins;
#X obj 785 83 f;
#X obj 815 82 + 1;
#X obj 845 82 % 4;
#X obj 646 169 max -3;
#X obj 662 225 t f f;
#X obj 727 251 t f f;
#X obj 825 223 t f f;
#X obj 903 227 t f f;
#X obj 652 269 s wini;
#X obj 768 291 s dejup;
#X obj 826 250 s wiu;
#X obj 901 267 s diu;
#X msg 551 79 \; mem 116 \; IDE 32 \; ASS 120 \; WI 63 \;;
#X obj 550 47 loadbang;
#X obj 612 195 r mem;
#X obj 586 223 r IDE;
#X obj 590 255 r ASS;
#X obj 933 200 r WI;
#X text 744 117 W I N S;
#X text 712 42 W I N S;
#X text 247 428 SEL;
#X obj 212 586 s recol;
#X obj 139 586 s reflujo;
#X obj 246 445 r famsa;
#X obj 75 586 s AMADE;
#X text 113 440 A M R E F I L L;
#X obj 276 586 s tokers;
#X obj 1314 135 f;
#X obj 1314 187 max 0;
#X floatatom 1352 135 9 0 0 0 - - -;
#X obj 1420 136 f;
#X obj 1352 160 t f f f;
#X obj 1358 188 zexy/demultiplex 1 2;
#X obj 1313 109 r menofee;
#X obj 1385 108 r masfee;
#X obj 1455 134 f;
#X obj 1483 134 + 1;
#X obj 1486 159 t b f;
#X obj 1361 215 bng 15 250 50 0 empty empty empty 17 7 0 10 -262144
-1 -1;
#X obj 1345 235 f;
#X floatatom 1379 213 5 0 0 0 - - -;
#X obj 1345 261 t f f;
#X obj 1482 219 bng 15 250 50 0 empty empty empty 17 7 0 10 -262144
-1 -1;
#X obj 1486 240 f;
#X floatatom 1525 209 8 0 0 0 - - -;
#X obj 1451 107 r inicialfee;
#X obj 1388 239 / 100;
#X floatatom 1390 280 5 0 0 0 - - -;
#X obj 1348 306 s feedfeed;
#X obj 1521 188 bng 15 250 50 0 empty empty empty 17 7 0 10 -262144
-1 -1;
#X text 1358 83 FINE TUNE AND FEEDBACK;
#X obj 1559 165 r jumpstreet;
#X obj 1455 160 % 2;
#X obj 1493 267 t f;
#X obj 1495 305 s ana;
#X obj 1420 162 + 8;
#X obj 1314 161 - 8;
#X obj 1435 253 min 1;
#X obj 1053 481 f;
#X obj 1178 480 f;
#X floatatom 1104 479 8 0 0 0 - - -;
#X obj 1101 510 t f f f;
#X floatatom 1115 582 5 0 0 0 - - -;
#X obj 1045 454 r menospeacha;
#X obj 1150 452 r maspeacha;
#X text 1161 418 C O C O P E A C H E S;
#X obj 1248 478 f;
#X obj 1373 477 f;
#X floatatom 1299 476 8 0 0 0 - - -;
#X obj 1304 502 t f f f;
#X floatatom 1314 617 5 0 0 0 - - -;
#X obj 1240 451 r menospeachb;
#X obj 1345 449 r maspeachb;
#X obj 1167 627 s peaa;
#X obj 1368 615 s peab;
#X obj 1175 562 r apea;
#X obj 1115 607 f;
#X floatatom 1115 633 5 0 0 0 - - -;
#X obj 1188 598 bng 15 250 50 0 empty empty empty 17 7 0 10 -262144
-1 -1;
#X obj 1116 552 / 500;
#X obj 1057 665 * 500;
#X obj 1053 704 t f;
#X obj 1116 663 t f f;
#X obj 1134 707 s elnim;
#X obj 1315 533 / 500;
#X floatatom 1315 559 5 0 0 0 - - -;
#X obj 1315 584 f;
#X obj 1368 559 r apeab;
#X obj 1376 592 bng 15 250 50 0 empty empty empty 17 7 0 10 -262144
-1 -1;
#X obj 1314 642 t f f;
#X obj 1314 668 * 500;
#X obj 1277 669 t f;
#X obj 1372 684 s vipo;
#X obj 1018 607 r DOREMI;
#X obj 294 469 r resei;
#X obj 552 189 r r1;
#X obj 561 274 r r2;
#X obj 993 220 r r3;
#X obj 976 174 r r4;
#X obj 552 215 t b f;
#X obj 563 254 bng 15 250 50 0 empty empty empty 17 7 0 10 -262144
-1 -1;
#X obj 672 293 t b f;
#X obj 625 280 bng 15 250 50 0 empty empty empty 17 7 0 10 -262144
-1 -1;
#X obj 995 243 t b f;
#X obj 991 268 bng 15 250 50 0 empty empty empty 17 7 0 10 -262144
-1 -1;
#X obj 976 199 t b f;
#X obj 1000 128 bng 15 250 50 0 empty empty empty 17 7 0 10 -262144
-1 -1;
#X obj 1034 512 - 0.4;
#X obj 1178 506 + 0.4;
#X obj 1248 504 - 0.8;
#X obj 1373 503 + 0.8;
#X obj 1247 618 r REMIDO;
#X obj 126 485 unoalcienbebe;
#X obj 226 446 bng 15 250 50 0 empty empty empty 17 7 0 10 -262144
-1 -1;
#X obj 126 514 zexy/demultiplex 1 2 3 4;
#X obj 236 468 f;
#X obj 265 469 + 1;
#X obj 236 491 % 4;
#X floatatom 264 491 5 0 0 0 - - -;
#X obj 76 563 f;
#X floatatom 103 541 4 0 0 0 - - -;
#X obj 84 542 bng 15 250 50 0 empty empty empty 17 7 0 10 -262144 -1
-1;
#X obj 105 563 t f f;
#X obj 146 563 f;
#X floatatom 173 541 4 0 0 0 - - -;
#X obj 154 542 bng 15 250 50 0 empty empty empty 17 7 0 10 -262144
-1 -1;
#X obj 175 563 t f f;
#X obj 217 563 f;
#X floatatom 244 541 4 0 0 0 - - -;
#X obj 225 542 bng 15 250 50 0 empty empty empty 17 7 0 10 -262144
-1 -1;
#X obj 246 563 t f f;
#X obj 287 563 f;
#X floatatom 314 541 4 0 0 0 - - -;
#X obj 295 542 bng 15 250 50 0 empty empty empty 17 7 0 10 -262144
-1 -1;
#X obj 316 563 t f f;
#X obj 303 490 t b b b b;
#X msg 303 514 0, f 1;
#X msg 320 514 0, f 1;
#X msg 337 514 0, f 1;
#X msg 354 514 0, f 1;
#X obj 136 608 s refluii;
#X obj 207 608 s recolll;
#X obj 276 608 s toksss;
#X obj 53 621 s amalo;
#X obj 193 463 t b b;
#X connect 0 0 16 0;
#X connect 1 0 11 1;
#X connect 2 0 9 1;
#X connect 3 0 10 1;
#X connect 4 0 12 0;
#X connect 5 0 9 0;
#X connect 6 0 11 0;
#X connect 7 0 10 0;
#X connect 8 0 13 0;
#X connect 9 0 33 0;
#X connect 10 0 34 0;
#X connect 11 0 32 0;
#X connect 12 0 8 0;
#X connect 12 1 13 1;
#X connect 13 0 1 0;
#X connect 13 0 6 0;
#X connect 13 1 2 0;
#X connect 13 1 5 0;
#X connect 13 2 3 0;
#X connect 13 2 7 0;
#X connect 13 3 19 0;
#X connect 13 3 20 0;
#X connect 15 0 22 0;
#X connect 16 0 15 1;
#X connect 16 1 13 0;
#X connect 16 2 17 1;
#X connect 17 0 23 0;
#X connect 18 0 0 0;
#X connect 19 0 21 1;
#X connect 20 0 21 0;
#X connect 21 0 35 0;
#X connect 22 0 31 0;
#X connect 23 0 18 0;
#X connect 25 0 15 0;
#X connect 26 0 17 0;
#X connect 27 0 28 0;
#X connect 28 0 29 0;
#X connect 28 0 30 0;
#X connect 29 0 28 1;
#X connect 30 0 4 0;
#X connect 31 0 0 0;
#X connect 32 0 36 0;
#X connect 32 1 0 0;
#X connect 33 0 0 0;
#X connect 33 1 37 0;
#X connect 34 0 0 0;
#X connect 34 1 38 0;
#X connect 35 0 0 0;
#X connect 35 1 39 0;
#X connect 41 0 40 0;
#X connect 42 0 1 0;
#X connect 43 0 2 0;
#X connect 44 0 3 0;
#X connect 45 0 19 0;
#X connect 51 0 141 0;
#X connect 55 0 84 0;
#X connect 56 0 57 0;
#X connect 57 0 59 0;
#X connect 58 0 83 0;
#X connect 59 0 55 1;
#X connect 59 1 60 0;
#X connect 59 2 58 1;
#X connect 60 0 66 0;
#X connect 60 0 68 0;
#X connect 60 1 70 0;
#X connect 60 1 72 0;
#X connect 61 0 55 0;
#X connect 62 0 58 0;
#X connect 63 0 64 0;
#X connect 63 0 80 0;
#X connect 64 0 63 1;
#X connect 65 0 77 0;
#X connect 65 1 60 1;
#X connect 66 0 67 0;
#X connect 67 0 69 0;
#X connect 68 0 67 1;
#X connect 69 0 74 0;
#X connect 69 1 57 0;
#X connect 70 0 71 0;
#X connect 71 0 57 0;
#X connect 71 0 81 0;
#X connect 72 0 71 1;
#X connect 73 0 63 0;
#X connect 74 0 85 0;
#X connect 75 0 76 0;
#X connect 77 0 60 0;
#X connect 79 0 72 0;
#X connect 80 0 65 0;
#X connect 81 0 82 0;
#X connect 83 0 57 0;
#X connect 84 0 56 0;
#X connect 85 0 75 0;
#X connect 86 0 135 0;
#X connect 87 0 136 0;
#X connect 88 0 89 0;
#X connect 89 0 86 1;
#X connect 89 1 107 0;
#X connect 89 2 87 1;
#X connect 90 0 104 0;
#X connect 91 0 86 0;
#X connect 92 0 87 0;
#X connect 94 0 137 0;
#X connect 95 0 138 0;
#X connect 96 0 97 0;
#X connect 97 0 94 1;
#X connect 97 1 112 0;
#X connect 97 2 95 1;
#X connect 98 0 102 0;
#X connect 98 0 117 0;
#X connect 99 0 94 0;
#X connect 100 0 95 0;
#X connect 103 0 104 1;
#X connect 103 0 106 0;
#X connect 104 0 105 0;
#X connect 105 0 101 0;
#X connect 105 0 110 0;
#X connect 106 0 104 0;
#X connect 107 0 90 0;
#X connect 108 0 109 0;
#X connect 109 0 88 0;
#X connect 110 0 108 0;
#X connect 110 1 111 0;
#X connect 112 0 113 0;
#X connect 113 0 114 0;
#X connect 114 0 98 0;
#X connect 115 0 114 1;
#X connect 115 0 116 0;
#X connect 116 0 114 0;
#X connect 117 0 118 0;
#X connect 117 1 120 0;
#X connect 118 0 119 0;
#X connect 119 0 96 0;
#X connect 121 0 105 0;
#X connect 122 0 163 0;
#X connect 123 0 127 0;
#X connect 124 0 129 0;
#X connect 125 0 131 0;
#X connect 126 0 133 0;
#X connect 127 0 128 0;
#X connect 127 1 11 1;
#X connect 128 0 11 0;
#X connect 129 0 130 0;
#X connect 129 1 9 1;
#X connect 130 0 9 0;
#X connect 131 0 132 0;
#X connect 131 1 3 0;
#X connect 132 0 10 0;
#X connect 133 0 134 0;
#X connect 133 1 21 1;
#X connect 134 0 21 0;
#X connect 135 0 88 0;
#X connect 136 0 88 0;
#X connect 137 0 96 0;
#X connect 138 0 96 0;
#X connect 139 0 98 0;
#X connect 140 0 142 0;
#X connect 141 0 172 0;
#X connect 142 0 148 0;
#X connect 142 0 149 0;
#X connect 142 1 153 0;
#X connect 142 1 152 0;
#X connect 142 2 157 0;
#X connect 142 2 156 0;
#X connect 142 3 161 0;
#X connect 142 3 160 0;
#X connect 143 0 144 0;
#X connect 143 0 145 0;
#X connect 144 0 143 1;
#X connect 145 0 146 0;
#X connect 146 0 142 1;
#X connect 147 0 150 0;
#X connect 148 0 147 1;
#X connect 149 0 147 0;
#X connect 150 0 52 0;
#X connect 150 1 171 0;
#X connect 151 0 154 0;
#X connect 152 0 151 1;
#X connect 153 0 151 0;
#X connect 154 0 50 0;
#X connect 154 1 168 0;
#X connect 155 0 158 0;
#X connect 156 0 155 1;
#X connect 157 0 155 0;
#X connect 158 0 49 0;
#X connect 158 1 169 0;
#X connect 159 0 162 0;
#X connect 160 0 159 1;
#X connect 161 0 159 0;
#X connect 162 0 54 0;
#X connect 162 1 170 0;
#X connect 163 0 164 0;
#X connect 163 1 165 0;
#X connect 163 2 166 0;
#X connect 163 3 167 0;
#X connect 164 0 148 0;
#X connect 165 0 152 0;
#X connect 166 0 156 0;
#X connect 167 0 160 0;
#X connect 172 0 142 0;
#X connect 172 1 143 0;
