#N canvas 212 93 831 821 12;
#X obj 357 172 table cocai;
#X obj 329 146 tabwrite~ cocai;
#X obj 319 86 sel 1 0;
#X obj 413 93 tgl 50 0 empty empty empty 17 7 0 10 -261682 -1 -1 0
1;
#X obj 253 118 t b b;
#X msg 375 117 stop;
#X obj 247 147 timer;
#X obj 208 174 / 1000;
#X obj 258 173 * 33000;
#X floatatom 166 257 9 0 0 0 - - -;
#X obj 327 283 tabread4~ cocai;
#X obj 316 203 phasor~;
#X obj 316 229 *~;
#X obj 348 229 +~;
#X floatatom 49 202 7 0 0 0 - - -;
#X obj 254 90 loadbang;
#X obj 166 90 samplerate~;
#X obj 186 145 s cocai;
#X msg 136 118 resize \$1;
#X obj 129 144 /;
#X obj 162 172 t f f;
#X obj 254 70 bng 15 250 50 0 empty empty empty 17 7 0 10 -262144 -1
-1;
#X obj 238 223 t f f;
#X text 414 65 GRABA;
#X floatatom 433 230 5 0 0 0 - - -;
#X obj 104 202 * -1;
#X floatatom 104 230 7 0 0 0 - - -;
#X obj 138 202 t f f;
#X obj 167 231 sel 1 0;
#X obj 249 253 tgl 50 0 empty empty empty 17 7 0 10 -261682 -1 -1 0
1;
#X text 248 305 F L I P;
#X floatatom 383 204 5 0 0 0 - - -;
#X obj 317 257 windowing/kaiser~;
#X floatatom 449 257 5 0 0 0 - - -;
#X obj 449 282 / 500;
#X msg 444 147 0;
#X obj 297 114 t b b;
#X obj 345 115 t b;
#X text 110 348 SAMPLERA;
#X obj 75 349 t f;
#X obj 113 173 t f f;
#X obj 381 92 t b;
#X obj 491 257 loadbang;
#X msg 495 281 1.5;
#X obj 380 229 * 3500;
#X obj 82 0 bng 30 250 50 0 empty empty empty 17 7 0 10 -262144 -1
-1;
#X obj 78 34 f;
#X obj 109 35 + 1;
#X text 248 369 S K I P;
#X obj 124 12 bng 15 250 50 0 empty empty empty 17 7 0 10 -262144 -1
-1;
#X obj 147 34 s zero;
#X obj 426 202 r skippo;
#X obj 159 0 bng 30 250 50 0 empty empty empty 17 7 0 10 -262144 -1
-1;
#X obj 178 61 random 50;
#X obj 255 331 tgl 40 0 empty empty empty 17 7 0 10 -262144 -1 -1 1
1;
#X obj 194 7 sel 1 0;
#X obj 593 511 *~ 2;
#X obj 593 425 sel 1 0;
#X obj 687 432 tgl 50 0 empty empty empty 17 7 0 10 -261682 -1 -1 0
1;
#X obj 527 457 t b b;
#X msg 649 456 stop;
#X obj 521 486 timer;
#X obj 482 513 / 1000;
#X obj 532 512 * 33000;
#X floatatom 503 531 9 0 0 0 - - -;
#X obj 590 542 phasor~;
#X obj 590 568 *~;
#X obj 622 568 +~;
#X floatatom 323 541 7 0 0 0 - - -;
#X obj 528 429 loadbang;
#X obj 440 429 samplerate~;
#X obj 488 457 * 60;
#X msg 410 457 resize \$1;
#X obj 403 483 /;
#X obj 436 511 t f f;
#X obj 528 409 bng 15 250 50 0 empty empty empty 17 7 0 10 -262144
-1 -1;
#X obj 512 562 t f f;
#X text 688 404 GRABA;
#X text 381 632 DIPEACH;
#X floatatom 707 569 5 0 0 0 - - -;
#X obj 378 541 * -1;
#X floatatom 378 569 7 0 0 0 - - -;
#X obj 412 541 t f f;
#X obj 441 570 sel 1 0;
#X obj 523 592 tgl 50 0 empty empty empty 17 7 0 10 -261682 -1 -1 0
1;
#X text 522 644 F L I P;
#X floatatom 657 543 5 0 0 0 - - -;
#X obj 591 596 windowing/kaiser~;
#X floatatom 723 596 5 0 0 0 - - -;
#X obj 723 621 / 500;
#X msg 718 486 0;
#X obj 571 453 t b b;
#X obj 619 454 t b;
#X text 384 687 SAMPLERA;
#X obj 365 720 t f;
#X obj 343 436 t f f;
#X obj 655 431 t b;
#X obj 765 596 loadbang;
#X msg 769 620 1.5;
#X obj 654 568 * 3500;
#X obj 356 339 bng 30 250 50 0 empty empty empty 17 7 0 10 -262144
-1 -1;
#X obj 352 373 f;
#X obj 383 374 + 1;
#N canvas 0 50 1649 300 skies 0;
#X obj 229 42 inlet;
#X msg -1005 294 2;
#X msg -1042 332 4;
#X msg -1009 333 6;
#X msg -973 334 8;
#X msg -940 335 10;
#X msg -907 332 12;
#X msg -875 334 14;
#X msg -836 333 16;
#X msg -797 333 18;
#X msg -754 330 20;
#X msg -718 333 22;
#X msg -687 333 24;
#X msg -657 330 26;
#X msg -626 331 28;
#X msg -593 332 30;
#X msg -854 306 32;
#X msg -818 307 34;
#X msg -784 306 36;
#X msg -752 309 38;
#X msg -719 308 40;
#X msg -685 307 41;
#X msg -649 306 43;
#X msg -614 305 45;
#X msg -580 304 47;
#X msg -547 304 49;
#X msg -514 305 51;
#X msg -483 306 53;
#X msg -450 304 55;
#X msg -415 300 57;
#X msg -379 299 59;
#X msg -343 298 61;
#X msg -382 347 0;
#X msg 524 807 0;
#X obj 523 780 r zerro;
#X msg -299 295 64;
#X msg -263 296 67;
#X msg -229 297 72;
#X msg -197 298 75;
#X msg -164 297 79;
#X msg -130 296 84;
#X msg -94 295 88;
#X msg -59 294 91;
#X msg -25 293 94;
#X msg 8 293 99;
#X msg 41 294 102;
#X msg 72 295 105;
#X msg 105 293 114;
#X msg 140 289 117;
#X msg 176 288 125;
#X msg 212 287 128;
#X msg -252 337 131;
#X msg -218 336 135;
#X msg -182 335 138;
#X msg -147 334 142;
#X msg -113 333 145;
#X msg -80 333 149;
#X msg -47 334 154;
#X msg -16 335 156;
#X msg 17 333 161, f 2;
#X msg 54 338 163;
#X msg 90 337 168;
#X msg 126 336 174;
#X msg 161 338 176;
#X msg 197 337 180;
#X msg 233 336 182;
#X obj -1050 80 sel 0 1 2 3 4 5 6 7 8 9 10 11 12 13 14 15 16 17 18
19 20 21 22 23 24 25 26 27 28 29 30 31 32 33 34 35 36 37 38 39 40 41
42 43 44 45 46 47 48 49 50 51 52 53 54 55 56 57 58 59 60 61 62 63 64
65 66 67 68 69 70 71 72 73 74 75 76 77 78 79 80 81 82 83 84 85 86 87
88 89 90 91 92 93 94 95 96 97 98 99 100 101 102 103 104 105 106 107
108 109 110 111 112 113 114 115 116 117 118 119 120 121 122 123 124
125 126 127 128, f 409;
#X msg 267 330 189;
#X msg 305 326 192;
#X msg 340 327 196;
#X msg 381 324 201;
#X msg 416 324 205;
#X msg 451 330 210;
#X msg 488 326 214;
#X msg 522 324 219;
#X msg 561 324 223;
#X msg 604 321 225;
#X msg 640 324 229;
#X msg 671 324 234;
#X msg 701 321 239;
#X msg 732 322 242;
#X msg 765 323 247;
#X msg 696 394 253;
#X msg 732 395 258;
#X msg 766 394 263;
#X msg 798 397 267;
#X msg 831 396 271;
#X msg 865 395 273;
#X msg 799 366 278;
#X msg 828 365 284;
#X msg 868 364 286;
#X msg 901 364 294;
#X msg 934 365 301;
#X msg 965 366 303;
#X msg 998 364 315;
#X msg 1033 360 328;
#X msg 1069 359 333;
#X msg 1105 359 345;
#X msg 828 312 352;
#X msg 862 311 364;
#X msg 898 312 378;
#X msg 932 313 385;
#X msg 964 314 399;
#X msg 997 313 412;
#X msg 1031 312 420;
#X msg 1067 311 432;
#X msg 1102 310 444;
#X msg 1136 309 452;
#X msg 1169 309 458;
#X msg 1202 310 463;
#X msg 1233 311 478;
#X msg 1266 309 481;
#X msg 1301 305 496;
#X msg 1337 304 504;
#X msg 1373 303 517;
#X msg 1411 297 523;
#X msg 1445 296 530;
#X msg 1481 295 546;
#X msg 1516 294 553;
#X msg 1550 293 569;
#X msg 1583 293 573;
#X msg 1616 294 580;
#X msg 1647 295 587;
#X msg 1680 293 593, f 2;
#X msg 1715 289 600;
#X msg 1751 288 620;
#X msg 1787 287 643;
#X msg 1487 353 648;
#X msg 1523 352 652;
#X msg 1559 351 657;
#X msg 1594 351 667;
#X obj 768 917 s skipp;
#X connect 0 0 66 0;
#X connect 1 0 131 0;
#X connect 2 0 131 0;
#X connect 3 0 131 0;
#X connect 4 0 131 0;
#X connect 5 0 131 0;
#X connect 6 0 131 0;
#X connect 7 0 131 0;
#X connect 8 0 131 0;
#X connect 9 0 131 0;
#X connect 10 0 131 0;
#X connect 11 0 131 0;
#X connect 12 0 131 0;
#X connect 13 0 131 0;
#X connect 14 0 131 0;
#X connect 15 0 131 0;
#X connect 16 0 131 0;
#X connect 17 0 131 0;
#X connect 18 0 131 0;
#X connect 19 0 131 0;
#X connect 20 0 131 0;
#X connect 21 0 131 0;
#X connect 22 0 131 0;
#X connect 23 0 131 0;
#X connect 24 0 131 0;
#X connect 25 0 131 0;
#X connect 26 0 131 0;
#X connect 27 0 131 0;
#X connect 28 0 131 0;
#X connect 29 0 131 0;
#X connect 30 0 131 0;
#X connect 31 0 131 0;
#X connect 32 0 131 0;
#X connect 33 0 131 0;
#X connect 34 0 33 0;
#X connect 35 0 131 0;
#X connect 36 0 131 0;
#X connect 37 0 131 0;
#X connect 38 0 131 0;
#X connect 39 0 131 0;
#X connect 40 0 131 0;
#X connect 41 0 131 0;
#X connect 42 0 131 0;
#X connect 43 0 131 0;
#X connect 44 0 131 0;
#X connect 45 0 131 0;
#X connect 46 0 131 0;
#X connect 47 0 131 0;
#X connect 48 0 131 0;
#X connect 49 0 131 0;
#X connect 50 0 131 0;
#X connect 51 0 131 0;
#X connect 52 0 131 0;
#X connect 53 0 131 0;
#X connect 54 0 131 0;
#X connect 55 0 131 0;
#X connect 56 0 131 0;
#X connect 57 0 131 0;
#X connect 58 0 131 0;
#X connect 59 0 131 0;
#X connect 60 0 131 0;
#X connect 61 0 131 0;
#X connect 62 0 131 0;
#X connect 63 0 131 0;
#X connect 64 0 131 0;
#X connect 65 0 131 0;
#X connect 66 0 1 0;
#X connect 66 1 2 0;
#X connect 66 2 3 0;
#X connect 66 3 4 0;
#X connect 66 4 5 0;
#X connect 66 5 6 0;
#X connect 66 6 7 0;
#X connect 66 7 8 0;
#X connect 66 8 9 0;
#X connect 66 9 10 0;
#X connect 66 10 11 0;
#X connect 66 11 12 0;
#X connect 66 12 13 0;
#X connect 66 13 14 0;
#X connect 66 14 15 0;
#X connect 66 15 16 0;
#X connect 66 17 17 0;
#X connect 66 18 18 0;
#X connect 66 19 19 0;
#X connect 66 20 20 0;
#X connect 66 21 21 0;
#X connect 66 22 22 0;
#X connect 66 23 23 0;
#X connect 66 24 24 0;
#X connect 66 25 25 0;
#X connect 66 26 26 0;
#X connect 66 27 27 0;
#X connect 66 28 28 0;
#X connect 66 29 29 0;
#X connect 66 30 30 0;
#X connect 66 31 31 0;
#X connect 66 32 32 0;
#X connect 66 33 35 0;
#X connect 66 34 36 0;
#X connect 66 35 37 0;
#X connect 66 36 38 0;
#X connect 66 37 39 0;
#X connect 66 38 40 0;
#X connect 66 39 41 0;
#X connect 66 40 42 0;
#X connect 66 41 43 0;
#X connect 66 42 44 0;
#X connect 66 43 45 0;
#X connect 66 44 46 0;
#X connect 66 45 47 0;
#X connect 66 46 48 0;
#X connect 66 47 49 0;
#X connect 66 48 50 0;
#X connect 66 50 51 0;
#X connect 66 51 52 0;
#X connect 66 52 53 0;
#X connect 66 53 54 0;
#X connect 66 54 55 0;
#X connect 66 55 56 0;
#X connect 66 56 57 0;
#X connect 66 57 58 0;
#X connect 66 58 59 0;
#X connect 66 59 60 0;
#X connect 66 60 61 0;
#X connect 66 61 62 0;
#X connect 66 62 63 0;
#X connect 66 63 64 0;
#X connect 66 64 65 0;
#X connect 66 65 67 0;
#X connect 66 66 68 0;
#X connect 66 67 69 0;
#X connect 66 68 70 0;
#X connect 66 69 71 0;
#X connect 66 70 72 0;
#X connect 66 71 73 0;
#X connect 66 72 74 0;
#X connect 66 73 75 0;
#X connect 66 74 76 0;
#X connect 66 75 77 0;
#X connect 66 76 78 0;
#X connect 66 77 79 0;
#X connect 66 78 80 0;
#X connect 66 79 81 0;
#X connect 66 80 82 0;
#X connect 66 81 83 0;
#X connect 66 82 84 0;
#X connect 66 83 85 0;
#X connect 66 84 86 0;
#X connect 66 85 87 0;
#X connect 66 86 88 0;
#X connect 66 87 89 0;
#X connect 66 88 90 0;
#X connect 66 89 91 0;
#X connect 66 90 92 0;
#X connect 66 91 93 0;
#X connect 66 92 94 0;
#X connect 66 93 95 0;
#X connect 66 94 96 0;
#X connect 66 95 98 0;
#X connect 66 96 99 0;
#X connect 66 97 100 0;
#X connect 66 98 101 0;
#X connect 66 99 102 0;
#X connect 66 100 103 0;
#X connect 66 101 97 0;
#X connect 66 102 104 0;
#X connect 66 103 105 0;
#X connect 66 104 106 0;
#X connect 66 105 107 0;
#X connect 66 106 108 0;
#X connect 66 107 109 0;
#X connect 66 108 110 0;
#X connect 66 109 111 0;
#X connect 66 110 112 0;
#X connect 66 111 113 0;
#X connect 66 112 114 0;
#X connect 66 113 115 0;
#X connect 66 114 116 0;
#X connect 66 115 117 0;
#X connect 66 116 118 0;
#X connect 66 117 119 0;
#X connect 66 118 120 0;
#X connect 66 119 121 0;
#X connect 66 120 122 0;
#X connect 66 121 123 0;
#X connect 66 122 124 0;
#X connect 66 123 125 0;
#X connect 66 124 126 0;
#X connect 66 125 127 0;
#X connect 66 126 128 0;
#X connect 66 127 129 0;
#X connect 66 128 130 0;
#X connect 67 0 131 0;
#X connect 68 0 131 0;
#X connect 69 0 131 0;
#X connect 70 0 131 0;
#X connect 71 0 131 0;
#X connect 72 0 131 0;
#X connect 73 0 131 0;
#X connect 74 0 131 0;
#X connect 75 0 131 0;
#X connect 76 0 131 0;
#X connect 77 0 131 0;
#X connect 78 0 131 0;
#X connect 79 0 131 0;
#X connect 80 0 131 0;
#X connect 81 0 131 0;
#X connect 82 0 131 0;
#X connect 83 0 131 0;
#X connect 84 0 131 0;
#X connect 85 0 131 0;
#X connect 86 0 131 0;
#X connect 87 0 131 0;
#X connect 88 0 131 0;
#X connect 89 0 131 0;
#X connect 90 0 131 0;
#X connect 91 0 131 0;
#X connect 92 0 131 0;
#X connect 93 0 131 0;
#X connect 94 0 131 0;
#X connect 95 0 131 0;
#X connect 96 0 131 0;
#X connect 97 0 131 0;
#X connect 98 0 131 0;
#X connect 99 0 131 0;
#X connect 100 0 131 0;
#X connect 101 0 131 0;
#X connect 102 0 131 0;
#X connect 103 0 131 0;
#X connect 104 0 131 0;
#X connect 105 0 131 0;
#X connect 106 0 131 0;
#X connect 107 0 131 0;
#X connect 108 0 131 0;
#X connect 109 0 131 0;
#X connect 110 0 131 0;
#X connect 111 0 131 0;
#X connect 112 0 131 0;
#X connect 113 0 131 0;
#X connect 114 0 131 0;
#X connect 115 0 131 0;
#X connect 116 0 131 0;
#X connect 117 0 131 0;
#X connect 118 0 131 0;
#X connect 119 0 131 0;
#X connect 120 0 131 0;
#X connect 121 0 131 0;
#X connect 122 0 131 0;
#X connect 123 0 131 0;
#X connect 124 0 131 0;
#X connect 125 0 131 0;
#X connect 126 0 131 0;
#X connect 127 0 131 0;
#X connect 128 0 131 0;
#X connect 129 0 131 0;
#X connect 130 0 131 0;
#X restore 388 399 pd skies;
#X text 515 740 S K I P;
#X obj 398 351 bng 15 250 50 0 empty empty empty 17 7 0 10 -262144
-1 -1;
#X obj 433 339 bng 30 250 50 0 empty empty empty 17 7 0 10 -262144
-1 -1;
#X obj 452 400 random 50;
#X obj 522 702 tgl 40 0 empty empty empty 17 7 0 10 -262144 -1 -1 0
1;
#X obj 468 346 sel 1 0;
#X obj 700 541 r skipp;
#X obj 421 373 s zerro;
#X obj 631 511 table mocai;
#X obj 601 622 tabread4~ mocai;
#X obj 460 484 s mocai;
#X obj 603 485 tabwrite~ mocai;
#X obj 414 39 inlet;
#X obj 729 314 inlet;
#X obj 197 291 inlet;
#X obj 242 400 inlet;
#X obj -26 341 inlet;
#X obj 178 361 outlet;
#X obj 524 667 inlet;
#X obj 606 713 inlet;
#X obj 468 614 outlet;
#X obj 302 692 inlet;
#X obj 319 172 *~ 1;
#X obj 455 170 r~ elmanala;
#X obj 603 360 r~ elmanala;
#X obj 336 314 s~ coco;
#X obj 675 648 s~ lococ;
#X obj 323 513 r peab;
#X obj 30 136 r peaa;
#X obj 21 267 s apea;
#X obj 286 487 s apeab;
#X obj 78 60 % 65;
#N canvas -9 -9 1920 976 \$0-ski 0;
#X obj 229 42 inlet;
#X msg -1005 294 2;
#X msg -1042 332 4;
#X msg -1009 333 6;
#X msg -973 334 8;
#X msg -940 335 10;
#X msg -907 332 12;
#X msg -875 334 14;
#X msg -836 333 16;
#X msg -797 333 18;
#X msg -754 330 20;
#X msg -718 333 22;
#X msg -687 333 24;
#X msg -657 330 26;
#X msg -626 331 28;
#X msg -593 332 30;
#X msg -854 306 32;
#X msg -818 307 34;
#X msg -784 306 36;
#X msg -752 309 38;
#X msg -719 308 40;
#X msg -685 307 41;
#X msg -649 306 43;
#X msg -614 305 45;
#X msg -580 304 47;
#X msg -547 304 49;
#X msg -514 305 51;
#X msg -483 306 53;
#X msg -450 304 55;
#X msg -415 300 57;
#X msg -379 299 59;
#X msg -343 298 61;
#X msg -382 347 0;
#X msg 524 807 0;
#X obj 523 780 r zerro;
#X msg -299 295 64;
#X msg -263 296 67;
#X msg -229 297 72;
#X msg -197 298 75;
#X msg -164 297 79;
#X msg -130 296 84;
#X msg -94 295 88;
#X msg -59 294 91;
#X msg -25 293 94;
#X msg 8 293 99;
#X msg 41 294 102;
#X msg 72 295 105;
#X msg 105 293 114;
#X msg 140 289 117;
#X msg 176 288 125;
#X msg 212 287 128;
#X msg -252 337 131;
#X msg -218 336 135;
#X msg -182 335 138;
#X msg -147 334 142;
#X msg -113 333 145;
#X msg -80 333 149;
#X msg -47 334 154;
#X msg -16 335 156;
#X msg 17 333 161, f 2;
#X msg 54 338 163;
#X msg 90 337 168;
#X msg 126 336 174;
#X msg 161 338 176;
#X msg 197 337 180;
#X msg 233 336 182;
#X obj 768 917 s skippo;
#X obj -1050 80 sel 0 1 2 3 4 5 6 7 8 9 10 11 12 13 14 15 16 17 18
19 20 21 22 23 24 25 26 27 28 29 30 31 32 33 34 35 36 37 38 39 40 41
42 43 44 45 46 47 48 49 50 51 52 53 54 55 56 57 58 59 60 61 62 63 64
65 66 67 68 69 70 71 72 73 74 75 76 77 78 79 80 81 82 83 84 85 86 87
88 89 90 91 92 93 94 95 96 97 98 99 100 101 102 103 104 105 106 107
108 109 110 111 112 113 114 115 116 117 118 119 120 121 122 123 124
125 126 127 128, f 409;
#X msg 267 330 189;
#X msg 305 326 192;
#X msg 340 327 196;
#X msg 381 324 201;
#X msg 416 324 205;
#X msg 451 330 210;
#X msg 488 326 214;
#X msg 522 324 219;
#X msg 561 324 223;
#X msg 604 321 225;
#X msg 640 324 229;
#X msg 671 324 234;
#X msg 701 321 239;
#X msg 732 322 242;
#X msg 765 323 247;
#X msg 696 394 253;
#X msg 732 395 258;
#X msg 766 394 263;
#X msg 798 397 267;
#X msg 831 396 271;
#X msg 865 395 273;
#X msg 799 366 278;
#X msg 828 365 284;
#X msg 868 364 286;
#X msg 901 364 294;
#X msg 934 365 301;
#X msg 965 366 303;
#X msg 998 364 315;
#X msg 1033 360 328;
#X msg 1069 359 333;
#X msg 1105 359 345;
#X msg 828 312 352;
#X msg 862 311 364;
#X msg 898 312 378;
#X msg 932 313 385;
#X msg 964 314 399;
#X msg 997 313 412;
#X msg 1031 312 420;
#X msg 1067 311 432;
#X msg 1102 310 444;
#X msg 1136 309 452;
#X msg 1169 309 458;
#X msg 1202 310 463;
#X msg 1233 311 478;
#X msg 1266 309 481;
#X msg 1301 305 496;
#X msg 1337 304 504;
#X msg 1373 303 517;
#X msg 1411 297 523;
#X msg 1445 296 530;
#X msg 1481 295 546;
#X msg 1516 294 553;
#X msg 1550 293 569;
#X msg 1583 293 573;
#X msg 1616 294 580;
#X msg 1647 295 587;
#X msg 1680 293 593, f 2;
#X msg 1715 289 600;
#X msg 1751 288 620;
#X msg 1787 287 643;
#X msg 1487 353 648;
#X msg 1523 352 652;
#X msg 1559 351 657;
#X msg 1594 351 667;
#X connect 0 0 67 0;
#X connect 1 0 66 0;
#X connect 2 0 66 0;
#X connect 3 0 66 0;
#X connect 4 0 66 0;
#X connect 5 0 66 0;
#X connect 6 0 66 0;
#X connect 7 0 66 0;
#X connect 8 0 66 0;
#X connect 9 0 66 0;
#X connect 10 0 66 0;
#X connect 11 0 66 0;
#X connect 12 0 66 0;
#X connect 13 0 66 0;
#X connect 14 0 66 0;
#X connect 15 0 66 0;
#X connect 16 0 66 0;
#X connect 17 0 66 0;
#X connect 18 0 66 0;
#X connect 19 0 66 0;
#X connect 20 0 66 0;
#X connect 21 0 66 0;
#X connect 22 0 66 0;
#X connect 23 0 66 0;
#X connect 24 0 66 0;
#X connect 25 0 66 0;
#X connect 26 0 66 0;
#X connect 27 0 66 0;
#X connect 28 0 66 0;
#X connect 29 0 66 0;
#X connect 30 0 66 0;
#X connect 31 0 66 0;
#X connect 32 0 66 0;
#X connect 33 0 66 0;
#X connect 34 0 33 0;
#X connect 35 0 66 0;
#X connect 36 0 66 0;
#X connect 37 0 66 0;
#X connect 38 0 66 0;
#X connect 39 0 66 0;
#X connect 40 0 66 0;
#X connect 41 0 66 0;
#X connect 42 0 66 0;
#X connect 43 0 66 0;
#X connect 44 0 66 0;
#X connect 45 0 66 0;
#X connect 46 0 66 0;
#X connect 47 0 66 0;
#X connect 48 0 66 0;
#X connect 49 0 66 0;
#X connect 50 0 66 0;
#X connect 51 0 66 0;
#X connect 52 0 66 0;
#X connect 53 0 66 0;
#X connect 54 0 66 0;
#X connect 55 0 66 0;
#X connect 56 0 66 0;
#X connect 57 0 66 0;
#X connect 58 0 66 0;
#X connect 59 0 66 0;
#X connect 60 0 66 0;
#X connect 61 0 66 0;
#X connect 62 0 66 0;
#X connect 63 0 66 0;
#X connect 64 0 66 0;
#X connect 65 0 66 0;
#X connect 67 0 1 0;
#X connect 67 1 2 0;
#X connect 67 2 3 0;
#X connect 67 3 4 0;
#X connect 67 4 5 0;
#X connect 67 5 6 0;
#X connect 67 6 7 0;
#X connect 67 7 8 0;
#X connect 67 8 9 0;
#X connect 67 9 10 0;
#X connect 67 10 11 0;
#X connect 67 11 12 0;
#X connect 67 12 13 0;
#X connect 67 13 14 0;
#X connect 67 14 15 0;
#X connect 67 15 16 0;
#X connect 67 17 17 0;
#X connect 67 18 18 0;
#X connect 67 19 19 0;
#X connect 67 20 20 0;
#X connect 67 21 21 0;
#X connect 67 22 22 0;
#X connect 67 23 23 0;
#X connect 67 24 24 0;
#X connect 67 25 25 0;
#X connect 67 26 26 0;
#X connect 67 27 27 0;
#X connect 67 28 28 0;
#X connect 67 29 29 0;
#X connect 67 30 30 0;
#X connect 67 31 31 0;
#X connect 67 32 32 0;
#X connect 67 33 35 0;
#X connect 67 34 36 0;
#X connect 67 35 37 0;
#X connect 67 36 38 0;
#X connect 67 37 39 0;
#X connect 67 38 40 0;
#X connect 67 39 41 0;
#X connect 67 40 42 0;
#X connect 67 41 43 0;
#X connect 67 42 44 0;
#X connect 67 43 45 0;
#X connect 67 44 46 0;
#X connect 67 45 47 0;
#X connect 67 46 48 0;
#X connect 67 47 49 0;
#X connect 67 48 50 0;
#X connect 67 50 51 0;
#X connect 67 51 52 0;
#X connect 67 52 53 0;
#X connect 67 53 54 0;
#X connect 67 54 55 0;
#X connect 67 55 56 0;
#X connect 67 56 57 0;
#X connect 67 57 58 0;
#X connect 67 58 59 0;
#X connect 67 59 60 0;
#X connect 67 60 61 0;
#X connect 67 61 62 0;
#X connect 67 62 63 0;
#X connect 67 63 64 0;
#X connect 67 64 65 0;
#X connect 67 65 68 0;
#X connect 67 66 69 0;
#X connect 67 67 70 0;
#X connect 67 68 71 0;
#X connect 67 69 72 0;
#X connect 67 70 73 0;
#X connect 67 71 74 0;
#X connect 67 72 75 0;
#X connect 67 73 76 0;
#X connect 67 74 77 0;
#X connect 67 75 78 0;
#X connect 67 76 79 0;
#X connect 67 77 80 0;
#X connect 67 78 81 0;
#X connect 67 79 82 0;
#X connect 67 80 83 0;
#X connect 67 81 84 0;
#X connect 67 82 85 0;
#X connect 67 83 86 0;
#X connect 67 84 87 0;
#X connect 67 85 88 0;
#X connect 67 86 89 0;
#X connect 67 87 90 0;
#X connect 67 88 91 0;
#X connect 67 89 92 0;
#X connect 67 90 93 0;
#X connect 67 91 94 0;
#X connect 67 92 95 0;
#X connect 67 93 96 0;
#X connect 67 94 97 0;
#X connect 67 95 99 0;
#X connect 67 96 100 0;
#X connect 67 97 101 0;
#X connect 67 98 102 0;
#X connect 67 99 103 0;
#X connect 67 100 104 0;
#X connect 67 101 98 0;
#X connect 67 102 105 0;
#X connect 67 103 106 0;
#X connect 67 104 107 0;
#X connect 67 105 108 0;
#X connect 67 106 109 0;
#X connect 67 107 110 0;
#X connect 67 108 111 0;
#X connect 67 109 112 0;
#X connect 67 110 113 0;
#X connect 67 111 114 0;
#X connect 67 112 115 0;
#X connect 67 113 116 0;
#X connect 67 114 117 0;
#X connect 67 115 118 0;
#X connect 67 116 119 0;
#X connect 67 117 120 0;
#X connect 67 118 121 0;
#X connect 67 119 122 0;
#X connect 67 120 123 0;
#X connect 67 121 124 0;
#X connect 67 122 125 0;
#X connect 67 123 126 0;
#X connect 67 124 127 0;
#X connect 67 125 128 0;
#X connect 67 126 129 0;
#X connect 67 127 130 0;
#X connect 67 128 131 0;
#X connect 68 0 66 0;
#X connect 69 0 66 0;
#X connect 70 0 66 0;
#X connect 71 0 66 0;
#X connect 72 0 66 0;
#X connect 73 0 66 0;
#X connect 74 0 66 0;
#X connect 75 0 66 0;
#X connect 76 0 66 0;
#X connect 77 0 66 0;
#X connect 78 0 66 0;
#X connect 79 0 66 0;
#X connect 80 0 66 0;
#X connect 81 0 66 0;
#X connect 82 0 66 0;
#X connect 83 0 66 0;
#X connect 84 0 66 0;
#X connect 85 0 66 0;
#X connect 86 0 66 0;
#X connect 87 0 66 0;
#X connect 88 0 66 0;
#X connect 89 0 66 0;
#X connect 90 0 66 0;
#X connect 91 0 66 0;
#X connect 92 0 66 0;
#X connect 93 0 66 0;
#X connect 94 0 66 0;
#X connect 95 0 66 0;
#X connect 96 0 66 0;
#X connect 97 0 66 0;
#X connect 98 0 66 0;
#X connect 99 0 66 0;
#X connect 100 0 66 0;
#X connect 101 0 66 0;
#X connect 102 0 66 0;
#X connect 103 0 66 0;
#X connect 104 0 66 0;
#X connect 105 0 66 0;
#X connect 106 0 66 0;
#X connect 107 0 66 0;
#X connect 108 0 66 0;
#X connect 109 0 66 0;
#X connect 110 0 66 0;
#X connect 111 0 66 0;
#X connect 112 0 66 0;
#X connect 113 0 66 0;
#X connect 114 0 66 0;
#X connect 115 0 66 0;
#X connect 116 0 66 0;
#X connect 117 0 66 0;
#X connect 118 0 66 0;
#X connect 119 0 66 0;
#X connect 120 0 66 0;
#X connect 121 0 66 0;
#X connect 122 0 66 0;
#X connect 123 0 66 0;
#X connect 124 0 66 0;
#X connect 125 0 66 0;
#X connect 126 0 66 0;
#X connect 127 0 66 0;
#X connect 128 0 66 0;
#X connect 129 0 66 0;
#X connect 130 0 66 0;
#X connect 131 0 66 0;
#X restore 73 90 pd \$0-ski;
#X obj 352 399 % 129;
#X obj 214 118 * 129;
#X connect 2 0 4 0;
#X connect 2 0 37 0;
#X connect 2 1 36 0;
#X connect 2 1 41 0;
#X connect 3 0 2 0;
#X connect 4 0 6 0;
#X connect 4 1 1 0;
#X connect 5 0 1 0;
#X connect 6 0 7 0;
#X connect 7 0 8 0;
#X connect 8 0 9 0;
#X connect 9 0 22 0;
#X connect 9 0 121 0;
#X connect 10 0 129 0;
#X connect 11 0 12 0;
#X connect 12 0 13 0;
#X connect 13 0 32 0;
#X connect 14 0 27 0;
#X connect 15 0 21 0;
#X connect 16 0 20 0;
#X connect 18 0 17 0;
#X connect 19 0 40 0;
#X connect 20 0 19 0;
#X connect 20 1 138 0;
#X connect 21 0 16 0;
#X connect 22 0 19 1;
#X connect 22 1 12 1;
#X connect 24 0 44 0;
#X connect 25 0 26 0;
#X connect 26 0 31 0;
#X connect 27 0 31 0;
#X connect 27 1 25 0;
#X connect 28 0 14 0;
#X connect 28 1 26 0;
#X connect 29 0 28 0;
#X connect 31 0 11 0;
#X connect 32 0 10 0;
#X connect 33 0 34 0;
#X connect 34 0 32 0;
#X connect 35 0 24 0;
#X connect 36 0 6 1;
#X connect 36 1 5 0;
#X connect 37 0 35 0;
#X connect 39 0 9 0;
#X connect 40 0 133 0;
#X connect 40 1 14 0;
#X connect 41 0 21 0;
#X connect 42 0 43 0;
#X connect 43 0 33 0;
#X connect 44 0 13 1;
#X connect 45 0 46 0;
#X connect 46 0 47 0;
#X connect 46 0 135 0;
#X connect 47 0 46 1;
#X connect 49 0 50 0;
#X connect 51 0 24 0;
#X connect 52 0 53 0;
#X connect 53 0 24 0;
#X connect 54 0 55 0;
#X connect 55 0 45 0;
#X connect 55 1 52 0;
#X connect 56 0 115 0;
#X connect 57 0 59 0;
#X connect 57 0 92 0;
#X connect 57 1 91 0;
#X connect 57 1 96 0;
#X connect 58 0 57 0;
#X connect 59 0 61 0;
#X connect 59 1 115 0;
#X connect 60 0 115 0;
#X connect 61 0 62 0;
#X connect 62 0 63 0;
#X connect 63 0 64 0;
#X connect 64 0 76 0;
#X connect 64 0 124 0;
#X connect 65 0 66 0;
#X connect 66 0 67 0;
#X connect 67 0 87 0;
#X connect 68 0 82 0;
#X connect 69 0 75 0;
#X connect 70 0 74 0;
#X connect 71 0 72 0;
#X connect 72 0 114 0;
#X connect 73 0 95 0;
#X connect 74 0 73 0;
#X connect 74 1 71 0;
#X connect 75 0 70 0;
#X connect 76 0 73 1;
#X connect 76 1 66 1;
#X connect 79 0 99 0;
#X connect 80 0 81 0;
#X connect 81 0 86 0;
#X connect 82 0 86 0;
#X connect 82 1 80 0;
#X connect 83 0 68 0;
#X connect 83 1 81 0;
#X connect 84 0 83 0;
#X connect 86 0 65 0;
#X connect 87 0 113 0;
#X connect 88 0 89 0;
#X connect 89 0 87 0;
#X connect 90 0 79 0;
#X connect 91 0 61 1;
#X connect 91 1 60 0;
#X connect 92 0 90 0;
#X connect 94 0 64 0;
#X connect 95 0 134 0;
#X connect 95 1 68 0;
#X connect 96 0 75 0;
#X connect 97 0 98 0;
#X connect 98 0 88 0;
#X connect 99 0 67 1;
#X connect 100 0 101 0;
#X connect 101 0 102 0;
#X connect 101 0 137 0;
#X connect 102 0 101 1;
#X connect 105 0 111 0;
#X connect 106 0 107 0;
#X connect 107 0 79 0;
#X connect 108 0 109 0;
#X connect 109 0 100 0;
#X connect 109 1 106 0;
#X connect 110 0 79 0;
#X connect 113 0 130 0;
#X connect 116 0 3 0;
#X connect 117 0 58 0;
#X connect 118 0 29 0;
#X connect 119 0 54 0;
#X connect 120 0 39 0;
#X connect 122 0 84 0;
#X connect 123 0 108 0;
#X connect 125 0 94 0;
#X connect 126 0 1 0;
#X connect 127 0 126 0;
#X connect 128 0 56 0;
#X connect 131 0 68 0;
#X connect 132 0 14 0;
#X connect 135 0 136 0;
#X connect 138 0 18 0;
