#N canvas 0 0 450 271 10;
#X obj 60 124 tabwrite~ coco;
#X obj 235 121 tabwrite~ loco;
#X floatatom 66 175 5 0 0 0 - - -;
#X obj 90 204 phasor~;
#X obj 92 242 *~;
#X obj 92 273 +~;
#X obj 135 243 * 137.5;
#X obj 137 272 * 137.5;
#X floatatom 216 242 5 0 0 0 - - -;
#X floatatom 216 273 5 0 0 0 - - -;
#X obj 95 344 tabread4~ coco;
#X floatatom 256 176 5 0 0 0 - - -;
#X obj 280 205 phasor~;
#X obj 282 243 *~;
#X obj 282 274 +~;
#X obj 325 244 * 137.5;
#X obj 327 273 * 137.5;
#X floatatom 406 243 5 0 0 0 - - -;
#X floatatom 406 274 5 0 0 0 - - -;
#X obj 282 344 tabread4~ loco;
#X obj 279 307 windowing/kaiser~;
#X obj 93 308 windowing/kaiser~;
#X obj 48 65 r~ frama;
#X obj 142 64 r~ flolo;
#X obj 282 379 s~ lococ;
#X obj 92 380 s~ coco;
#X connect 2 0 3 0;
#X connect 3 0 4 0;
#X connect 4 0 5 0;
#X connect 5 0 21 0;
#X connect 6 0 4 1;
#X connect 7 0 5 1;
#X connect 8 0 6 0;
#X connect 9 0 7 0;
#X connect 10 0 25 0;
#X connect 11 0 12 0;
#X connect 12 0 13 0;
#X connect 13 0 14 0;
#X connect 14 0 20 0;
#X connect 15 0 13 1;
#X connect 16 0 14 1;
#X connect 17 0 15 0;
#X connect 18 0 16 0;
#X connect 19 0 24 0;
#X connect 20 0 19 0;
#X connect 21 0 10 0;
