#N canvas 0 332 577 488 10;
#X obj 60 124 tabwrite~ coco;
#X obj 235 121 tabwrite~ loco;
#X floatatom 38 160 5 0 0 0 - - -;
#X obj 90 204 phasor~;
#X obj 92 273 +~;
#X floatatom 216 273 5 0 0 0 - - -;
#X obj 95 344 tabread4~ coco;
#X floatatom 263 156 5 0 0 0 - - -;
#X obj 280 205 phasor~;
#X obj 282 274 +~;
#X obj 327 273 * 137.5;
#X floatatom 406 274 12 0 0 0 - - -;
#X obj 282 344 tabread4~ loco;
#X obj 26 43 r~ frama;
#X obj 86 45 r~ flolo;
#X obj 307 433 s~ lococ;
#X obj 94 425 s~ coco;
#X floatatom 444 300 5 0 0 0 - - -;
#X floatatom 211 310 5 0 0 0 - - -;
#X obj 118 14 bng 15 250 50 0 empty empty empty 17 7 0 10 -262144 -1
-1;
#X obj 34 72 *~;
#X obj 62 96 +~;
#X obj 85 70 *~;
#X obj 112 96 *~;
#X obj 113 71 r~ lococ;
#X obj 149 42 tgl 15 0 empty empty empty 17 7 0 10 -262144 -1 -1 1
1;
#X obj 62 67 tgl 15 0 empty empty empty 17 7 0 10 -262144 -1 -1 1 1
;
#X obj 158 95 tgl 15 0 empty empty empty 17 7 0 10 -262144 -1 -1 1
1;
#X obj 185 26 count4;
#X obj 72 16 inlet;
#X floatatom 222 59 5 0 0 0 - - -;
#X obj 229 83 outlet;
#X obj 291 38 r~ frama;
#X obj 351 40 r~ flolo;
#X obj 383 9 bng 15 250 50 0 empty empty empty 17 7 0 10 -262144 -1
-1;
#X obj 299 67 *~;
#X obj 327 91 +~;
#X obj 350 65 *~;
#X obj 377 91 *~;
#X obj 414 37 tgl 15 0 empty empty empty 17 7 0 10 -262144 -1 -1 1
1;
#X obj 327 62 tgl 15 0 empty empty empty 17 7 0 10 -262144 -1 -1 1
1;
#X obj 423 90 tgl 15 0 empty empty empty 17 7 0 10 -262144 -1 -1 0
1;
#X obj 337 11 inlet;
#X floatatom 487 54 5 0 0 0 - - -;
#X obj 494 78 outlet;
#X obj 410 -1 count4;
#X obj 95 394 *~ 0.6;
#X obj 298 403 *~ 0.6;
#X obj 16 231 inlet;
#X obj 510 221 inlet;
#X obj -56 76 inlet;
#X obj -82 150 inlet;
#X obj 567 399 inlet;
#X obj 516 409 inlet;
#X msg 172 129 start;
#X msg 356 125 start;
#X msg 177 155 stop;
#X msg 313 152 stop;
#X obj -111 76 inlet;
#X obj -71 229 inlet;
#X obj 235 13 inlet;
#X obj -135 137 inlet;
#X obj 137 272 * 103.5;
#X obj 378 66 r~ coco;
#X obj 92 242 *~ 250;
#X floatatom 191 213 8 0 0 0 - - -;
#X obj 151 236 * 274;
#X obj -173 229 inlet;
#X floatatom 403 182 12 0 0 0 - - -;
#X obj 771 197 inlet;
#X obj 282 243 *~ 8;
#X obj 391 338 windowing/hanning~;
#X obj 383 313 sig~;
#X obj 167 372 windowing/hanning~;
#X obj 195 344 sig~;
#X obj 100 372 *~ 0.5;
#X obj 292 379 *~ 0.8;
#X obj 272 184 / 8;
#X obj 60 187 / 12;
#X connect 2 0 78 0;
#X connect 3 0 64 0;
#X connect 4 0 6 0;
#X connect 5 0 62 0;
#X connect 6 0 75 0;
#X connect 7 0 77 0;
#X connect 8 0 70 0;
#X connect 8 0 71 0;
#X connect 9 0 12 0;
#X connect 10 0 9 1;
#X connect 11 0 10 0;
#X connect 12 0 76 0;
#X connect 13 0 20 0;
#X connect 14 0 22 0;
#X connect 17 0 72 0;
#X connect 18 0 74 0;
#X connect 19 0 28 0;
#X connect 20 0 21 0;
#X connect 21 0 0 0;
#X connect 22 0 21 1;
#X connect 23 0 21 1;
#X connect 24 0 23 0;
#X connect 25 0 22 1;
#X connect 26 0 20 1;
#X connect 27 0 23 1;
#X connect 28 0 26 0;
#X connect 28 2 25 0;
#X connect 28 3 27 0;
#X connect 28 4 30 0;
#X connect 29 0 19 0;
#X connect 30 0 31 0;
#X connect 32 0 35 0;
#X connect 33 0 37 0;
#X connect 34 0 45 0;
#X connect 35 0 36 0;
#X connect 36 0 1 0;
#X connect 37 0 36 1;
#X connect 38 0 36 1;
#X connect 39 0 37 1;
#X connect 40 0 35 1;
#X connect 41 0 38 1;
#X connect 42 0 34 0;
#X connect 43 0 44 0;
#X connect 45 0 40 0;
#X connect 45 2 39 0;
#X connect 45 3 41 0;
#X connect 45 4 43 0;
#X connect 46 0 16 0;
#X connect 47 0 15 0;
#X connect 48 0 2 0;
#X connect 49 0 7 0;
#X connect 50 0 5 0;
#X connect 51 0 11 0;
#X connect 52 0 17 0;
#X connect 53 0 18 0;
#X connect 54 0 0 0;
#X connect 55 0 1 0;
#X connect 56 0 0 0;
#X connect 57 0 1 0;
#X connect 58 0 54 0;
#X connect 59 0 56 0;
#X connect 60 0 55 0;
#X connect 61 0 57 0;
#X connect 62 0 4 1;
#X connect 63 0 38 0;
#X connect 64 0 4 0;
#X connect 65 0 66 0;
#X connect 66 0 64 1;
#X connect 67 0 65 0;
#X connect 68 0 70 1;
#X connect 69 0 68 0;
#X connect 70 0 9 0;
#X connect 72 0 71 0;
#X connect 74 0 73 0;
#X connect 75 0 46 0;
#X connect 76 0 47 0;
#X connect 77 0 8 0;
#X connect 78 0 3 0;
