#N canvas 0 50 638 300 12;
#X msg 263 379 stop;
#X obj 345 203 phasor~;
#X obj 343 295 *~;
#X obj 343 321 +~;
#X obj 395 111 mtof;
#X floatatom 376 172 5 0 0 0 - - -;
#X obj 195 236 t b b;
#X obj 189 280 timer;
#X obj 189 306 / 1000;
#X floatatom 189 358 9 0 0 0 - - -;
#X obj 189 383 t f f;
#X obj 93 279 samplerate~;
#X obj 93 305 t f f;
#X obj 102 418 /;
#X obj 114 339 * 60;
#X msg 114 365 resize \$1;
#X obj 106 257 bng 15 250 50 0 empty empty empty 17 7 0 10 -262144
-1 -1;
#X obj 131 252 t b;
#X obj 98 115 tgl 30 0 empty empty empty 17 7 0 10 -262144 -1 -1 0
1;
#X obj 229 158 sel 1 0;
#X obj 251 196 t b b;
#X obj 343 414 *~;
#X obj 462 230 bng 15 250 50 0 empty empty empty 17 7 0 10 -262144
-1 -1;
#X msg 484 252 1 5;
#X obj 433 253 del 10;
#X obj 433 279 pack 0 500;
#X obj 433 305 line~;
#X obj 433 331 *~;
#X obj 433 357 *~;
#X floatatom 487 226 5 0 0 0 - - -;
#X msg 486 188 2000;
#X obj 489 161 loadbang;
#X obj 343 440 outlet~;
#X obj 478 116 inlet;
#X obj 109 73 inlet;
#X obj 574 199 inlet;
#X obj 97 181 table \$0-momil;
#X obj 114 391 s \$0-momil;
#X obj 67 454 tabwrite~ \$0-momil;
#X obj 301 350 tabread4~ \$0-momil;
#X obj 395 137 / 127;
#X floatatom 300 85 5 0 0 0 - - -;
#X obj 291 46 t f f;
#X obj 243 49 * -1;
#X floatatom 244 86 5 0 0 0 - - -;
#X obj 248 113 zexy/multiplex ..;
#X obj 344 51 sel 1 0;
#X msg 346 79 1, f 1;
#X msg 366 84 0, f 1;
#X obj 344 23 inlet;
#X obj 189 332 * 33000;
#X obj 20 181 r~ elmanala;
#X obj 63 33 r nacional;
#X connect 0 0 38 0;
#X connect 1 0 2 0;
#X connect 2 0 3 0;
#X connect 3 0 39 0;
#X connect 4 0 22 0;
#X connect 4 0 40 0;
#X connect 5 0 1 0;
#X connect 6 0 7 0;
#X connect 6 1 38 0;
#X connect 7 0 8 0;
#X connect 8 0 50 0;
#X connect 9 0 10 0;
#X connect 10 0 13 1;
#X connect 10 1 2 1;
#X connect 11 0 12 0;
#X connect 12 0 13 0;
#X connect 12 1 14 0;
#X connect 14 0 15 0;
#X connect 15 0 37 0;
#X connect 16 0 11 0;
#X connect 17 0 16 0;
#X connect 18 0 19 0;
#X connect 19 0 6 0;
#X connect 19 1 20 0;
#X connect 19 1 17 0;
#X connect 20 0 7 1;
#X connect 20 1 0 0;
#X connect 21 0 32 0;
#X connect 22 0 23 0;
#X connect 22 0 24 0;
#X connect 23 0 26 0;
#X connect 24 0 25 0;
#X connect 25 0 26 0;
#X connect 26 0 27 0;
#X connect 26 0 27 1;
#X connect 27 0 28 0;
#X connect 27 0 28 1;
#X connect 28 0 21 1;
#X connect 29 0 25 1;
#X connect 30 0 29 0;
#X connect 31 0 30 0;
#X connect 33 0 4 0;
#X connect 34 0 18 0;
#X connect 35 0 29 0;
#X connect 39 0 21 0;
#X connect 40 0 42 0;
#X connect 41 0 45 1;
#X connect 42 0 43 0;
#X connect 42 1 41 0;
#X connect 43 0 44 0;
#X connect 44 0 45 0;
#X connect 45 0 5 0;
#X connect 46 0 47 0;
#X connect 46 1 48 0;
#X connect 47 0 45 2;
#X connect 48 0 45 2;
#X connect 49 0 46 0;
#X connect 50 0 9 0;
#X connect 51 0 38 0;
#X connect 52 0 18 0;
