#N canvas 620 135 450 213 10;
#X obj 250 32 f;
#X obj 279 31 + 1;
#X obj 121 47 inlet;
#X obj 255 87 outlet;
#X obj 319 94 outlet;
#X obj 359 111 outlet;
#X obj 279 56 sel 0 1 2 3;
#X obj 268 131 outlet;
#X obj 251 58 % 4;
#X obj 447 90 outlet;
#X floatatom 88 85 5 0 0 0 - - -;
#X connect 0 0 1 0;
#X connect 0 0 8 0;
#X connect 1 0 0 1;
#X connect 2 0 0 0;
#X connect 6 0 3 0;
#X connect 6 1 4 0;
#X connect 6 2 5 0;
#X connect 6 3 7 0;
#X connect 8 0 6 0;
#X connect 8 0 9 0;
