#N canvas 0 0 450 242 10;
#X obj 240 22 f;
#X obj 269 21 + 1;
#X obj 111 37 inlet;
#X obj 245 77 outlet;
#X obj 309 84 outlet;
#X obj 269 46 sel 0 1 2;
#X obj 370 84 outlet;
#X obj 241 48 % 3;
#X connect 0 0 1 0;
#X connect 0 0 7 0;
#X connect 1 0 0 1;
#X connect 2 0 0 0;
#X connect 5 0 3 0;
#X connect 5 1 4 0;
#X connect 5 2 6 0;
#X connect 7 0 5 0;
