#N canvas 499 183 450 271 10;
#X obj 250 32 f;
#X obj 279 31 + 1;
#X obj 121 47 inlet;
#X obj 289 111 outlet;
#X obj 334 110 outlet;
#X obj 251 58 % 8;
#X obj 380 109 outlet;
#X obj 425 108 outlet;
#X obj 191 114 outlet;
#X obj 236 113 outlet;
#X obj 94 113 outlet;
#X obj 139 112 outlet;
#X obj 279 56 demux 0 1 2 3 4 5 6 7 8;
#X connect 0 0 1 0;
#X connect 0 0 5 0;
#X connect 1 0 0 1;
#X connect 2 0 0 0;
#X connect 5 0 12 0;
#X connect 12 0 10 0;
#X connect 12 1 11 0;
#X connect 12 2 8 0;
#X connect 12 3 9 0;
#X connect 12 4 3 0;
#X connect 12 5 4 0;
#X connect 12 6 6 0;
#X connect 12 7 7 0;
