#N canvas -147 109 954 670 16;
#X obj 39 520 vd~ FRRAM;
#X obj 300 -2 adc~;
#X obj 345 47 *~;
#X obj 411 109 +~;
#X obj 423 451 line~;
#X obj 170 553 *~;
#X obj 45 483 +~;
#X obj 61 447 *~;
#X obj 210 410 phasor~;
#X obj 108 448 *~ 0.5;
#X obj 162 519 cos~;
#X obj 181 446 +~ 0.5;
#X obj 192 483 wrap~;
#X obj 241 519 vd~ FRRAM;
#X obj 235 552 *~;
#X obj 262 481 +~;
#X obj 263 446 *~;
#X obj 310 447 *~ 0.5;
#X obj 364 518 cos~;
#X obj 196 585 +~;
#X obj 425 415 pack 0 212;
#X obj 425 382 max 1.5;
#X floatatom 443 333 5 0 0 0 - - -;
#X obj 163 374 /;
#X floatatom 141 407 5 0 0 0 - - -;
#X obj 220 375 t b f;
#X obj 293 378 pack 0 198;
#X obj 297 411 line~;
#X obj 204 341 * 0.001;
#X obj 296 311 max 1;
#X floatatom 304 258 5 0 0 0 - - -;
#X obj 108 374 * -1;
#X obj 100 344 - 1;
#X floatatom 147 341 5 0 0 0 - - -;
#X obj 211 300 exp;
#X obj 88 314 * 0.05776;
#X floatatom 103 286 5 0 0 0 - - -;
#X obj 304 480 -~ 0.2557;
#X obj 85 482 -~ 0.2557;
#X text 294 231 window;
#X text 421 304 deladju;
#X text 101 260 Peach;
#X obj 376 775 outlet~;
#X obj 25 278 inlet;
#X floatatom 364 15 3 0 1.7 0 - - -;
#X obj 346 -25 inlet;
#X text 462 120 A M MODULATZ;
#X text -91 408 F R E Q O S H I F T;
#X obj 345 -56 *~ 0.4;
#X obj 302 83 s~ moi;
#X obj 348 -90 r~ moi;
#X obj 861 456 line~;
#X obj 608 558 *~;
#X obj 483 488 +~;
#X obj 499 452 *~;
#X obj 648 415 phasor~;
#X obj 546 453 *~ 0.5;
#X obj 600 524 cos~;
#X obj 619 451 +~ 0.5;
#X obj 630 488 wrap~;
#X obj 673 557 *~;
#X obj 700 486 +~;
#X obj 701 451 *~;
#X obj 748 452 *~ 0.5;
#X obj 802 523 cos~;
#X obj 634 590 +~;
#X obj 863 420 pack 0 212;
#X obj 863 387 max 1.5;
#X floatatom 865 344 5 0 0 0 - - -;
#X obj 601 379 /;
#X floatatom 579 412 5 0 0 0 - - -;
#X obj 658 380 t b f;
#X obj 731 383 pack 0 198;
#X obj 735 416 line~;
#X obj 642 346 * 0.001;
#X obj 734 316 max 1;
#X floatatom 742 263 5 0 0 0 - - -;
#X obj 546 379 * -1;
#X obj 538 349 - 1;
#X floatatom 585 346 5 0 0 0 - - -;
#X obj 649 305 exp;
#X obj 535 302 * 0.05776;
#X floatatom 555 265 5 0 0 0 - - -;
#X obj 742 485 -~ 0.2557;
#X obj 523 487 -~ 0.2557;
#X text 728 235 window;
#X text 859 309 deladju;
#X text 545 232 Peach;
#X text 863 550 T I K T O K E R Z Z;
#X obj 477 525 vd~ SRAM;
#X obj 679 524 vd~ SRAM;
#X obj 357 147 delwrite~ FRRAM 4500;
#X obj 594 187 delwrite~ SRAM 5000;
#X obj 808 252 r wiu;
#X obj 865 282 r diu;
#X obj 955 238 loadbang;
#X obj 391 600 count;
#X obj 359 658 *~;
#X obj 382 633 tgl 15 0 empty empty empty 17 7 0 10 -262144 -1 -1 0
1;
#X obj 409 635 tgl 15 0 empty empty empty 17 7 0 10 -262144 -1 -1 0
1;
#X obj 430 660 *~;
#X obj 315 689 *~ 0.84;
#X obj 431 695 *~ 0.84;
#X obj 419 563 bng 15 250 50 0 empty empty empty 17 7 0 10 -262144
-1 -1;
#X obj 804 163 count;
#X obj 820 138 metro;
#X obj 844 105 tgl 15 0 empty empty empty 17 7 0 10 -262144 -1 -1 0
1;
#X floatatom 938 40 5 0 0 0 - - -;
#X obj 887 193 line;
#X floatatom 1007 52 5 0 0 0 - - -;
#X obj 829 219 *;
#X obj 510 196 inlet;
#X obj 831 72 inlet;
#X obj 948 -86 inlet;
#X obj 418 516 inlet;
#X floatatom 655 158 5 0 2000 0 - - -;
#X obj 656 119 throw~ fuego;
#X obj 135 -30 catch~ fuego;
#X obj 146 7 *~;
#X floatatom 219 7 5 0 2 0 - - -;
#X obj 273 -48 inlet;
#X obj 518 -73 bng 15 250 50 0 empty empty empty 17 7 0 10 -262144
-1 -1;
#X obj 662 -74 bng 15 250 50 0 empty empty empty 17 7 0 10 -262144
-1 -1;
#X text 655 -98 <<;
#X obj 686 -65 bng 15 250 50 0 empty empty empty 17 7 0 10 -262144
-1 -1;
#X text 679 -89 >>;
#X obj 634 -71 bng 15 250 50 0 empty empty empty 17 7 0 10 -262144
-1 -1;
#X text 627 -95 ff;
#X obj 538 -49 piedr00000000;
#X floatatom 600 -90 5 0 0 0 - - -;
#X text 515 -93 &h;
#X text 642 -149 sqrtt;
#X floatatom 624 -123 5 0 0 0 - - -;
#X text 554 -114 dovve1;
#X floatatom 565 -171 5 0 0 0 - - -;
#X text 570 -160 dovve2;
#X obj 410 9 *~;
#X obj 674 19 *~;
#X obj 719 -55 tgl 15 0 empty empty empty 17 7 0 10 -262144 -1 -1 1
1;
#X obj 606 86 +~;
#X obj 664 89 +~;
#X obj 430 -88 inlet;
#X obj 570 -9 inlet;
#X obj 710 -95 inlet;
#X obj 684 -130 inlet;
#X obj 298 -143 motex/shuffle 0 850 785;
#X obj 361 -173 inlet;
#X obj 332 -115 cyclone/bucket 2;
#X obj 327 -169 bng 15 250 50 0 empty empty empty 17 7 0 10 -262144
-1 -1;
#X obj 233 161 *~;
#X floatatom 305 175 5 0 3 0 - - -;
#X obj 569 -129 / 64;
#X obj 471 -18 s mnmn;
#X obj 191 694 vd~ amanitas;
#X obj 167 727 *~;
#X obj 438 633 tgl 15 0 empty empty empty 17 7 0 10 -262144 -1 -1 0
1;
#X floatatom 47 631 9 0 0 0 - - -;
#X obj 46 668 cyclone/cycle~;
#X obj 187 764 *~;
#X floatatom 282 776 5 0 0 0 - - -;
#X obj 367 737 delwrite~ amanitas 3080;
#X obj 323 818 r feba;
#X obj 22 588 r nanotec;
#X obj 149 36 r~ locoroco;
#X obj 28 696 +~ 0.54;
#X obj 42 316 int;
#X obj 504 236 int;
#X obj 767 -148 loadbang;
#X obj 786 -125 bng 15 250 50 0 empty empty empty 17 7 0 10 -262144
-1 -1;
#X msg 786 -104 1;
#X msg 815 191 0 370;
#X text 1063 57 amount tokers;
#X obj 315 283 r wini;
#X obj 415 251 r dejup;
#X obj 726 151 r AMADE;
#X obj 390 189 r reflujo;
#X obj 223 81 *~;
#X floatatom -62 8 5 0 3 0 - - -;
#X obj 23 22 r recol;
#X obj 948 -57 t b b;
#X obj 948 -20 random 400;
#X obj 546 798 s~ llamas;
#X obj 1008 14 r tokers;
#X obj 243 119 r~ flolo;
#X obj -93 155 metro;
#X obj -79 183 metro;
#X obj -65 113 tgl 15 0 empty empty empty 17 7 0 10 -262144 -1 -1 0
1;
#X obj -91 130 tgl 15 0 empty empty empty 17 7 0 10 -262144 -1 -1 0
1;
#X obj -4 179 metro;
#X obj 54 179 metro;
#X obj -24 140 tgl 15 0 empty empty empty 17 7 0 10 -262144 -1 -1 0
1;
#X obj 13 147 tgl 15 0 empty empty empty 17 7 0 10 -262144 -1 -1 0
1;
#X obj -29 52 r fokt;
#X obj -29 80 f;
#X obj 15 82 + 1;
#X obj 35 113 t b b b b;
#X msg 43 140 0;
#X msg 73 141 0;
#X msg 104 144 0;
#X obj -134 44 t b b b b;
#X msg -126 71 0;
#X msg -96 72 0;
#X msg -65 75 0;
#X obj 138 132 t b b b b;
#X msg 146 159 0;
#X msg 176 160 0;
#X msg 176 188 0;
#X obj -29 108 % 5;
#X obj 54 80 sel 0 1 2 3 4;
#X msg 42 48 1;
#X msg 72 49 1;
#X msg 103 52 1;
#X msg 128 55 1;
#X obj 148 107 t b b b b;
#X floatatom 176 204 5 0 0 0 - - -;
#X floatatom 233 204 5 0 0 0 - - -;
#X floatatom 178 236 5 0 0 0 - - -;
#X floatatom 238 237 5 0 0 0 - - -;
#X floatatom 11 -37 5 0 0 0 - - -;
#X obj -100 271 s r1;
#X obj -90 300 s r2;
#X obj -60 325 s r3;
#X obj -24 351 s r4;
#X obj 111 -100 r maravi;
#X obj -43 -96 r mariavision;
#X obj -31 -138 r testigos;
#X obj 110 -144 r gehova;
#X obj 1038 143 r marasal;
#X obj 598 154 *~;
#X obj 275 48 *~ 2.5;
#X msg 948 274 \; wiu 120 \; diu 62 \; dejup 34 \; nanotec 0.45 \;
feba 0.5 \; tokers 0.8 \; mariavision 130 \; gehova 430 \; maravi 2500
\; testigos 900 \; marasal 230 \; wini 70 \;;
#X obj -65 211 random 1500;
#X obj -86 239 random 800;
#X obj 35 238 random 2500;
#X obj 53 210 random 500;
#X obj 976 157 / 2;
#X msg 865 165 420 400;
#X obj 469 574 t f f f;
#X obj 556 665 pipe 1500;
#X obj 486 604 / 1885;
#X obj 210 728 *~ 0.4;
#X obj 190 803 lop~;
#X floatatom 81 778 5 0 0 0 - - -;
#X obj 98 807 * 10;
#X obj 99 695 *~ 1.769;
#X obj 27 727 /~ 8;
#X obj 89 726 +~ 77;
#X obj 597 116 *~ 60;
#X obj 908 -155 PIEDROYDIVISION;
#X obj 719 21 +~;
#X obj 685 51 zexy/multiplex~ . .;
#X obj 777 -44 f;
#X obj 819 -45 + 1;
#X obj 778 -15 % 2;
#X floatatom 773 17 5 0 0 0 - - -;
#X obj 857 1 r NEWTOY;
#N canvas 0 50 893 636 MINIREVENTON 1;
#X obj 81 176 *~ 2;
#X obj 81 204 delwrite~ mutasi 13890;
#X obj 228 141 *~ 7603;
#X obj 228 169 vd~ mutasi;
#X obj 228 113 phasor~ 0.3;
#X obj 85 111 inlet~;
#X connect 0 0 1 0;
#X connect 2 0 3 0;
#X connect 4 0 2 0;
#X connect 5 0 0 0;
#X restore 719 708 pd MINIREVENTON IN REVERSE THE TOWN MIUSIKAL;
#X connect 0 0 5 0;
#X connect 1 0 2 0;
#X connect 1 0 229 0;
#X connect 2 0 3 0;
#X connect 3 0 91 0;
#X connect 3 0 92 0;
#X connect 4 0 6 1;
#X connect 4 0 15 1;
#X connect 5 0 19 0;
#X connect 6 0 0 0;
#X connect 7 0 6 0;
#X connect 8 0 7 0;
#X connect 8 0 9 0;
#X connect 8 0 11 0;
#X connect 9 0 38 0;
#X connect 10 0 5 1;
#X connect 11 0 12 0;
#X connect 12 0 17 0;
#X connect 12 0 16 0;
#X connect 13 0 14 0;
#X connect 14 0 19 1;
#X connect 15 0 13 0;
#X connect 16 0 15 0;
#X connect 17 0 37 0;
#X connect 18 0 14 1;
#X connect 19 0 97 0;
#X connect 19 0 160 0;
#X connect 20 0 4 0;
#X connect 21 0 20 0;
#X connect 22 0 21 0;
#X connect 23 0 24 0;
#X connect 24 0 8 0;
#X connect 25 0 23 0;
#X connect 25 1 23 1;
#X connect 26 0 27 0;
#X connect 27 0 16 1;
#X connect 27 0 7 1;
#X connect 28 0 25 0;
#X connect 29 0 26 0;
#X connect 29 0 28 0;
#X connect 30 0 29 0;
#X connect 31 0 23 0;
#X connect 32 0 31 0;
#X connect 33 0 32 0;
#X connect 34 0 33 0;
#X connect 35 0 34 0;
#X connect 36 0 35 0;
#X connect 37 0 18 0;
#X connect 38 0 10 0;
#X connect 43 0 165 0;
#X connect 44 0 2 1;
#X connect 45 0 44 0;
#X connect 48 0 136 0;
#X connect 50 0 48 0;
#X connect 51 0 53 1;
#X connect 51 0 61 1;
#X connect 52 0 65 0;
#X connect 53 0 89 0;
#X connect 54 0 53 0;
#X connect 55 0 54 0;
#X connect 55 0 56 0;
#X connect 55 0 58 0;
#X connect 56 0 84 0;
#X connect 57 0 52 1;
#X connect 58 0 59 0;
#X connect 59 0 63 0;
#X connect 59 0 62 0;
#X connect 60 0 65 1;
#X connect 61 0 90 0;
#X connect 62 0 61 0;
#X connect 63 0 83 0;
#X connect 64 0 60 1;
#X connect 65 0 100 0;
#X connect 65 0 160 0;
#X connect 66 0 51 0;
#X connect 67 0 66 0;
#X connect 68 0 67 0;
#X connect 69 0 70 0;
#X connect 70 0 55 0;
#X connect 71 0 69 0;
#X connect 71 1 69 1;
#X connect 72 0 73 0;
#X connect 73 0 62 1;
#X connect 73 0 54 1;
#X connect 74 0 71 0;
#X connect 75 0 72 0;
#X connect 75 0 74 0;
#X connect 76 0 75 0;
#X connect 77 0 69 0;
#X connect 78 0 77 0;
#X connect 79 0 78 0;
#X connect 80 0 79 0;
#X connect 81 0 80 0;
#X connect 82 0 81 0;
#X connect 83 0 64 0;
#X connect 84 0 57 0;
#X connect 89 0 52 0;
#X connect 90 0 60 0;
#X connect 93 0 76 0;
#X connect 94 0 68 0;
#X connect 95 0 230 0;
#X connect 96 0 98 0;
#X connect 96 1 99 0;
#X connect 96 2 155 0;
#X connect 97 0 101 0;
#X connect 98 0 97 1;
#X connect 99 0 100 1;
#X connect 100 0 102 0;
#X connect 101 0 42 0;
#X connect 101 0 181 0;
#X connect 102 0 42 0;
#X connect 102 0 181 0;
#X connect 103 0 96 0;
#X connect 104 0 236 0;
#X connect 104 1 170 0;
#X connect 105 0 104 0;
#X connect 106 0 105 0;
#X connect 107 0 105 1;
#X connect 108 0 110 0;
#X connect 109 0 110 1;
#X connect 110 0 237 0;
#X connect 111 0 166 0;
#X connect 112 0 106 0;
#X connect 113 0 179 0;
#X connect 114 0 103 0;
#X connect 115 0 228 1;
#X connect 117 0 118 0;
#X connect 118 0 3 1;
#X connect 119 0 118 1;
#X connect 120 0 119 0;
#X connect 121 0 128 0;
#X connect 122 0 128 6;
#X connect 124 0 128 4;
#X connect 126 0 128 5;
#X connect 128 0 137 0;
#X connect 129 0 128 3;
#X connect 129 0 152 0;
#X connect 132 0 128 2;
#X connect 134 0 151 0;
#X connect 134 0 129 0;
#X connect 136 0 3 1;
#X connect 137 0 250 0;
#X connect 138 0 137 1;
#X connect 139 0 247 0;
#X connect 140 0 116 0;
#X connect 141 0 121 0;
#X connect 141 0 248 2;
#X connect 142 0 126 0;
#X connect 142 0 248 3;
#X connect 143 0 124 0;
#X connect 143 0 248 4;
#X connect 144 0 122 0;
#X connect 144 0 248 0;
#X connect 145 0 147 0;
#X connect 146 0 145 0;
#X connect 146 0 148 0;
#X connect 146 0 248 1;
#X connect 147 0 134 0;
#X connect 147 1 129 0;
#X connect 149 0 3 0;
#X connect 150 0 149 1;
#X connect 151 0 128 1;
#X connect 151 0 248 5;
#X connect 153 0 154 0;
#X connect 154 0 240 0;
#X connect 155 0 154 1;
#X connect 156 0 157 0;
#X connect 157 0 164 0;
#X connect 158 0 241 0;
#X connect 159 0 158 1;
#X connect 161 0 159 0;
#X connect 162 0 156 0;
#X connect 163 0 176 0;
#X connect 164 0 245 0;
#X connect 165 0 36 0;
#X connect 166 0 82 0;
#X connect 167 0 168 0;
#X connect 168 0 169 0;
#X connect 169 0 138 0;
#X connect 170 0 108 0;
#X connect 172 0 30 0;
#X connect 173 0 22 0;
#X connect 174 0 115 0;
#X connect 175 0 150 0;
#X connect 176 0 3 1;
#X connect 177 0 176 1;
#X connect 178 0 177 0;
#X connect 179 0 180 0;
#X connect 180 0 107 0;
#X connect 182 0 109 0;
#X connect 183 0 149 0;
#X connect 184 0 232 0;
#X connect 185 0 231 0;
#X connect 186 0 184 0;
#X connect 187 0 185 0;
#X connect 188 0 233 0;
#X connect 189 0 234 0;
#X connect 190 0 188 0;
#X connect 191 0 189 0;
#X connect 192 0 193 0;
#X connect 193 0 194 0;
#X connect 193 0 207 0;
#X connect 194 0 193 1;
#X connect 195 0 186 0;
#X connect 195 1 196 0;
#X connect 195 2 197 0;
#X connect 195 3 198 0;
#X connect 196 0 187 0;
#X connect 197 0 190 0;
#X connect 198 0 191 0;
#X connect 199 0 190 0;
#X connect 199 1 200 0;
#X connect 199 2 201 0;
#X connect 199 3 202 0;
#X connect 200 0 187 0;
#X connect 201 0 186 0;
#X connect 202 0 191 0;
#X connect 203 0 191 0;
#X connect 203 1 204 0;
#X connect 203 2 205 0;
#X connect 203 3 206 0;
#X connect 204 0 187 0;
#X connect 205 0 186 0;
#X connect 206 0 190 0;
#X connect 207 0 208 0;
#X connect 207 0 218 0;
#X connect 208 0 187 0;
#X connect 208 1 195 0;
#X connect 208 2 199 0;
#X connect 208 3 203 0;
#X connect 208 4 213 0;
#X connect 209 0 187 0;
#X connect 210 0 186 0;
#X connect 211 0 190 0;
#X connect 212 0 191 0;
#X connect 213 0 209 0;
#X connect 213 1 210 0;
#X connect 213 2 211 0;
#X connect 213 3 212 0;
#X connect 214 0 185 1;
#X connect 215 0 188 1;
#X connect 216 0 189 1;
#X connect 217 0 184 1;
#X connect 223 0 214 0;
#X connect 224 0 217 0;
#X connect 225 0 216 0;
#X connect 226 0 215 0;
#X connect 227 0 107 0;
#X connect 228 0 136 1;
#X connect 229 0 49 0;
#X connect 231 0 22 0;
#X connect 231 0 220 0;
#X connect 232 0 30 0;
#X connect 232 0 219 0;
#X connect 233 0 68 0;
#X connect 233 0 222 0;
#X connect 234 0 76 0;
#X connect 234 0 221 0;
#X connect 236 0 108 0;
#X connect 237 0 36 0;
#X connect 237 1 82 0;
#X connect 237 2 239 0;
#X connect 238 0 156 0;
#X connect 239 0 238 0;
#X connect 240 0 42 0;
#X connect 240 0 158 0;
#X connect 241 0 160 0;
#X connect 242 0 243 0;
#X connect 243 0 241 1;
#X connect 244 0 246 0;
#X connect 245 0 244 0;
#X connect 246 0 153 0;
#X connect 247 0 228 0;
#X connect 248 0 249 0;
#X connect 248 1 249 1;
#X connect 249 0 250 1;
#X connect 250 0 140 1;
#X connect 250 0 140 0;
#X connect 250 0 139 0;
#X connect 251 0 252 0;
#X connect 251 0 253 0;
#X connect 252 0 251 1;
#X connect 253 0 254 0;
#X connect 254 0 250 0;
#X connect 255 0 251 0;
