#N canvas -9 -9 1920 976 10;
#X obj 107 231 moses 50;
#X floatatom 106 209 5 -60 172 0 - - -;
#X floatatom 85 277 5 0 0 0 - - -;
#X floatatom 139 282 5 0 0 0 - - -;
#X obj -70 198 inlet;
#X obj 188 328 mtof;
#X floatatom 129 347 5 0 0 0 - - -;
#X floatatom 223 335 5 0 0 0 - - -;
#X obj 145 396 +~;
#X obj 82 297 + 60;
#X floatatom -127 187 5 0 0 0 - - -;
#X obj -126 212 - 50;
#X floatatom -129 261 5 0 0 0 - - -;
#X obj -129 239 moses 0;
#X obj -92 261 t f f;
#X floatatom -84 281 5 0 0 0 - - -;
#X obj -132 283 +;
#X obj -86 302 + 220;
#X floatatom -121 376 5 0 0 0 - - -;
#X obj -130 306 / 32;
#X obj -77 330 max 0;
#X obj -124 328 - 5.8;
#X obj -126 351 line 0 45;
#X obj -74 226 t f f f;
#X obj 194 399 *~;
#X obj 102 403 *~;
#X floatatom 2 196 5 0 0 0 - - -;
#X floatatom -24 247 5 0 0 0 - - -;
#X floatatom -14 301 5 0 0 0 - - -;
#X floatatom 10 385 5 0 0 0 - - -;
#X obj 8 226 / -250;
#X obj 75 333 * 10;
#X obj 26 253 * -3000;
#X floatatom 26 336 5 0 0 0 - - -;
#X obj -14 326 / 222;
#X obj -13 357 max 0;
#X floatatom -108 404 5 0 0 0 - - -;
#X obj 46 404 max -1;
#X floatatom 20 425 5 0 0 0 - - -;
#X obj -38 394 / 9.728;
#X obj -65 402 - 1;
#X obj 161 304 - 70;
#X obj 32 357 inlet~;
#X obj 242 366 inlet~;
#X obj 124 317 r koko;
#X obj 211 304 r kiko;
#X obj 194 192 loadbang;
#X msg 195 225 \; koko 3.2 \; kiko 2.09 \;;
#X obj 148 422 outlet~;
#X obj 86 371 iemlib/vcf_lp4~;
#X obj 180 363 iemlib/vcf_hp4~;
#X connect 0 0 2 0;
#X connect 0 1 3 0;
#X connect 1 0 0 0;
#X connect 2 0 9 0;
#X connect 3 0 41 0;
#X connect 4 0 23 0;
#X connect 5 0 50 1;
#X connect 6 0 49 2;
#X connect 7 0 50 2;
#X connect 8 0 48 0;
#X connect 9 0 31 0;
#X connect 10 0 11 0;
#X connect 11 0 13 0;
#X connect 12 0 14 0;
#X connect 13 0 12 0;
#X connect 14 0 16 0;
#X connect 14 1 16 1;
#X connect 15 0 17 0;
#X connect 16 0 15 0;
#X connect 17 0 19 0;
#X connect 18 0 24 1;
#X connect 19 0 21 0;
#X connect 20 0 22 0;
#X connect 21 0 20 0;
#X connect 22 0 18 0;
#X connect 23 0 26 0;
#X connect 23 1 10 0;
#X connect 23 2 1 0;
#X connect 24 0 8 1;
#X connect 25 0 8 0;
#X connect 26 0 30 0;
#X connect 27 0 32 0;
#X connect 28 0 34 0;
#X connect 29 0 39 0;
#X connect 30 0 27 0;
#X connect 31 0 49 1;
#X connect 32 0 28 0;
#X connect 34 0 33 0;
#X connect 34 0 35 0;
#X connect 35 0 29 0;
#X connect 36 0 37 0;
#X connect 37 0 38 0;
#X connect 38 0 25 1;
#X connect 39 0 40 0;
#X connect 40 0 36 0;
#X connect 41 0 5 0;
#X connect 42 0 49 0;
#X connect 43 0 50 0;
#X connect 44 0 6 0;
#X connect 45 0 7 0;
#X connect 46 0 47 0;
#X connect 49 0 25 0;
#X connect 50 0 24 0;
