#N canvas 1100 373 723 598 10;
#X obj 178 303 +~;
#X floatatom 236 176 8 0 0 0 - - -;
#X obj 235 260 *~;
#X obj 195 233 *~;
#X obj 303 236 line~;
#X obj 235 148 t b f;
#X obj 160 181 f;
#X msg 368 233 0 8;
#X msg 421 232 1 8;
#X obj 344 326 outlet~;
#X obj 471 132 inlet;
#X obj 167 160 del 8;
#X obj 115 266 +~;
#X obj 78 72 r~ locoroco;
#X obj 165 79 inlet;
#X obj 119 110 *~;
#X obj 38 146 *~;
#X floatatom 246 338 5 0 0 0 - - -;
#X floatatom 169 110 5 0 0 0 - - -;
#X obj 251 307 r feedfeed;
#X obj 18 92 r~ llamas;
#X obj 274 260 delwrite~ Llong 59500;
#X obj 236 205 delread~ Llong 65000;
#X connect 0 0 9 0;
#X connect 0 0 21 0;
#X connect 1 0 22 0;
#X connect 2 0 0 1;
#X connect 3 0 2 0;
#X connect 4 0 3 1;
#X connect 5 0 7 0;
#X connect 5 0 11 0;
#X connect 5 1 6 1;
#X connect 6 0 1 0;
#X connect 7 0 4 0;
#X connect 8 0 4 0;
#X connect 10 0 5 0;
#X connect 11 0 6 0;
#X connect 11 0 8 0;
#X connect 12 0 0 0;
#X connect 13 0 15 0;
#X connect 14 0 18 0;
#X connect 15 0 12 1;
#X connect 16 0 12 0;
#X connect 17 0 2 1;
#X connect 18 0 16 1;
#X connect 18 0 15 1;
#X connect 19 0 17 0;
#X connect 20 0 16 0;
#X connect 22 0 3 0;
