#N canvas -9 -9 1920 976 12;
#X obj 827 285 cnv 15 600 600 empty empty empty 20 12 0 14 -204786
-66577 0;
#X obj 713 341 phasor~;
#X floatatom 762 206 5 0 0 0 - - -;
#X obj 149 138 hsl 128 15 0 127 0 0 empty empty empty -2 -8 0 10 -262144
-1 -1 0 1;
#X obj 182 196 cyclone/out~;
#X connect 1 0 4 0;
#X connect 2 0 1 0;
#X connect 3 0 2 0;
#X coords 0 -1 1 1 600 600 1 100 100;
