#N canvas 676 479 1079 457 24;
#X obj 779 176 gemwin;
#X msg 766 114 1 \, create;
#X msg 782 142 0 \, destroy;
#X obj 261 308 sphere;
#X obj 89 31 gemhead;
#X msg 137 277 draw line;
#X obj 219 103 colorRGB;
#X obj 222 69 / 100;
#X obj 314 99 / 100;
#X obj 377 99 / 100;
#X floatatom 227 38 5 0 0 0 - - -;
#X floatatom 314 63 5 0 0 0 - - -;
#X floatatom 380 60 5 0 0 0 - - -;
#X floatatom 439 276 5 0 0 0 - - -;
#X floatatom 372 277 5 0 0 0 - - -;
#X obj 89 152 translateXYZ;
#X floatatom 236 163 5 0 0 0 - - -;
#X obj 1695 86 hsl 128 15 0 127 0 0 empty empty empty -2 -8 0 10 -262144
-1 -1 8600 1;
#X obj 1692 111 int;
#X floatatom 304 163 5 0 0 0 - - -;
#X floatatom 377 167 5 0 0 0 - - -;
#X obj 259 274 rotateXYZ;
#X floatatom 440 241 7 0 0 0 - - -;
#X floatatom 256 239 7 0 0 0 - - -;
#X floatatom 354 239 7 0 0 0 - - -;
#X msg 136 243 draw point;
#X obj 147 650 sphere;
#X obj 63 381 gemhead;
#X msg 23 619 draw line;
#X obj 120 413 colorRGB;
#X obj 155 381 / 100;
#X obj 231 415 / 100;
#X obj 299 416 / 100;
#X floatatom 152 352 5 0 0 0 - - -;
#X floatatom 231 379 5 0 0 0 - - -;
#X floatatom 301 382 5 0 0 0 - - -;
#X floatatom 301 650 5 0 0 0 - - -;
#X floatatom 234 651 5 0 0 0 - - -;
#X obj 137 518 translateXYZ;
#X floatatom 149 482 5 0 0 0 - - -;
#X floatatom 217 482 5 0 0 0 - - -;
#X floatatom 290 486 5 0 0 0 - - -;
#X obj 145 610 rotateXYZ;
#X floatatom 292 584 5 0 0 0 - - -;
#X floatatom 159 580 5 0 0 0 - - -;
#X floatatom 223 581 5 0 0 0 - - -;
#X obj 187 132 r tranxa;
#X obj 291 133 r raya;
#X obj 368 135 r raza;
#X obj 228 9 r coloar;
#X obj 290 37 r goloa;
#X obj 375 29 r boba;
#X obj 232 205 r otelax;
#X obj 336 206 r otay;
#X obj 418 205 r otaz;
#X obj 152 319 r colobr;
#X obj 215 351 r golob;
#X obj 310 351 r bobb;
#X obj 132 445 r tranxb;
#X obj 236 446 r rayb;
#X obj 313 448 r razb;
#X obj 206 687 r orosu;
#X obj 297 683 r miniso;
#X obj 343 310 r tama;
#X obj 422 310 r mikomi;
#X obj 310 545 r otbz;
#X obj 228 546 r otby;
#X obj 124 545 r otelbx;
#X obj -77 1028 sphere;
#X obj -197 679 gemhead;
#X msg -206 926 draw line;
#X obj -96 733 colorRGB;
#X obj -93 699 / 100;
#X obj -1 729 / 100;
#X obj 62 729 / 100;
#X floatatom -88 668 5 0 0 0 - - -;
#X floatatom -1 693 5 0 0 0 - - -;
#X floatatom 65 690 5 0 0 0 - - -;
#X floatatom 106 1000 5 0 0 0 - - -;
#X floatatom 28 996 5 0 0 0 - - -;
#X obj -91 824 translateXYZ;
#X floatatom -79 793 5 0 0 0 - - -;
#X floatatom -11 793 7 0 0 0 - - -;
#X floatatom 86 796 5 0 0 0 - - -;
#X obj -84 923 rotateXYZ;
#X floatatom 97 890 7 0 0 0 - - -;
#X floatatom -87 888 7 0 0 0 - - -;
#X floatatom 11 888 7 0 0 0 - - -;
#X msg -237 856 draw fill;
#X obj -189 708 r colocr;
#X obj -25 667 r goloc;
#X obj 60 659 r boc;
#X obj -128 762 r tranxc;
#X obj -24 763 r rayc;
#X obj 53 765 r razc;
#X obj -111 854 r otelcx;
#X obj -7 855 r otcy;
#X obj 75 854 r otcz;
#X obj 5 1030 r cama;
#X obj 84 1030 r clito;
#X obj -80 974 scaleXYZ;
#X floatatom 27 965 5 0 0 0 - - -;
#X floatatom 103 970 5 0 0 0 - - -;
#X obj 131 209 sel 1 0;
#X obj 143 180 r bruta;
#X obj 116 190 tgl 15 0 empty empty empty 17 7 0 10 -262144 -1 -1 0
1;
#X obj 33 555 sel 1 0;
#X obj 22 527 tgl 15 0 empty empty empty 17 7 0 10 -262144 -1 -1 1
1;
#X obj 51 522 r cmas;
#X obj -230 807 sel 1 0;
#X obj -241 779 tgl 15 0 empty empty empty 17 7 0 10 -262144 -1 -1
1 1;
#X obj -212 774 r deman;
#X obj 25 933 r scax;
#X obj 102 934 r scay;
#X obj -10 262 scaleXYZ;
#X floatatom -70 215 5 0 0 0 - - -;
#X floatatom -6 211 5 0 0 0 - - -;
#X floatatom 56 212 5 0 0 0 - - -;
#X obj -92 179 r sapox;
#X obj -90 146 r soya;
#X obj -3 178 r zazafras;
#X obj 564 598 sphere;
#X obj 518 274 gemhead;
#X msg 503 520 draw line;
#X obj 619 328 colorRGB;
#X obj 622 294 / 100;
#X obj 714 324 / 100;
#X obj 777 324 / 100;
#X floatatom 627 263 5 0 0 0 - - -;
#X floatatom 714 288 5 0 0 0 - - -;
#X floatatom 780 285 5 0 0 0 - - -;
#X floatatom 735 563 5 0 0 0 - - -;
#X floatatom 669 566 5 0 0 0 - - -;
#X obj 497 390 translateXYZ;
#X floatatom 636 388 5 0 0 0 - - -;
#X floatatom 704 388 5 0 0 0 - - -;
#X floatatom 777 392 5 0 0 0 - - -;
#X obj 504 489 rotateXYZ;
#X floatatom 685 456 7 0 0 0 - - -;
#X floatatom 429 449 7 0 0 0 - - -;
#X floatatom 599 454 7 0 0 0 - - -;
#X msg 442 557 draw fill;
#X obj 564 563 scaleXYZ;
#X floatatom 702 529 5 0 0 0 - - -;
#X floatatom 768 529 5 0 0 0 - - -;
#X obj 418 516 sel 1 0;
#X obj 465 478 tgl 15 0 empty empty empty 17 7 0 10 -262144 -1 -1 0
1;
#X obj 771 493 r szd;
#X obj 646 600 r camad;
#X obj 640 640 r clitoris;
#X obj 690 494 r syy;
#X floatatom 624 526 5 0 0 0 - - -;
#X obj 618 494 r xuxi;
#X obj 526 303 r colodr;
#X obj 690 262 r doloc;
#X obj 775 254 r doc;
#X obj 587 357 r tranxd;
#X obj 691 358 r rayd;
#X obj 768 360 r razd;
#X obj 477 420 r oteldx;
#X obj 581 421 r otdy;
#X obj 663 420 r otdz;
#X obj 489 357 r dudero;
#X text -261 445 S H A P E S;
#X text -265 481 S H A P E S;
#X text -239 498 S H A P E S;
#X text 509 68 S H A P E S;
#X text 512 152 S H A P E S;
#X text 538 208 S H A P E S;
#X text 770 428 S H A P E S;
#X text 803 224 S H A P E S;
#X text 907 190 S H A P E S;
#X text 381 617 S H A P E S;
#X text -33 1086 S H A P E S;
#X text 391 715 S H A P E S;
#X text 465 661 S H A P E S;
#X text 3272 346 S H A P E S;
#X text 541 711 S H A P E S;
#X text 565 700 S H A P E S;
#X text 772 452 S H A P E S;
#X text 817 639 S H A P E S;
#X text 151 745 S H A P E S;
#X text 276 756 S H A P E S;
#X text 243 784 S H A P E S;
#X text 176 863 S H A P E S;
#X text 154 815 S H A P E S;
#X text 134 908 S H A P E S;
#X text -59 60 S H A P E S;
#X text -49 70 S H A P E S;
#X text -39 80 S H A P E S;
#X text -79 92 S H A P E S;
#X text -69 102 S H A P E S;
#X text -59 112 S H A P E S;
#X text -245 537 S H A P E S;
#X text -171 559 S H A P E S;
#X text -111 581 S H A P E S;
#X text -199 617 S H A P E S;
#X text -201 592 S H A P E S;
#X text -224 220 S H A P E S;
#X text -228 256 S H A P E S;
#X text -202 273 S H A P E S;
#X text -273 332 S H A P E S;
#X text -241 362 S H A P E S;
#X text -181 384 S H A P E S;
#X text -271 395 S H A P E S;
#X text 779 61 A H O R A;
#X text 1858 137 T E X T I N GG;
#X text 1580 47 T E X T I N GG;
#X text 1544 182 T E X T I N GG;
#X text 1842 82 T E X T I N GG;
#X text 1476 158 T E X T I N GG;
#X obj 15 488 scaleXYZ;
#X floatatom -114 450 5 0 0 0 - - -;
#X floatatom -46 450 5 0 0 0 - - -;
#X floatatom 20 447 5 0 0 0 - - -;
#X msg 22 585 draw fill;
#X obj -106 414 r sux;
#X obj -35 418 r yuyu;
#X obj -13 380 r lulu;
#X msg 1167 298 \; tranxa 0.081 \; raya 0 \; raza 0 \; otelax -350.37
\; otay -90.65 \; otaz -4.61 \; coloar 100 \; goloa 98 \; boba 100
\; sapox 1.55 \; soya 1.15 \; zazafras 0.91 \; tama 3.54 \; mikomi
3 \; tranxb -11.8 \; rayb -4.92 \; razb -3.745 \; otelbx 844 \; otby
871.2 \; otbz 79.21 \; colobr -23 \; golob 103 \; bobb 185 \; orosu
3.95 \; miniso 3 \; sux 0.67 \; yuyu 2.86 \; lulu -2.05 \; tranxc -4.38
\; rayc 2.87 \; razc 0.069 \; otelcx 553.25 \; otcy -48.13 \; otcz
-195.65 \; colocr 174 \; goloc -68 \; boc 24.7 \; scax 3.49 \; scay
2.66 \; cama 2.88 \; clito 4 \; tranxd 8.1 \; rayd -2.19 \; razd -3.08
\; oteldx 324.37 \; otdy 254.49 \; otdz -53.39 \; colodr -2 \; doloc
98 \; doc 100 \; camad 1.8 \; clitoris 3 \; xuxi 5.5 \; syy 6.53 \;
szd 2.889 \; bruta 0 \; cmas 0 \; deman 0 \; dudero 0 \;;
#X obj -240 1427 rectangle 1 2;
#X obj -293 1280 colorRGB;
#X obj -175 1353 rotateXYZ;
#X obj -301 1150 gemhead;
#X floatatom -287 1217 5 0 0 0 - - -;
#X obj -288 1248 / 100;
#X floatatom -221 1216 5 0 0 0 - - -;
#X obj -222 1247 / 100;
#X floatatom -156 1214 5 0 0 0 - - -;
#X obj -157 1245 / 100;
#X floatatom -179 1319 5 0 0 0 - - -;
#X floatatom -113 1318 5 0 0 0 - - -;
#X floatatom -48 1318 5 0 0 0 - - -;
#X floatatom -236 1387 5 0 0 0 - - -;
#X floatatom -167 1387 5 0 0 0 - - -;
#X obj -85 1426 translateXYZ;
#X floatatom -62 1364 5 0 0 0 - - -;
#X obj -63 1395 / 100;
#X floatatom 4 1363 5 0 0 0 - - -;
#X obj 3 1394 / 100;
#X floatatom 69 1361 5 0 0 0 - - -;
#X obj 68 1392 / 100;
#X obj 150 1299 rectangle 1 2;
#X obj 196 1227 colorRGB;
#X obj 308 1264 rotateXYZ;
#X obj 63 1162 gemhead;
#X floatatom 152 1133 5 0 0 0 - - -;
#X obj 151 1166 / 100;
#X floatatom 218 1134 5 0 0 0 - - -;
#X obj 217 1165 / 100;
#X floatatom 283 1132 5 0 0 0 - - -;
#X obj 282 1163 / 100;
#X floatatom 308 1230 5 0 0 0 - - -;
#X floatatom 374 1229 5 0 0 0 - - -;
#X floatatom 439 1227 5 0 0 0 - - -;
#X floatatom 159 1264 5 0 0 0 - - -;
#X floatatom 228 1264 5 0 0 0 - - -;
#X obj 170 1333 translateXYZ;
#X floatatom 304 1325 5 0 0 0 - - -;
#X obj 303 1356 / 100;
#X floatatom 366 1322 5 0 0 0 - - -;
#X obj 369 1355 / 100;
#X floatatom 431 1320 5 0 0 0 - - -;
#X obj 434 1353 / 100;
#X obj -221 1701 rectangle 1 2;
#X obj -116 1562 colorRGB;
#X obj -86 1658 rotateXYZ;
#X obj -1 1528 gemhead;
#X floatatom -206 1490 5 0 0 0 - - -;
#X obj -209 1522 / 100;
#X floatatom -143 1489 5 0 0 0 - - -;
#X obj -136 1524 / 100;
#X floatatom -72 1496 5 0 0 0 - - -;
#X obj -73 1527 / 100;
#X floatatom -91 1627 5 0 0 0 - - -;
#X floatatom -25 1626 5 0 0 0 - - -;
#X floatatom 40 1624 5 0 0 0 - - -;
#X floatatom -221 1625 5 0 0 0 - - -;
#X floatatom -152 1625 5 0 0 0 - - -;
#X obj -93 1793 translateXYZ;
#X floatatom -70 1731 5 0 0 0 - - -;
#X obj -71 1762 / 100;
#X floatatom -4 1730 5 0 0 0 - - -;
#X obj -5 1761 / 100;
#X floatatom 61 1728 5 0 0 0 - - -;
#X obj 60 1759 / 100;
#X obj 113 1647 rectangle 1 2;
#X obj 147 1466 colorRGB;
#X obj 274 1532 rotateXYZ;
#X obj 145 1370 gemhead;
#X floatatom 153 1403 5 0 0 0 - - -;
#X obj 152 1434 / 100;
#X floatatom 219 1402 5 0 0 0 - - -;
#X obj 218 1433 / 100;
#X floatatom 284 1400 5 0 0 0 - - -;
#X obj 283 1431 / 100;
#X floatatom 265 1504 5 0 0 0 - - -;
#X floatatom 337 1501 5 0 0 0 - - -;
#X floatatom 402 1499 5 0 0 0 - - -;
#X floatatom 139 1572 5 0 0 0 - - -;
#X floatatom 208 1572 5 0 0 0 - - -;
#X obj 266 1661 translateXYZ;
#X floatatom 289 1599 5 0 0 0 - - -;
#X obj 288 1630 / 100;
#X floatatom 355 1598 5 0 0 0 - - -;
#X obj 354 1629 / 100;
#X floatatom 420 1596 5 0 0 0 - - -;
#X obj 419 1627 / 100;
#X obj 138 1610 / 100;
#X obj 208 1612 / 100;
#X obj -226 1657 / 100;
#X obj -156 1659 / 100;
#X text 361 1137 AMARIO;
#X text 1 1492 A Z U L;
#X text -103 1185 ROSA;
#X msg 1349 291 \; amaR 143.2 \; amaG 94 \; amaB 20 \; rosaR 108 \;
rosaG 83 \; rosaB 84 \; Rojo 141 \; GRojo -6 \; BRojo 25 \; azuR 42
\; azuG 15 \; azuB 149 \; tamariX 59 \; tamariY 0 \; tamariZ 0 \; ramariX
0 \; ramariY 0 \; ramariZ 0 \; amasz 0.49 \; amazzz 0.57 \; troX -19
\; troY -25 \; troZ 0 \; rroX 0 \; rroY 0 \; rroZ 0 \; rojosz 58 \;
rojozzz 59 \; tazuX 41 \; tazuY 55 \; tazuZ 0 \; razuX 0 \; razuY 0
\; razuZ 0 \; azulsz 56 \; azulzzz 64 \; trosaX -23 \; trosaY 86 \;
trosaZ 0 \; rrosaX 0 \; rrosaY 0 \; rrosaZ 0 \; rosasz 0.54 \; rosazzz
0.62 \;;
#X text 1458 224 T E X T I N GG;
#X text 1306 259 T E X T I N GG;
#X text 2073 57 T E X T I N GG;
#X text 2055 119 T E X T I N GG;
#X obj 108 1104 r amaR;
#X obj 198 1103 r amaG;
#X obj 299 1095 r amaB;
#X obj 237 1192 r ramariX;
#X obj 346 1169 r ramariY;
#X obj 376 1196 r ramariZ;
#X obj 426 1286 r tamariZ;
#X obj 432 1257 r tamariY;
#X obj 305 1295 r tamariX;
#X obj 98 1198 r amasz;
#X obj 104 1225 r amazzz;
#X obj 343 1401 r Rojo;
#X obj 429 1397 r GRojo;
#X obj 363 1431 r BRojo;
#X obj 283 1560 r troX;
#X obj 364 1558 r troY;
#X obj 441 1560 r troZ;
#X obj 265 1463 r rroX;
#X obj 346 1461 r rroY;
#X obj 423 1463 r rroZ;
#X obj 155 1533 r rojosz;
#X obj 153 1505 r rojozzz;
#X obj -223 1596 r azulsz;
#X obj -226 1563 r azulzzz;
#X obj -77 1594 r razuX;
#X obj -16 1563 r razuY;
#X obj 7 1594 r razuZ;
#X obj 44 1693 r tazuZ;
#X obj 21 1662 r tazuY;
#X obj -40 1693 r tazuX;
#X obj -222 1461 r azuR;
#X obj -143 1458 r azuG;
#X obj -61 1461 r azuB;
#X text 481 1503 R O J O;
#X obj -275 1348 r rosasz;
#X obj -288 1320 r rosazzz;
#X obj 19 1295 r trosaX;
#X obj -177 1280 r rrosaX;
#X obj -95 1245 r rrosaY;
#X obj 20 1329 r trosaY;
#X obj 18 1260 r trosaZ;
#X obj -80 1283 r rrosaZ;
#X obj -307 1182 r rosaR;
#X obj -210 1178 r rosaG;
#X obj -90 1216 r rosaB;
#X obj 878 117 sel 1 0;
#X obj 1727 188 tgl 30 0 empty empty empty 17 7 0 10 -258113 -1 -1
1 1;
#X obj 903 145 t b b b;
#X text 844 286 S H A P E S;
#X msg 1515 281 \; tranxa 0.151 \; raya 0.36 \; raza 1.32 \; otelax
-350.37 \; otay -90.65 \; otaz -4.61 \; coloar 100 \; goloa 98 \; boba
100 \; sapox 1.55 \; soya 1.15 \; zazafras 0.91 \; tama 1.79 \; mikomi
3 \; tranxb -4.92 \; rayb -4.92 \; razb -3 \; otelbx 860.1 \; otby
819.2 \; otbz 243.21 \; colobr 10 \; golob 103 \; bobb 83 \; orosu
3.95 \; miniso 3 \; sux 0.67 \; yuyu 2.86 \; lulu -2.05 \; tranxc 4.08
\; rayc 1.89 \; razc 0.119 \; otelcx 552.88 \; otcy -294.71 \; otcz
29.35 \; colocr 214 \; goloc 114 \; boc 198.7 \; scax 1.07 \; scay
1.01 \; cama 1.54 \; clito 6 \; tranxd 9.86 \; rayd -2.07 \; razd -3.08
\; oteldx 67.37 \; otdy 270.74 \; otdz -53.39 \; colodr -2 \; doloc
98 \; doc 100 \; camad 1.8 \; clitoris 3 \; xuxi 5.5 \; syy 6.53 \;
szd 2.889 \; bruta 0 \; cmas 1 \; deman 0 \; dudero 1 \;;
#X msg 1700 281 \; amaR 143.2 \; amaG 94 \; amaB 20 \; rosaR 108 \;
rosaG 83 \; rosaB 84 \; Rojo 141 \; GRojo -6 \; BRojo 25 \; azuR 42
\; azuG 15 \; azuB 149 \; tamariX 683 \; tamariY 0 \; tamariZ 0 \;
ramariX 0 \; ramariY 0 \; ramariZ 0 \; amasz 7.03 \; amazzz 2.46 \;
troX -718 \; troY -25 \; troZ 0 \; rroX 0 \; rroY 0 \; rroZ 0 \; rojosz
441 \; rojozzz 440 \; tazuX 41 \; tazuY 81 \; tazuZ 0 \; razuX 0 \;
razuY 0 \; razuZ 0 \; azulsz 381 \; azulzzz 305 \; trosaX 306 \; trosaY
-328 \; trosaZ 0 \; rrosaX 0 \; rrosaY 0 \; rrosaZ 0 \; rosasz 8.44
\; rosazzz 0.62 \;;
#X msg 2050 298 \; amaR 143.2 \; amaG 94 \; amaB 20 \; rosaR 108 \;
rosaG 83 \; rosaB 84 \; Rojo 141 \; GRojo -6 \; BRojo 25 \; azuR 42
\; azuG 15 \; azuB 149 \; tamariX 45 \; tamariY 0 \; tamariZ 0 \; ramariX
0 \; ramariY 0 \; ramariZ 0 \; amasz 0.49 \; amazzz 0.57 \; troX -19
\; troY -51 \; troZ 0 \; rroX 0 \; rroY 0 \; rroZ 0 \; rojosz 58 \;
rojozzz 59 \; tazuX 91 \; tazuY 55 \; tazuZ 0 \; razuX 0 \; razuY 0
\; razuZ 0 \; azulsz 56 \; azulzzz 64 \; trosaX 14.04 \; trosaY 86
\; trosaZ 0 \; rrosaX 0 \; rrosaY 0 \; rrosaZ 0 \; rosasz 0.54 \; rosazzz
0.62 \;;
#X msg 1860 293 \; tranxa 0.081 \; raya 0 \; raza 0 \; otelax -307.37
\; otay -90.54 \; otaz -4.61 \; coloar 100 \; goloa 98 \; boba 100
\; sapox 1.55 \; soya 1.15 \; zazafras 0.91 \; tama 3.54 \; mikomi
3 \; tranxb -13.58 \; rayb -0.21 \; razb -3.745 \; otelbx 996.9 \;
otby 515.2 \; otbz 79.21 \; colobr 116 \; golob -14 \; bobb 32 \; orosu
3.81 \; miniso 2 \; sux 0.67 \; yuyu 2.86 \; lulu -2.05 \; tranxc 0.37
\; rayc -0.05 \; razc 0.069 \; otelcx 481.25 \; otcy 90.87 \; otcz
-184.65 \; colocr 174 \; goloc 69 \; boc 24.4 \; scax 0 \; scay 1.05
\; cama 2.88 \; clito 0 \; tranxd 13.34 \; rayd -1.1 \; razd -3.08
\; oteldx 387.95 \; otdy 911.49 \; otdz -239.08 \; colodr 109 \; doloc
0 \; doc 20 \; camad 1.98 \; clitoris 0 \; xuxi 2.35 \; syy 0.11 \;
szd 1.119 \; bruta 0 \; cmas 0 \; deman 0 \; dudero 0 \;;
#X msg 2392 340 \; amaR 143.2 \; amaG 94 \; amaB 20 \; rosaR 108 \;
rosaG 83 \; rosaB 84 \; Rojo 141 \; GRojo -6 \; BRojo 25 \; azuR 42
\; azuG 15 \; azuB 149 \; tamariX -14 \; tamariY 0 \; tamariZ 0 \;
ramariX 0 \; ramariY 0 \; ramariZ 0 \; amasz 0.49 \; amazzz 0.57 \;
troX -115 \; troY -72 \; troZ 0 \; rroX 0 \; rroY 0 \; rroZ 0 \; rojosz
58 \; rojozzz 59 \; tazuX 91 \; tazuY 55 \; tazuZ 0 \; razuX 0 \; razuY
0 \; razuZ 0 \; azulsz 56 \; azulzzz 64 \; trosaX 207 \; trosaY 175
\; trosaZ 0 \; rrosaX 0 \; rrosaY 0 \; rrosaZ 0 \; rosasz 0.54 \; rosazzz
0.62 \;;
#X msg 2560 302 \; tranxa 0.081 \; raya 0 \; raza 0 \; otelax -307.37
\; otay -90.54 \; otaz -4.61 \; coloar 100 \; goloa 98 \; boba 100
\; sapox 2.62 \; soya 1.15 \; zazafras 0.91 \; tama 3.54 \; mikomi
3 \; tranxb -13.5 \; rayb 0.07 \; razb -3.745 \; otelbx 1078.2 \; otby
515.2 \; otbz 79.21 \; colobr 116 \; golob -14 \; bobb 32 \; orosu
3.81 \; miniso 2 \; sux 1.33 \; yuyu 3.01 \; lulu -2.07 \; tranxc 0.07
\; rayc -0.15 \; razc 0.069 \; otelcx 531.25 \; otcy 0.87 \; otcz -90.65
\; colocr 174 \; goloc 69 \; boc 24.4 \; scax 0.82 \; scay -1.07 \;
cama 3.37 \; clito 3 \; tranxd 9.21 \; rayd -3.46 \; razd -3.08 \;
oteldx 480.95 \; otdy 868.98 \; otdz -239.08 \; colodr 109 \; doloc
0 \; doc 20 \; camad 1.98 \; clitoris 0 \; xuxi 2.35 \; syy 0.13 \;
szd 2.339 \; bruta 0 \; cmas 0 \; deman 0 \; dudero 0 \;;
#X msg 2742 304 \; amaR 143.2 \; amaG 94 \; amaB 20 \; rosaR 108 \;
rosaG 83 \; rosaB 84 \; Rojo 141 \; GRojo -6 \; BRojo 25 \; azuR 42
\; azuG 15 \; azuB 149 \; tamariX -47 \; tamariY 82 \; tamariZ -1 \;
ramariX 116 \; ramariY 0 \; ramariZ 0 \; amasz 0.45 \; amazzz 0.62
\; troX -293 \; troY -264 \; troZ 0 \; rroX 0 \; rroY 0 \; rroZ 0 \;
rojosz 58 \; rojozzz 62 \; tazuX 62 \; tazuY 55 \; tazuZ 0 \; razuX
0 \; razuY 0 \; razuZ 0 \; azulsz 56 \; azulzzz 62 \; trosaX 256 \;
trosaY 258 \; trosaZ 0 \; rrosaX 2 \; rrosaY -1 \; rrosaZ 0 \; rosasz
0.79 \; rosazzz 0.52 \;;
#X floatatom 1742 113 5 0 0 0 - - -;
#X msg 762 85 dimen 1200 320;
#X msg 2904 314 \; amaR 143.2 \; amaG 94 \; amaB 20 \; rosaR 108 \;
rosaG 83 \; rosaB 84 \; Rojo 141 \; GRojo -6 \; BRojo 25 \; azuR 42
\; azuG 15 \; azuB 149 \; tamariX 856 \; tamariY -87 \; tamariZ 0 \;
ramariX 0 \; ramariY 0 \; ramariZ 0 \; amasz 2.31 \; amazzz 2.47 \;
troX -1007 \; troY -51 \; troZ 0 \; rroX 0 \; rroY 0 \; rroZ 0 \; rojosz
441 \; rojozzz 440 \; tazuX 838 \; tazuY 81 \; tazuZ 0 \; razuX 0 \;
razuY 0 \; razuZ 0 \; azulsz 381 \; azulzzz 305 \; trosaX 430 \; trosaY
-387 \; trosaZ -83.7 \; rrosaX 0 \; rrosaY 0 \; rrosaZ 0 \; rosasz
14.05 \; rosazzz 0.62 \;;
#X msg 2213 294 \; tranxa 0.081 \; raya 0 \; raza 0 \; otelax -307.37
\; otay -90.54 \; otaz -4.61 \; coloar 100 \; goloa 98 \; boba 100
\; sapox 2.62 \; soya 1.15 \; zazafras 0.91 \; tama 3.54 \; mikomi
3 \; tranxb -13.5 \; rayb 0.21 \; razb -3.745 \; otelbx 1078.2 \; otby
515.2 \; otbz 79.21 \; colobr 116 \; golob -14 \; bobb 32 \; orosu
3.81 \; miniso 2 \; sux 0.67 \; yuyu 2.86 \; lulu -2.05 \; tranxc 0.37
\; rayc -0.15 \; razc 0.069 \; otelcx 533.25 \; otcy 88.87 \; otcz
-171.65 \; colocr 174 \; goloc 69 \; boc 24.4 \; scax 0.82 \; scay
-1.07 \; cama 2.88 \; clito 3 \; tranxd 0.54 \; rayd -0.24 \; razd
-1.11 \; oteldx -10.05 \; otdy 796.49 \; otdz -170.08 \; colodr 109
\; doloc 0 \; doc 20 \; camad 1.98 \; clitoris 0 \; xuxi 2.35 \; syy
0.13 \; szd 2.339 \; bruta 0 \; cmas 0 \; deman 0 \; dudero 0 \;;
#X msg 3064 271 \; tranxa 0.571 \; raya 0 \; raza 0 \; otelax -307.37
\; otay -90.54 \; otaz -4.61 \; coloar 100 \; goloa 98 \; boba 100
\; sapox 2.87 \; soya 1.15 \; zazafras 0.91 \; tama 3.54 \; mikomi
3 \; tranxb 0.73 \; rayb 0.13 \; razb -3.745 \; otelbx 1080.2 \; otby
632.2 \; otbz 179.21 \; colobr 70 \; golob 76 \; bobb 132 \; orosu
3.81 \; miniso 2 \; sux 0.79 \; yuyu 3.1 \; lulu -2.05 \; tranxc 0.46
\; rayc -0.12 \; razc -0.46 \; otelcx 561.25 \; otcy 89.6 \; otcz -184.65
\; colocr 21 \; goloc 112 \; boc 140.4 \; scax -0.57 \; scay 1.05 \;
cama 2.88 \; clito 0 \; tranxd 0.61 \; rayd 0.59 \; razd -1.119 \;
oteldx 345.95 \; otdy 268.49 \; otdz 0.71 \; colodr 109 \; doloc 0
\; doc 20 \; camad 1.98 \; clitoris 0 \; xuxi 1.86 \; syy 1.93 \; szd
0.669 \; bruta 0 \; cmas 1 \; deman 1 \; dudero 1 \;;
#X obj 1992 218 t b b;
#X obj 2071 218 t b b;
#X obj 2143 223 t b b;
#X obj 2216 220 t b b;
#X obj 2295 222 t b b;
#X obj 2364 225 t b b;
#X obj 2482 70 sel 0 8 16 25 37 40 48 55 70 6 27 35;
#X obj 2451 226 t b b;
#X msg 3246 316 \; amaR 143.2 \; amaG 94 \; amaB 20 \; rosaR 108 \;
rosaG 83 \; rosaB 84 \; Rojo 141 \; GRojo -6 \; BRojo 25 \; azuR 42
\; azuG 15 \; azuB 149 \; tamariX 1072 \; tamariY -56 \; tamariZ 0
\; ramariX 0 \; ramariY 0 \; ramariZ 0 \; amasz 3.59 \; amazzz 4.8
\; troX -1032 \; troY -40 \; troZ 0 \; rroX 0 \; rroY 0 \; rroZ 0 \;
rojosz 496 \; rojozzz 444 \; tazuX 838 \; tazuY 104 \; tazuZ 0 \; razuX
0 \; razuY 0 \; razuZ 0 \; azulsz 379 \; azulzzz 305 \; trosaX 430
\; trosaY -398 \; trosaZ -83.7 \; rrosaX 0 \; rrosaY 0 \; rrosaZ 0
\; rosasz 6.24 \; rosazzz 11.62 \;;
#X msg 3406 279 \; tranxa 0.571 \; raya 0 \; raza 1.81 \; otelax 0.63
\; otay 219.46 \; otaz -122.61 \; coloar 100 \; goloa 98 \; boba 100
\; sapox 1.07 \; soya 0.62 \; zazafras 0.91 \; tama 1.62 \; mikomi
3 \; tranxb -6.45 \; rayb 0.13 \; razb -3.745 \; otelbx 545.2 \; otby
625.2 \; otbz 7.21 \; colobr 70 \; golob 76 \; bobb 132 \; orosu 3.81
\; miniso 2 \; sux 0.17 \; yuyu 67.51 \; lulu 1.19 \; tranxc -2.78
\; rayc -0.12 \; razc -0.2 \; otelcx 445.52 \; otcy 193.23 \; otcz
-276.91 \; colocr 21 \; goloc 112 \; boc 140.4 \; scax -0.57 \; scay
1.05 \; cama 2.88 \; clito 0 \; tranxd 0.61 \; rayd 0.26 \; razd -1.12
\; oteldx 84 \; otdy -2 \; otdz 0 \; colodr 109 \; doloc 0 \; doc 20
\; camad 1.98 \; clitoris 0 \; xuxi 1.27 \; syy 1.93 \; szd 0.63 \;
bruta 0 \; cmas 0 \; deman 0 \; dudero 0 \;;
#X text 897 302 S H A P E S;
#X obj 2578 224 t b b;
#X msg 3575 288 \; amaR 143.2 \; amaG 94 \; amaB 20 \; rosaR 108 \;
rosaG 83 \; rosaB 131 \; Rojo 141 \; GRojo -6 \; BRojo 25 \; azuR 9
\; azuG 15 \; azuB 149 \; tamariX 1072 \; tamariY -56 \; tamariZ 0
\; ramariX 0 \; ramariY 0 \; ramariZ 0 \; amasz 3.59 \; amazzz 4.8
\; troX -1032 \; troY -40 \; troZ 0 \; rroX 0 \; rroY 0 \; rroZ 0 \;
rojosz 496 \; rojozzz 444 \; tazuX 767 \; tazuY 104 \; tazuZ 0.37 \;
razuX 0 \; razuY 0 \; razuZ 0 \; azulsz 379 \; azulzzz 305 \; trosaX
430 \; trosaY -398 \; trosaZ -83.7 \; rrosaX 0 \; rrosaY 0 \; rrosaZ
0 \; rosasz 6.24 \; rosazzz 11.62 \;;
#X msg 3745 289 \; tranxa 0.841 \; raya 0 \; raza 1.81 \; otelax 49.63
\; otay 219.46 \; otaz -122.61 \; coloar 100 \; goloa 42 \; boba 25
\; sapox 1.07 \; soya 0.62 \; zazafras 0.91 \; tama 1.62 \; mikomi
3 \; tranxb -6.45 \; rayb 0.13 \; razb -3.745 \; otelbx 545.2 \; otby
625.2 \; otbz 7.21 \; colobr 70 \; golob 76 \; bobb 132 \; orosu 3.81
\; miniso 2 \; sux 0.17 \; yuyu 67.51 \; lulu 1.19 \; tranxc 0.79 \;
rayc 2.63 \; razc -0.2 \; otelcx 695.73 \; otcy 475.46 \; otcz -237.91
\; colocr 21 \; goloc 112 \; boc 140.4 \; scax -0.84 \; scay 0.98 \;
cama 1.2 \; clito 0 \; tranxd 0.61 \; rayd 0.26 \; razd -1.12 \; oteldx
84 \; otdy -2 \; otdz 0 \; colodr 109 \; doloc 0 \; doc 20 \; camad
1.98 \; clitoris 0 \; xuxi 1.27 \; syy 1.93 \; szd 0.63 \; bruta 0
\; cmas 0 \; deman 0 \; dudero 0 \;;
#X obj 2704 229 t b b;
#X msg 3920 289 \; tranxa 0.941 \; raya 0 \; raza 1.66 \; otelax 180
\; otay 211.52 \; otaz -120 \; coloar 100 \; goloa 42 \; boba 25 \;
sapox 1.07 \; soya 0.62 \; zazafras 0.91 \; tama 1.62 \; mikomi 3 \;
tranxb -6.45 \; rayb 0.13 \; razb -3.745 \; otelbx 545.2 \; otby 625.2
\; otbz 7.21 \; colobr 70 \; golob 76 \; bobb 132 \; orosu 3.81 \;
miniso 2 \; sux 0.17 \; yuyu 67.51 \; lulu 1.19 \; tranxc -5.93 \;
rayc 0.48 \; razc 1.23 \; otelcx 33.12 \; otcy 67.37 \; otcz 184.79
\; colocr -25 \; goloc 112 \; boc 69.4 \; scax 0.91 \; scay 2.41 \;
cama 1.76 \; clito 3 \; tranxd 0.61 \; rayd 0.26 \; razd -1.12 \; oteldx
84 \; otdy -2 \; otdz 0 \; colodr 109 \; doloc 0 \; doc 20 \; camad
1.98 \; clitoris 0 \; xuxi 1.27 \; syy 1.93 \; szd 0.63 \; bruta 0
\; cmas 1 \; deman 1 \; dudero 0 \;;
#X msg 4092 286 \; amaR 143.2 \; amaG 94 \; amaB 20 \; rosaR 108 \;
rosaG 83 \; rosaB 131 \; Rojo 141 \; GRojo -6 \; BRojo 25 \; azuR 9
\; azuG 15 \; azuB 149 \; tamariX 1047 \; tamariY -56 \; tamariZ 0
\; ramariX 0 \; ramariY 0 \; ramariZ 0 \; amasz 6.59 \; amazzz 4.8
\; troX -1032 \; troY -40 \; troZ 0 \; rroX 0 \; rroY 0 \; rroZ 0 \;
rojosz 496 \; rojozzz 444 \; tazuX 767 \; tazuY 104 \; tazuZ 0.37 \;
razuX 0 \; razuY 0 \; razuZ 0 \; azulsz 379 \; azulzzz 305 \; trosaX
430 \; trosaY -398 \; trosaZ -83.7 \; rrosaX 0 \; rrosaY 0 \; rrosaZ
0 \; rosasz 6.24 \; rosazzz 11.62 \;;
#X connect 1 0 0 0;
#X connect 2 0 0 0;
#X connect 4 0 6 0;
#X connect 5 0 3 0;
#X connect 6 0 15 0;
#X connect 7 0 6 1;
#X connect 8 0 6 2;
#X connect 9 0 6 3;
#X connect 10 0 7 0;
#X connect 11 0 8 0;
#X connect 12 0 9 0;
#X connect 13 0 3 2;
#X connect 14 0 3 1;
#X connect 15 0 114 0;
#X connect 16 0 15 1;
#X connect 17 0 18 0;
#X connect 18 0 376 0;
#X connect 18 0 387 0;
#X connect 19 0 15 2;
#X connect 20 0 15 3;
#X connect 21 0 3 0;
#X connect 22 0 21 3;
#X connect 23 0 21 1;
#X connect 24 0 21 2;
#X connect 25 0 3 0;
#X connect 27 0 29 0;
#X connect 28 0 26 0;
#X connect 29 0 38 0;
#X connect 30 0 29 1;
#X connect 31 0 29 2;
#X connect 32 0 29 3;
#X connect 33 0 30 0;
#X connect 34 0 31 0;
#X connect 35 0 32 0;
#X connect 36 0 26 2;
#X connect 37 0 26 1;
#X connect 38 0 42 0;
#X connect 39 0 38 1;
#X connect 40 0 38 2;
#X connect 41 0 38 3;
#X connect 42 0 211 0;
#X connect 43 0 42 3;
#X connect 44 0 42 1;
#X connect 45 0 42 2;
#X connect 46 0 16 0;
#X connect 47 0 19 0;
#X connect 48 0 20 0;
#X connect 49 0 10 0;
#X connect 50 0 11 0;
#X connect 51 0 12 0;
#X connect 52 0 23 0;
#X connect 53 0 24 0;
#X connect 54 0 22 0;
#X connect 55 0 33 0;
#X connect 56 0 34 0;
#X connect 57 0 35 0;
#X connect 58 0 39 0;
#X connect 59 0 40 0;
#X connect 60 0 41 0;
#X connect 61 0 37 0;
#X connect 62 0 36 0;
#X connect 63 0 14 0;
#X connect 64 0 13 0;
#X connect 65 0 43 0;
#X connect 66 0 45 0;
#X connect 67 0 44 0;
#X connect 69 0 71 0;
#X connect 70 0 68 0;
#X connect 71 0 80 0;
#X connect 72 0 71 1;
#X connect 73 0 71 2;
#X connect 74 0 71 3;
#X connect 75 0 72 0;
#X connect 76 0 73 0;
#X connect 77 0 74 0;
#X connect 78 0 68 2;
#X connect 79 0 68 1;
#X connect 80 0 84 0;
#X connect 81 0 80 1;
#X connect 82 0 80 2;
#X connect 83 0 80 3;
#X connect 84 0 100 0;
#X connect 85 0 84 3;
#X connect 86 0 84 1;
#X connect 87 0 84 2;
#X connect 88 0 68 0;
#X connect 89 0 75 0;
#X connect 90 0 76 0;
#X connect 91 0 77 0;
#X connect 92 0 81 0;
#X connect 93 0 82 0;
#X connect 94 0 83 0;
#X connect 95 0 86 0;
#X connect 96 0 87 0;
#X connect 97 0 85 0;
#X connect 98 0 79 0;
#X connect 99 0 78 0;
#X connect 100 0 68 0;
#X connect 101 0 100 2;
#X connect 102 0 100 3;
#X connect 103 0 25 0;
#X connect 103 1 5 0;
#X connect 104 0 105 0;
#X connect 105 0 103 0;
#X connect 106 0 215 0;
#X connect 106 1 28 0;
#X connect 107 0 106 0;
#X connect 108 0 107 0;
#X connect 109 0 88 0;
#X connect 109 1 70 0;
#X connect 110 0 109 0;
#X connect 111 0 110 0;
#X connect 112 0 101 0;
#X connect 113 0 102 0;
#X connect 114 0 21 0;
#X connect 115 0 114 1;
#X connect 116 0 114 2;
#X connect 117 0 114 3;
#X connect 118 0 115 0;
#X connect 119 0 116 0;
#X connect 120 0 117 0;
#X connect 122 0 124 0;
#X connect 123 0 121 0;
#X connect 124 0 133 0;
#X connect 125 0 124 1;
#X connect 126 0 124 2;
#X connect 127 0 124 3;
#X connect 128 0 125 0;
#X connect 129 0 126 0;
#X connect 130 0 127 0;
#X connect 131 0 121 2;
#X connect 132 0 121 1;
#X connect 133 0 137 0;
#X connect 134 0 133 1;
#X connect 135 0 133 2;
#X connect 136 0 133 3;
#X connect 137 0 142 0;
#X connect 138 0 137 3;
#X connect 139 0 137 1;
#X connect 140 0 137 2;
#X connect 141 0 121 0;
#X connect 142 0 121 0;
#X connect 143 0 142 2;
#X connect 144 0 142 3;
#X connect 145 0 141 0;
#X connect 145 1 123 0;
#X connect 146 0 145 0;
#X connect 147 0 144 0;
#X connect 148 0 132 0;
#X connect 149 0 131 0;
#X connect 150 0 143 0;
#X connect 151 0 142 1;
#X connect 152 0 151 0;
#X connect 153 0 128 0;
#X connect 154 0 129 0;
#X connect 155 0 130 0;
#X connect 156 0 134 0;
#X connect 157 0 135 0;
#X connect 158 0 136 0;
#X connect 159 0 139 0;
#X connect 160 0 140 0;
#X connect 161 0 138 0;
#X connect 162 0 146 0;
#X connect 211 0 26 0;
#X connect 212 0 211 1;
#X connect 213 0 211 2;
#X connect 214 0 211 3;
#X connect 215 0 26 0;
#X connect 216 0 212 0;
#X connect 217 0 213 0;
#X connect 218 0 214 0;
#X connect 221 0 222 0;
#X connect 222 0 235 0;
#X connect 223 0 221 0;
#X connect 224 0 225 0;
#X connect 225 0 221 1;
#X connect 226 0 227 0;
#X connect 227 0 221 2;
#X connect 228 0 229 0;
#X connect 229 0 221 3;
#X connect 230 0 222 1;
#X connect 231 0 222 2;
#X connect 232 0 222 3;
#X connect 233 0 220 1;
#X connect 234 0 220 2;
#X connect 235 0 220 0;
#X connect 236 0 237 0;
#X connect 237 0 235 1;
#X connect 238 0 239 0;
#X connect 239 0 235 2;
#X connect 240 0 241 0;
#X connect 241 0 235 3;
#X connect 243 0 244 0;
#X connect 244 0 257 0;
#X connect 245 0 243 0;
#X connect 246 0 247 0;
#X connect 247 0 243 1;
#X connect 248 0 249 0;
#X connect 249 0 243 2;
#X connect 250 0 251 0;
#X connect 251 0 243 3;
#X connect 252 0 244 1;
#X connect 253 0 244 2;
#X connect 254 0 244 3;
#X connect 255 0 242 1;
#X connect 256 0 242 2;
#X connect 257 0 242 0;
#X connect 258 0 259 0;
#X connect 259 0 257 1;
#X connect 260 0 261 0;
#X connect 261 0 257 2;
#X connect 262 0 263 0;
#X connect 263 0 257 3;
#X connect 265 0 266 0;
#X connect 266 0 279 0;
#X connect 267 0 265 0;
#X connect 268 0 269 0;
#X connect 269 0 265 1;
#X connect 270 0 271 0;
#X connect 271 0 265 2;
#X connect 272 0 273 0;
#X connect 273 0 265 3;
#X connect 274 0 266 1;
#X connect 275 0 266 2;
#X connect 276 0 266 3;
#X connect 277 0 310 0;
#X connect 278 0 311 0;
#X connect 279 0 264 0;
#X connect 280 0 281 0;
#X connect 281 0 279 1;
#X connect 282 0 283 0;
#X connect 283 0 279 2;
#X connect 284 0 285 0;
#X connect 285 0 279 3;
#X connect 287 0 288 0;
#X connect 288 0 301 0;
#X connect 289 0 287 0;
#X connect 290 0 291 0;
#X connect 291 0 287 1;
#X connect 292 0 293 0;
#X connect 293 0 287 2;
#X connect 294 0 295 0;
#X connect 295 0 287 3;
#X connect 296 0 288 1;
#X connect 297 0 288 2;
#X connect 298 0 288 3;
#X connect 299 0 308 0;
#X connect 300 0 309 0;
#X connect 301 0 286 0;
#X connect 302 0 303 0;
#X connect 303 0 301 1;
#X connect 304 0 305 0;
#X connect 305 0 301 2;
#X connect 306 0 307 0;
#X connect 307 0 301 3;
#X connect 308 0 286 1;
#X connect 309 0 286 2;
#X connect 310 0 264 1;
#X connect 311 0 264 2;
#X connect 320 0 246 0;
#X connect 321 0 248 0;
#X connect 322 0 250 0;
#X connect 323 0 252 0;
#X connect 324 0 253 0;
#X connect 325 0 254 0;
#X connect 326 0 262 0;
#X connect 327 0 260 0;
#X connect 328 0 258 0;
#X connect 329 0 255 0;
#X connect 330 0 256 0;
#X connect 331 0 290 0;
#X connect 332 0 292 0;
#X connect 333 0 294 0;
#X connect 334 0 302 0;
#X connect 335 0 304 0;
#X connect 336 0 306 0;
#X connect 337 0 296 0;
#X connect 338 0 297 0;
#X connect 339 0 298 0;
#X connect 340 0 299 0;
#X connect 341 0 300 0;
#X connect 342 0 277 0;
#X connect 343 0 278 0;
#X connect 344 0 274 0;
#X connect 345 0 275 0;
#X connect 346 0 276 0;
#X connect 347 0 284 0;
#X connect 348 0 282 0;
#X connect 349 0 280 0;
#X connect 350 0 268 0;
#X connect 351 0 270 0;
#X connect 352 0 272 0;
#X connect 354 0 233 0;
#X connect 355 0 234 0;
#X connect 356 0 236 0;
#X connect 357 0 230 0;
#X connect 358 0 231 0;
#X connect 359 0 238 0;
#X connect 360 0 240 0;
#X connect 361 0 232 0;
#X connect 362 0 224 0;
#X connect 363 0 226 0;
#X connect 364 0 228 0;
#X connect 365 0 367 0;
#X connect 365 1 2 0;
#X connect 366 0 365 0;
#X connect 367 0 1 0;
#X connect 367 1 1 0;
#X connect 367 2 377 0;
#X connect 377 0 0 0;
#X connect 381 0 219 0;
#X connect 381 1 315 0;
#X connect 382 0 369 0;
#X connect 382 1 370 0;
#X connect 383 0 372 0;
#X connect 383 1 371 0;
#X connect 384 0 379 0;
#X connect 384 1 373 0;
#X connect 385 0 374 0;
#X connect 385 1 375 0;
#X connect 386 0 378 0;
#X connect 386 1 380 0;
#X connect 387 0 381 0;
#X connect 387 1 382 0;
#X connect 387 2 383 0;
#X connect 387 3 384 0;
#X connect 387 4 385 0;
#X connect 387 5 386 0;
#X connect 387 6 388 0;
#X connect 387 7 392 0;
#X connect 387 8 395 0;
#X connect 388 0 389 0;
#X connect 388 1 390 0;
#X connect 392 0 393 0;
#X connect 392 1 394 0;
#X connect 395 0 396 0;
#X connect 395 1 397 0;
