#N canvas -9 -9 1920 976 12;
#X obj 173 249 +~;
#X floatatom 188 114 8 0 0 0 - - -;
#X obj 218 242 *~;
#X obj 190 179 *~;
#X obj 328 180 line~;
#X obj 317 36 t b f;
#X obj 263 67 f;
#X msg 359 66 0 8;
#X msg 319 103 1 8;
#X obj 159 341 outlet~;
#X obj 318 -1 inlet;
#X obj 308 67 del 8;
#X obj 110 212 +~;
#X obj 82 95 inlet;
#X obj 66 152 *~;
#X floatatom 233 219 5 0 0 0 - - -;
#X floatatom 86 126 5 0 0 0 - - -;
#X text 34 119 INPUT;
#X text 261 242 FeedBack;
#X text 197 88 TIME;
#X obj 186 148 delread~ tera 32000;
#X obj 177 292 delwrite~ tera 32000;
#X obj 392 242 inlet;
#X connect 0 0 9 0;
#X connect 0 0 21 0;
#X connect 1 0 20 0;
#X connect 2 0 0 1;
#X connect 3 0 2 0;
#X connect 4 0 3 1;
#X connect 5 0 7 0;
#X connect 5 0 11 0;
#X connect 5 1 6 1;
#X connect 6 0 1 0;
#X connect 7 0 4 0;
#X connect 8 0 4 0;
#X connect 10 0 5 0;
#X connect 11 0 6 0;
#X connect 11 0 8 0;
#X connect 12 0 0 0;
#X connect 13 0 16 0;
#X connect 14 0 12 0;
#X connect 15 0 2 1;
#X connect 16 0 14 1;
#X connect 20 0 3 0;
#X connect 22 0 15 0;
