#N canvas 923 206 681 532 12;
#X floatatom 228 16 5 0 0 0 - - -;
#X floatatom 312 -18 5 0 0 0 - - -;
#X obj 347 482 cyclone/out~;
#X obj 229 -19 stripnote;
#X obj 164 31 tgl 15 0 empty empty empty 17 7 0 10 -262144 -1 -1 0
1;
#X obj 213 126 cyclone/out~;
#X msg 228 41 next \$1;
#X msg 114 64 next \$1;
#X obj 235 -53 notein;
#X obj 191 95 clone 0-COREDOSDUO 1;
#X obj 536 48 ctlin;
#X floatatom 530 94 5 0 0 0 - - -;
#X floatatom 572 95 5 0 0 0 - - -;
#X floatatom 615 92 5 0 0 0 - - -;
#X obj 389 281 phasor~;
#X obj 407 172 mtof;
#X floatatom 391 234 5 0 0 0 - - -;
#X obj 391 208 / 100;
#X obj 520 221 bng 15 250 50 0 empty empty empty 17 7 0 10 -262144
-1 -1;
#X msg 542 243 1 5;
#X obj 491 244 del 10;
#X obj 491 270 pack 0 500;
#X obj 491 296 line~;
#X obj 491 322 *~;
#X obj 491 348 *~;
#X floatatom 545 217 5 0 0 0 - - -;
#X msg 547 190 2000;
#X obj 547 162 loadbang;
#X obj 30 163 adc~;
#X obj 158 228 t b b;
#X obj 161 259 timer;
#X obj 161 285 / 1000;
#X obj 161 311 * 44100;
#X floatatom 161 337 9 0 0 0 - - -;
#X obj 161 362 t f f;
#X obj 65 258 samplerate~;
#X obj 65 284 t f f;
#X obj 89 309 * 60;
#X msg 89 335 resize \$1;
#X obj 78 236 bng 15 250 50 0 empty empty empty 17 7 0 10 -262144 -1
-1;
#X obj 103 231 t b;
#X obj 162 199 sel 1 0;
#X obj 201 228 t b b;
#X obj 89 361 s \$0-mimi;
#X obj 158 177 tgl 15 0 empty empty empty 17 7 0 10 -262144 -1 -1 0
1;
#X connect 0 0 6 0;
#X connect 3 0 0 0;
#X connect 4 0 7 0;
#X connect 6 0 15 0;
#X connect 8 0 3 0;
#X connect 8 1 3 1;
#X connect 8 1 1 0;
#X connect 9 0 5 0;
#X connect 9 0 5 1;
#X connect 10 0 11 0;
#X connect 10 1 12 0;
#X connect 10 2 13 0;
#X connect 14 0 9 1;
#X connect 15 0 17 0;
#X connect 15 0 18 0;
#X connect 16 0 14 0;
#X connect 17 0 16 0;
#X connect 18 0 19 0;
#X connect 18 0 20 0;
#X connect 19 0 22 0;
#X connect 20 0 21 0;
#X connect 21 0 22 0;
#X connect 22 0 23 0;
#X connect 22 0 23 1;
#X connect 23 0 24 0;
#X connect 23 0 24 1;
#X connect 24 0 9 0;
#X connect 25 0 21 1;
#X connect 26 0 25 0;
#X connect 27 0 26 0;
#X connect 28 0 9 3;
#X connect 28 1 9 3;
#X connect 29 0 30 0;
#X connect 29 1 9 4;
#X connect 30 0 31 0;
#X connect 31 0 32 0;
#X connect 32 0 33 0;
#X connect 33 0 34 0;
#X connect 35 0 36 0;
#X connect 36 0 9 5;
#X connect 36 1 37 0;
#X connect 37 0 38 0;
#X connect 38 0 43 0;
#X connect 39 0 35 0;
#X connect 40 0 39 0;
#X connect 41 0 29 0;
#X connect 41 1 42 0;
#X connect 41 1 40 0;
#X connect 42 0 30 1;
#X connect 42 1 9 2;
#X connect 44 0 41 0;
