#N canvas 147 176 659 537 12;
#X obj -37 -96 cnv 15 3300 3000 empty empty empty 20 12 0 14 -261234
-66577 0;
#N canvas 977 104 687 831 entrada 1;
#X obj 5 33 adc~;
#X obj 142 74 tgl 15 0 empty empty empty 17 7 0 10 -262144 -1 -1 1
1;
#X obj 142 95 sel 0 1;
#X msg 153 118 1, f 1;
#X msg 173 119 0, f 1;
#X msg 154 139 1, f 1;
#X msg 170 139 0, f 1;
#X obj 32 134 tgl 15 0 empty empty empty 17 7 0 10 -262144 -1 -1 1
1;
#X obj 15 155 *~;
#X text 2 4 ON/OFF LIVE REVERSA MAMI;
#X obj 6 79 *~ 2;
#X obj 146 344 outlet~;
#X obj 283 52 tgl 15 0 empty empty empty 17 7 0 10 -262144 -1 -1 0
1;
#X obj 361 41 inlet;
#X obj 283 72 metro;
#X obj 343 79 t f b;
#X msg 389 116 1;
#X obj 167 22 key;
#X floatatom 167 48 5 0 0 0 - - -;
#X obj 167 73 sel 32;
#N canvas 0 50 450 300 swifgt 0;
#X obj 171 130 vd~ mulu;
#X obj 144 76 phasor~ 0.3;
#X obj 201 171 tgl 15 0 empty empty empty 17 7 0 10 -262144 -1 -1 0
1;
#X obj 168 193 *~;
#X obj 152 46 delwrite~ mulu 7890;
#X obj 142 104 *~ 6705;
#X obj 239 160 inlet;
#X obj 157 222 outlet~;
#X obj 86 52 inlet~;
#X connect 0 0 3 0;
#X connect 1 0 5 0;
#X connect 2 0 3 1;
#X connect 3 0 7 0;
#X connect 5 0 0 0;
#X connect 6 0 2 0;
#X connect 8 0 4 0;
#X restore 121 164 pd swifgt;
#N canvas 0 50 450 300 \$0-AMMMM 0;
#X obj 97 58 sigmund~ -npeaks 16 peaks;
#X obj 95 108 unpack f f f f;
#X obj 97 84 route 0;
#X floatatom 92 133 5 0 0 0 - - -;
#X obj 93 189 *~;
#X obj 128 163 pack 0 10;
#X obj 128 189 line~;
#X floatatom 163 133 5 0 0 0 - - -;
#X obj 156 80 inlet~;
#X obj 86 221 outlet~;
#X obj 69 163 phasor~;
#X connect 0 0 2 0;
#X connect 1 0 3 0;
#X connect 1 1 5 0;
#X connect 2 0 1 0;
#X connect 3 0 10 0;
#X connect 4 0 9 0;
#X connect 5 0 6 0;
#X connect 6 0 4 1;
#X connect 7 0 5 1;
#X connect 8 0 0 0;
#X connect 10 0 4 0;
#X restore 17 190 pd \$0-AMMMM 1;
#N canvas 651 269 450 300 \$0-AMMMM 0;
#X obj 97 58 sigmund~ -npeaks 16 peaks;
#X obj 95 108 unpack f f f f;
#X floatatom 92 133 5 0 0 0 - - -;
#X obj 93 189 *~;
#X obj 128 163 pack 0 10;
#X obj 128 189 line~;
#X floatatom 163 133 5 0 0 0 - - -;
#X obj 156 80 inlet~;
#X obj 86 221 outlet~;
#X obj 97 84 route 1;
#X obj 66 167 phasor~;
#X connect 0 0 9 0;
#X connect 1 0 2 0;
#X connect 1 1 4 0;
#X connect 2 0 10 0;
#X connect 3 0 8 0;
#X connect 4 0 5 0;
#X connect 5 0 3 1;
#X connect 6 0 4 1;
#X connect 7 0 0 0;
#X connect 9 0 1 0;
#X connect 10 0 3 0;
#X restore 114 191 pd \$0-AMMMM 2;
#N canvas 0 50 450 300 \$0-AMMMM 0;
#X obj 97 58 sigmund~ -npeaks 16 peaks;
#X obj 95 108 unpack f f f f;
#X floatatom 92 133 5 0 0 0 - - -;
#X obj 93 189 *~;
#X obj 128 163 pack 0 10;
#X obj 128 189 line~;
#X floatatom 163 133 5 0 0 0 - - -;
#X obj 156 80 inlet~;
#X obj 86 221 outlet~;
#X obj 97 84 route 2;
#X obj 78 163 phasor~;
#X connect 0 0 9 0;
#X connect 1 0 2 0;
#X connect 1 1 4 0;
#X connect 2 0 10 0;
#X connect 3 0 8 0;
#X connect 4 0 5 0;
#X connect 5 0 3 1;
#X connect 6 0 4 1;
#X connect 7 0 0 0;
#X connect 9 0 1 0;
#X connect 10 0 3 0;
#X restore 7 211 pd \$0-AMMMM 3;
#N canvas 651 269 450 300 \$0-AMMMM 0;
#X obj 97 58 sigmund~ -npeaks 16 peaks;
#X obj 95 108 unpack f f f f;
#X floatatom 92 133 5 0 0 0 - - -;
#X obj 93 189 *~;
#X obj 128 163 pack 0 10;
#X obj 128 189 line~;
#X floatatom 163 133 5 0 0 0 - - -;
#X obj 156 80 inlet~;
#X obj 86 221 outlet~;
#X obj 97 84 route 3;
#X obj 65 163 phasor~;
#X connect 0 0 9 0;
#X connect 1 0 2 0;
#X connect 1 1 4 0;
#X connect 2 0 10 0;
#X connect 3 0 8 0;
#X connect 4 0 5 0;
#X connect 5 0 3 1;
#X connect 6 0 4 1;
#X connect 7 0 0 0;
#X connect 9 0 1 0;
#X connect 10 0 3 0;
#X restore 105 212 pd \$0-AMMMM 4;
#N canvas 0 50 450 300 \$0-AMMMM 0;
#X obj 97 58 sigmund~ -npeaks 16 peaks;
#X obj 95 108 unpack f f f f;
#X floatatom 92 133 5 0 0 0 - - -;
#X obj 93 189 *~;
#X obj 128 163 pack 0 10;
#X obj 128 189 line~;
#X floatatom 163 133 5 0 0 0 - - -;
#X obj 156 80 inlet~;
#X obj 86 221 outlet~;
#X obj 69 163 phasor~;
#X obj 97 84 route 4;
#X connect 0 0 10 0;
#X connect 1 0 2 0;
#X connect 1 1 4 0;
#X connect 2 0 9 0;
#X connect 3 0 8 0;
#X connect 4 0 5 0;
#X connect 5 0 3 1;
#X connect 6 0 4 1;
#X connect 7 0 0 0;
#X connect 9 0 3 0;
#X connect 10 0 1 0;
#X restore -2 236 pd \$0-AMMMM 5;
#N canvas 651 269 450 300 \$0-AMMMM 0;
#X obj 97 58 sigmund~ -npeaks 16 peaks;
#X obj 95 108 unpack f f f f;
#X floatatom 92 133 5 0 0 0 - - -;
#X obj 93 189 *~;
#X obj 128 163 pack 0 10;
#X obj 128 189 line~;
#X floatatom 163 133 5 0 0 0 - - -;
#X obj 156 80 inlet~;
#X obj 86 221 outlet~;
#X obj 66 167 phasor~;
#X obj 97 84 route 5;
#X connect 0 0 10 0;
#X connect 1 0 2 0;
#X connect 1 1 4 0;
#X connect 2 0 9 0;
#X connect 3 0 8 0;
#X connect 4 0 5 0;
#X connect 5 0 3 1;
#X connect 6 0 4 1;
#X connect 7 0 0 0;
#X connect 9 0 3 0;
#X connect 10 0 1 0;
#X restore 96 236 pd \$0-AMMMM 6;
#N canvas 0 50 450 300 \$0-AMMMM 0;
#X obj 97 58 sigmund~ -npeaks 16 peaks;
#X obj 95 108 unpack f f f f;
#X floatatom 92 133 5 0 0 0 - - -;
#X obj 93 189 *~;
#X obj 128 163 pack 0 10;
#X obj 128 189 line~;
#X floatatom 163 133 5 0 0 0 - - -;
#X obj 156 80 inlet~;
#X obj 86 221 outlet~;
#X obj 78 163 phasor~;
#X obj 97 84 route 7;
#X connect 0 0 10 0;
#X connect 1 0 2 0;
#X connect 1 1 4 0;
#X connect 2 0 9 0;
#X connect 3 0 8 0;
#X connect 4 0 5 0;
#X connect 5 0 3 1;
#X connect 6 0 4 1;
#X connect 7 0 0 0;
#X connect 9 0 3 0;
#X connect 10 0 1 0;
#X restore 6 264 pd \$0-AMMMM 7;
#N canvas 810 308 450 300 \$0-AMMMM 0;
#X obj 97 58 sigmund~ -npeaks 16 peaks;
#X obj 95 108 unpack f f f f;
#X floatatom 92 133 5 0 0 0 - - -;
#X obj 93 189 *~;
#X obj 128 163 pack 0 10;
#X obj 128 189 line~;
#X floatatom 163 133 5 0 0 0 - - -;
#X obj 156 80 inlet~;
#X obj 86 221 outlet~;
#X obj 65 163 phasor~;
#X obj 97 84 route 8;
#X connect 0 0 10 0;
#X connect 1 0 2 0;
#X connect 1 1 4 0;
#X connect 2 0 9 0;
#X connect 3 0 8 0;
#X connect 4 0 5 0;
#X connect 5 0 3 1;
#X connect 6 0 4 1;
#X connect 7 0 0 0;
#X connect 9 0 3 0;
#X connect 10 0 1 0;
#X restore 107 262 pd \$0-AMMMM 8;
#N canvas 0 50 450 300 \$0-AMMMM 0;
#X obj 97 58 sigmund~ -npeaks 16 peaks;
#X obj 95 108 unpack f f f f;
#X floatatom 92 133 5 0 0 0 - - -;
#X obj 93 189 *~;
#X obj 128 163 pack 0 10;
#X obj 128 189 line~;
#X floatatom 163 133 5 0 0 0 - - -;
#X obj 156 80 inlet~;
#X obj 86 221 outlet~;
#X obj 69 163 phasor~;
#X obj 97 84 route 10;
#X connect 0 0 10 0;
#X connect 1 0 2 0;
#X connect 1 1 4 0;
#X connect 2 0 9 0;
#X connect 3 0 8 0;
#X connect 4 0 5 0;
#X connect 5 0 3 1;
#X connect 6 0 4 1;
#X connect 7 0 0 0;
#X connect 9 0 3 0;
#X connect 10 0 1 0;
#X restore 3 290 pd \$0-AMMMM 9;
#N canvas 651 269 450 300 \$0-AMMMM 0;
#X obj 97 58 sigmund~ -npeaks 16 peaks;
#X obj 95 108 unpack f f f f;
#X floatatom 92 133 5 0 0 0 - - -;
#X obj 93 189 *~;
#X obj 128 163 pack 0 10;
#X obj 128 189 line~;
#X floatatom 163 133 5 0 0 0 - - -;
#X obj 156 80 inlet~;
#X obj 86 221 outlet~;
#X obj 66 167 phasor~;
#X obj 97 84 route 11;
#X connect 0 0 10 0;
#X connect 1 0 2 0;
#X connect 1 1 4 0;
#X connect 2 0 9 0;
#X connect 3 0 8 0;
#X connect 4 0 5 0;
#X connect 5 0 3 1;
#X connect 6 0 4 1;
#X connect 7 0 0 0;
#X connect 9 0 3 0;
#X connect 10 0 1 0;
#X restore 101 290 pd \$0-AMMMM 10;
#N canvas 0 50 450 300 \$0-AMMMM 0;
#X obj 97 58 sigmund~ -npeaks 16 peaks;
#X obj 95 108 unpack f f f f;
#X floatatom 92 133 5 0 0 0 - - -;
#X obj 93 189 *~;
#X obj 128 163 pack 0 10;
#X obj 128 189 line~;
#X floatatom 163 133 5 0 0 0 - - -;
#X obj 156 80 inlet~;
#X obj 86 221 outlet~;
#X obj 78 163 phasor~;
#X obj 97 84 route 12;
#X connect 0 0 10 0;
#X connect 1 0 2 0;
#X connect 1 1 4 0;
#X connect 2 0 9 0;
#X connect 3 0 8 0;
#X connect 4 0 5 0;
#X connect 5 0 3 1;
#X connect 6 0 4 1;
#X connect 7 0 0 0;
#X connect 9 0 3 0;
#X connect 10 0 1 0;
#X restore 0 314 pd \$0-AMMMM 11;
#N canvas 810 308 450 300 \$0-AMMMM 0;
#X obj 97 58 sigmund~ -npeaks 16 peaks;
#X obj 95 108 unpack f f f f;
#X floatatom 92 133 5 0 0 0 - - -;
#X obj 93 189 *~;
#X obj 128 163 pack 0 10;
#X obj 128 189 line~;
#X floatatom 163 133 5 0 0 0 - - -;
#X obj 156 80 inlet~;
#X obj 86 221 outlet~;
#X obj 65 163 phasor~;
#X obj 97 84 route 14;
#X connect 0 0 10 0;
#X connect 1 0 2 0;
#X connect 1 1 4 0;
#X connect 2 0 9 0;
#X connect 3 0 8 0;
#X connect 4 0 5 0;
#X connect 5 0 3 1;
#X connect 6 0 4 1;
#X connect 7 0 0 0;
#X connect 9 0 3 0;
#X connect 10 0 1 0;
#X restore 109 314 pd \$0-AMMMM 12;
#X obj 2 342 +~;
#X obj 3 366 *~;
#X obj 82 343 +~;
#X obj 82 366 *~;
#X floatatom 166 389 5 0 0 0 - - -;
#X floatatom 268 372 5 0 0 0 - - -;
#X obj 229 299 moses 50;
#X obj 268 326 - 50;
#X floatatom 230 271 5 0 0 0 - - -;
#X msg 231 247 50, f 2;
#X obj 227 345 * -1;
#X obj 227 322 - 49;
#X obj 268 349 / 50;
#X obj 227 217 inlet;
#X obj 272 248 loadbang;
#X obj 217 370 / 49;
#X obj 215 387 + 0.01;
#X connect 0 0 8 0;
#X connect 0 0 10 0;
#X connect 1 0 2 0;
#X connect 2 0 6 0;
#X connect 2 0 5 0;
#X connect 2 1 3 0;
#X connect 2 1 4 0;
#X connect 3 0 7 0;
#X connect 4 0 20 1;
#X connect 5 0 20 1;
#X connect 6 0 7 0;
#X connect 7 0 8 1;
#X connect 8 0 21 0;
#X connect 8 0 22 0;
#X connect 8 0 23 0;
#X connect 8 0 24 0;
#X connect 8 0 25 0;
#X connect 8 0 26 0;
#X connect 8 0 27 0;
#X connect 8 0 28 0;
#X connect 8 0 29 0;
#X connect 8 0 31 0;
#X connect 8 0 30 0;
#X connect 8 0 32 0;
#X connect 8 0 33 0;
#X connect 10 0 20 0;
#X connect 12 0 14 0;
#X connect 13 0 15 0;
#X connect 15 0 14 1;
#X connect 15 1 16 0;
#X connect 16 0 12 0;
#X connect 17 0 18 0;
#X connect 18 0 19 0;
#X connect 19 0 1 0;
#X connect 20 0 21 0;
#X connect 20 0 22 0;
#X connect 20 0 23 0;
#X connect 20 0 24 0;
#X connect 20 0 25 0;
#X connect 20 0 26 0;
#X connect 20 0 27 0;
#X connect 20 0 28 0;
#X connect 20 0 30 0;
#X connect 20 0 29 0;
#X connect 20 0 31 0;
#X connect 20 0 32 0;
#X connect 20 0 33 1;
#X connect 21 0 35 0;
#X connect 22 0 35 1;
#X connect 23 0 35 0;
#X connect 24 0 35 1;
#X connect 25 0 35 0;
#X connect 26 0 35 1;
#X connect 27 0 35 0;
#X connect 28 0 35 1;
#X connect 29 0 35 0;
#X connect 30 0 35 1;
#X connect 31 0 35 0;
#X connect 32 0 35 1;
#X connect 33 0 34 0;
#X connect 34 0 11 0;
#X connect 35 0 36 0;
#X connect 36 0 11 0;
#X connect 37 0 34 1;
#X connect 38 0 36 1;
#X connect 39 0 44 0;
#X connect 39 1 40 0;
#X connect 40 0 45 0;
#X connect 41 0 39 0;
#X connect 42 0 41 0;
#X connect 43 0 48 0;
#X connect 44 0 43 0;
#X connect 45 0 38 0;
#X connect 46 0 41 0;
#X connect 47 0 42 0;
#X connect 48 0 49 0;
#X connect 49 0 37 0;
#X restore -31 12 pd entrada y reversa;
#X obj 106 104 cyclone/out~;
#X floatatom 104 -23 5 0 0 0 - - -;
#X obj -29 32 delwrite~ imu 8500;
#N canvas 791 201 893 737 shifu 0;
#X floatatom 45 118 5 0 0 0 - - -;
#X obj 41 139 phasor~;
#X obj 11 166 *~;
#X obj 12 239 +~;
#X obj 14 265 vd~ imu;
#X floatatom 133 63 5 0 0 0 - - -;
#X floatatom 50 236 5 0 0 0 - - -;
#X obj 41 164 *~ 0.5;
#X obj 41 187 -~ 0.25;
#X obj 91 225 cos~;
#X obj 36 290 *~;
#X obj 97 163 +~ 0.5;
#X obj 97 186 wrap~;
#X obj 128 226 *~;
#X obj 128 252 +~;
#X obj 132 274 vd~ imu;
#X obj 159 226 *~ 0.5;
#X obj 159 249 -~ 0.25;
#X obj 190 271 cos~;
#X obj 83 260 *~;
#X obj 80 284 +~;
#X obj 105 303 outlet~;
#X floatatom 13 6 5 0 0 0 - - -;
#X obj 13 28 * 0.05776;
#X obj 6 51 exp;
#X floatatom 6 74 5 0 0 0 - - -;
#X obj 13 142 /;
#X obj 39 50 max 1;
#X obj 47 73 * 0.001;
#X obj 43 96 t b f;
#X text 129 45 window;
#X obj 100 4 inlet;
#X msg 41 217 2;
#X obj 141 199 loadbang;
#X obj 55 5 inlet;
#X obj 85 51 int;
#X obj 7 119 * -1;
#X obj 13 96 - 1;
#X floatatom 269 122 5 0 0 0 - - -;
#X obj 265 143 phasor~;
#X obj 235 170 *~;
#X obj 236 243 +~;
#X floatatom 357 67 5 0 0 0 - - -;
#X floatatom 269 244 5 0 0 0 - - -;
#X obj 265 168 *~ 0.5;
#X obj 265 191 -~ 0.25;
#X obj 315 229 cos~;
#X obj 260 294 *~;
#X obj 321 167 +~ 0.5;
#X obj 321 190 wrap~;
#X obj 352 230 *~;
#X obj 352 256 +~;
#X obj 383 230 *~ 0.5;
#X obj 383 253 -~ 0.25;
#X obj 414 275 cos~;
#X obj 307 264 *~;
#X obj 304 288 +~;
#X obj 329 307 outlet~;
#X floatatom 237 10 5 0 0 0 - - -;
#X obj 237 32 * 0.05776;
#X obj 230 55 exp;
#X floatatom 230 78 5 0 0 0 - - -;
#X obj 237 146 /;
#X obj 263 54 max 1;
#X obj 271 77 * 0.001;
#X obj 267 100 t b f;
#X text 353 49 window;
#X obj 324 8 inlet;
#X msg 265 221 2;
#X obj 365 203 loadbang;
#X obj 279 9 inlet;
#X obj 309 55 int;
#X obj 231 123 * -1;
#X obj 238 269 vd~ imula;
#X obj 338 280 vd~ imula;
#X obj 237 100 - 1;
#X connect 0 0 1 0;
#X connect 1 0 2 0;
#X connect 1 0 7 0;
#X connect 1 0 11 0;
#X connect 2 0 3 0;
#X connect 3 0 4 0;
#X connect 4 0 10 0;
#X connect 5 0 2 1;
#X connect 5 0 13 1;
#X connect 5 0 27 0;
#X connect 6 0 3 1;
#X connect 6 0 14 1;
#X connect 6 0 43 0;
#X connect 7 0 8 0;
#X connect 8 0 9 0;
#X connect 9 0 10 1;
#X connect 10 0 20 0;
#X connect 11 0 12 0;
#X connect 12 0 13 0;
#X connect 12 0 16 0;
#X connect 13 0 14 0;
#X connect 14 0 15 0;
#X connect 15 0 19 0;
#X connect 16 0 17 0;
#X connect 17 0 18 0;
#X connect 18 0 19 1;
#X connect 19 0 20 1;
#X connect 20 0 21 0;
#X connect 22 0 23 0;
#X connect 23 0 24 0;
#X connect 24 0 25 0;
#X connect 25 0 37 0;
#X connect 26 0 0 0;
#X connect 27 0 28 0;
#X connect 28 0 29 0;
#X connect 29 0 26 0;
#X connect 29 1 26 1;
#X connect 31 0 5 0;
#X connect 32 0 6 0;
#X connect 33 0 32 0;
#X connect 34 0 35 0;
#X connect 35 0 22 0;
#X connect 36 0 26 0;
#X connect 37 0 36 0;
#X connect 38 0 39 0;
#X connect 39 0 40 0;
#X connect 39 0 44 0;
#X connect 39 0 48 0;
#X connect 40 0 41 0;
#X connect 41 0 73 0;
#X connect 42 0 40 1;
#X connect 42 0 50 1;
#X connect 42 0 63 0;
#X connect 43 0 41 1;
#X connect 43 0 51 1;
#X connect 44 0 45 0;
#X connect 45 0 46 0;
#X connect 46 0 47 1;
#X connect 47 0 56 0;
#X connect 48 0 49 0;
#X connect 49 0 50 0;
#X connect 49 0 52 0;
#X connect 50 0 51 0;
#X connect 51 0 74 0;
#X connect 52 0 53 0;
#X connect 53 0 54 0;
#X connect 54 0 55 1;
#X connect 55 0 56 1;
#X connect 56 0 57 0;
#X connect 58 0 59 0;
#X connect 59 0 60 0;
#X connect 60 0 61 0;
#X connect 61 0 75 0;
#X connect 62 0 38 0;
#X connect 63 0 64 0;
#X connect 64 0 65 0;
#X connect 65 0 62 0;
#X connect 65 1 62 1;
#X connect 67 0 42 0;
#X connect 68 0 43 0;
#X connect 69 0 68 0;
#X connect 70 0 71 0;
#X connect 71 0 58 0;
#X connect 72 0 62 0;
#X connect 73 0 47 0;
#X connect 74 0 55 0;
#X connect 75 0 72 0;
#X restore 120 72 pd shifu;
#X text -2 -81 Press Space 4 reversa;
#X text 106 -10 auto;
#X floatatom 150 51 5 0 0 0 - - -;
#X obj 129 16 hsl 128 15 -33 33 0 0 empty empty empty -2 -8 0 10 -262144
-1 -1 15600 1;
#X floatatom 53 71 3 0 0 0 - - -;
#N canvas 0 50 450 300 playdooh 0;
#X msg 76 63 0, f 1;
#X msg 29 43 7;
#X msg 37 61 5;
#X msg 103 44 4;
#X msg 139 43 12;
#X restore 182 72 pd playdooh;
#X obj -31 53 delwrite~ imula 8500;
#X obj 129 33 hsl 128 15 -33 33 0 0 empty empty empty -2 -8 0 10 -262144
-1 -1 11900 1;
#X floatatom 190 51 5 0 0 0 - - -;
#X text 228 51 win;
#X text 169 -2 PEACHES;
#X floatatom 79 72 5 0 0 0 - - -;
#X obj -28 -9 hsl 50 15 0 100 0 0 empty empty empty -2 -8 0 10 -262144
-1 -1 5900 1;
#X msg 117 51 50;
#X obj -22 72 loadbang;
#X msg 101 32 0, f 2;
#X text -33 -27 fQMCKING;
#X connect 1 0 4 0;
#X connect 1 0 12 0;
#X connect 3 0 1 1;
#X connect 5 0 2 0;
#X connect 5 0 2 1;
#X connect 5 1 2 1;
#X connect 5 1 2 0;
#X connect 8 0 5 1;
#X connect 9 0 5 0;
#X connect 9 0 10 0;
#X connect 13 0 5 2;
#X connect 13 0 17 0;
#X connect 14 0 5 3;
#X connect 18 0 1 0;
#X connect 19 0 18 0;
#X connect 20 0 19 0;
#X connect 20 0 21 0;
#X connect 21 0 9 0;
#X connect 21 0 13 0;
