#N canvas 892 324 1337 651 12;
#X floatatom 152 90 5 0 0 0 - - -;
#X obj 193 110 mtof;
#X obj 148 208 *~;
#X text 80 92 midibebé;
#X obj 157 243 outlet~;
#X obj 145 6 inlet;
#X obj 91 62 inlet;
#X obj 349 40 bng 15 250 50 0 empty empty empty 17 7 0 10 -262144 -1
-1;
#X msg 349 60 1 5;
#X obj 333 93 del 10;
#X obj 333 116 pack 0 500;
#X obj 333 139 line~;
#X obj 333 162 *~;
#X obj 333 187 *~;
#X floatatom 386 89 5 0 0 0 - - -;
#X obj 384 35 loadbang;
#X msg 382 61 2000;
#X obj 145 139 phasor~;
#X obj 145 162 +~;
#X obj 46 149 phasor~;
#X floatatom 47 123 5 0 0 0 - - -;
#X obj 263 17 inlet;
#X obj 46 218 +~;
#X obj 145 185 expr~ $v1 < 0.5;
#X text 432 94 E N V E L O P E;
#X connect 0 0 1 0;
#X connect 1 0 7 0;
#X connect 1 0 17 0;
#X connect 2 0 4 0;
#X connect 5 0 14 0;
#X connect 6 0 0 0;
#X connect 7 0 8 0;
#X connect 7 0 9 0;
#X connect 8 0 11 0;
#X connect 9 0 10 0;
#X connect 10 0 11 0;
#X connect 11 0 12 0;
#X connect 11 0 12 1;
#X connect 12 0 13 0;
#X connect 12 0 13 1;
#X connect 13 0 2 1;
#X connect 14 0 10 1;
#X connect 15 0 16 0;
#X connect 16 0 14 0;
#X connect 17 0 18 0;
#X connect 18 0 23 0;
#X connect 19 0 22 0;
#X connect 20 0 19 0;
#X connect 21 0 20 0;
#X connect 22 0 18 1;
#X connect 23 0 2 0;
