#N canvas 0 0 1920 956 10;
#X obj 129 42 phasor~;
#X obj 135 115 cos~;
#X obj 137 81 +~;
#X obj 137 147 *~;
#X obj 151 -139 inlet;
#X obj 120 -38 route ratio level env;
#X obj 134 3 * 1;
#X obj 188 150 adsr 1 5 500 50 1000;
#X obj 297 113 unpack f f f f;
#X obj 297 16 unpack f f;
#X text 297 -12 pitch&vel;
#X obj 295 61 mtof;
#X obj 198 82 t f f;
#X obj 188 116 > 0;
#X obj 233 114 / 128;
#X obj 312 -83 route \$1;
#X obj 45 64 inlet~;
#X obj 134 186 *~ 1;
#X text 189 192 level;
#X obj 134 228 outlet~;
#X obj 151 -83 route baba;
#X connect 0 0 2 0;
#X connect 1 0 3 0;
#X connect 2 0 1 0;
#X connect 3 0 17 0;
#X connect 4 0 15 0;
#X connect 4 0 20 0;
#X connect 5 0 6 1;
#X connect 5 1 17 1;
#X connect 5 2 8 0;
#X connect 5 3 9 0;
#X connect 6 0 0 0;
#X connect 7 0 3 1;
#X connect 8 0 7 2;
#X connect 8 1 7 3;
#X connect 8 2 7 4;
#X connect 8 3 7 5;
#X connect 9 0 11 0;
#X connect 9 1 12 0;
#X connect 11 0 6 0;
#X connect 12 0 13 0;
#X connect 12 1 14 0;
#X connect 13 0 7 0;
#X connect 14 0 7 1;
#X connect 15 0 5 0;
#X connect 16 0 2 1;
#X connect 17 0 19 0;
#X connect 20 0 5 0;
