#N canvas 695 266 486 396 12;
#X obj 201 16 tgl 15 0 empty empty empty 17 7 0 10 -262144 -1 -1 0
1;
#X obj 136 159 *~;
#X obj 197 202 *~;
#X obj 205 114 line;
#X obj 200 168 line;
#X msg 243 114 0.4689;
#X msg 242 192 0.4689;
#X msg 193 140 0 250;
#X obj 270 24 loadbang;
#X obj 22 27 inlet;
#X obj 113 194 outlet~;
#X obj 181 236 outlet~;
#X obj 59 112 inlet~;
#X obj 324 157 inlet~;
#X obj 238 138 sel 1 0;
#X obj 201 63 sel 0 1;
#X msg 240 165 1 196;
#X msg 239 86 1 190;
#X msg 190 87 0 190;
#X obj 155 31 t f f;
#X connect 0 0 19 0;
#X connect 1 0 10 0;
#X connect 2 0 11 0;
#X connect 3 0 1 1;
#X connect 4 0 2 1;
#X connect 5 0 3 2;
#X connect 6 0 4 2;
#X connect 7 0 4 0;
#X connect 8 0 5 0;
#X connect 8 0 6 0;
#X connect 9 0 0 0;
#X connect 12 0 1 0;
#X connect 13 0 2 0;
#X connect 14 0 7 0;
#X connect 14 1 16 0;
#X connect 15 0 18 0;
#X connect 15 1 17 0;
#X connect 16 0 4 0;
#X connect 17 0 3 0;
#X connect 18 0 3 0;
#X connect 19 0 15 0;
#X connect 19 1 14 0;
