#N canvas 0 50 450 300 12;
#X obj 124 51 key;
#X floatatom 120 78 5 0 0 0 - - -;
#X obj 103 162 f;
#X obj 147 161 f;
#X obj 96 227 stripnote;
#X obj 106 253 spigot 1;
#X obj 197 224 spigot 1;
#X obj 191 161 delay 10;
#X msg 198 197 0;
#X msg 239 196 1;
#X floatatom 177 78 5 0 0 0 - - -;
#X obj 165 48 keyup;
#X text 195 339 B;
#X text 359 6 MIDI PREWZZ;
#X floatatom 2 107 5 0 0 0 - - -;
#X floatatom 2 162 5 0 0 0 - - -;
#X floatatom 100 286 5 0 0 0 - - -;
#X floatatom 194 296 9 0 0 0 - - -;
#X text -6 0 Octaves;
#X floatatom 4 256 5 0 0 0 - - -;
#X text -1 229 VELO;
#X obj 200 256 noteout 1;
#X obj 100 313 mtof;
#X obj -20 29 key;
#X obj 18 27 sel 60;
#X obj -5 54 f;
#X obj 36 54 + 1;
#X msg 185 132 0;
#X obj 228 134 bng 15 250 50 0 empty empty empty 17 7 0 10 -262144
-1 -1;
#X obj -5 82 % 12;
#X obj -40 194 s vbn;
#X obj 3 281 s vell;
#X obj 259 132 r vell;
#X obj 991 379 s DO;
#X obj 445 61 key;
#X floatatom 441 88 5 0 0 0 - - -;
#X obj 428 178 f;
#X obj 468 171 f;
#X obj 417 237 stripnote;
#X obj 427 263 spigot 1;
#X obj 518 234 spigot 1;
#X obj 512 171 delay 10;
#X msg 519 207 0;
#X msg 560 206 1;
#X floatatom 498 88 5 0 0 0 - - -;
#X obj 486 58 keyup;
#X obj 428 142 t b b b;
#X floatatom 495 295 5 0 0 0 - - -;
#X floatatom 551 292 5 0 0 0 - - -;
#X obj 518 264 noteout 1;
#X obj 495 322 mtof;
#X msg 506 142 0;
#X obj 549 144 bng 15 250 50 0 empty empty empty 17 7 0 10 -262144
-1 -1;
#X obj 580 142 r vell;
#X obj 143 396 key;
#X floatatom 139 423 5 0 0 0 - - -;
#X obj 126 513 f;
#X obj 166 506 f;
#X obj 115 572 stripnote;
#X obj 125 598 spigot 1;
#X obj 216 569 spigot 1;
#X obj 210 506 delay 10;
#X msg 217 542 0;
#X msg 258 541 1;
#X floatatom 196 423 5 0 0 0 - - -;
#X obj 184 393 keyup;
#X obj 126 477 t b b b;
#X floatatom 193 630 5 0 0 0 - - -;
#X floatatom 249 627 5 0 0 0 - - -;
#X obj 216 599 noteout 1;
#X obj 193 657 mtof;
#X msg 204 477 0;
#X obj 247 479 bng 15 250 50 0 empty empty empty 17 7 0 10 -262144
-1 -1;
#X obj 278 477 r vell;
#X obj 311 509 t f f f;
#X obj 58 439 r vbn;
#X obj 251 653 / 261.62;
#X obj 190 328 / 261.62;
#X obj 549 328 / 261.62;
#X msg -31 355 110;
#X obj -26 324 loadbang;
#X obj 19 197 makenote;
#X obj 423 206 makenote;
#X obj 31 544 makenote;
#X obj 505 408 key;
#X floatatom 501 435 5 0 0 0 - - -;
#X obj 488 525 f;
#X obj 528 518 f;
#X obj 477 584 stripnote;
#X obj 487 610 spigot 1;
#X obj 578 581 spigot 1;
#X obj 572 518 delay 10;
#X msg 579 554 0;
#X msg 620 553 1;
#X floatatom 558 435 5 0 0 0 - - -;
#X obj 546 405 keyup;
#X obj 488 489 t b b b;
#X floatatom 555 642 5 0 0 0 - - -;
#X floatatom 611 639 5 0 0 0 - - -;
#X obj 578 611 noteout 1;
#X obj 555 669 mtof;
#X msg 566 489 0;
#X obj 609 491 bng 15 250 50 0 empty empty empty 17 7 0 10 -262144
-1 -1;
#X obj 640 489 r vell;
#X obj 673 521 t f f f;
#X obj 420 451 r vbn;
#X obj 613 665 / 261.62;
#X obj 480 558 makenote;
#X obj 959 32 key;
#X floatatom 955 59 5 0 0 0 - - -;
#X obj 942 149 f;
#X obj 982 142 f;
#X obj 931 208 stripnote;
#X obj 941 234 spigot 1;
#X obj 1032 205 spigot 1;
#X obj 1026 142 delay 10;
#X msg 1033 178 0;
#X msg 1074 177 1;
#X floatatom 1012 59 5 0 0 0 - - -;
#X obj 1000 29 keyup;
#X obj 942 113 t b b b;
#X floatatom 1009 266 5 0 0 0 - - -;
#X floatatom 1065 263 5 0 0 0 - - -;
#X obj 1032 235 noteout 1;
#X obj 1009 293 mtof;
#X msg 1020 113 0;
#X obj 1063 115 bng 15 250 50 0 empty empty empty 17 7 0 10 -262144
-1 -1;
#X obj 1094 113 r vell;
#X obj 1127 145 t f f f;
#X obj 874 75 r vbn;
#X obj 1067 289 / 261.62;
#X obj 934 182 makenote;
#X obj 822 407 key;
#X floatatom 818 434 5 0 0 0 - - -;
#X obj 805 524 f;
#X obj 845 517 f;
#X obj 794 583 stripnote;
#X obj 804 609 spigot 1;
#X obj 895 580 spigot 1;
#X obj 889 517 delay 10;
#X msg 896 553 0;
#X msg 937 552 1;
#X floatatom 875 434 5 0 0 0 - - -;
#X obj 863 404 keyup;
#X obj 805 488 t b b b;
#X floatatom 872 641 5 0 0 0 - - -;
#X floatatom 928 638 5 0 0 0 - - -;
#X obj 895 610 noteout 1;
#X obj 872 668 mtof;
#X msg 883 488 0;
#X obj 926 490 bng 15 250 50 0 empty empty empty 17 7 0 10 -262144
-1 -1;
#X obj 957 488 r vell;
#X obj 990 520 t f f f;
#X obj 737 450 r vbn;
#X obj 930 664 / 261.62;
#X obj 797 557 makenote;
#X obj 2 134 * 12;
#X obj 292 164 t f f;
#X obj 613 174 t f f;
#X obj 100 369 max 0;
#X obj 100 341 - 8.178;
#X obj 65 131 t b b b b b;
#X text 166 20 A;
#X text 259 80 A;
#X text 249 70 A;
#X text 269 90 A;
#X text 102 67 A;
#X text 101 56 A;
#X text 100 83 A;
#X text 286 186 A;
#X text 289 221 A;
#X text 300 251 A;
#X text 77 290 A;
#X text 66 310 A;
#X text 83 319 A;
#X obj 107 104 sel 65;
#X obj 176 104 sel 65;
#X text 487 30 W;
#X text 422 66 W;
#X text 423 77 W;
#X text 421 93 W;
#X text 570 80 W;
#X text 590 100 W;
#X text 580 90 W;
#X text 607 196 W;
#X text 610 231 W;
#X text 621 261 W;
#X text 456 299 W;
#X text 421 310 W;
#X text 462 328 W;
#X text 516 349 W;
#X obj 382 140 + 1;
#X obj 418 114 sel 87;
#X obj 497 114 sel 87;
#X text 606 -18 MIDI PREWZZ;
#X obj 692 37 key;
#X floatatom 688 64 5 0 0 0 - - -;
#X obj 675 154 f;
#X obj 715 147 f;
#X obj 664 213 stripnote;
#X obj 674 239 spigot 1;
#X obj 765 210 spigot 1;
#X obj 759 147 delay 10;
#X msg 766 183 0;
#X msg 807 182 1;
#X floatatom 745 64 5 0 0 0 - - -;
#X obj 733 34 keyup;
#X obj 675 118 t b b b;
#X floatatom 742 271 5 0 0 0 - - -;
#X floatatom 798 268 5 0 0 0 - - -;
#X obj 765 240 noteout 1;
#X obj 742 298 mtof;
#X msg 753 118 0;
#X obj 796 120 bng 15 250 50 0 empty empty empty 17 7 0 10 -262144
-1 -1;
#X obj 827 118 r vell;
#X obj 796 304 / 261.62;
#X obj 670 182 makenote;
#X obj 860 150 t f f;
#X text 734 6 S;
#X text 669 42 S;
#X text 670 53 S;
#X text 668 69 S;
#X text 817 56 S;
#X text 837 76 S;
#X text 827 66 S;
#X text 854 172 S;
#X text 857 207 S;
#X text 868 237 S;
#X text 763 325 S;
#X text 709 304 S;
#X text 703 275 S;
#X text 668 286 S;
#X obj 665 90 sel 83;
#X obj 744 90 sel 83;
#X obj 629 116 + 2;
#X obj 80 475 + 3;
#X obj 116 449 sel 69;
#X obj 195 449 sel 69;
#X obj 478 461 sel 68;
#X obj 557 461 sel 68;
#X obj 442 487 + 4;
#X text 185 365 E;
#X text 268 415 E;
#X text 278 425 E;
#X text 288 435 E;
#X text 305 531 EE;
#X text 308 566 E;
#X text 319 596 E;
#X text 214 684 E;
#X text 160 663 E;
#X text 154 634 E;
#X text 119 645 E;
#X text 121 412 EE;
#X text 120 401 E;
#X text 119 428 E;
#X text 547 377 D;
#X text 640 437 D;
#X text 630 427 D;
#X text 650 447 D;
#X text 667 543 D;
#X text 670 578 D;
#X text 681 608 D;
#X text 591 694 D;
#X text 522 675 D;
#X text 516 646 D;
#X text 481 657 D;
#X text 483 424 D;
#X text 482 413 D;
#X text 481 440 D;
#X text 799 412 F;
#X text 800 423 F;
#X text 798 439 F;
#X text 947 426 F;
#X text 967 446 F;
#X text 957 436 F;
#X text 984 542 F;
#X text 987 577 F;
#X text 998 607 F;
#X text 908 693 F;
#X text 839 674 F;
#X text 833 645 F;
#X text 798 656 F;
#X obj 795 460 sel 70;
#X obj 874 460 sel 70;
#X obj 759 486 + 5;
#X obj 932 85 sel 84;
#X obj 1011 85 sel 84;
#X obj 896 111 + 6;
#X text 936 37 T;
#X text 935 64 T;
#X text 937 48 T;
#X text 1084 51 T;
#X text 1104 71 T;
#X text 1094 61 T;
#X text 1124 202 T;
#X text 1121 167 T;
#X text 1135 232 T;
#X text 1045 318 T;
#X text 976 299 T;
#X text 970 270 T;
#X text 935 281 T;
#X text 986 0 T;
#X text 864 379 F;
#X obj 1093 409 key;
#X floatatom 1089 436 5 0 0 0 - - -;
#X obj 1076 526 f;
#X obj 1116 519 f;
#X obj 1065 585 stripnote;
#X obj 1075 611 spigot 1;
#X obj 1166 582 spigot 1;
#X obj 1160 519 delay 10;
#X msg 1167 555 0;
#X msg 1208 554 1;
#X floatatom 1146 436 5 0 0 0 - - -;
#X obj 1134 406 keyup;
#X obj 1076 490 t b b b;
#X floatatom 1143 643 5 0 0 0 - - -;
#X floatatom 1199 640 5 0 0 0 - - -;
#X obj 1166 612 noteout 1;
#X obj 1143 670 mtof;
#X msg 1154 490 0;
#X obj 1197 492 bng 15 250 50 0 empty empty empty 17 7 0 10 -262144
-1 -1;
#X obj 1228 490 r vell;
#X obj 1261 522 t f f f;
#X obj 1008 452 r vbn;
#X obj 1201 666 / 261.62;
#X obj 1068 559 makenote;
#X obj 1030 488 + 7;
#X obj 1066 462 sel 71;
#X obj 1145 462 sel 71;
#X text 1120 377 G;
#X text 1070 414 GG;
#X text 1071 425 G;
#X text 1069 441 G;
#X text 1228 438 G;
#X text 1218 428 G;
#X text 1238 448 G;
#X text 1255 544 G;
#X text 1258 579 G;
#X text 1269 609 G;
#X text 1110 676 G;
#X text 1104 647 G;
#X text 1069 658 G;
#X text 1179 695 G;
#X obj 1230 33 key;
#X floatatom 1226 60 5 0 0 0 - - -;
#X obj 1213 150 f;
#X obj 1253 143 f;
#X obj 1202 209 stripnote;
#X obj 1212 235 spigot 1;
#X obj 1303 206 spigot 1;
#X obj 1297 143 delay 10;
#X msg 1304 179 0;
#X msg 1345 178 1;
#X floatatom 1283 60 5 0 0 0 - - -;
#X obj 1271 30 keyup;
#X obj 1213 114 t b b b;
#X floatatom 1280 267 5 0 0 0 - - -;
#X floatatom 1336 264 5 0 0 0 - - -;
#X obj 1303 236 noteout 1;
#X obj 1280 294 mtof;
#X msg 1291 114 0;
#X obj 1334 116 bng 15 250 50 0 empty empty empty 17 7 0 10 -262144
-1 -1;
#X obj 1365 114 r vell;
#X obj 1398 146 t f f f;
#X obj 1145 76 r vbn;
#X obj 1338 290 / 261.62;
#X obj 1205 183 makenote;
#X obj 1167 112 + 8;
#X obj 1203 86 sel 89;
#X obj 1282 86 sel 89;
#X text 1257 1 Y;
#X text 1207 38 Y;
#X text 1208 49 Y;
#X text 1206 65 Y;
#X text 1355 52 Y;
#X text 1365 62 Y;
#X text 1375 72 Y;
#X text 1392 168 Y;
#X text 1395 203 Y;
#X text 1406 233 Y;
#X text 1316 319 Y;
#X text 1247 300 Y;
#X text 1206 282 Y;
#X text 1241 271 Y;
#X obj 1367 411 key;
#X floatatom 1363 438 5 0 0 0 - - -;
#X obj 1350 528 f;
#X obj 1390 521 f;
#X obj 1339 587 stripnote;
#X obj 1349 613 spigot 1;
#X obj 1440 584 spigot 1;
#X obj 1434 521 delay 10;
#X msg 1441 557 0;
#X msg 1482 556 1;
#X floatatom 1420 438 5 0 0 0 - - -;
#X obj 1408 408 keyup;
#X obj 1350 492 t b b b;
#X floatatom 1417 645 5 0 0 0 - - -;
#X floatatom 1473 642 5 0 0 0 - - -;
#X obj 1440 614 noteout 1;
#X obj 1417 672 mtof;
#X msg 1428 492 0;
#X obj 1471 494 bng 15 250 50 0 empty empty empty 17 7 0 10 -262144
-1 -1;
#X obj 1502 492 r vell;
#X obj 1535 524 t f f f;
#X obj 1282 454 r vbn;
#X obj 1475 668 / 261.62;
#X obj 1342 561 makenote;
#X text 1394 379 H;
#X text 1344 416 H;
#X text 1345 427 H;
#X text 1343 443 H;
#X text 1502 440 H;
#X text 1492 430 H;
#X text 1512 450 H;
#X text 1529 546 H;
#X text 1532 581 H;
#X text 1543 611 H;
#X text 1378 649 H;
#X text 1343 660 H;
#X text 1384 678 H;
#X text 1453 697 H;
#X obj 1340 464 sel 72;
#X obj 1419 464 sel 72;
#X obj 1304 490 + 9;
#X obj 1511 32 key;
#X floatatom 1507 59 5 0 0 0 - - -;
#X obj 1494 149 f;
#X obj 1534 142 f;
#X obj 1483 208 stripnote;
#X obj 1493 234 spigot 1;
#X obj 1584 205 spigot 1;
#X obj 1578 142 delay 10;
#X msg 1585 178 0;
#X msg 1626 177 1;
#X floatatom 1564 59 5 0 0 0 - - -;
#X obj 1552 29 keyup;
#X obj 1494 113 t b b b;
#X floatatom 1561 266 5 0 0 0 - - -;
#X floatatom 1617 263 5 0 0 0 - - -;
#X obj 1584 235 noteout 1;
#X obj 1561 293 mtof;
#X msg 1572 113 0;
#X obj 1615 115 bng 15 250 50 0 empty empty empty 17 7 0 10 -262144
-1 -1;
#X obj 1646 113 r vell;
#X obj 1679 145 t f f f;
#X obj 1426 75 r vbn;
#X obj 1619 289 / 261.62;
#X obj 1486 182 makenote;
#X text 1550 -20 H;
#X obj 1440 111 + 10;
#X obj 1484 85 sel 85;
#X obj 1563 85 sel 85;
#X text 1528 299 U;
#X text 1522 270 U;
#X text 1487 281 U;
#X text 1597 318 U;
#X text 1687 232 U;
#X text 1676 202 U;
#X text 1673 167 U;
#X text 1655 71 U;
#X text 1646 61 U;
#X text 1636 51 U;
#X text 1489 48 U;
#X text 1488 37 U;
#X text 1487 64 U;
#X text 1538 13 U;
#X obj 699 707 key;
#X floatatom 695 734 5 0 0 0 - - -;
#X obj 682 824 f;
#X obj 722 817 f;
#X obj 671 883 stripnote;
#X obj 681 909 spigot 1;
#X obj 772 880 spigot 1;
#X obj 766 817 delay 10;
#X msg 773 853 0;
#X msg 814 852 1;
#X floatatom 752 734 5 0 0 0 - - -;
#X obj 740 704 keyup;
#X obj 682 788 t b b b;
#X floatatom 749 941 5 0 0 0 - - -;
#X floatatom 805 938 5 0 0 0 - - -;
#X obj 772 910 noteout 1;
#X obj 749 968 mtof;
#X msg 760 788 0;
#X obj 803 790 bng 15 250 50 0 empty empty empty 17 7 0 10 -262144
-1 -1;
#X obj 834 788 r vell;
#X obj 867 820 t f f f;
#X obj 614 750 r vbn;
#X obj 807 964 / 261.62;
#X obj 674 857 makenote;
#X obj 1066 727 key;
#X floatatom 1062 754 5 0 0 0 - - -;
#X obj 1049 844 f;
#X obj 1089 837 f;
#X obj 1038 903 stripnote;
#X obj 1048 929 spigot 1;
#X obj 1139 900 spigot 1;
#X obj 1133 837 delay 10;
#X msg 1140 873 0;
#X msg 1181 872 1;
#X floatatom 1119 754 5 0 0 0 - - -;
#X obj 1107 724 keyup;
#X obj 1049 808 t b b b;
#X floatatom 1116 961 5 0 0 0 - - -;
#X floatatom 1172 958 5 0 0 0 - - -;
#X obj 1139 930 noteout 1;
#X obj 1116 988 mtof;
#X msg 1127 808 0;
#X obj 1170 810 bng 15 250 50 0 empty empty empty 17 7 0 10 -262144
-1 -1;
#X obj 1201 808 r vell;
#X obj 1234 840 t f f f;
#X obj 981 770 r vbn;
#X obj 1174 984 / 261.62;
#X obj 1041 877 makenote;
#X text 1152 1013 U;
#X obj 672 760 sel 74;
#X obj 751 760 sel 74;
#X obj 628 786 + 11;
#X obj 995 806 + 12;
#X obj 1039 780 sel 75;
#X obj 1118 780 sel 75;
#X text 1093 708 K;
#X text 1191 746 KK;
#X text 1201 756 K;
#X text 1210 766 K;
#X text 1043 732 K;
#X text 1044 743 K;
#X text 1042 759 K;
#X text 1042 976 K;
#X text 1083 994 K;
#X text 1077 965 K;
#X text 1242 927 K;
#X text 1231 897 K;
#X text 1228 862 K;
#X text 726 688 J;
#X text 824 726 J;
#X text 843 746 J;
#X text 834 736 J;
#X text 676 712 J;
#X text 677 723 J;
#X text 675 739 J;
#X text 710 945 J;
#X text 675 956 J;
#X text 716 974 J;
#X text 785 993 J;
#X text 875 907 J;
#X text 864 877 J;
#X text 861 842 J;
#X connect 0 0 1 0;
#X connect 1 0 175 0;
#X connect 2 0 81 0;
#X connect 3 0 81 1;
#X connect 4 0 5 0;
#X connect 4 1 6 0;
#X connect 5 0 16 0;
#X connect 6 0 16 0;
#X connect 7 0 8 0;
#X connect 8 0 5 1;
#X connect 8 0 6 1;
#X connect 9 0 5 1;
#X connect 9 0 6 1;
#X connect 10 0 176 0;
#X connect 11 0 10 0;
#X connect 14 0 156 0;
#X connect 15 0 2 1;
#X connect 16 0 22 0;
#X connect 17 0 77 0;
#X connect 19 0 31 0;
#X connect 22 0 160 0;
#X connect 23 0 24 0;
#X connect 24 0 25 0;
#X connect 25 0 26 0;
#X connect 25 0 29 0;
#X connect 26 0 25 1;
#X connect 27 0 157 0;
#X connect 28 0 27 0;
#X connect 28 0 9 0;
#X connect 29 0 14 0;
#X connect 32 0 3 1;
#X connect 34 0 35 0;
#X connect 35 0 192 0;
#X connect 36 0 82 0;
#X connect 37 0 82 1;
#X connect 38 0 39 0;
#X connect 38 1 40 0;
#X connect 39 0 47 0;
#X connect 40 0 47 0;
#X connect 41 0 42 0;
#X connect 42 0 39 1;
#X connect 42 0 40 1;
#X connect 43 0 39 1;
#X connect 43 0 40 1;
#X connect 44 0 193 0;
#X connect 45 0 44 0;
#X connect 46 0 36 0;
#X connect 46 1 37 0;
#X connect 46 2 41 0;
#X connect 47 0 50 0;
#X connect 48 0 78 0;
#X connect 50 0 48 0;
#X connect 51 0 158 0;
#X connect 52 0 51 0;
#X connect 52 0 43 0;
#X connect 53 0 37 1;
#X connect 54 0 55 0;
#X connect 55 0 236 0;
#X connect 56 0 83 0;
#X connect 57 0 83 1;
#X connect 58 0 59 0;
#X connect 58 1 60 0;
#X connect 59 0 67 0;
#X connect 60 0 67 0;
#X connect 61 0 62 0;
#X connect 62 0 59 1;
#X connect 62 0 60 1;
#X connect 63 0 59 1;
#X connect 63 0 60 1;
#X connect 64 0 237 0;
#X connect 65 0 64 0;
#X connect 66 0 56 0;
#X connect 66 1 57 0;
#X connect 66 2 61 0;
#X connect 67 0 70 0;
#X connect 68 0 76 0;
#X connect 70 0 68 0;
#X connect 71 0 74 0;
#X connect 72 0 71 0;
#X connect 72 0 63 0;
#X connect 73 0 57 1;
#X connect 74 0 68 0;
#X connect 74 1 67 0;
#X connect 74 2 83 1;
#X connect 75 0 235 0;
#X connect 76 0 33 0;
#X connect 77 0 33 0;
#X connect 78 0 33 0;
#X connect 79 0 19 0;
#X connect 80 0 79 0;
#X connect 81 0 4 0;
#X connect 81 1 4 1;
#X connect 82 0 38 0;
#X connect 82 1 38 1;
#X connect 83 0 58 0;
#X connect 83 1 58 1;
#X connect 84 0 85 0;
#X connect 85 0 238 0;
#X connect 86 0 107 0;
#X connect 87 0 107 1;
#X connect 88 0 89 0;
#X connect 88 1 90 0;
#X connect 89 0 97 0;
#X connect 90 0 97 0;
#X connect 91 0 92 0;
#X connect 92 0 89 1;
#X connect 92 0 90 1;
#X connect 93 0 89 1;
#X connect 93 0 90 1;
#X connect 94 0 239 0;
#X connect 95 0 94 0;
#X connect 96 0 86 0;
#X connect 96 1 87 0;
#X connect 96 2 91 0;
#X connect 97 0 100 0;
#X connect 98 0 106 0;
#X connect 100 0 98 0;
#X connect 101 0 104 0;
#X connect 102 0 101 0;
#X connect 102 0 93 0;
#X connect 103 0 87 1;
#X connect 104 0 98 0;
#X connect 104 1 97 0;
#X connect 104 2 107 1;
#X connect 105 0 240 0;
#X connect 106 0 33 0;
#X connect 107 0 88 0;
#X connect 107 1 88 1;
#X connect 108 0 109 0;
#X connect 109 0 285 0;
#X connect 110 0 131 0;
#X connect 111 0 131 1;
#X connect 112 0 113 0;
#X connect 112 1 114 0;
#X connect 113 0 121 0;
#X connect 114 0 121 0;
#X connect 115 0 116 0;
#X connect 116 0 113 1;
#X connect 116 0 114 1;
#X connect 117 0 113 1;
#X connect 117 0 114 1;
#X connect 118 0 286 0;
#X connect 119 0 118 0;
#X connect 120 0 110 0;
#X connect 120 1 111 0;
#X connect 120 2 115 0;
#X connect 121 0 124 0;
#X connect 122 0 130 0;
#X connect 124 0 122 0;
#X connect 125 0 128 0;
#X connect 126 0 125 0;
#X connect 126 0 117 0;
#X connect 127 0 111 1;
#X connect 128 0 122 0;
#X connect 128 1 121 0;
#X connect 128 2 131 1;
#X connect 129 0 287 0;
#X connect 130 0 33 0;
#X connect 131 0 112 0;
#X connect 131 1 112 1;
#X connect 132 0 133 0;
#X connect 133 0 282 0;
#X connect 134 0 155 0;
#X connect 135 0 155 1;
#X connect 136 0 137 0;
#X connect 136 1 138 0;
#X connect 137 0 145 0;
#X connect 138 0 145 0;
#X connect 139 0 140 0;
#X connect 140 0 137 1;
#X connect 140 0 138 1;
#X connect 141 0 137 1;
#X connect 141 0 138 1;
#X connect 142 0 283 0;
#X connect 143 0 142 0;
#X connect 144 0 134 0;
#X connect 144 1 135 0;
#X connect 144 2 139 0;
#X connect 145 0 148 0;
#X connect 146 0 154 0;
#X connect 148 0 146 0;
#X connect 149 0 152 0;
#X connect 150 0 149 0;
#X connect 150 0 141 0;
#X connect 151 0 135 1;
#X connect 152 0 146 0;
#X connect 152 1 145 0;
#X connect 152 2 155 1;
#X connect 153 0 284 0;
#X connect 154 0 33 0;
#X connect 155 0 136 0;
#X connect 155 1 136 1;
#X connect 156 0 15 0;
#X connect 156 0 30 0;
#X connect 156 0 191 0;
#X connect 156 0 234 0;
#X connect 157 0 16 0;
#X connect 157 1 17 0;
#X connect 158 0 48 0;
#X connect 158 1 47 0;
#X connect 159 0 17 0;
#X connect 160 0 159 0;
#X connect 161 0 2 0;
#X connect 161 1 3 0;
#X connect 161 2 7 0;
#X connect 161 3 2 0;
#X connect 161 4 3 0;
#X connect 175 0 161 0;
#X connect 176 0 28 0;
#X connect 191 0 36 1;
#X connect 192 0 46 0;
#X connect 193 0 52 0;
#X connect 195 0 196 0;
#X connect 196 0 232 0;
#X connect 197 0 216 0;
#X connect 198 0 216 1;
#X connect 199 0 200 0;
#X connect 199 1 201 0;
#X connect 200 0 208 0;
#X connect 201 0 208 0;
#X connect 202 0 203 0;
#X connect 203 0 200 1;
#X connect 203 0 201 1;
#X connect 204 0 200 1;
#X connect 204 0 201 1;
#X connect 205 0 233 0;
#X connect 206 0 205 0;
#X connect 207 0 197 0;
#X connect 207 1 198 0;
#X connect 207 2 202 0;
#X connect 208 0 211 0;
#X connect 209 0 215 0;
#X connect 211 0 209 0;
#X connect 212 0 217 0;
#X connect 213 0 212 0;
#X connect 213 0 204 0;
#X connect 214 0 198 1;
#X connect 215 0 33 0;
#X connect 216 0 199 0;
#X connect 216 1 199 1;
#X connect 217 0 209 0;
#X connect 217 1 208 0;
#X connect 232 0 207 0;
#X connect 233 0 213 0;
#X connect 234 0 197 1;
#X connect 235 0 56 1;
#X connect 236 0 66 0;
#X connect 237 0 72 0;
#X connect 238 0 96 0;
#X connect 239 0 102 0;
#X connect 240 0 86 1;
#X connect 282 0 144 0;
#X connect 283 0 150 0;
#X connect 284 0 134 1;
#X connect 285 0 120 0;
#X connect 286 0 126 0;
#X connect 287 0 110 1;
#X connect 303 0 304 0;
#X connect 304 0 328 0;
#X connect 305 0 326 0;
#X connect 306 0 326 1;
#X connect 307 0 308 0;
#X connect 307 1 309 0;
#X connect 308 0 316 0;
#X connect 309 0 316 0;
#X connect 310 0 311 0;
#X connect 311 0 308 1;
#X connect 311 0 309 1;
#X connect 312 0 308 1;
#X connect 312 0 309 1;
#X connect 313 0 329 0;
#X connect 314 0 313 0;
#X connect 315 0 305 0;
#X connect 315 1 306 0;
#X connect 315 2 310 0;
#X connect 316 0 319 0;
#X connect 317 0 325 0;
#X connect 319 0 317 0;
#X connect 320 0 323 0;
#X connect 321 0 320 0;
#X connect 321 0 312 0;
#X connect 322 0 306 1;
#X connect 323 0 317 0;
#X connect 323 1 316 0;
#X connect 323 2 326 1;
#X connect 324 0 327 0;
#X connect 325 0 33 0;
#X connect 326 0 307 0;
#X connect 326 1 307 1;
#X connect 327 0 305 1;
#X connect 328 0 315 0;
#X connect 329 0 321 0;
#X connect 344 0 345 0;
#X connect 345 0 369 0;
#X connect 346 0 367 0;
#X connect 347 0 367 1;
#X connect 348 0 349 0;
#X connect 348 1 350 0;
#X connect 349 0 357 0;
#X connect 350 0 357 0;
#X connect 351 0 352 0;
#X connect 352 0 349 1;
#X connect 352 0 350 1;
#X connect 353 0 349 1;
#X connect 353 0 350 1;
#X connect 354 0 370 0;
#X connect 355 0 354 0;
#X connect 356 0 346 0;
#X connect 356 1 347 0;
#X connect 356 2 351 0;
#X connect 357 0 360 0;
#X connect 358 0 366 0;
#X connect 360 0 358 0;
#X connect 361 0 364 0;
#X connect 362 0 361 0;
#X connect 362 0 353 0;
#X connect 363 0 347 1;
#X connect 364 0 358 0;
#X connect 364 1 357 0;
#X connect 364 2 367 1;
#X connect 365 0 368 0;
#X connect 366 0 33 0;
#X connect 367 0 348 0;
#X connect 367 1 348 1;
#X connect 368 0 346 1;
#X connect 369 0 356 0;
#X connect 370 0 362 0;
#X connect 385 0 386 0;
#X connect 386 0 423 0;
#X connect 387 0 408 0;
#X connect 388 0 408 1;
#X connect 389 0 390 0;
#X connect 389 1 391 0;
#X connect 390 0 398 0;
#X connect 391 0 398 0;
#X connect 392 0 393 0;
#X connect 393 0 390 1;
#X connect 393 0 391 1;
#X connect 394 0 390 1;
#X connect 394 0 391 1;
#X connect 395 0 424 0;
#X connect 396 0 395 0;
#X connect 397 0 387 0;
#X connect 397 1 388 0;
#X connect 397 2 392 0;
#X connect 398 0 401 0;
#X connect 399 0 407 0;
#X connect 401 0 399 0;
#X connect 402 0 405 0;
#X connect 403 0 402 0;
#X connect 403 0 394 0;
#X connect 404 0 388 1;
#X connect 405 0 399 0;
#X connect 405 1 398 0;
#X connect 405 2 408 1;
#X connect 406 0 425 0;
#X connect 407 0 33 0;
#X connect 408 0 389 0;
#X connect 408 1 389 1;
#X connect 423 0 397 0;
#X connect 424 0 403 0;
#X connect 425 0 387 1;
#X connect 426 0 427 0;
#X connect 427 0 452 0;
#X connect 428 0 449 0;
#X connect 429 0 449 1;
#X connect 430 0 431 0;
#X connect 430 1 432 0;
#X connect 431 0 439 0;
#X connect 432 0 439 0;
#X connect 433 0 434 0;
#X connect 434 0 431 1;
#X connect 434 0 432 1;
#X connect 435 0 431 1;
#X connect 435 0 432 1;
#X connect 436 0 453 0;
#X connect 437 0 436 0;
#X connect 438 0 428 0;
#X connect 438 1 429 0;
#X connect 438 2 433 0;
#X connect 439 0 442 0;
#X connect 440 0 448 0;
#X connect 442 0 440 0;
#X connect 443 0 446 0;
#X connect 444 0 443 0;
#X connect 444 0 435 0;
#X connect 445 0 429 1;
#X connect 446 0 440 0;
#X connect 446 1 439 0;
#X connect 446 2 449 1;
#X connect 447 0 451 0;
#X connect 448 0 33 0;
#X connect 449 0 430 0;
#X connect 449 1 430 1;
#X connect 451 0 428 1;
#X connect 452 0 438 0;
#X connect 453 0 444 0;
#X connect 468 0 469 0;
#X connect 469 0 517 0;
#X connect 470 0 491 0;
#X connect 471 0 491 1;
#X connect 472 0 473 0;
#X connect 472 1 474 0;
#X connect 473 0 481 0;
#X connect 474 0 481 0;
#X connect 475 0 476 0;
#X connect 476 0 473 1;
#X connect 476 0 474 1;
#X connect 477 0 473 1;
#X connect 477 0 474 1;
#X connect 478 0 518 0;
#X connect 479 0 478 0;
#X connect 480 0 470 0;
#X connect 480 1 471 0;
#X connect 480 2 475 0;
#X connect 481 0 484 0;
#X connect 482 0 490 0;
#X connect 484 0 482 0;
#X connect 485 0 488 0;
#X connect 486 0 485 0;
#X connect 486 0 477 0;
#X connect 487 0 471 1;
#X connect 488 0 482 0;
#X connect 488 1 481 0;
#X connect 488 2 491 1;
#X connect 489 0 519 0;
#X connect 490 0 33 0;
#X connect 491 0 472 0;
#X connect 491 1 472 1;
#X connect 492 0 493 0;
#X connect 493 0 521 0;
#X connect 494 0 515 0;
#X connect 495 0 515 1;
#X connect 496 0 497 0;
#X connect 496 1 498 0;
#X connect 497 0 505 0;
#X connect 498 0 505 0;
#X connect 499 0 500 0;
#X connect 500 0 497 1;
#X connect 500 0 498 1;
#X connect 501 0 497 1;
#X connect 501 0 498 1;
#X connect 502 0 522 0;
#X connect 503 0 502 0;
#X connect 504 0 494 0;
#X connect 504 1 495 0;
#X connect 504 2 499 0;
#X connect 505 0 508 0;
#X connect 506 0 514 0;
#X connect 508 0 506 0;
#X connect 509 0 512 0;
#X connect 510 0 509 0;
#X connect 510 0 501 0;
#X connect 511 0 495 1;
#X connect 512 0 506 0;
#X connect 512 1 505 0;
#X connect 512 2 515 1;
#X connect 513 0 520 0;
#X connect 514 0 33 0;
#X connect 515 0 496 0;
#X connect 515 1 496 1;
#X connect 517 0 480 0;
#X connect 518 0 486 0;
#X connect 519 0 470 1;
#X connect 520 0 494 1;
#X connect 521 0 504 0;
#X connect 522 0 510 0;
