#N canvas 0 0 1920 956 10;
#X obj 270 212 phasor~;
#X obj 519 205 phasor~;
#X obj 374 321 phasor~;
#X obj 307 405 *~ 0.8;
#X floatatom 261 165 5 0 0 0 - - -;
#X floatatom 513 118 5 0 0 0 - - -;
#X obj 414 230 sah~ 0.1;
#X obj 300 360 cos~;
#X obj 301 316 +~;
#X obj 641 170 phasor~;
#X obj 890 163 phasor~;
#X obj 745 279 phasor~;
#X floatatom 632 123 5 0 0 0 - - -;
#X floatatom 884 76 5 0 0 0 - - -;
#X obj 785 188 sah~ 0.1;
#X obj 672 274 +~;
#X obj 671 318 sin~;
#X obj 678 363 *~ -16;
#X msg 412 183 0;
#X msg 460 189 0.1;
#X obj 487 525 outlet~;
#X obj 944 123 phasor~;
#X obj 1193 116 phasor~;
#X obj 1044 230 phasor~;
#X floatatom 935 76 5 0 0 0 - - -;
#X floatatom 1260 76 5 0 0 0 - - -;
#X obj 1088 141 sah~ 0.1;
#X msg 1069 77 0;
#X msg 1117 83 0.1;
#X obj 1054 202 +~;
#X floatatom 1008 164 5 0 0 0 - - -;
#X obj 741 243 +~;
#X floatatom 695 205 5 0 0 0 - - -;
#X obj 357 290 +~;
#X floatatom 311 252 5 0 0 0 - - -;
#X obj 323 273 mtof;
#X obj 707 226 mtof;
#X obj 1020 185 mtof;
#X obj 975 227 +~;
#X obj 632 549 output~;
#X obj 800 227 *~ 500;
#X obj 838 437 square~;
#X obj 429 269 *~ 2;
#X obj 981 316 *~ -24;
#X obj 974 271 abs~;
#X obj 1091 177 *~ 725;
#X floatatom 821 389 5 0 0 0 - - -;
#X obj 1218 280 bng 15 250 50 0 empty empty empty 17 7 0 10 -262144
-1 -1;
#X obj 1217 397 bucket 7;
#X obj 1222 354 shuffle -125 128 127;
#X obj 1164 480 bng 15 250 50 0 empty empty empty 17 7 0 10 -262144
-1 -1;
#X obj 1163 597 bucket 7;
#X obj 1168 554 shuffle -8 32 34;
#X obj 1320 466 bng 15 250 50 0 empty empty empty 17 7 0 10 -262144
-1 -1;
#X obj 1247 618 bucket 7;
#X obj 1165 669 t f f f f f f f f f f f f f f;
#X obj 1248 583 shuffle -800 992 1034;
#X obj 854 547 outlet~;
#X obj 770 520 +~;
#X obj 912 455 square~;
#X floatatom 895 407 5 0 0 0 - - -;
#X obj 850 480 expr~ $v1 * $v2;
#X floatatom 730 608 5 0 0 0 - - -;
#X obj 869 366 + 2.05;
#X obj 859 520 *~ 0.2;
#X obj 76 268 t b b b;
#X obj 122 227 t b b b;
#X obj 92 181 bng 15 250 50 0 empty empty empty 17 7 0 10 -262144 -1
-1;
#X obj 136 174 count;
#X msg 766 124 0;
#X msg 814 130 0.1;
#X connect 0 0 6 0;
#X connect 1 0 6 1;
#X connect 2 0 8 0;
#X connect 3 0 20 0;
#X connect 4 0 0 0;
#X connect 5 0 1 0;
#X connect 6 0 42 0;
#X connect 6 0 61 1;
#X connect 7 0 3 0;
#X connect 8 0 7 0;
#X connect 9 0 14 0;
#X connect 10 0 14 1;
#X connect 11 0 15 0;
#X connect 11 0 61 0;
#X connect 12 0 9 0;
#X connect 13 0 10 0;
#X connect 14 0 40 0;
#X connect 15 0 16 0;
#X connect 16 0 17 0;
#X connect 17 0 8 1;
#X connect 18 0 6 0;
#X connect 19 0 6 0;
#X connect 21 0 26 0;
#X connect 22 0 26 1;
#X connect 23 0 38 0;
#X connect 23 0 61 0;
#X connect 24 0 21 0;
#X connect 25 0 22 0;
#X connect 26 0 45 0;
#X connect 27 0 26 0;
#X connect 28 0 26 0;
#X connect 29 0 23 0;
#X connect 30 0 37 0;
#X connect 31 0 11 0;
#X connect 32 0 36 0;
#X connect 33 0 2 0;
#X connect 34 0 35 0;
#X connect 35 0 33 0;
#X connect 36 0 31 0;
#X connect 37 0 29 0;
#X connect 38 0 44 0;
#X connect 40 0 31 1;
#X connect 41 0 61 0;
#X connect 42 0 33 1;
#X connect 42 0 26 1;
#X connect 43 0 14 1;
#X connect 44 0 43 0;
#X connect 45 0 29 1;
#X connect 46 0 41 0;
#X connect 47 0 49 0;
#X connect 48 0 40 1;
#X connect 48 1 13 0;
#X connect 48 2 4 0;
#X connect 48 3 25 0;
#X connect 48 4 24 0;
#X connect 48 5 12 0;
#X connect 48 6 5 0;
#X connect 49 0 48 0;
#X connect 50 0 52 0;
#X connect 51 0 55 0;
#X connect 51 1 55 0;
#X connect 51 2 55 0;
#X connect 51 3 55 0;
#X connect 51 4 55 0;
#X connect 51 5 55 0;
#X connect 51 6 55 0;
#X connect 52 0 51 0;
#X connect 53 0 56 0;
#X connect 54 0 55 0;
#X connect 54 1 55 0;
#X connect 54 2 55 0;
#X connect 54 3 55 0;
#X connect 54 4 55 0;
#X connect 54 5 55 0;
#X connect 54 6 55 0;
#X connect 55 0 42 1;
#X connect 55 1 17 1;
#X connect 55 2 43 1;
#X connect 55 3 45 1;
#X connect 55 4 40 1;
#X connect 55 5 13 0;
#X connect 55 7 32 0;
#X connect 55 8 12 0;
#X connect 55 9 30 0;
#X connect 55 10 63 1;
#X connect 56 0 54 0;
#X connect 59 0 61 1;
#X connect 60 0 59 0;
#X connect 61 0 64 0;
#X connect 62 0 60 0;
#X connect 62 0 63 0;
#X connect 63 0 46 0;
#X connect 64 0 57 0;
#X connect 64 0 58 1;
#X connect 65 0 18 0;
#X connect 65 2 27 0;
#X connect 65 2 69 0;
#X connect 66 0 19 0;
#X connect 66 1 70 0;
#X connect 66 2 28 0;
#X connect 67 0 68 0;
#X connect 68 0 65 0;
#X connect 68 1 66 0;
#X connect 69 0 14 0;
#X connect 70 0 14 0;
