#N canvas 0 139 1188 727 10;
#X obj 476 277 phasor~;
#X obj 725 270 phasor~;
#X obj 513 470 *~ 0.8;
#X obj 635 334 *~ 1000;
#X floatatom 467 230 5 0 0 0 - - -;
#X floatatom 719 183 5 0 0 0 - - -;
#X obj 620 295 sah~ 0.1;
#X obj 507 381 +~;
#X obj 847 235 phasor~;
#X obj 1096 228 phasor~;
#X obj 951 344 phasor~;
#X obj 1006 292 *~ 1000;
#X floatatom 838 188 5 0 0 0 - - -;
#X floatatom 1090 141 5 0 0 0 - - -;
#X obj 991 253 sah~ 0.1;
#X obj 878 339 +~;
#X obj 884 428 *~ -16;
#X msg 618 248 0;
#X msg 972 189 0;
#X msg 666 254 0.1;
#X msg 1020 195 0.1;
#X obj 520 510 outlet~;
#X obj 580 167 count;
#X obj 585 126 inlet;
#X obj 987 132 count;
#X obj 992 91 inlet;
#X obj 454 158 inlet;
#X obj 221 205 inlet;
#X obj 720 142 inlet;
#X obj 840 116 inlet;
#X obj 877 383 atan~;
#X obj 506 425 sin~;
#X obj 580 386 cycle~;
#X connect 0 0 6 0;
#X connect 1 0 6 1;
#X connect 2 0 21 0;
#X connect 3 0 32 0;
#X connect 4 0 0 0;
#X connect 5 0 1 0;
#X connect 6 0 3 0;
#X connect 7 0 31 0;
#X connect 8 0 14 0;
#X connect 9 0 14 1;
#X connect 10 0 15 0;
#X connect 11 0 10 0;
#X connect 12 0 8 0;
#X connect 13 0 9 0;
#X connect 14 0 11 0;
#X connect 15 0 30 0;
#X connect 16 0 7 1;
#X connect 17 0 6 0;
#X connect 18 0 14 0;
#X connect 19 0 6 0;
#X connect 20 0 14 0;
#X connect 22 0 17 0;
#X connect 22 1 19 0;
#X connect 23 0 22 0;
#X connect 24 0 18 0;
#X connect 24 1 20 0;
#X connect 25 0 24 0;
#X connect 26 0 4 0;
#X connect 27 0 13 0;
#X connect 28 0 5 0;
#X connect 29 0 12 0;
#X connect 30 0 16 0;
#X connect 31 0 2 0;
#X connect 32 0 7 0;
