#N canvas 1002 11 689 556 12;
#X obj 604 292 phasor~;
#X obj 711 317 phasor~;
#X obj 550 430 phasor~;
#X obj 545 541 *~ 0.8;
#X floatatom 606 262 5 0 0 0 - - -;
#X floatatom 710 285 5 0 0 0 - - -;
#X obj 546 509 cos~;
#X obj 868 276 phasor~;
#X obj 997 274 phasor~;
#X obj 937 391 phasor~;
#X floatatom 870 246 5 0 0 0 - - -;
#X floatatom 997 244 5 0 0 0 - - -;
#X msg 647 317 0;
#X msg 679 317 0.1;
#X obj 546 603 outlet~;
#X obj 1215 279 phasor~;
#X obj 1284 284 phasor~;
#X obj 1135 382 phasor~;
#X floatatom 1214 253 5 0 0 0 - - -;
#X floatatom 1283 249 5 0 0 0 - - -;
#X msg 909 -17 0;
#X msg 911 11 0.1;
#X obj 1135 353 +~;
#X floatatom 1136 292 5 0 0 0 - - -;
#X obj 963 366 +~;
#X floatatom 935 340 5 0 0 0 - - -;
#X obj 549 402 +~;
#X floatatom 552 346 5 0 0 0 - - -;
#X obj 551 374 mtof;
#X obj 927 367 mtof;
#X obj 1136 324 mtof;
#X obj 986 341 *~ 500;
#X obj 1182 345 *~ 725;
#X obj 833 88 bng 15 250 50 0 empty empty empty 17 7 0 10 -262144 -1
-1;
#X obj 968 207 bng 15 250 50 0 empty empty empty 17 7 0 10 -262144
-1 -1;
#X obj 928 156 bng 15 250 50 0 empty empty empty 17 7 0 10 -262144
-1 -1;
#X obj 1019 94 t f f f f f f f f f f f f f f;
#X obj 942 680 outlet~;
#X obj 850 12 t b b b;
#X obj 794 12 t b b b;
#X obj 915 79 bng 60 250 50 0 empty empty empty 17 7 0 10 -262144 -1
-1;
#X obj 856 -23 count;
#X msg 929 275 0;
#X msg 961 274 0.1;
#X obj 443 47 inlet;
#X obj 591 -57 inlet;
#X obj 137 52 inlet;
#X obj 856 310 inlet;
#X obj 319 -45 inlet;
#X obj 906 306 cyclone/sah~ 0.1;
#X obj 606 342 cyclone/sah~ 0.1;
#X obj 930 449 creb/sin~;
#X obj 1101 43 cyclone/bucket 7;
#X obj 1017 22 cyclone/bucket 7;
#X obj 591 35 cyclone/bucket 7;
#X obj 610 398 *~ 22;
#X obj 1179 309 cyclone/sah~ 0.1;
#X obj 547 465 /~;
#X obj 934 420 /~;
#X obj 1137 514 *~ 2;
#X obj 1134 471 abs~;
#X obj 1014 -31 motex/shuffle -28 32 34;
#X obj 588 -2 motex/shuffle -125 212 222;
#X obj 656 575 expr~ $v1 + $v1 + $v2 * $v2 / $v2;
#X floatatom 1507 390 9 0 0 0 - - -;
#X obj 862 140 bng 30 250 50 0 empty empty empty 17 7 0 10 -262144
-1 -1;
#X obj 929 500 *~;
#X obj 1102 8 motex/shuffle -800 592 534;
#X obj 947 653 *~ 0.6;
#X text 822 169 slowdivid;
#X obj 1135 427 +~;
#X text 951 157 FASTO;
#X text 989 208 LOWLIMITS;
#X text 909 57 MACROHOLD;
#X text 771 62 SUBCATEGORIES;
#X obj 1507 364 / 377982;
#X obj 1507 338 random 17500;
#X obj 495 92 inlet;
#X connect 0 0 50 0;
#X connect 1 0 50 1;
#X connect 2 0 57 0;
#X connect 3 0 14 0;
#X connect 3 0 63 0;
#X connect 4 0 0 0;
#X connect 5 0 1 0;
#X connect 6 0 3 0;
#X connect 7 0 49 0;
#X connect 8 0 49 1;
#X connect 9 0 58 0;
#X connect 9 0 63 0;
#X connect 10 0 7 0;
#X connect 11 0 8 0;
#X connect 12 0 50 0;
#X connect 13 0 50 0;
#X connect 15 0 56 0;
#X connect 16 0 56 1;
#X connect 17 0 70 0;
#X connect 18 0 15 0;
#X connect 19 0 16 0;
#X connect 20 0 56 0;
#X connect 21 0 56 0;
#X connect 22 0 17 0;
#X connect 23 0 30 0;
#X connect 24 0 9 0;
#X connect 25 0 29 0;
#X connect 26 0 2 0;
#X connect 27 0 28 0;
#X connect 28 0 26 0;
#X connect 29 0 24 0;
#X connect 30 0 22 0;
#X connect 31 0 24 1;
#X connect 32 0 22 1;
#X connect 33 0 62 0;
#X connect 34 0 61 0;
#X connect 35 0 67 0;
#X connect 36 0 55 1;
#X connect 36 2 59 1;
#X connect 36 3 32 1;
#X connect 36 4 31 1;
#X connect 36 5 11 0;
#X connect 36 7 25 0;
#X connect 36 8 10 0;
#X connect 36 9 23 0;
#X connect 36 10 4 0;
#X connect 36 11 5 0;
#X connect 36 12 27 0;
#X connect 38 0 12 0;
#X connect 38 2 20 0;
#X connect 38 2 42 0;
#X connect 39 0 13 0;
#X connect 39 1 43 0;
#X connect 39 2 21 0;
#X connect 40 0 41 0;
#X connect 41 0 38 0;
#X connect 41 1 39 0;
#X connect 42 0 49 0;
#X connect 43 0 49 0;
#X connect 44 0 40 0;
#X connect 45 0 33 0;
#X connect 46 0 35 0;
#X connect 47 0 25 0;
#X connect 48 0 34 0;
#X connect 49 0 31 0;
#X connect 50 0 55 0;
#X connect 50 0 63 1;
#X connect 51 0 66 0;
#X connect 52 0 36 0;
#X connect 52 1 36 0;
#X connect 52 2 36 0;
#X connect 52 3 36 0;
#X connect 52 4 36 0;
#X connect 52 5 36 0;
#X connect 52 6 36 0;
#X connect 53 0 36 0;
#X connect 53 1 36 0;
#X connect 53 2 36 0;
#X connect 53 3 36 0;
#X connect 53 4 36 0;
#X connect 53 5 36 0;
#X connect 53 6 36 0;
#X connect 54 0 31 1;
#X connect 54 1 11 0;
#X connect 54 2 4 0;
#X connect 54 3 19 0;
#X connect 54 4 18 0;
#X connect 54 5 10 0;
#X connect 54 6 5 0;
#X connect 55 0 26 1;
#X connect 55 0 56 1;
#X connect 56 0 32 0;
#X connect 57 0 6 0;
#X connect 58 0 51 0;
#X connect 59 0 58 1;
#X connect 60 0 59 0;
#X connect 61 0 53 0;
#X connect 62 0 54 0;
#X connect 63 0 68 0;
#X connect 64 0 66 1;
#X connect 65 0 76 0;
#X connect 66 0 57 1;
#X connect 67 0 52 0;
#X connect 68 0 37 0;
#X connect 70 0 60 0;
#X connect 75 0 64 0;
#X connect 76 0 75 0;
#X connect 77 0 65 0;
