#N canvas -9 0 1920 976 10;
#X obj 87 107 cyclone/out~;
#X obj 113 -20 notein;
#X obj 110 5 stripnote;
#X floatatom 45 10 5 0 0 0 - - -;
#X msg 67 30 next \$1;
#X floatatom 247 42 5 0 0 0 - - -;
#X msg 247 62 next \$1;
#X obj 300 34 hsl 128 15 0 5000 0 0 empty empty empty -2 -8 0 10 -262144
-1 -1 7200 1;
#X floatatom 263 83 5 0 0 0 - - -;
#X msg 263 103 next \$1;
#X obj 74 52 clone MONOMID 14;
#X connect 1 0 2 0;
#X connect 1 1 2 1;
#X connect 2 0 3 0;
#X connect 3 0 4 0;
#X connect 4 0 10 0;
#X connect 5 0 6 0;
#X connect 6 0 10 1;
#X connect 7 0 5 0;
#X connect 8 0 9 0;
#X connect 9 0 10 2;
#X connect 10 0 0 0;
#X connect 10 0 0 1;
