#N canvas 723 316 1095 377 12;
#X obj 74 49 tgl 30 0 empty empty empty 17 7 0 10 -262144 -1 -1 0 1
;
#X obj 908 82 hsl 128 15 0 8000 0 0 empty empty empty -2 -8 0 10 -262144
-1 -1 2937 1;
#X obj 4 164 COREIDOSDUOSAMP;
#X obj 117 163 COREDOSDOSDOS;
#N canvas 0 75 1773 388 locura 0;
#X obj 12 12 stripnote;
#X floatatom 18 31 5 0 0 0 - - -;
#X msg 9 83 12;
#X msg 83 85 60;
#X msg 66 83 48;
#X msg 125 83 84;
#X msg 142 85 96;
#X msg 164 85 108;
#X msg 186 86 120;
#X obj 43 133 outlet;
#X obj 121 23 notein;
#X obj 17 166 stripnote;
#X floatatom 23 185 5 0 0 0 - - -;
#X obj 48 287 outlet;
#X obj 126 177 notein;
#X msg 191 240 121;
#X msg 169 239 109;
#X msg 147 239 97;
#X msg 130 237 85;
#X msg 88 239 61;
#X msg 71 237 49;
#X msg 14 237 13;
#X msg 32 237 24;
#X msg 27 83 25;
#X msg 45 84 36;
#X msg 50 238 37;
#X obj 298 21 stripnote;
#X floatatom 304 40 5 0 0 0 - - -;
#X obj 329 142 outlet;
#X obj 407 32 notein;
#X obj 304 65 sel 14 26 38 50 62 74 86 98 110 122;
#X msg 472 95 122;
#X msg 450 94 110;
#X msg 428 94 98;
#X msg 411 92 86;
#X msg 390 93 74;
#X msg 369 94 62;
#X msg 352 92 50;
#X msg 331 93 38;
#X msg 313 92 26;
#X msg 290 93 14;
#X obj 23 210 sel 13 24 37 49 61 72 85 97 109 121;
#X msg 109 238 72;
#X obj 18 56 sel 12 25 36 48 60 73 84 96 108 120;
#X msg 104 84 73;
#X text 175 29 DO;
#X text 485 33 RE;
#X text 180 178 DO#;
#X obj 308 173 stripnote;
#X floatatom 314 192 5 0 0 0 - - -;
#X obj 339 294 outlet;
#X obj 417 184 notein;
#X text 495 185 RE#;
#X obj 314 217 sel 15 27 39 51 63 75 87 99 111 123;
#X msg 482 247 123;
#X msg 460 246 111;
#X msg 438 246 99;
#X msg 421 244 87;
#X msg 400 245 75;
#X msg 379 246 63;
#X msg 362 244 51;
#X msg 341 245 39;
#X msg 323 244 27;
#X msg 300 245 15;
#X obj 584 33 stripnote;
#X floatatom 590 52 5 0 0 0 - - -;
#X obj 615 154 outlet;
#X obj 693 44 notein;
#X text 747 50 MI;
#X obj 590 77 sel 16 28 40 52 64 76 88 100 112 124;
#X msg 758 107 124;
#X msg 736 106 112;
#X msg 714 106 100;
#X msg 697 104 88;
#X msg 676 105 76;
#X msg 655 106 64;
#X msg 638 104 52;
#X msg 617 105 40;
#X msg 599 104 28;
#X msg 581 104 16;
#X obj 571 193 stripnote;
#X floatatom 577 212 5 0 0 0 - - -;
#X obj 768 274 outlet;
#X obj 680 204 notein;
#X obj 577 237 sel 17 29 41 53 65 77 89 101 113 125;
#X msg 745 267 125;
#X msg 723 266 113;
#X msg 701 266 101;
#X msg 684 264 89;
#X msg 663 265 77;
#X msg 642 266 65;
#X msg 625 264 53;
#X msg 604 265 41;
#X msg 586 264 29;
#X msg 568 264 17;
#X text 734 210 FA;
#X obj 845 193 stripnote;
#X floatatom 851 212 5 0 0 0 - - -;
#X obj 936 320 outlet;
#X obj 954 204 notein;
#X obj 851 237 sel 18 30 42 54 66 78 90 102 114 126;
#X text 1008 210 FA#;
#X msg 1019 267 126;
#X msg 997 266 114;
#X msg 975 266 102;
#X msg 958 264 90;
#X msg 937 265 78;
#X msg 916 266 66;
#X msg 899 264 54;
#X msg 878 265 42;
#X msg 860 264 30;
#X msg 842 264 18;
#X obj 863 28 stripnote;
#X floatatom 869 47 5 0 0 0 - - -;
#X obj 1060 109 outlet;
#X obj 972 39 notein;
#X text 1026 45 SOL;
#X obj 869 72 sel 19 31 43 55 67 79 91 103 115 127;
#X msg 1037 102 127;
#X msg 1015 101 115;
#X msg 993 101 103;
#X msg 976 99 91;
#X msg 955 100 79;
#X msg 934 101 67;
#X msg 917 99 55;
#X msg 896 100 43;
#X msg 878 99 31;
#X msg 860 99 19;
#X obj 1118 194 stripnote;
#X floatatom 1124 213 5 0 0 0 - - -;
#X obj 1206 319 outlet;
#X obj 1227 205 notein;
#X text 1281 211 SOL#;
#X obj 1124 238 sel 20 32 44 56 68 80 92 104 116 128;
#X msg 1292 268 128;
#X msg 1270 267 116;
#X msg 1248 267 104;
#X msg 1231 265 92;
#X msg 1210 266 80;
#X msg 1189 267 68;
#X msg 1172 265 56;
#X msg 1151 266 44;
#X msg 1133 265 32;
#X msg 1115 265 20;
#X obj 1143 43 stripnote;
#X floatatom 1149 62 5 0 0 0 - - -;
#X obj 1340 124 outlet;
#X obj 1252 54 notein;
#X text 1306 60 LA;
#X obj 1149 87 sel 21 33 45 57 69 81 93 105 117 129;
#X msg 1317 117 129;
#X msg 1295 116 117;
#X msg 1273 116 105;
#X msg 1256 114 93;
#X msg 1235 115 81;
#X msg 1214 116 69;
#X msg 1197 114 57;
#X msg 1176 115 45;
#X msg 1158 114 33;
#X msg 1140 114 21;
#X obj 1407 52 stripnote;
#X floatatom 1413 71 5 0 0 0 - - -;
#X obj 1604 133 outlet;
#X obj 1516 63 notein;
#X text 1570 69 LA#;
#X obj 1413 96 sel 22 34 46 58 70 82 94 106 118 130;
#X msg 1404 123 22;
#X msg 1422 123 34;
#X msg 1440 124 46;
#X msg 1461 123 58;
#X msg 1478 125 70;
#X msg 1499 124 82;
#X msg 1520 123 94;
#X msg 1537 125 106;
#X msg 1559 125 118;
#X msg 1581 126 130;
#X obj 1414 206 stripnote;
#X floatatom 1410 232 5 0 0 0 - - -;
#X obj 1601 294 outlet;
#X obj 1421 175 notein;
#X text 1567 230 SII;
#X obj 1410 257 sel 23 35 47 59 71 84 95 107 119 131;
#X msg 1401 284 23;
#X msg 1419 284 35;
#X msg 1437 285 47;
#X msg 1458 284 59;
#X msg 1475 286 71;
#X msg 1496 285 84;
#X msg 1517 284 95;
#X msg 1534 286 107;
#X msg 1556 286 119;
#X msg 1578 287 131;
#X connect 0 0 1 0;
#X connect 1 0 43 0;
#X connect 2 0 9 0;
#X connect 3 0 9 0;
#X connect 4 0 9 0;
#X connect 5 0 9 0;
#X connect 6 0 9 0;
#X connect 7 0 9 0;
#X connect 8 0 9 0;
#X connect 10 0 0 0;
#X connect 10 1 0 1;
#X connect 11 0 12 0;
#X connect 12 0 41 0;
#X connect 14 0 11 0;
#X connect 14 1 11 1;
#X connect 15 0 13 0;
#X connect 16 0 13 0;
#X connect 17 0 13 0;
#X connect 18 0 13 0;
#X connect 19 0 13 0;
#X connect 20 0 13 0;
#X connect 21 0 13 0;
#X connect 22 0 13 0;
#X connect 23 0 9 0;
#X connect 24 0 9 0;
#X connect 25 0 13 0;
#X connect 26 0 27 0;
#X connect 27 0 30 0;
#X connect 29 0 26 0;
#X connect 29 1 26 1;
#X connect 30 0 40 0;
#X connect 30 1 39 0;
#X connect 30 2 38 0;
#X connect 30 3 37 0;
#X connect 30 4 36 0;
#X connect 30 5 35 0;
#X connect 30 6 34 0;
#X connect 30 7 33 0;
#X connect 30 8 32 0;
#X connect 30 9 31 0;
#X connect 31 0 28 0;
#X connect 32 0 28 0;
#X connect 33 0 28 0;
#X connect 34 0 28 0;
#X connect 35 0 28 0;
#X connect 36 0 28 0;
#X connect 37 0 28 0;
#X connect 38 0 28 0;
#X connect 39 0 28 0;
#X connect 40 0 28 0;
#X connect 41 0 21 0;
#X connect 41 1 22 0;
#X connect 41 2 25 0;
#X connect 41 3 20 0;
#X connect 41 4 19 0;
#X connect 41 5 42 0;
#X connect 41 6 18 0;
#X connect 41 7 17 0;
#X connect 41 8 16 0;
#X connect 41 9 15 0;
#X connect 42 0 13 0;
#X connect 43 0 2 0;
#X connect 43 1 23 0;
#X connect 43 2 24 0;
#X connect 43 3 4 0;
#X connect 43 4 3 0;
#X connect 43 5 44 0;
#X connect 43 6 5 0;
#X connect 43 7 6 0;
#X connect 43 8 7 0;
#X connect 43 9 8 0;
#X connect 44 0 9 0;
#X connect 48 0 49 0;
#X connect 49 0 53 0;
#X connect 51 0 48 0;
#X connect 51 1 48 1;
#X connect 53 0 63 0;
#X connect 53 1 62 0;
#X connect 53 2 61 0;
#X connect 53 3 60 0;
#X connect 53 4 59 0;
#X connect 53 5 58 0;
#X connect 53 6 57 0;
#X connect 53 7 56 0;
#X connect 53 8 55 0;
#X connect 53 9 54 0;
#X connect 54 0 50 0;
#X connect 55 0 50 0;
#X connect 56 0 50 0;
#X connect 57 0 50 0;
#X connect 58 0 50 0;
#X connect 59 0 50 0;
#X connect 60 0 50 0;
#X connect 61 0 50 0;
#X connect 62 0 50 0;
#X connect 63 0 50 0;
#X connect 64 0 65 0;
#X connect 65 0 69 0;
#X connect 67 0 64 0;
#X connect 67 1 64 1;
#X connect 69 0 79 0;
#X connect 69 1 78 0;
#X connect 69 2 77 0;
#X connect 69 3 76 0;
#X connect 69 4 75 0;
#X connect 69 5 74 0;
#X connect 69 6 73 0;
#X connect 69 7 72 0;
#X connect 69 8 71 0;
#X connect 69 9 70 0;
#X connect 70 0 66 0;
#X connect 71 0 66 0;
#X connect 72 0 66 0;
#X connect 73 0 66 0;
#X connect 74 0 66 0;
#X connect 75 0 66 0;
#X connect 76 0 66 0;
#X connect 77 0 66 0;
#X connect 78 0 66 0;
#X connect 79 0 66 0;
#X connect 80 0 81 0;
#X connect 81 0 84 0;
#X connect 83 0 80 0;
#X connect 83 1 80 1;
#X connect 84 0 94 0;
#X connect 84 1 93 0;
#X connect 84 2 92 0;
#X connect 84 3 91 0;
#X connect 84 4 90 0;
#X connect 84 5 89 0;
#X connect 84 6 88 0;
#X connect 84 7 87 0;
#X connect 84 8 86 0;
#X connect 84 9 85 0;
#X connect 85 0 82 0;
#X connect 86 0 82 0;
#X connect 87 0 82 0;
#X connect 88 0 82 0;
#X connect 89 0 82 0;
#X connect 90 0 82 0;
#X connect 91 0 82 0;
#X connect 92 0 82 0;
#X connect 93 0 82 0;
#X connect 94 0 82 0;
#X connect 96 0 97 0;
#X connect 97 0 100 0;
#X connect 99 0 96 0;
#X connect 99 1 96 1;
#X connect 100 0 111 0;
#X connect 100 1 110 0;
#X connect 100 2 109 0;
#X connect 100 3 108 0;
#X connect 100 4 107 0;
#X connect 100 5 106 0;
#X connect 100 6 105 0;
#X connect 100 7 104 0;
#X connect 100 8 103 0;
#X connect 100 9 102 0;
#X connect 102 0 98 0;
#X connect 103 0 98 0;
#X connect 104 0 98 0;
#X connect 105 0 98 0;
#X connect 106 0 98 0;
#X connect 107 0 98 0;
#X connect 108 0 98 0;
#X connect 109 0 98 0;
#X connect 110 0 98 0;
#X connect 111 0 98 0;
#X connect 112 0 113 0;
#X connect 113 0 117 0;
#X connect 115 0 112 0;
#X connect 115 1 112 1;
#X connect 117 0 127 0;
#X connect 117 1 126 0;
#X connect 117 2 125 0;
#X connect 117 3 124 0;
#X connect 117 4 123 0;
#X connect 117 5 122 0;
#X connect 117 6 121 0;
#X connect 117 7 120 0;
#X connect 117 8 119 0;
#X connect 117 9 118 0;
#X connect 118 0 114 0;
#X connect 119 0 114 0;
#X connect 120 0 114 0;
#X connect 121 0 114 0;
#X connect 122 0 114 0;
#X connect 123 0 114 0;
#X connect 124 0 114 0;
#X connect 125 0 114 0;
#X connect 126 0 114 0;
#X connect 127 0 114 0;
#X connect 128 0 129 0;
#X connect 129 0 133 0;
#X connect 131 0 128 0;
#X connect 131 1 128 1;
#X connect 133 0 143 0;
#X connect 133 1 142 0;
#X connect 133 2 141 0;
#X connect 133 3 140 0;
#X connect 133 4 139 0;
#X connect 133 5 138 0;
#X connect 133 6 137 0;
#X connect 133 7 136 0;
#X connect 133 8 135 0;
#X connect 133 9 134 0;
#X connect 134 0 130 0;
#X connect 135 0 130 0;
#X connect 136 0 130 0;
#X connect 137 0 130 0;
#X connect 138 0 130 0;
#X connect 139 0 130 0;
#X connect 140 0 130 0;
#X connect 141 0 130 0;
#X connect 142 0 130 0;
#X connect 143 0 130 0;
#X connect 144 0 145 0;
#X connect 145 0 149 0;
#X connect 147 0 144 0;
#X connect 147 1 144 1;
#X connect 149 0 159 0;
#X connect 149 1 158 0;
#X connect 149 2 157 0;
#X connect 149 3 156 0;
#X connect 149 4 155 0;
#X connect 149 5 154 0;
#X connect 149 6 153 0;
#X connect 149 7 152 0;
#X connect 149 8 151 0;
#X connect 149 9 150 0;
#X connect 150 0 146 0;
#X connect 151 0 146 0;
#X connect 152 0 146 0;
#X connect 153 0 146 0;
#X connect 154 0 146 0;
#X connect 155 0 146 0;
#X connect 156 0 146 0;
#X connect 157 0 146 0;
#X connect 158 0 146 0;
#X connect 159 0 146 0;
#X connect 160 0 161 0;
#X connect 161 0 165 0;
#X connect 163 0 160 0;
#X connect 163 1 160 1;
#X connect 165 0 166 0;
#X connect 165 1 167 0;
#X connect 165 2 168 0;
#X connect 165 3 169 0;
#X connect 165 4 170 0;
#X connect 165 5 171 0;
#X connect 165 6 172 0;
#X connect 165 7 173 0;
#X connect 165 8 174 0;
#X connect 165 9 175 0;
#X connect 166 0 162 0;
#X connect 167 0 162 0;
#X connect 168 0 162 0;
#X connect 169 0 162 0;
#X connect 170 0 162 0;
#X connect 171 0 162 0;
#X connect 172 0 162 0;
#X connect 173 0 162 0;
#X connect 174 0 162 0;
#X connect 175 0 162 0;
#X connect 176 0 177 0;
#X connect 177 0 181 0;
#X connect 179 0 176 0;
#X connect 179 1 176 1;
#X connect 181 0 182 0;
#X connect 181 1 183 0;
#X connect 181 2 184 0;
#X connect 181 3 185 0;
#X connect 181 4 186 0;
#X connect 181 5 187 0;
#X connect 181 6 188 0;
#X connect 181 7 189 0;
#X connect 181 8 190 0;
#X connect 181 9 191 0;
#X connect 182 0 178 0;
#X connect 183 0 178 0;
#X connect 184 0 178 0;
#X connect 185 0 178 0;
#X connect 186 0 178 0;
#X connect 187 0 178 0;
#X connect 188 0 178 0;
#X connect 189 0 178 0;
#X connect 190 0 178 0;
#X connect 191 0 178 0;
#X restore 210 33 pd locura de midi;
#X obj 215 162 COREDOSMIMO;
#X obj 300 162 COREDOSMOM;
#X obj 377 161 CORECINCODUO;
#X obj 467 161 COREDOSWOM;
#X obj 544 161 COREDOSMOMISU;
#X obj 644 162 CORECORECORE;
#X obj 735 162 CORETRESTRES;
#X obj 829 162 COREMOMILA;
#X obj 913 160 COREOMIKI;
#X obj 515 99 t f f f f f f f f f f f f;
#X obj 5 100 t f f f f f f f f f f f f;
#X obj 997 160 OMIKICOREI;
#X obj 518 322 +~;
#X obj 518 348 outlet~;
#X text 70 26 GRABA;
#X obj 124 51 tgl 30 0 empty empty empty 17 7 0 10 -262144 -1 -1 1
1;
#X text 120 28 FLIP;
#X obj 189 68 t f f f f f f f f f f f f;
#X text 939 61 D E C A Y;
#X obj 69 9 inlet;
#X obj 118 4 inlet;
#X obj 893 22 loadbang;
#X msg 884 55 2500;
#X obj 975 38 r baeblade;
#X obj 711 13 ctlin;
#X obj 615 17 sel 0 127;
#X obj 772 12 sel 64;
#X msg 773 42 1;
#X msg 809 47 0;
#X obj 726 74 spigot;
#X obj 786 69 tgl 15 0 empty empty empty 17 7 0 10 -262144 -1 -1 1
1;
#X obj 515 62 line;
#X obj 638 68 line;
#X msg 638 42 60000 500;
#X msg 515 36 1850 500;
#X connect 0 0 15 0;
#X connect 1 0 14 0;
#X connect 2 0 17 1;
#X connect 3 0 17 0;
#X connect 4 0 2 2;
#X connect 4 1 3 2;
#X connect 4 2 5 2;
#X connect 4 3 6 2;
#X connect 4 4 7 2;
#X connect 4 5 8 2;
#X connect 4 6 9 2;
#X connect 4 7 10 2;
#X connect 4 8 11 2;
#X connect 4 9 12 2;
#X connect 4 10 16 2;
#X connect 4 11 13 2;
#X connect 5 0 17 0;
#X connect 6 0 17 1;
#X connect 7 0 17 1;
#X connect 8 0 17 1;
#X connect 9 0 17 0;
#X connect 10 0 17 0;
#X connect 11 0 17 0;
#X connect 12 0 17 0;
#X connect 13 0 17 1;
#X connect 14 0 2 3;
#X connect 14 1 3 3;
#X connect 14 2 5 3;
#X connect 14 3 6 3;
#X connect 14 4 7 3;
#X connect 14 5 8 3;
#X connect 14 6 9 3;
#X connect 14 7 10 3;
#X connect 14 8 11 3;
#X connect 14 9 12 3;
#X connect 14 10 13 3;
#X connect 14 11 16 3;
#X connect 15 0 2 0;
#X connect 15 1 3 0;
#X connect 15 2 5 0;
#X connect 15 3 6 0;
#X connect 15 4 7 0;
#X connect 15 5 8 0;
#X connect 15 6 9 0;
#X connect 15 7 10 0;
#X connect 15 8 11 0;
#X connect 15 9 12 0;
#X connect 15 10 13 0;
#X connect 15 11 16 0;
#X connect 16 0 17 1;
#X connect 17 0 18 0;
#X connect 20 0 22 0;
#X connect 22 0 2 1;
#X connect 22 1 3 1;
#X connect 22 2 5 1;
#X connect 22 3 6 1;
#X connect 22 4 7 1;
#X connect 22 5 8 1;
#X connect 22 6 9 1;
#X connect 22 7 10 1;
#X connect 22 8 11 1;
#X connect 22 9 12 1;
#X connect 22 10 13 1;
#X connect 22 11 16 1;
#X connect 24 0 0 0;
#X connect 25 0 20 0;
#X connect 26 0 27 0;
#X connect 27 0 1 0;
#X connect 28 0 1 0;
#X connect 29 0 30 0;
#X connect 29 1 31 0;
#X connect 30 0 39 0;
#X connect 30 1 38 0;
#X connect 31 0 32 0;
#X connect 31 1 33 0;
#X connect 32 0 35 0;
#X connect 33 0 35 0;
#X connect 34 0 1 0;
#X connect 35 0 34 1;
#X connect 36 0 34 0;
#X connect 37 0 34 0;
#X connect 38 0 37 0;
#X connect 39 0 36 0;
