#N canvas -17 36 1155 886 16;
#X floatatom -388 322 7 0 0 0 - - -;
#X floatatom -472 286 9 0 0 0 - - -;
#X text 438 418 WIN;
#X floatatom -371 286 9 0 0 0 - - -;
#X obj 247 397 hsl 120 15 0 1 0 0 empty empty empty -2 -8 0 10 -57266
-1 -1 0 1;
#X text 259 370 VOLFOLD;
#X obj 163 169 bng 25 250 50 0 empty empty empty 17 7 0 10 -167353
-1 -1;
#X text 133 192 SQ 0N;
#X floatatom -469 321 7 0 0 0 - - -;
#X text 407 318 Peaches;
#X obj 306 540 bng 25 250 50 0 empty empty empty 17 7 0 10 -167353
-1 -1;
#X text 286 517 TIKTOKERZ;
#X obj 338 541 hsl 50 25 0.001 0.3 0 0 empty empty empty -2 -8 0 10
-57266 -1 -1 0 1;
#X obj 279 540 bng 25 250 50 0 empty empty empty 17 7 0 10 -259941
-1 -1;
#X obj -647 205 FRRRRRRRRAM;
#X obj 253 437 hsl 120 15 0 250 0 0 empty empty empty -2 -8 0 10 -57266
-1 -1 0 1;
#X text 277 421 A M;
#X obj 280 574 hsl 110 12 0.001 900 0 0 empty empty empty -2 -8 0 10
-259758 -1 -1 0 1;
#X text 278 587 AMOUNT;
#X obj -429 411 s~ frama;
#X obj 407 572 hsl 180 20 0 59450 0 0 empty empty empty -2 -8 0 10
-134720 -1 -1 7902 1;
#X text 392 535 TIME;
#X obj 515 614 hsl 110 20 0.001 0.987 0 0 empty empty empty -2 -8 0
10 -259758 -1 -1 7175 1;
#X text 539 589 FDBCK;
#X obj -228 559 laylong;
#X obj -227 588 s~ flolo;
#X obj -81 589 loadbang;
#X obj 748 410 bng 25 250 50 0 empty empty empty 17 7 0 10 -77797 -1
-1;
#X obj 45 -21 coooocoooolaaaaseeee;
#X obj 783 440 bng 25 250 50 0 empty empty empty 17 7 0 10 -257985
-1 -1;
#X floatatom 750 441 2 0 0 0 - - -;
#X floatatom 787 471 2 0 0 0 - - -;
#X obj 587 489 hsl 180 15 -200 60 0 0 empty empty empty -2 -8 0 10
-61263 -1 -1 0 1;
#X obj 589 468 hsl 180 15 -2 500 0 0 empty empty empty -2 -8 0 10 -262130
-1 -1 0 1;
#X text 584 437 samplesizes;
#X obj 632 532 hsl 180 15 0 8900 0 0 empty empty empty -2 -8 0 10 -4034
-1 -1 0 1;
#X obj 632 554 hsl 180 15 0 10000 0 0 empty empty empty -2 -8 0 10
-257985 -1 -1 0 1;
#X text 738 507 Position;
#X text 840 441 1 fra 2 flo 3 co;
#X obj 1013 716 +~;
#X obj 916 493 r~ frama;
#X obj 987 532 *~;
#X obj 1020 494 r~ flolo;
#X obj 1032 533 *~;
#X obj 636 598 hsl 80 15 0 0.6 0 0 empty empty empty -2 -8 0 10 -101696
-1 -1 0 1;
#X obj 938 596 *~;
#X obj 910 565 r~ coco;
#X obj 643 645 hsl 80 15 0 1 0 0 empty empty empty -2 -8 0 10 -4034
-1 -1 0 1;
#X obj 988 594 *~;
#X obj 743 642 hsl 80 15 0 1 0 0 empty empty empty -2 -8 0 10 -257985
-1 -1 0 1;
#X obj 994 565 r~ lococ;
#X text 664 624 coco;
#X text 655 572 flolo;
#X text 747 617 lococ;
#X obj 987 630 +~;
#X obj 860 628 s~ locoroco;
#X obj 382 614 hsl 120 15 0 1 0 0 empty empty empty -2 -8 0 10 -57266
-1 -1 5712 1;
#X text 388 590 cocoamount;
#X text -112 497 o i o s;
#X obj 242 349 hsl 120 15 0 0.2 0 0 empty empty empty -2 -8 0 10 -57266
-1 -1 10900 1;
#X obj 713 394 bng 20 250 50 0 empty empty empty 17 7 0 10 -204608
-1 -1;
#X obj 717 440 bng 20 250 50 0 empty empty empty 17 7 0 10 -99865 -1
-1;
#X text 702 417 stop;
#X obj 781 373 bng 20 250 50 0 empty empty empty 17 7 0 10 -204608
-1 -1;
#X obj 783 412 bng 20 250 50 0 empty empty empty 17 7 0 10 -99865 -1
-1;
#X text 779 382 stop;
#X obj 225 294 hsl 600 15 -222 8900 0 0 empty empty empty -2 -8 0 10
-204786 -1 -1 0 1;
#X obj 739 601 hsl 80 15 0 1 0 0 empty empty empty -2 -8 0 10 -204800
-1 -1 7000 1;
#X obj 226 267 hsl 600 15 -808000 3.9e+006 0 0 empty empty empty -2
-8 0 10 -257985 -1 -1 0 1;
#X msg 126 803 \; coco normalize \;;
#X msg 125 855 \; loco normalize \;;
#X obj 222 185 bng 45 250 50 0 empty empty empty 17 7 0 10 -216932
-1 -1;
#X obj 274 210 bng 40 250 50 0 empty empty empty 17 7 0 10 -98090 -1
-1;
#X obj 323 192 bng 20 250 50 0 empty empty empty 17 7 0 10 -253955
-1 -1;
#X obj 324 219 bng 20 250 50 0 empty empty empty 17 7 0 10 -249566
-1 -1;
#X obj 350 193 bng 20 250 50 0 empty empty empty 17 7 0 10 -7736 -1
-1;
#X obj 350 218 bng 20 250 50 0 empty empty empty 17 7 0 10 -248524
-1 -1;
#X text 281 188 &H;
#X text 216 230 << ~~;
#X obj 150 131 hsl 50 25 0.001 9250 0 0 empty empty empty -2 -8 0 10
-57266 -1 -1 271 1;
#X text 745 575 NORMCORE;
#X text 224 325 PIEDROZA ONLINE;
#X obj 393 371 hsl 120 15 -70 52 0 0 empty empty empty -2 -8 0 10 -180173
-1 -1 9364 1;
#X obj 388 344 hsl 120 15 -92 85 0 0 empty empty empty -2 -8 0 10 -180173
-1 -1 5916 1;
#X msg 123 220 0;
#X obj 400 472 hsl 120 15 -2 1805 0 0 empty empty empty -2 -8 0 10
-243531 -1 -1 9587 1;
#X obj 406 495 hsl 120 15 -2 1805 0 0 empty empty empty -2 -8 0 10
-243531 -1 -1 2158 1;
#X msg 164 220 120;
#X obj -678 41 loadbang;
#X text 200 148 p i e d r o l o g y;
#X text -230 474 A M I K O S 2;
#N canvas 1456 295 450 339 tablasdemultiplicar 0;
#N canvas 0 0 450 300 (subpatch) 0;
#X array coco 1.485e+006 float 2;
#X coords 0 1 1.485e+006 -1 200 140 1 0 0;
#X restore 81 -2 graph;
#N canvas 0 0 450 300 (subpatch) 0;
#X array loco 1.485e+006 float 2;
#X coords 0 1 1.485e+006 -1 200 140 1 0 0;
#X restore 111 167 graph;
#X restore 125 906 pd tablasdemultiplicar;
#X text 112 132 [ ];
#X obj 253 489 hsl 120 15 0 0.89 0 0 empty empty empty -2 -8 0 10 -7399
-1 -1 0 1;
#X text -188 20 A M I K O S;
#X msg -81 616 105;
#X obj -231 157 r time;
#X obj -161 153 r witm;
#X obj -299 89 r witt;
#X obj 401 448 hsl 120 15 -2 4805 0 0 empty empty empty -2 -8 0 10
-243531 -1 -1 2236 1;
#X obj 275 -9 r lol;
#X obj 280 23 r lmao;
#X obj -25 11 r lola;
#X obj 122 -1 r carro;
#X obj 11 114 r nuevo;
#X obj 489 762 WANDOOOOOWALK;
#X floatatom 408 759 5 0.2 5200 0 - - -;
#X obj 455 740 tgl 15 0 empty empty empty 17 7 0 10 -262144 -1 -1 0
1;
#X obj 489 738 tgl 15 0 empty empty empty 17 7 0 10 -262144 -1 -1 0
1;
#X obj 513 741 tgl 15 0 empty empty empty 17 7 0 10 -262144 -1 -1 0
1;
#X obj 666 738 tgl 15 0 empty empty empty 17 7 0 10 -262144 -1 -1 0
1;
#X obj 549 740 tgl 15 0 empty empty empty 17 7 0 10 -262144 -1 -1 0
1;
#X obj 580 739 tgl 15 0 empty empty empty 17 7 0 10 -262144 -1 -1 0
1;
#X obj 616 741 tgl 15 0 empty empty empty 17 7 0 10 -262144 -1 -1 0
1;
#X obj 691 740 tgl 15 0 empty empty empty 17 7 0 10 -262144 -1 -1 0
1;
#X obj 642 737 tgl 15 0 empty empty empty 17 7 0 10 -262144 -1 -1 0
1;
#X obj -23 -19 r sama;
#X obj 729 738 tgl 15 0 empty empty empty 17 7 0 10 -262144 -1 -1 0
1;
#X obj -314 220 r vo;
#X obj 766 740 tgl 15 0 empty empty empty 17 7 0 10 -262144 -1 -1 0
1;
#X obj -314 248 r vol;
#X obj 806 741 tgl 15 0 empty empty empty 17 7 0 10 -262144 -1 -1 0
1;
#X obj -133 647 r sweepo;
#X obj -131 675 r eepo;
#X obj 706 -5 loadbang;
#X msg 710 29 \; eepo 104 \;;
#X obj 410 159 tgl 30 0 empty empty empty 17 7 0 10 -249797 -1 -1 0
1;
#X obj 461 -47 metro;
#X floatatom 501 -81 5 0 0 0 - - -;
#X obj 478 -15 metro;
#X floatatom 525 -47 5 0 0 0 - - -;
#X obj 515 19 metro;
#X obj 532 51 metro;
#X floatatom 579 19 5 0 0 0 - - -;
#X floatatom 552 -16 5 0 0 0 - - -;
#X obj 482 -123 t t t t t;
#X obj 461 -235 t b b b b b b;
#X obj 430 202 bng 32 250 50 0 empty empty empty 17 7 0 10 -191407
-1 -1;
#X obj 521 -190 shuffle 12 4620 2200;
#X text 443 171 SelfPress;
#X text 472 212 SPZZ;
#X obj 875 201 shuffle -95 75 65;
#X obj 887 228 bucket 2;
#X obj 901 165 metro;
#X floatatom 969 86 5 0 0 0 - - -;
#X obj 521 343 tgl 42 0 empty empty empty 17 7 0 10 -110556 -1 -1 0
1;
#X obj 940 135 * 0.4;
#X obj 840 165 * 0.2;
#X text 531 388 Get Stitches;
#X obj 900 279 metro;
#X obj 573 350 tgl 25 0 empty empty empty 17 7 0 10 -110556 -1 -1 0
1;
#X obj -339 29 line;
#X msg -274 -11 1802 2499;
#X obj -562 13 line;
#X msg -619 -53 2 2499;
#X obj -351 -10 line;
#X obj -470 30 metro;
#X obj -449 74 f;
#X obj -395 75 + 1;
#X obj -452 109 % 2;
#X obj 484 415 tgl 25 0 empty empty empty 17 7 0 10 -221056 -1 -1 1
1;
#X obj -405 106 sel 1 0;
#X msg -396 -37 2 549;
#X msg -497 -27 1802 599;
#X msg -408 -76 2 499;
#X msg -286 -50 1802 499;
#X obj -413 14 * 17;
#X obj -80 -175 f;
#X obj -26 -174 + 1;
#X obj -83 -140 % 2;
#X obj -36 -143 sel 1 0;
#X obj 79 -129 metro;
#X obj -87 -38 line;
#X obj 390 391 tgl 25 0 empty empty empty 17 7 0 10 -262144 -1 -1 0
1;
#X obj -204 -121 line;
#X msg -210 -150 88 9500;
#X obj 154 704 cyclone/out~;
#X obj -238 651;
#X msg 573 323 0, f 1;
#X obj 608 359 bng 15 250 50 0 empty empty empty 17 7 0 10 -262144
-1 -1;
#X obj 914 321 f;
#X obj 964 322 + 1;
#X obj 915 356 % 2;
#X obj 956 354 sel 0 1;
#X msg 955 386 12;
#X msg 1002 383 0;
#X obj 1038 288 metro;
#X obj 1052 330 f;
#X obj 1102 331 + 1;
#X msg 1093 395 12;
#X msg 1140 392 0;
#X obj 1053 365 % 4;
#X obj 1100 362 sel 0 1 2 3;
#X msg 1189 397 -12;
#X msg 1236 394 7;
#X obj 602 331 tgl 15 0 empty empty empty 17 7 0 10 -262144 -1 -1 0
1;
#X obj 1157 446 f;
#X obj 1207 447 + 1;
#X msg 1245 508 0;
#X obj 1158 481 % 4;
#X obj 1205 478 sel 0 1 2 3;
#X msg 1198 511 -12;
#X msg 1294 513 12;
#X msg 1341 510 -7;
#X obj 1061 253 * 0.5;
#X obj 1199 244 metro;
#X obj 1213 286 f;
#X obj 1263 287 + 1;
#X msg 1301 348 0;
#X obj 1222 209 * 0.5;
#X msg 1254 351 -12;
#X msg 1350 353 -24;
#X obj 1214 321 % 8;
#X obj 1316 303 sel 0 1 2 3 4 5 6 7;
#X msg 1491 349 0;
#X msg 1540 354 -24;
#X msg 1587 351 7;
#X obj 839 111 bucket 10;
#X obj 602 380 tgl 15 0 empty empty empty 17 7 0 10 -262144 -1 -1 0
1;
#X msg 1444 352 -12;
#X msg 1395 339 0;
#X obj 448 519 bng 22 250 50 0 empty empty empty 17 7 0 10 -258113
-1 -1;
#X obj 475 520 bng 22 250 50 0 empty empty empty 17 7 0 10 -258113
-1 -1;
#X msg -74 526 2.3;
#X floatatom 366 638 12 0 0 0 - - -;
#X obj 504 519 bng 22 250 50 0 empty empty empty 17 7 0 10 -258113
-1 -1;
#X obj 531 520 bng 22 250 50 0 empty empty empty 17 7 0 10 -258113
-1 -1;
#X obj 560 519 bng 22 250 50 0 empty empty empty 17 7 0 10 -258113
-1 -1;
#X obj 587 520 bng 22 250 50 0 empty empty empty 17 7 0 10 -258113
-1 -1;
#X msg 17 706 1.85;
#X msg 27 743 20.456;
#X obj 445 545 bng 22 250 50 0 empty empty empty 17 7 0 10 -258113
-1 -1;
#X obj 474 547 bng 22 250 50 0 empty empty empty 17 7 0 10 -258113
-1 -1;
#X obj 503 546 bng 22 250 50 0 empty empty empty 17 7 0 10 -258113
-1 -1;
#X obj 529 545 bng 22 250 50 0 empty empty empty 17 7 0 10 -258113
-1 -1;
#X obj 557 545 bng 22 250 50 0 empty empty empty 17 7 0 10 -258113
-1 -1;
#X obj 584 546 bng 22 250 50 0 empty empty empty 17 7 0 10 -258113
-1 -1;
#X msg -70 724 28.256;
#X msg -65 766 42.56;
#X msg 4 784 172.56;
#X msg -70 806 12.6;
#X msg 15 814 36;
#X msg 85 814 77;
#X msg 32 655 50.456;
#X msg 22 618 280.23;
#X msg 3 512 10.17;
#X msg -227 -178 -20 2500;
#X msg -110 -95 -38 2500;
#X msg -93 -67 98 9500;
#X floatatom 399 706 5 0.2 5200 0 - - -;
#X obj 446 687 tgl 15 0 empty empty empty 17 7 0 10 -262144 -1 -1 0
1;
#X obj 480 685 tgl 15 0 empty empty empty 17 7 0 10 -262144 -1 -1 0
1;
#X obj 504 688 tgl 15 0 empty empty empty 17 7 0 10 -262144 -1 -1 0
1;
#X obj 657 685 tgl 15 0 empty empty empty 17 7 0 10 -262144 -1 -1 0
1;
#X obj 540 687 tgl 15 0 empty empty empty 17 7 0 10 -262144 -1 -1 0
1;
#X obj 571 686 tgl 15 0 empty empty empty 17 7 0 10 -262144 -1 -1 0
1;
#X obj 607 688 tgl 15 0 empty empty empty 17 7 0 10 -262144 -1 -1 0
1;
#X obj 682 687 tgl 15 0 empty empty empty 17 7 0 10 -262144 -1 -1 0
1;
#X obj 633 684 tgl 15 0 empty empty empty 17 7 0 10 -262144 -1 -1 0
1;
#X obj 720 685 tgl 15 0 empty empty empty 17 7 0 10 -262144 -1 -1 0
1;
#X obj 757 687 tgl 15 0 empty empty empty 17 7 0 10 -262144 -1 -1 0
1;
#X obj 797 688 tgl 15 0 empty empty empty 17 7 0 10 -262144 -1 -1 0
1;
#X obj 480 709 WANDOOOOOWALK2;
#N canvas 391 180 1367 810 press 1;
#X obj 55 30 key;
#X floatatom 51 73 5 0 0 0 - - -;
#X obj 98 35 sel 113;
#X obj 108 73 s uni;
#X obj 195 33 key;
#X floatatom 191 76 5 0 0 0 - - -;
#X obj 238 38 sel 119;
#X obj 248 76 s unito;
#X obj 48 112 key;
#X floatatom 44 155 5 0 0 0 - - -;
#X obj 91 117 sel 101;
#X obj 101 155 s madox;
#X obj 200 114 key;
#X floatatom 196 147 5 0 0 0 - - -;
#X obj 243 119 sel 50;
#X obj 253 147 s madoxx;
#X obj 67 195 key;
#X floatatom 63 228 5 0 0 0 - - -;
#X obj 110 200 sel 49;
#X obj 120 228 s madxx;
#X obj 201 198 key;
#X floatatom 197 231 5 0 0 0 - - -;
#X obj 244 203 sel 51;
#X obj 254 231 s mad;
#X obj 324 198 key;
#X floatatom 320 231 5 0 0 0 - - -;
#X obj 377 231 s dmpoe;
#X obj 352 -3 key;
#X floatatom 348 30 5 0 0 0 - - -;
#X obj 388 -3 sel 124;
#X obj 406 26 f;
#X obj 350 55 t f;
#X obj 447 27 - 1;
#X floatatom 391 56 5 0 0 0 - - -;
#X obj 447 56 moses -93;
#X floatatom 494 102 5 0 0 0 - - -;
#X obj 353 91 key;
#X floatatom 349 124 5 0 0 0 - - -;
#X obj 407 120 f;
#X obj 351 149 t f;
#X obj 448 121 + 1;
#X obj 389 91 sel 52;
#X obj 399 150 moses 84;
#X obj 506 133 s quep;
#X obj 464 198 key;
#X floatatom 460 231 5 0 0 0 - - -;
#X obj 507 203 sel 53;
#X obj 517 231 s dmh;
#X obj 367 203 sel 27;
#X obj 584 -4 key;
#X floatatom 580 29 5 0 0 0 - - -;
#X obj 638 25 f;
#X obj 582 54 t f;
#X obj 679 26 - 1;
#X floatatom 623 55 5 0 0 0 - - -;
#X obj 679 55 moses -93;
#X floatatom 726 101 5 0 0 0 - - -;
#X obj 585 90 key;
#X floatatom 581 123 5 0 0 0 - - -;
#X obj 639 119 f;
#X obj 583 148 t f;
#X obj 680 120 + 1;
#X obj 631 149 moses 84;
#X obj 620 -4 sel 9;
#X obj 621 90 sel 114;
#X obj 728 139 s quepop;
#X obj 580 200 key;
#X floatatom 576 233 5 0 0 0 - - -;
#X obj 623 205 sel 116;
#X obj 633 233 s dmm;
#X obj 60 264 key;
#X floatatom 56 297 5 0 0 0 - - -;
#X obj 103 269 sel 54;
#X obj 113 297 s dmoe;
#X obj 197 262 key;
#X floatatom 193 295 5 0 0 0 - - -;
#X obj 240 267 sel 121;
#X obj 250 295 s cientovein;
#X obj 393 262 key;
#X floatatom 389 295 5 0 0 0 - - -;
#X obj 436 267 sel 55;
#X obj 446 295 s cv;
#X obj 513 267 key;
#X floatatom 509 300 5 0 0 0 - - -;
#X obj 556 272 sel 56;
#X obj 566 300 s cvv;
#X obj 730 192 key;
#X floatatom 726 225 5 0 0 0 - - -;
#X obj 784 221 f;
#X obj 728 250 t f;
#X floatatom 769 251 5 0 0 0 - - -;
#X floatatom 872 297 5 0 0 0 - - -;
#X obj 731 286 key;
#X floatatom 727 319 5 0 0 0 - - -;
#X obj 785 315 f;
#X obj 729 344 t f;
#X obj 825 251 moses -2;
#X obj 777 345 moses 1806;
#X obj 897 336 s epop;
#X obj 766 192 sel 111;
#X obj 767 286 sel 112;
#X obj 749 391 key;
#X floatatom 745 424 5 0 0 0 - - -;
#X obj 803 420 f;
#X obj 747 449 t f;
#X floatatom 788 450 5 0 0 0 - - -;
#X floatatom 891 496 5 0 0 0 - - -;
#X obj 750 485 key;
#X floatatom 746 518 5 0 0 0 - - -;
#X obj 804 514 f;
#X obj 748 543 t f;
#X obj 844 450 moses -2;
#X obj 796 544 moses 1806;
#X obj 785 391 sel 39;
#X obj 786 485 sel 191;
#X obj 916 535 s eipop;
#X obj 845 515 + 4;
#X obj 844 421 - 4;
#X obj 826 316 + 8;
#X obj 825 222 - 8;
#X obj 490 379 key;
#X floatatom 486 412 5 0 0 0 - - -;
#X obj 544 408 f;
#X obj 488 437 t f;
#X floatatom 529 438 5 0 0 0 - - -;
#X floatatom 632 484 5 0 0 0 - - -;
#X obj 491 473 key;
#X floatatom 487 506 5 0 0 0 - - -;
#X obj 545 502 f;
#X obj 489 531 t f;
#X obj 585 438 moses -2;
#X obj 526 379 sel 108;
#X obj 527 473 sel 241;
#X obj 657 523 s keipop;
#X obj 537 532 moses 4806;
#X obj 586 503 + 12;
#X obj 585 409 - 16;
#X obj 347 329 key;
#X floatatom 343 362 5 0 0 0 - - -;
#X obj 390 334 sel 43;
#X obj 400 362 s ccb;
#X obj 862 11 key;
#X floatatom 858 44 5 0 0 0 - - -;
#X obj 916 40 f;
#X obj 860 69 t f;
#X floatatom 901 70 5 0 0 0 - - -;
#X floatatom 986 105 5 0 0 0 - - -;
#X obj 863 105 key;
#X floatatom 859 138 5 0 0 0 - - -;
#X obj 917 134 f;
#X obj 861 163 t f;
#X obj 957 70 moses -2;
#X obj 909 164 moses 1806;
#X obj 898 11 sel 122;
#X obj 1024 136 s elop;
#X obj 899 105 sel 118;
#X obj 957 41 - 128;
#X obj 958 135 + 254;
#X obj 981 11 key;
#X floatatom 1015 40 5 0 0 0 - - -;
#X obj 1072 41 f;
#X obj 1050 70 t f;
#X obj 1091 72 key;
#X floatatom 1059 104 5 0 0 0 - - -;
#X obj 1117 100 f;
#X obj 1096 131 t f;
#X obj 1158 101 + 2;
#X obj 1113 42 - 1;
#X obj 1017 11 sel 120;
#X obj 1127 72 sel 99;
#X obj 1033 315 key;
#X floatatom 1029 348 5 0 0 0 - - -;
#X obj 1087 344 f;
#X obj 1031 373 t f;
#X floatatom 1072 374 5 0 0 0 - - -;
#X floatatom 1197 414 5 0 0 0 - - -;
#X obj 1034 409 key;
#X floatatom 1030 442 5 0 0 0 - - -;
#X obj 1088 438 f;
#X obj 1032 467 t f;
#X obj 1128 374 moses -2;
#X obj 1080 468 moses 1806;
#X obj 1069 315 sel 44;
#X obj 1070 409 sel 46;
#X obj 1128 345 - 0.01;
#X obj 1200 459 s murr;
#X obj 1129 439 + 0.01;
#X text 918 199 K O M AA N D O;
#X text 920 209 K O M AA N D O;
#X text 928 209 K O M AA N D O;
#X text 930 219 K O M AA N D O;
#X text 938 219 K O M AA N D O;
#X text 940 229 K O M AA N D O;
#X text 948 229 K O M AA N D O;
#X text 950 239 K O M AA N D O;
#X text 963 247 K O M AA N D O;
#X text 965 257 K O M AA N D O;
#X text 268 429 K O M AA N D O;
#X text 975 267 K O M AA N D O;
#X text 117 363 K O M AA N D O;
#X text 985 277 K O M AA N D O;
#X text 993 277 K O M AA N D O;
#X text 1032 288 K O M AA N D O;
#X obj 1052 501 key;
#X obj 1052 529 sel 45;
#X obj 1048 557 f;
#X obj 1093 559 + 1;
#X obj 1046 591 % 6;
#X floatatom 1095 588 5 0 0 0 - - -;
#X obj 1095 615 sel 0 1 2 3 4 5;
#X msg 1058 646 0;
#X msg 1109 646 0.2;
#X msg 1160 644 0.45;
#X msg 1158 672 0.65;
#X msg 1176 705 0.999;
#X msg 1085 680 0.865;
#X obj 1057 725 s ayuda;
#X connect 0 0 1 0;
#X connect 1 0 2 0;
#X connect 2 0 3 0;
#X connect 4 0 5 0;
#X connect 5 0 6 0;
#X connect 6 0 7 0;
#X connect 8 0 9 0;
#X connect 9 0 10 0;
#X connect 10 0 11 0;
#X connect 12 0 13 0;
#X connect 13 0 14 0;
#X connect 14 0 15 0;
#X connect 16 0 17 0;
#X connect 17 0 18 0;
#X connect 18 0 19 0;
#X connect 20 0 21 0;
#X connect 21 0 22 0;
#X connect 22 0 23 0;
#X connect 24 0 25 0;
#X connect 25 0 48 0;
#X connect 27 0 28 0;
#X connect 28 0 29 0;
#X connect 29 0 30 0;
#X connect 30 0 32 0;
#X connect 31 0 30 1;
#X connect 32 0 33 0;
#X connect 33 0 31 0;
#X connect 33 0 34 0;
#X connect 33 0 39 0;
#X connect 33 0 42 0;
#X connect 34 1 35 0;
#X connect 35 0 43 0;
#X connect 36 0 37 0;
#X connect 37 0 41 0;
#X connect 38 0 40 0;
#X connect 39 0 38 1;
#X connect 40 0 33 0;
#X connect 41 0 38 0;
#X connect 42 0 35 0;
#X connect 44 0 45 0;
#X connect 45 0 46 0;
#X connect 46 0 47 0;
#X connect 48 0 26 0;
#X connect 49 0 50 0;
#X connect 50 0 63 0;
#X connect 51 0 53 0;
#X connect 52 0 51 1;
#X connect 53 0 54 0;
#X connect 54 0 52 0;
#X connect 54 0 55 0;
#X connect 54 0 60 0;
#X connect 54 0 62 0;
#X connect 55 1 56 0;
#X connect 56 0 65 0;
#X connect 57 0 58 0;
#X connect 58 0 64 0;
#X connect 59 0 61 0;
#X connect 60 0 59 1;
#X connect 61 0 54 0;
#X connect 62 0 56 0;
#X connect 63 0 51 0;
#X connect 64 0 59 0;
#X connect 66 0 67 0;
#X connect 67 0 68 0;
#X connect 68 0 69 0;
#X connect 70 0 71 0;
#X connect 71 0 72 0;
#X connect 72 0 73 0;
#X connect 74 0 75 0;
#X connect 75 0 76 0;
#X connect 76 0 77 0;
#X connect 78 0 79 0;
#X connect 79 0 80 0;
#X connect 80 0 81 0;
#X connect 82 0 83 0;
#X connect 83 0 84 0;
#X connect 84 0 85 0;
#X connect 86 0 87 0;
#X connect 87 0 99 0;
#X connect 88 0 119 0;
#X connect 89 0 88 1;
#X connect 90 0 89 0;
#X connect 90 0 95 0;
#X connect 90 0 96 0;
#X connect 90 0 97 0;
#X connect 91 0 98 0;
#X connect 92 0 93 0;
#X connect 93 0 100 0;
#X connect 94 0 118 0;
#X connect 95 0 94 1;
#X connect 96 1 91 0;
#X connect 97 0 91 0;
#X connect 99 0 88 0;
#X connect 100 0 94 0;
#X connect 101 0 102 0;
#X connect 102 0 113 0;
#X connect 103 0 117 0;
#X connect 104 0 103 1;
#X connect 105 0 104 0;
#X connect 105 0 110 0;
#X connect 105 0 111 0;
#X connect 105 0 112 0;
#X connect 106 0 115 0;
#X connect 107 0 108 0;
#X connect 108 0 114 0;
#X connect 109 0 116 0;
#X connect 110 0 109 1;
#X connect 111 1 106 0;
#X connect 112 0 106 0;
#X connect 113 0 103 0;
#X connect 114 0 109 0;
#X connect 116 0 105 0;
#X connect 117 0 105 0;
#X connect 118 0 90 0;
#X connect 119 0 90 0;
#X connect 120 0 121 0;
#X connect 121 0 131 0;
#X connect 122 0 136 0;
#X connect 123 0 122 1;
#X connect 124 0 123 0;
#X connect 124 0 129 0;
#X connect 124 0 130 0;
#X connect 124 0 134 0;
#X connect 125 0 133 0;
#X connect 126 0 127 0;
#X connect 127 0 132 0;
#X connect 128 0 135 0;
#X connect 129 0 128 1;
#X connect 130 1 125 0;
#X connect 131 0 122 0;
#X connect 132 0 128 0;
#X connect 134 0 125 0;
#X connect 135 0 124 0;
#X connect 136 0 124 0;
#X connect 137 0 138 0;
#X connect 138 0 139 0;
#X connect 139 0 140 0;
#X connect 141 0 142 0;
#X connect 142 0 153 0;
#X connect 143 0 156 0;
#X connect 144 0 143 1;
#X connect 145 0 144 0;
#X connect 145 0 150 0;
#X connect 145 0 151 0;
#X connect 145 0 152 0;
#X connect 145 0 165 0;
#X connect 145 0 161 0;
#X connect 146 0 154 0;
#X connect 147 0 148 0;
#X connect 148 0 155 0;
#X connect 149 0 157 0;
#X connect 150 0 149 1;
#X connect 151 1 146 0;
#X connect 152 0 146 0;
#X connect 153 0 143 0;
#X connect 155 0 149 0;
#X connect 156 0 145 0;
#X connect 157 0 145 0;
#X connect 158 0 159 0;
#X connect 159 0 168 0;
#X connect 160 0 167 0;
#X connect 161 0 160 1;
#X connect 162 0 163 0;
#X connect 163 0 169 0;
#X connect 164 0 166 0;
#X connect 165 0 164 1;
#X connect 166 0 145 0;
#X connect 167 0 145 0;
#X connect 168 0 160 0;
#X connect 169 0 164 0;
#X connect 170 0 171 0;
#X connect 171 0 182 0;
#X connect 172 0 184 0;
#X connect 173 0 172 1;
#X connect 174 0 173 0;
#X connect 174 0 179 0;
#X connect 174 0 180 0;
#X connect 174 0 181 0;
#X connect 175 0 185 0;
#X connect 176 0 177 0;
#X connect 177 0 183 0;
#X connect 178 0 186 0;
#X connect 179 0 178 1;
#X connect 180 1 175 0;
#X connect 181 0 175 0;
#X connect 182 0 172 0;
#X connect 183 0 178 0;
#X connect 184 0 174 0;
#X connect 186 0 174 0;
#X connect 203 0 204 0;
#X connect 204 0 205 0;
#X connect 205 0 206 0;
#X connect 205 0 207 0;
#X connect 206 0 205 1;
#X connect 207 0 208 0;
#X connect 208 0 209 0;
#X connect 209 0 210 0;
#X connect 209 1 211 0;
#X connect 209 2 212 0;
#X connect 209 3 213 0;
#X connect 209 4 215 0;
#X connect 209 5 214 0;
#X connect 210 0 216 0;
#X connect 211 0 216 0;
#X connect 212 0 216 0;
#X connect 213 0 216 0;
#X connect 214 0 216 0;
#X connect 215 0 216 0;
#X restore 1153 89 pd press;
#X obj 367 53 r uni;
#X obj 443 58 r unito;
#X obj 358 4 r madox;
#X obj 269 48 r madoxx;
#X obj 163 68 r madxx;
#X obj 601 72 r mad;
#X obj 601 44 r dmpoe;
#X obj 668 72 r quep;
#X obj 861 66 r dmh;
#X obj 759 72 r quepop;
#X obj 57 55 r dmm;
#X obj 918 42 r dmoe;
#X obj 822 -5 r cientovein;
#X obj 963 9 r cv;
#X obj 838 224 r cvv;
#X obj 1071 745 r epop;
#X obj 1028 790 r eipop;
#X obj 1150 782 r keipop;
#X obj 868 419 r ccb;
#X obj 1208 616 loadbang;
#X msg 1210 669 1;
#X obj 1084 205 r elop;
#X obj 840 504 r murr;
#X obj 828 823 r ayuda;
#X connect 0 0 14 5;
#X connect 1 0 14 7;
#X connect 3 0 14 9;
#X connect 4 0 14 4;
#X connect 6 0 14 0;
#X connect 8 0 14 1;
#X connect 10 0 14 19;
#X connect 12 0 14 18;
#X connect 13 0 14 13;
#X connect 14 0 19 0;
#X connect 15 0 14 6;
#X connect 17 0 14 14;
#X connect 20 0 24 1;
#X connect 20 0 224 0;
#X connect 22 0 24 2;
#X connect 24 0 25 0;
#X connect 26 0 95 0;
#X connect 27 0 28 7;
#X connect 28 0 30 0;
#X connect 28 1 31 0;
#X connect 29 0 28 9;
#X connect 32 0 28 6;
#X connect 33 0 28 10;
#X connect 35 0 28 5;
#X connect 36 0 28 3;
#X connect 39 0 176 0;
#X connect 39 0 176 1;
#X connect 40 0 41 0;
#X connect 41 0 39 0;
#X connect 42 0 43 0;
#X connect 43 0 39 1;
#X connect 44 0 43 1;
#X connect 45 0 54 0;
#X connect 46 0 45 0;
#X connect 47 0 45 1;
#X connect 48 0 54 1;
#X connect 49 0 48 1;
#X connect 50 0 48 0;
#X connect 54 0 39 0;
#X connect 54 0 55 0;
#X connect 56 0 24 0;
#X connect 59 0 14 2;
#X connect 60 0 28 2;
#X connect 61 0 28 4;
#X connect 63 0 28 8;
#X connect 64 0 28 1;
#X connect 66 0 28 0;
#X connect 67 0 41 1;
#X connect 68 0 28 13;
#X connect 71 0 14 16;
#X connect 72 0 14 17;
#X connect 73 0 14 11;
#X connect 74 0 14 12;
#X connect 75 0 14 10;
#X connect 76 0 14 8;
#X connect 79 0 14 3;
#X connect 82 0 8 0;
#X connect 83 0 0 0;
#X connect 84 0 83 0;
#X connect 84 0 82 0;
#X connect 85 0 1 0;
#X connect 86 0 3 0;
#X connect 87 0 85 0;
#X connect 87 0 86 0;
#X connect 88 0 87 0;
#X connect 88 0 84 0;
#X connect 93 0 14 15;
#X connect 96 0 20 0;
#X connect 97 0 86 0;
#X connect 98 0 85 0;
#X connect 98 0 99 0;
#X connect 99 0 14 20;
#X connect 100 0 35 0;
#X connect 101 0 36 0;
#X connect 102 0 66 0;
#X connect 103 0 33 0;
#X connect 104 0 32 0;
#X connect 106 0 166 0;
#X connect 106 0 105 8;
#X connect 107 0 105 2;
#X connect 108 0 105 3;
#X connect 109 0 105 6;
#X connect 110 0 105 7;
#X connect 111 0 105 10;
#X connect 112 0 105 11;
#X connect 113 0 105 0;
#X connect 114 0 105 9;
#X connect 115 0 105 1;
#X connect 116 0 68 0;
#X connect 117 0 105 4;
#X connect 118 0 59 0;
#X connect 119 0 105 5;
#X connect 120 0 4 0;
#X connect 121 0 105 12;
#X connect 124 0 125 0;
#X connect 126 0 135 0;
#X connect 127 0 73 0;
#X connect 128 0 127 1;
#X connect 129 0 76 0;
#X connect 130 0 129 1;
#X connect 131 0 75 0;
#X connect 132 0 74 0;
#X connect 133 0 132 1;
#X connect 134 0 131 1;
#X connect 135 0 129 0;
#X connect 135 1 127 0;
#X connect 135 2 131 0;
#X connect 135 3 132 0;
#X connect 136 0 138 0;
#X connect 136 1 138 0;
#X connect 136 2 138 0;
#X connect 136 3 138 0;
#X connect 136 4 138 0;
#X connect 136 5 138 0;
#X connect 137 0 136 0;
#X connect 138 0 217 0;
#X connect 141 0 142 0;
#X connect 142 0 83 0;
#X connect 142 1 82 0;
#X connect 143 0 141 0;
#X connect 144 0 146 0;
#X connect 145 0 143 0;
#X connect 146 0 143 1;
#X connect 147 0 79 0;
#X connect 149 0 180 0;
#X connect 150 0 149 0;
#X connect 151 0 86 0;
#X connect 152 0 151 0;
#X connect 153 0 85 0;
#X connect 154 0 153 0;
#X connect 155 0 99 0;
#X connect 156 0 157 0;
#X connect 157 0 158 0;
#X connect 157 0 159 0;
#X connect 158 0 157 1;
#X connect 159 0 161 0;
#X connect 160 0 156 0;
#X connect 161 0 162 0;
#X connect 161 0 154 0;
#X connect 161 0 164 0;
#X connect 161 1 152 0;
#X connect 161 1 163 0;
#X connect 161 1 165 0;
#X connect 162 0 151 0;
#X connect 163 0 153 0;
#X connect 164 0 155 0;
#X connect 165 0 155 0;
#X connect 166 0 156 1;
#X connect 167 0 168 0;
#X connect 167 0 169 0;
#X connect 168 0 167 1;
#X connect 169 0 170 0;
#X connect 170 0 247 0;
#X connect 170 0 175 0;
#X connect 170 1 248 0;
#X connect 170 1 246 0;
#X connect 171 0 167 0;
#X connect 172 0 82 0;
#X connect 173 0 171 0;
#X connect 174 0 83 0;
#X connect 175 0 174 0;
#X connect 178 0 83 0;
#X connect 178 0 82 0;
#X connect 179 0 178 0;
#X connect 180 0 181 0;
#X connect 180 0 182 0;
#X connect 181 0 180 1;
#X connect 182 0 183 0;
#X connect 183 0 184 0;
#X connect 183 1 185 0;
#X connect 184 0 83 0;
#X connect 185 0 83 0;
#X connect 186 0 187 0;
#X connect 186 0 196 0;
#X connect 187 0 188 0;
#X connect 187 0 191 0;
#X connect 188 0 187 1;
#X connect 189 0 83 0;
#X connect 190 0 83 0;
#X connect 191 0 192 0;
#X connect 192 0 189 0;
#X connect 192 1 190 0;
#X connect 192 2 193 0;
#X connect 192 3 194 0;
#X connect 193 0 83 0;
#X connect 194 0 83 0;
#X connect 195 0 186 0;
#X connect 196 0 197 0;
#X connect 196 0 199 0;
#X connect 197 0 196 1;
#X connect 198 0 82 0;
#X connect 199 0 200 0;
#X connect 200 0 201 0;
#X connect 200 1 198 0;
#X connect 200 2 202 0;
#X connect 200 3 203 0;
#X connect 201 0 82 0;
#X connect 202 0 82 0;
#X connect 204 0 186 1;
#X connect 205 0 206 0;
#X connect 206 0 207 0;
#X connect 206 0 212 0;
#X connect 207 0 206 1;
#X connect 208 0 83 0;
#X connect 209 0 205 1;
#X connect 210 0 83 0;
#X connect 211 0 83 0;
#X connect 212 0 213 0;
#X connect 213 0 210 0;
#X connect 213 1 208 0;
#X connect 213 2 211 0;
#X connect 213 3 220 0;
#X connect 213 5 219 0;
#X connect 213 6 214 0;
#X connect 213 7 215 0;
#X connect 214 0 83 0;
#X connect 215 0 83 0;
#X connect 217 0 128 0;
#X connect 217 1 130 0;
#X connect 217 2 134 0;
#X connect 217 3 133 0;
#X connect 217 4 144 0;
#X connect 217 5 147 0;
#X connect 217 6 149 1;
#X connect 217 7 171 1;
#X connect 217 8 204 0;
#X connect 217 9 209 0;
#X connect 218 0 205 0;
#X connect 219 0 82 0;
#X connect 220 0 83 0;
#X connect 221 0 245 0;
#X connect 222 0 223 0;
#X connect 223 0 20 0;
#X connect 225 0 244 0;
#X connect 226 0 243 0;
#X connect 227 0 229 0;
#X connect 228 0 230 0;
#X connect 229 0 20 0;
#X connect 230 0 20 0;
#X connect 231 0 237 0;
#X connect 232 0 238 0;
#X connect 233 0 239 0;
#X connect 234 0 240 0;
#X connect 235 0 241 0;
#X connect 236 0 242 0;
#X connect 237 0 20 0;
#X connect 238 0 20 0;
#X connect 239 0 20 0;
#X connect 240 0 20 0;
#X connect 241 0 20 0;
#X connect 242 0 20 0;
#X connect 243 0 20 0;
#X connect 244 0 20 0;
#X connect 245 0 20 0;
#X connect 246 0 174 0;
#X connect 247 0 172 0;
#X connect 248 0 172 0;
#X connect 249 0 262 8;
#X connect 250 0 262 2;
#X connect 251 0 262 3;
#X connect 252 0 262 6;
#X connect 253 0 262 7;
#X connect 254 0 262 10;
#X connect 255 0 262 11;
#X connect 256 0 262 0;
#X connect 257 0 262 9;
#X connect 258 0 262 1;
#X connect 259 0 262 4;
#X connect 260 0 262 5;
#X connect 261 0 262 12;
#X connect 264 0 75 0;
#X connect 265 0 76 0;
#X connect 266 0 74 0;
#X connect 267 0 73 0;
#X connect 268 0 72 0;
#X connect 269 0 126 0;
#X connect 270 0 137 0;
#X connect 271 0 83 0;
#X connect 272 0 179 0;
#X connect 273 0 82 0;
#X connect 274 0 218 0;
#X connect 275 0 195 0;
#X connect 276 0 145 0;
#X connect 277 0 173 0;
#X connect 278 0 160 0;
#X connect 279 0 85 0;
#X connect 280 0 86 0;
#X connect 281 0 99 0;
#X connect 282 0 13 0;
#X connect 283 0 284 0;
#X connect 284 0 10 0;
#X connect 285 0 20 0;
#X connect 286 0 56 0;
#X connect 287 0 22 0;
#X coords 0 -1 1 1 730 690 1 100 100;
