#N canvas 0 0 450 271 10;
#X obj 1266 147 pack;
#X obj 1295 183 s \$0-oscms;
#X msg 1317 148 alloscs \$1 \$2;
#X floatatom 1262 76 5 0 0 0 - - -;
#X obj 1021 500 output~;
#X obj 1025 -160 r \$0-oscms;
#X obj 1272 265 pack;
#X floatatom 1357 202 5 0 0 0 - - -;
#X obj 1301 301 s \$0-oscmss;
#X obj 1091 -67 r \$0-oscmss;
#X floatatom 1430 26 5 0 0 0 - - -;
#X msg 1323 266 alloscss \$1 \$2;
#X obj 1434 70 - 14;
#N canvas 0 0 1920 956 as 0;
#X obj 209 178 hsl 128 15 0 12 0 0 empty empty empty -2 -8 0 10 -204786
-1 -1 0 1;
#X floatatom 537 302 5 0 0 0 - - -;
#X msg 598 301 ratio \$1;
#X obj 123 120 hsl 128 15 0 4 0 0 empty empty empty -2 -8 0 10 -204800
-1 -1 0 1;
#X floatatom 505 239 5 0 0 0 - - -;
#X msg 566 238 level \$1;
#X obj 461 334 list prepend 1;
#X obj 464 365 route list;
#X obj 134 260 hsl 128 15 0.67125 8500 0 0 empty empty empty -2 -8
0 10 -257985 -1 -1 0 1;
#X obj 120 279 hsl 128 15 0.67125 100 0 0 empty empty empty -2 -8 0
10 -4034 -1 -1 0 1;
#X obj 133 294 hsl 128 15 0.67125 8500 0 0 empty empty empty -2 -8
0 10 -257985 -1 -1 0 1;
#X obj 120 241 hsl 128 15 0.67125 8500 0 0 empty empty empty -2 -8
0 10 -257985 -1 -1 0 1;
#X obj 721 274 pack f f f f;
#X obj 680 268 t b;
#X msg 637 338 env \$1 \$2 \$3 \$4 \$5;
#X obj 124 219 hsl 128 15 0 12 0 0 empty empty empty -2 -8 0 10 -204786
-1 -1 0 1;
#X floatatom 642 474 5 0 0 0 - - -;
#X msg 703 473 ratio \$1;
#X obj 274 159 hsl 128 15 0 4 0 0 empty empty empty -2 -8 0 10 -204800
-1 -1 0 1;
#X floatatom 610 411 5 0 0 0 - - -;
#X msg 671 410 level \$1;
#X obj 569 542 route list;
#X obj 579 578 s \$0-oscMs;
#X obj 132 333 hsl 128 15 0.67125 8500 0 0 empty empty empty -2 -8
0 10 -257985 -1 -1 0 1;
#X obj 120 351 hsl 128 15 0.67125 100 0 0 empty empty empty -2 -8 0
10 -4034 -1 -1 0 1;
#X obj 133 366 hsl 128 15 0.67125 8500 0 0 empty empty empty -2 -8
0 10 -257985 -1 -1 0 1;
#X obj 118 314 hsl 128 15 0.67125 8500 0 0 empty empty empty -2 -8
0 10 -257985 -1 -1 0 1;
#X obj 826 446 pack f f f f;
#X obj 785 440 t b;
#X msg 742 510 env \$1 \$2 \$3 \$4 \$5;
#X obj 268 198 hsl 128 15 0 12 0 0 empty empty empty -2 -8 0 10 -204786
-1 -1 0 1;
#X floatatom 1077 410 5 0 0 0 - - -;
#X msg 1138 409 ratio \$1;
#X obj 118 159 hsl 128 15 0 4 0 0 empty empty empty -2 -8 0 10 -204800
-1 -1 0 1;
#X floatatom 1002 360 5 0 0 0 - - -;
#X msg 1091 343 level \$1;
#X obj 1004 478 route list;
#X obj 1014 514 s \$0-oscMs;
#X obj 271 331 hsl 128 15 0.67125 8500 0 0 empty empty empty -2 -8
0 10 -257985 -1 -1 0 1;
#X obj 259 349 hsl 128 15 0.67125 100 0 0 empty empty empty -2 -8 0
10 -4034 -1 -1 0 1;
#X obj 272 364 hsl 128 15 0.67125 8500 0 0 empty empty empty -2 -8
0 10 -257985 -1 -1 0 1;
#X obj 257 312 hsl 128 15 0.67125 8500 0 0 empty empty empty -2 -8
0 10 -257985 -1 -1 0 1;
#X obj 1187 552 pack f f f f;
#X obj 1146 546 t b;
#X msg 1177 446 env \$1 \$2 \$3 \$4 \$5;
#X obj 121 199 hsl 128 15 0 12 0 0 empty empty empty -2 -8 0 10 -204786
-1 -1 0 1;
#X floatatom 913 133 5 0 0 0 - - -;
#X msg 974 132 ratio \$1;
#X obj 275 120 hsl 128 15 0 4 0 0 empty empty empty -2 -8 0 10 -204800
-1 -1 0 1;
#X floatatom 838 83 5 0 0 0 - - -;
#X msg 927 66 level \$1;
#X obj 840 201 route list;
#X obj 275 258 hsl 128 15 0.67125 8500 0 0 empty empty empty -2 -8
0 10 -257985 -1 -1 0 1;
#X obj 261 277 hsl 128 15 0.67125 100 0 0 empty empty empty -2 -8 0
10 -4034 -1 -1 0 1;
#X obj 274 292 hsl 128 15 0.67125 8500 0 0 empty empty empty -2 -8
0 10 -257985 -1 -1 0 1;
#X obj 261 239 hsl 128 15 0.67125 8500 0 0 empty empty empty -2 -8
0 10 -257985 -1 -1 0 1;
#X obj 1023 275 pack f f f f;
#X obj 982 269 t b;
#X msg 1013 169 env \$1 \$2 \$3 \$4 \$5;
#X obj 269 219 hsl 128 15 0 12 0 0 empty empty empty -2 -8 0 10 -204786
-1 -1 0 1;
#X floatatom 845 660 5 0 0 0 - - -;
#X msg 906 659 ratio \$1;
#X obj 199 140 hsl 128 15 0 4 0 0 empty empty empty -2 -8 0 10 -204800
-1 -1 0 1;
#X floatatom 770 610 5 0 0 0 - - -;
#X msg 859 593 level \$1;
#X obj 772 728 route list;
#X obj 782 764 s \$0-oscMs;
#X obj 135 411 hsl 128 15 0.67125 8500 0 0 empty empty empty -2 -8
0 10 -257985 -1 -1 0 1;
#X obj 269 385 hsl 128 15 0.67125 100 0 0 empty empty empty -2 -8 0
10 -4034 -1 -1 0 1;
#X obj 270 409 hsl 128 15 0.67125 8500 0 0 empty empty empty -2 -8
0 10 -257985 -1 -1 0 1;
#X obj 124 387 hsl 128 15 0.67125 8500 0 0 empty empty empty -2 -8
0 10 -257985 -1 -1 0 1;
#X obj 955 802 pack f f f f;
#X obj 914 796 t b;
#X msg 945 696 env \$1 \$2 \$3 \$4 \$5;
#X obj 1001 447 list prepend 5;
#X obj 837 170 list prepend 2;
#X obj 566 511 list prepend 3;
#X obj 769 697 list prepend 4;
#X obj 96 513 cyclone/bucket 15;
#X obj 96 551 motex/shuffle 0.5 101 100;
#X obj 96 579 cyclone/bucket 5;
#X obj 99 641 cyclone/bucket 5;
#X obj 102 712 cyclone/bucket 5;
#X obj 102 684 motex/shuffle 0.005 12 13;
#X obj 446 718 bng 15 250 50 0 empty empty empty 17 7 0 10 -262144
-1 -1;
#X obj 468 686 inlet;
#X obj 410 751 t b b b b b b b b b b b b;
#X obj 93 490 motex/shuffle 0.5 7005 5000;
#X obj -13 610 motex/shuffle 0 5 4;
#X obj 457 450 s \$0-oscmss;
#X obj 850 237 s \$0-oscms;
#X connect 0 0 1 0;
#X connect 1 0 2 0;
#X connect 2 0 6 0;
#X connect 3 0 4 0;
#X connect 4 0 5 0;
#X connect 5 0 6 0;
#X connect 6 0 7 0;
#X connect 7 0 89 0;
#X connect 8 0 12 2;
#X connect 8 0 13 0;
#X connect 9 0 12 1;
#X connect 9 0 13 0;
#X connect 10 0 12 0;
#X connect 10 0 13 0;
#X connect 11 0 12 3;
#X connect 11 0 13 0;
#X connect 12 0 14 0;
#X connect 13 0 12 0;
#X connect 14 0 6 0;
#X connect 15 0 16 0;
#X connect 16 0 17 0;
#X connect 17 0 76 0;
#X connect 18 0 19 0;
#X connect 19 0 20 0;
#X connect 20 0 76 0;
#X connect 21 0 22 0;
#X connect 23 0 27 2;
#X connect 23 0 28 0;
#X connect 24 0 27 1;
#X connect 24 0 28 0;
#X connect 25 0 27 0;
#X connect 25 0 28 0;
#X connect 26 0 27 3;
#X connect 26 0 28 0;
#X connect 27 0 29 0;
#X connect 28 0 27 0;
#X connect 29 0 76 0;
#X connect 30 0 31 0;
#X connect 31 0 32 0;
#X connect 32 0 74 0;
#X connect 33 0 34 0;
#X connect 34 0 35 0;
#X connect 35 0 74 0;
#X connect 36 0 37 0;
#X connect 38 0 42 2;
#X connect 38 0 43 0;
#X connect 39 0 42 1;
#X connect 39 0 43 0;
#X connect 40 0 42 0;
#X connect 40 0 43 0;
#X connect 41 0 42 3;
#X connect 41 0 43 0;
#X connect 42 0 44 0;
#X connect 43 0 42 0;
#X connect 44 0 74 0;
#X connect 45 0 46 0;
#X connect 46 0 47 0;
#X connect 47 0 75 0;
#X connect 48 0 49 0;
#X connect 49 0 50 0;
#X connect 50 0 75 0;
#X connect 51 0 90 0;
#X connect 52 0 56 2;
#X connect 52 0 57 0;
#X connect 53 0 56 1;
#X connect 53 0 57 0;
#X connect 54 0 56 0;
#X connect 54 0 57 0;
#X connect 55 0 56 3;
#X connect 55 0 57 0;
#X connect 56 0 58 0;
#X connect 57 0 56 0;
#X connect 58 0 75 0;
#X connect 59 0 60 0;
#X connect 60 0 61 0;
#X connect 61 0 77 0;
#X connect 62 0 63 0;
#X connect 63 0 64 0;
#X connect 64 0 77 0;
#X connect 65 0 66 0;
#X connect 67 0 71 2;
#X connect 67 0 72 0;
#X connect 68 0 71 1;
#X connect 68 0 72 0;
#X connect 69 0 71 0;
#X connect 69 0 72 0;
#X connect 70 0 71 3;
#X connect 70 0 72 0;
#X connect 71 0 73 0;
#X connect 72 0 71 0;
#X connect 73 0 77 0;
#X connect 74 0 36 0;
#X connect 75 0 51 0;
#X connect 76 0 21 0;
#X connect 77 0 65 0;
#X connect 78 0 11 0;
#X connect 78 1 8 0;
#X connect 78 2 10 0;
#X connect 78 3 26 0;
#X connect 78 4 23 0;
#X connect 78 5 25 0;
#X connect 78 6 70 0;
#X connect 78 7 67 0;
#X connect 78 8 69 0;
#X connect 78 9 40 0;
#X connect 78 10 38 0;
#X connect 78 11 41 0;
#X connect 78 12 54 0;
#X connect 78 13 52 0;
#X connect 78 14 55 0;
#X connect 79 0 80 0;
#X connect 80 0 9 0;
#X connect 80 1 53 0;
#X connect 80 2 24 0;
#X connect 80 3 39 0;
#X connect 80 4 68 0;
#X connect 81 0 3 0;
#X connect 81 1 62 0;
#X connect 81 2 48 0;
#X connect 81 3 18 0;
#X connect 81 4 33 0;
#X connect 82 0 15 0;
#X connect 82 1 45 0;
#X connect 82 2 30 0;
#X connect 82 3 59 0;
#X connect 82 4 0 0;
#X connect 83 0 82 0;
#X connect 84 0 86 0;
#X connect 85 0 84 0;
#X connect 86 0 83 0;
#X connect 86 1 87 0;
#X connect 86 2 87 0;
#X connect 86 3 88 0;
#X connect 86 4 79 0;
#X connect 86 5 87 0;
#X connect 86 6 88 0;
#X connect 86 7 79 0;
#X connect 86 8 88 0;
#X connect 86 9 79 0;
#X connect 86 10 87 0;
#X connect 86 11 87 0;
#X connect 87 0 78 0;
#X connect 88 0 81 0;
#X restore 768 495 pd as;
#X obj 765 474 bng 15 250 50 0 empty empty empty 17 7 0 10 -262144
-1 -1;
#X obj 1250 115 makenote 100 3250;
#X obj 1256 233 makenote 100 4500;
#X obj 619 138 mux~ . . . . .;
#X obj 591 254 demux~ . . . . .;
#X obj 443 427 mux~ . . . . .;
#X obj 749 438 mux~ . . . . .;
#X obj 754 287 mux~ . . . . .;
#X obj 647 49 mux~ . . . . .;
#X obj 458 242 mux~ . . . . .;
#X obj 516 290 demux~ . . . . .;
#X obj 501 335 demux~ . . . . .;
#X obj 527 389 demux~ . . . . .;
#X obj 604 475 demux~ . . . . .;
#X obj 697 183 demux~ . . . . .;
#X obj 1023 -26 oso;
#X obj 996 -81 oso;
#X obj 981 -131 oso;
#X obj 956 -182 oso;
#X obj 927 -224 oso;
#X obj 895 -284 oso;
#X obj 1081 -124 r \$0-ss;
#X obj 1399 379 pack;
#X floatatom 1484 316 5 0 0 0 - - -;
#X obj 1428 415 s \$0-oscmss;
#X obj 1383 347 makenote 100 4500;
#X msg 1450 380 alloscsss \$1 \$2;
#X obj 1474 179 + 8;
#X floatatom 312 327 5 0 0 0 - - -;
#X floatatom 379 115 5 0 0 0 - - -;
#X floatatom 489 105 5 0 0 0 - - -;
#X floatatom 334 260 5 0 0 0 - - -;
#X floatatom 329 181 5 0 0 0 - - -;
#X obj 255 22 cyclone/bucket 6;
#X floatatom 450 350 5 0 0 0 - - -;
#X obj 281 -37 t b b b b b b b;
#X obj 338 -105 bng 15 250 50 0 empty empty empty 17 7 0 10 -262144
-1 -1;
#X floatatom 411 42 5 0 0 0 - - -;
#X floatatom 445 165 5 0 0 0 - - -;
#X floatatom 547 105 5 0 0 0 - - -;
#X floatatom 496 144 5 0 0 0 - - -;
#X floatatom 583 87 5 0 0 0 - - -;
#X obj 421 -1 cyclone/bucket 6;
#X floatatom 622 18 5 0 0 0 - - -;
#X obj 447 -60 t b b b b b b b;
#X obj 348 -76 t b b b;
#X obj 258 -3 motex/shuffle 0 5 5;
#X obj 424 -26 motex/shuffle 0 6 5;
#X text 471 -90 mux;
#X text 257 -74 demux;
#X text 945 147 I n t e r c o n e c t;
#X text 641 -224 m i x;
#X obj 282 -178 inlet;
#X connect 0 0 2 0;
#X connect 2 0 1 0;
#X connect 3 0 15 0;
#X connect 5 0 31 1;
#X connect 5 0 33 1;
#X connect 6 0 11 0;
#X connect 7 0 16 0;
#X connect 9 0 29 1;
#X connect 9 0 34 1;
#X connect 10 0 3 0;
#X connect 10 0 12 0;
#X connect 10 0 41 0;
#X connect 11 0 8 0;
#X connect 12 0 7 0;
#X connect 14 0 13 0;
#X connect 15 0 0 0;
#X connect 15 1 0 1;
#X connect 16 0 6 0;
#X connect 16 1 6 1;
#X connect 17 0 34 0;
#X connect 18 0 29 0;
#X connect 18 1 30 0;
#X connect 18 2 31 0;
#X connect 18 3 32 0;
#X connect 18 4 33 0;
#X connect 19 0 30 0;
#X connect 20 0 31 0;
#X connect 21 0 32 0;
#X connect 22 0 33 0;
#X connect 23 0 29 0;
#X connect 24 0 34 0;
#X connect 24 1 29 0;
#X connect 24 2 30 0;
#X connect 24 3 31 0;
#X connect 24 4 32 0;
#X connect 25 0 34 0;
#X connect 25 1 33 0;
#X connect 25 2 30 0;
#X connect 25 3 31 0;
#X connect 25 4 29 0;
#X connect 26 0 34 0;
#X connect 26 1 33 0;
#X connect 26 2 32 0;
#X connect 26 3 29 0;
#X connect 26 4 30 0;
#X connect 27 0 34 0;
#X connect 27 1 33 0;
#X connect 27 2 32 0;
#X connect 27 3 31 0;
#X connect 27 4 29 0;
#X connect 28 0 34 0;
#X connect 28 1 33 0;
#X connect 28 2 32 0;
#X connect 28 3 31 0;
#X connect 28 4 30 0;
#X connect 29 0 28 0;
#X connect 29 0 22 1;
#X connect 29 0 21 4;
#X connect 29 0 20 0;
#X connect 29 0 19 4;
#X connect 29 0 17 4;
#X connect 30 0 27 0;
#X connect 30 0 22 2;
#X connect 30 0 21 3;
#X connect 30 0 20 1;
#X connect 30 0 23 0;
#X connect 30 0 17 3;
#X connect 31 0 26 0;
#X connect 31 0 22 3;
#X connect 31 0 21 2;
#X connect 31 0 23 1;
#X connect 31 0 19 2;
#X connect 31 0 17 2;
#X connect 32 0 25 0;
#X connect 32 0 22 4;
#X connect 32 0 20 2;
#X connect 32 0 23 2;
#X connect 32 0 19 1;
#X connect 32 0 17 1;
#X connect 33 0 24 0;
#X connect 33 0 21 0;
#X connect 33 0 20 3;
#X connect 33 0 23 3;
#X connect 33 0 19 3;
#X connect 33 0 17 0;
#X connect 34 0 18 0;
#X connect 34 0 22 0;
#X connect 34 0 21 1;
#X connect 34 0 20 4;
#X connect 34 0 23 4;
#X connect 34 0 19 0;
#X connect 35 0 30 1;
#X connect 35 0 32 1;
#X connect 36 0 40 0;
#X connect 37 0 39 0;
#X connect 39 0 36 0;
#X connect 39 1 36 1;
#X connect 40 0 38 0;
#X connect 41 0 37 0;
#X connect 42 0 27 0;
#X connect 43 0 28 0;
#X connect 44 0 18 0;
#X connect 45 0 25 0;
#X connect 46 0 24 0;
#X connect 47 0 42 0;
#X connect 47 1 43 0;
#X connect 47 2 44 0;
#X connect 47 3 45 0;
#X connect 47 4 46 0;
#X connect 47 5 48 0;
#X connect 48 0 26 0;
#X connect 49 0 60 0;
#X connect 49 1 60 0;
#X connect 49 2 60 0;
#X connect 49 3 60 0;
#X connect 49 4 60 0;
#X connect 49 5 60 0;
#X connect 49 6 60 0;
#X connect 50 0 59 0;
#X connect 51 0 19 0;
#X connect 52 0 20 0;
#X connect 53 0 21 0;
#X connect 54 0 23 0;
#X connect 55 0 17 0;
#X connect 56 0 51 0;
#X connect 56 1 52 0;
#X connect 56 2 53 0;
#X connect 56 3 54 0;
#X connect 56 4 55 0;
#X connect 56 5 57 0;
#X connect 57 0 22 0;
#X connect 58 0 61 0;
#X connect 58 1 61 0;
#X connect 58 2 61 0;
#X connect 58 3 61 0;
#X connect 58 4 61 0;
#X connect 58 5 61 0;
#X connect 58 6 61 0;
#X connect 59 0 58 0;
#X connect 59 1 49 0;
#X connect 59 2 58 0;
#X connect 60 0 47 0;
#X connect 61 0 56 0;
#X connect 66 0 50 0;
