#N canvas 0 0 450 271 10;
#X obj 131 57 inlet;
#X obj 265 97 outlet;
#X obj 181 69 metro;
#X obj 217 32 inlet;
#X obj 137 109 motex/shuffle 0 8 10;
#X connect 0 0 2 0;
#X connect 2 0 4 0;
#X connect 3 0 2 1;
#X connect 4 0 1 0;
