#N canvas 429 153 1429 547 12;
#X floatatom 465 109 5 0 0 0 - - -;
#X obj 483 161 spigot;
#X floatatom 480 185 5 0 0 0 - - -;
#X obj 520 186 tgl 15 0 empty empty empty 17 7 0 10 -262144 -1 -1 0
1;
#X obj 435 162 spigot;
#X floatatom 437 186 5 0 0 0 - - -;
#X obj 464 135 t f f f f;
#X obj 539 186 tgl 15 0 empty empty empty 17 7 0 10 -262144 -1 -1 0
1;
#X obj 581 161 sel 60;
#X obj 533 161 sel 20;
#X obj 437 208 sel 10;
#X msg 437 231 10;
#X obj 469 81 inlet;
#X obj 499 213 outlet;
#X text 545 213 to randy;
#X obj 353 209 outlet;
#X text 325 228 minus da bear;
#X obj 611 46 loadbang;
#X msg 611 69 1;
#X msg 634 95 140;
#X obj 525 88 sel 140;
#X connect 0 0 6 0;
#X connect 0 0 20 0;
#X connect 1 0 2 0;
#X connect 2 0 13 0;
#X connect 3 0 1 1;
#X connect 4 0 5 0;
#X connect 5 0 10 0;
#X connect 5 0 15 0;
#X connect 6 0 4 0;
#X connect 6 1 1 0;
#X connect 6 2 9 0;
#X connect 6 3 8 0;
#X connect 7 0 4 1;
#X connect 8 0 7 0;
#X connect 9 0 3 0;
#X connect 10 0 11 0;
#X connect 11 0 2 0;
#X connect 12 0 0 0;
#X connect 17 0 18 0;
#X connect 17 0 19 0;
#X connect 18 0 3 0;
#X connect 19 0 0 0;
#X connect 20 0 18 0;
