#N canvas -9 -9 1920 976 12;
#X obj 36 74 sel 50;
#X obj 36 97 f;
#X obj 37 120 + 1;
#X obj 111 217 spigot;
#X floatatom 63 98 5 0 0 0 - - -;
#X msg 145 195 0;
#X msg 184 196 1;
#X obj 81 75 f;
#X obj 107 76 - 1;
#X obj 80 52 sel 49;
#X obj 144 175 bng 15 250 50 0 empty empty empty 17 7 0 10 -262144
-1 -1;
#X floatatom 110 241 5 0 0 0 - - -;
#X obj 197 150 sel 99;
#X obj 166 173 sel 0;
#X obj 105 98 max 0;
#X text 146 244 TOP LIMITS!!;
#X obj 109 263 / 100;
#X floatatom 109 287 5 0 0 0 - - -;
#X obj 128 148 sel 102;
#X obj 27 51 *;
#X obj 57 53 tgl 15 0 empty empty empty 17 7 0 10 -262144 -1 -1 1 1
;
#X obj 111 316 outlet;
#X obj 22 0 r masrefri;
#X obj 51 28 r menosrefri;
#X obj 140 39 bng 15 250 50 0 empty empty empty 17 7 0 10 -262144 -1
-1;
#X msg 12 29 50;
#X msg 140 59 49;
#X obj 258 65 r refluii;
#X obj 329 65 r recolll;
#X obj 398 65 r toksss;
#X obj 203 65 r amalo;
#X obj 203 88 * 100;
#X obj 255 91 * 100;
#X obj 329 92 * 100;
#X obj 395 95 * 100;
#X obj 62 120 t f f f f f f f;
#X obj 200 125 sel 100;
#X connect 0 0 1 0;
#X connect 1 0 2 0;
#X connect 2 0 4 0;
#X connect 3 0 11 0;
#X connect 4 0 35 0;
#X connect 5 0 3 1;
#X connect 5 0 20 0;
#X connect 6 0 3 1;
#X connect 6 0 20 0;
#X connect 7 0 8 0;
#X connect 8 0 14 0;
#X connect 9 0 7 0;
#X connect 10 0 5 0;
#X connect 11 0 16 0;
#X connect 12 0 6 0;
#X connect 13 0 6 0;
#X connect 14 0 4 0;
#X connect 16 0 17 0;
#X connect 17 0 21 0;
#X connect 18 0 10 0;
#X connect 19 0 0 0;
#X connect 20 0 19 1;
#X connect 22 0 25 0;
#X connect 23 0 24 0;
#X connect 24 0 26 0;
#X connect 25 0 19 0;
#X connect 26 0 9 0;
#X connect 27 0 32 0;
#X connect 28 0 33 0;
#X connect 29 0 34 0;
#X connect 30 0 31 0;
#X connect 31 0 4 0;
#X connect 32 0 4 0;
#X connect 33 0 4 0;
#X connect 34 0 4 0;
#X connect 35 0 1 1;
#X connect 35 1 7 1;
#X connect 35 2 18 0;
#X connect 35 3 3 0;
#X connect 35 4 13 0;
#X connect 35 5 12 0;
#X connect 35 6 36 0;
#X connect 36 0 10 0;
