#N canvas 848 170 898 632 10;
#X floatatom 484 83 9 0 0 0 - - -;
#X obj 78 271 line 0 10;
#X obj 490 366 line 0 10;
#X obj 487 152 tgl 15 0 empty empty empty 17 7 0 10 -262144 -1 -1 0
1;
#X obj 580 161 tgl 15 0 empty empty empty 17 7 0 10 -262144 -1 -1 0
1;
#X obj 699 165 tgl 15 0 empty empty empty 17 7 0 10 -262144 -1 -1 0
1;
#X obj -41 429 tgl 15 0 empty empty empty 17 7 0 10 -262144 -1 -1 0
1;
#X obj 154 181 metro \$1;
#X obj 487 270 metro \$1;
#X obj 595 216 metro \$1;
#X obj 700 208 metro \$1;
#X obj -73 491 metro \$1;
#X obj 450 304 shuffle 0 1250 1200;
#X obj 77 317 s time;
#X obj 585 249 random 9900;
#X obj 444 390 s witm;
#X obj 643 277 s lol;
#X obj 377 271 s lmao;
#X obj 255 255 s lola;
#X obj 587 89 * 8;
#X obj 372 145 tgl 15 0 empty empty empty 17 7 0 10 -262144 -1 -1 0
1;
#X obj 387 197 metro \$1;
#X obj 369 233 random 9900;
#X obj 260 155 tgl 15 0 empty empty empty 17 7 0 10 -262144 -1 -1 0
1;
#X obj 257 181 metro \$1;
#X obj 498 473 metro \$1;
#X obj 461 507 shuffle 0 1250 1200;
#X obj 497 442 tgl 15 0 empty empty empty 17 7 0 10 -262144 -1 -1 0
1;
#X obj 533 442 + 23;
#X obj 463 548 s witt;
#X obj 153 153 tgl 15 0 empty empty empty 17 7 0 10 -262144 -1 -1 0
1;
#X obj -46 566 s carro;
#X obj 72 520 s nuevo;
#X obj 474 30 inlet;
#X obj 144 99 inlet;
#X obj 250 117 inlet;
#X obj 336 103 inlet;
#X obj 440 124 inlet;
#X obj 636 131 inlet;
#X obj 21 414 tgl 15 0 empty empty empty 17 7 0 10 -262144 -1 -1 0
1;
#X obj 28 454 metro \$1;
#X obj 29 491 shuffle -198 190 80;
#X obj 693 131 inlet;
#X obj 698 280 s sama;
#X obj -79 399 inlet;
#X obj 35 372 inlet;
#X obj 503 404 inlet;
#X obj 234 540 s vo;
#X obj 181 538 line;
#X obj 219 472 sel 0 1;
#X obj 174 471 % 2;
#X obj 176 441 f;
#X obj 220 439 + 1;
#X obj 185 410 bng 15 250 50 0 empty empty empty 17 7 0 10 -262144
-1 -1;
#X obj 275 352 inlet;
#X obj 97 357 tgl 15 0 empty empty empty 17 7 0 10 -262144 -1 -1 0
1;
#X obj 104 397 metro \$1;
#X obj 334 524 line;
#X obj 372 458 sel 0 1;
#X obj 327 457 % 2;
#X obj 329 427 f;
#X obj 373 425 + 1;
#X obj 338 396 bng 15 250 50 0 empty empty empty 17 7 0 10 -262144
-1 -1;
#X obj 387 526 s vol;
#X obj 312 313 inlet;
#X obj 367 322 tgl 15 0 empty empty empty 17 7 0 10 -262144 -1 -1 0
1;
#X obj 374 362 metro \$1;
#X msg 315 494 0.2 12;
#X msg 385 495 0 \, 594 90;
#X msg 162 508 0 12;
#X msg 232 509 0.048 10;
#X obj 661 524 line;
#X obj 699 458 sel 0 1;
#X obj 654 457 % 2;
#X obj 656 427 f;
#X obj 700 425 + 1;
#X obj 665 396 bng 15 250 50 0 empty empty empty 17 7 0 10 -262144
-1 -1;
#X obj 698 386 metro \$1;
#X obj 697 355 tgl 15 0 empty empty empty 17 7 0 10 -262144 -1 -1 0
1;
#X obj 834 296 inlet;
#X obj 489 114 t f f f f f f f f f f f f;
#X obj 714 526 s sweepo;
#X msg 642 494 -24 350;
#X msg 712 495 150 500;
#X obj 733 355 * 1.5;
#X obj 239 217 random 3900;
#X obj 677 245 random 2500;
#X obj -54 527 shuffle -2 499 480;
#X obj 141 217 random 54500;
#X connect 0 0 19 0;
#X connect 1 0 13 0;
#X connect 2 0 15 0;
#X connect 3 0 8 0;
#X connect 4 0 9 0;
#X connect 5 0 10 0;
#X connect 6 0 11 0;
#X connect 7 0 88 0;
#X connect 8 0 12 0;
#X connect 9 0 14 0;
#X connect 10 0 86 0;
#X connect 11 0 87 0;
#X connect 12 0 2 0;
#X connect 14 0 16 0;
#X connect 19 0 80 0;
#X connect 20 0 21 0;
#X connect 21 0 22 0;
#X connect 22 0 17 0;
#X connect 23 0 24 0;
#X connect 24 0 85 0;
#X connect 25 0 26 0;
#X connect 26 0 29 0;
#X connect 27 0 25 0;
#X connect 28 0 25 1;
#X connect 30 0 7 0;
#X connect 33 0 0 0;
#X connect 34 0 30 0;
#X connect 35 0 23 0;
#X connect 36 0 20 0;
#X connect 37 0 3 0;
#X connect 38 0 4 0;
#X connect 39 0 40 0;
#X connect 40 0 41 0;
#X connect 41 0 32 0;
#X connect 42 0 5 0;
#X connect 44 0 6 0;
#X connect 45 0 39 0;
#X connect 46 0 27 0;
#X connect 48 0 47 0;
#X connect 49 0 69 0;
#X connect 49 1 70 0;
#X connect 50 0 49 0;
#X connect 51 0 52 0;
#X connect 51 0 50 0;
#X connect 52 0 51 1;
#X connect 53 0 51 0;
#X connect 54 0 55 0;
#X connect 55 0 56 0;
#X connect 56 0 53 0;
#X connect 57 0 63 0;
#X connect 58 0 67 0;
#X connect 58 1 68 0;
#X connect 59 0 58 0;
#X connect 60 0 61 0;
#X connect 60 0 59 0;
#X connect 61 0 60 1;
#X connect 62 0 60 0;
#X connect 64 0 65 0;
#X connect 65 0 66 0;
#X connect 66 0 62 0;
#X connect 67 0 57 0;
#X connect 68 0 57 0;
#X connect 69 0 48 0;
#X connect 70 0 48 0;
#X connect 71 0 81 0;
#X connect 72 0 82 0;
#X connect 72 1 83 0;
#X connect 73 0 72 0;
#X connect 74 0 75 0;
#X connect 74 0 73 0;
#X connect 75 0 74 1;
#X connect 76 0 74 0;
#X connect 77 0 76 0;
#X connect 78 0 77 0;
#X connect 79 0 78 0;
#X connect 80 0 7 1;
#X connect 80 1 8 1;
#X connect 80 2 9 1;
#X connect 80 3 10 1;
#X connect 80 4 11 1;
#X connect 80 5 21 1;
#X connect 80 6 24 1;
#X connect 80 7 28 0;
#X connect 80 8 40 1;
#X connect 80 9 56 1;
#X connect 80 10 66 1;
#X connect 80 11 84 0;
#X connect 82 0 71 0;
#X connect 83 0 71 0;
#X connect 84 0 77 1;
#X connect 85 0 18 0;
#X connect 86 0 43 0;
#X connect 87 0 31 0;
#X connect 88 0 1 0;
